<svg width="54" height="57" viewBox="0 0 54 57" fill="none" xmlns="http://www.w3.org/2000/svg">
<path d="M33.0471 54.9031C31.4394 47.2341 25.4451 41.2399 17.776 39.6324C16.8346 39.435 16.1602 38.6046 16.1602 37.6424C16.1602 36.6802 16.8346 35.8499 17.7761 35.6525C25.4451 34.045 31.4392 28.0507 33.0467 20.3817C33.244 19.4402 34.0745 18.7656 35.0366 18.7656C35.9986 18.7656 36.8291 19.44 37.0264 20.3817C38.6341 28.0506 44.6282 34.0446 52.2972 35.6522C53.2388 35.8495 53.9133 36.6798 53.9133 37.642C53.9133 38.6041 53.2389 39.4346 52.2972 39.6319C44.6282 41.2396 38.6341 47.234 37.0268 54.903C36.8295 55.8445 35.9991 56.5191 35.0369 56.5191C34.0749 56.5189 33.2444 55.8445 33.0471 54.9031Z" fill="#FFD93B"/>
<path d="M9.10368 18.1158C8.29983 14.2812 5.30269 11.2841 1.46809 10.4804C0.997366 10.3816 0.660157 9.96645 0.660157 9.48535C0.660157 9.00425 0.997366 8.58907 1.46815 8.4904C5.30269 7.68661 8.29977 4.68947 9.1035 0.85493C9.20216 0.384146 9.6174 0.0468746 10.0984 0.0468746C10.5795 0.0468746 10.9947 0.384084 11.0934 0.85493C11.8972 4.68941 14.8943 7.68642 18.7289 8.49021C19.1996 8.58888 19.5369 9.00406 19.5369 9.48516C19.5369 9.9662 19.1997 10.3814 18.7289 10.4801C14.8943 11.284 11.8972 14.2812 11.0936 18.1157C10.9949 18.5865 10.5797 18.9238 10.0986 18.9238C9.61759 18.9237 9.20235 18.5865 9.10368 18.1158Z" fill="#FFB030"/>
</svg>
