<svg width="34" height="36" viewBox="0 0 34 36" fill="none" xmlns="http://www.w3.org/2000/svg">
<path d="M13.7074 34.914C14.7122 30.1209 18.4586 26.3745 23.2518 25.3699C23.8402 25.2465 24.2617 24.7275 24.2617 24.1261C24.2617 23.5247 23.8402 23.0058 23.2517 22.8824C18.4586 21.8777 14.7123 18.1313 13.7076 13.3382C13.5843 12.7497 13.0653 12.3281 12.464 12.3281C11.8627 12.3281 11.3436 12.7496 11.2203 13.3382C10.2155 18.1312 6.46917 21.8775 1.67603 22.8822C1.08756 23.0055 0.665975 23.5245 0.665975 24.1259C0.665975 24.7272 1.08748 25.2462 1.67603 25.3696C6.46917 26.3744 10.2155 30.1208 11.2201 34.914C11.3434 35.5024 11.8624 35.924 12.4637 35.924C13.065 35.9239 13.5841 35.5024 13.7074 34.914Z" fill="#FFD93B"/>
<path d="M28.6681 11.9259C29.1705 9.52928 31.0437 7.65607 33.4404 7.15374C33.7346 7.09203 33.9453 6.83255 33.9453 6.53186C33.9453 6.23117 33.7346 5.97168 33.4403 5.91002C31.0437 5.40764 29.1706 3.53443 28.6682 1.13785C28.6066 0.843607 28.347 0.632812 28.0464 0.632812C27.7457 0.632812 27.4862 0.843568 27.4245 1.13785C26.9221 3.5344 25.049 5.40753 22.6524 5.9099C22.3581 5.97157 22.1473 6.23105 22.1473 6.53174C22.1473 6.83239 22.3581 7.09192 22.6524 7.15358C25.049 7.65599 26.9221 9.52924 27.4244 11.9258C27.4861 12.2201 27.7456 12.4309 28.0463 12.4309C28.3469 12.4308 28.6064 12.2201 28.6681 11.9259Z" fill="#FFB030"/>
</svg>
