<svg width="696" height="478" viewBox="0 0 696 478" fill="none" xmlns="http://www.w3.org/2000/svg">
<g opacity="0.12" filter="url(#filter0_f_13757_45908)">
<rect x="104" y="130" width="488" height="244" rx="32" fill="black"/>
</g>
<rect x="73" width="550" height="320" rx="32" fill="white"/>
<path d="M263.895 202.919V205.547H237.091V202.919H263.895ZM263.895 208.595V211.223H237.091V208.595H263.895ZM261.754 193.091V220H256.839L245.146 203.064H244.935V220H239.259V193.091H244.239L255.867 210.014H256.091V193.091H261.754ZM286.955 193.091V220H281.265V198.491H281.108L274.945 202.354V197.309L281.607 193.091H286.955ZM303.178 220.368C301.321 220.368 299.666 220.026 298.212 219.343C296.766 218.66 295.619 217.718 294.769 216.518C293.919 215.318 293.477 213.943 293.442 212.392H298.96C299.022 213.435 299.46 214.28 300.274 214.928C301.089 215.576 302.057 215.901 303.178 215.901C304.072 215.901 304.86 215.703 305.543 215.309C306.235 214.906 306.774 214.35 307.159 213.641C307.554 212.922 307.751 212.099 307.751 211.17C307.751 210.224 307.549 209.392 307.146 208.674C306.752 207.956 306.205 207.395 305.504 206.992C304.803 206.589 304.002 206.383 303.099 206.375C302.311 206.375 301.545 206.537 300.8 206.861C300.064 207.185 299.49 207.627 299.079 208.188L294.02 207.281L295.295 193.091H311.745V197.742H299.985L299.289 204.483H299.447C299.92 203.817 300.634 203.265 301.588 202.827C302.543 202.389 303.612 202.17 304.794 202.17C306.415 202.17 307.86 202.551 309.13 203.313C310.4 204.075 311.403 205.122 312.139 206.453C312.875 207.776 313.238 209.3 313.23 211.026C313.238 212.839 312.818 214.451 311.968 215.861C311.127 217.263 309.949 218.366 308.434 219.172C306.927 219.969 305.175 220.368 303.178 220.368ZM322.467 216.321L322.322 217.766C322.208 218.923 321.989 220.074 321.665 221.222C321.35 222.378 321.017 223.425 320.666 224.362C320.325 225.299 320.049 226.035 319.839 226.57H316.212C316.344 226.053 316.523 225.33 316.751 224.402C316.979 223.482 317.193 222.448 317.395 221.301C317.596 220.153 317.723 218.984 317.776 217.793L317.842 216.321H322.467ZM336.998 220.591C334.739 220.583 332.794 220.026 331.165 218.923C329.544 217.819 328.296 216.22 327.42 214.127C326.553 212.033 326.124 209.515 326.132 206.572C326.132 203.637 326.566 201.136 327.433 199.069C328.309 197.002 329.557 195.43 331.178 194.352C332.807 193.266 334.747 192.723 336.998 192.723C339.25 192.723 341.186 193.266 342.806 194.352C344.435 195.438 345.688 197.015 346.564 199.082C347.44 201.141 347.873 203.637 347.865 206.572C347.865 209.524 347.427 212.046 346.551 214.14C345.684 216.233 344.44 217.832 342.819 218.936C341.199 220.039 339.258 220.591 336.998 220.591ZM336.998 215.874C338.54 215.874 339.771 215.099 340.691 213.549C341.61 211.998 342.066 209.673 342.057 206.572C342.057 204.531 341.847 202.831 341.426 201.474C341.015 200.116 340.428 199.096 339.666 198.412C338.912 197.729 338.023 197.387 336.998 197.387C335.466 197.387 334.239 198.154 333.32 199.687C332.4 201.22 331.936 203.515 331.927 206.572C331.927 208.639 332.133 210.365 332.544 211.749C332.965 213.124 333.556 214.157 334.318 214.849C335.08 215.533 335.974 215.874 336.998 215.874ZM362.472 220.591C360.212 220.583 358.268 220.026 356.638 218.923C355.018 217.819 353.77 216.22 352.894 214.127C352.026 212.033 351.597 209.515 351.606 206.572C351.606 203.637 352.04 201.136 352.907 199.069C353.783 197.002 355.031 195.43 356.651 194.352C358.281 193.266 360.221 192.723 362.472 192.723C364.723 192.723 366.659 193.266 368.28 194.352C369.909 195.438 371.162 197.015 372.037 199.082C372.913 201.141 373.347 203.637 373.338 206.572C373.338 209.524 372.9 212.046 372.024 214.14C371.157 216.233 369.913 217.832 368.293 218.936C366.672 220.039 364.732 220.591 362.472 220.591ZM362.472 215.874C364.014 215.874 365.244 215.099 366.164 213.549C367.084 211.998 367.539 209.673 367.531 206.572C367.531 204.531 367.32 202.831 366.9 201.474C366.488 200.116 365.901 199.096 365.139 198.412C364.386 197.729 363.497 197.387 362.472 197.387C360.939 197.387 359.713 198.154 358.793 199.687C357.873 201.22 357.409 203.515 357.4 206.572C357.4 208.639 357.606 210.365 358.018 211.749C358.438 213.124 359.03 214.157 359.792 214.849C360.554 215.533 361.447 215.874 362.472 215.874ZM387.946 220.591C385.686 220.583 383.741 220.026 382.112 218.923C380.491 217.819 379.243 216.22 378.367 214.127C377.5 212.033 377.071 209.515 377.08 206.572C377.08 203.637 377.513 201.136 378.38 199.069C379.256 197.002 380.505 195.43 382.125 194.352C383.754 193.266 385.695 192.723 387.946 192.723C390.197 192.723 392.133 193.266 393.753 194.352C395.383 195.438 396.635 197.015 397.511 199.082C398.387 201.141 398.821 203.637 398.812 206.572C398.812 209.524 398.374 212.046 397.498 214.14C396.631 216.233 395.387 217.832 393.766 218.936C392.146 220.039 390.206 220.591 387.946 220.591ZM387.946 215.874C389.487 215.874 390.718 215.099 391.638 213.549C392.558 211.998 393.013 209.673 393.004 206.572C393.004 204.531 392.794 202.831 392.374 201.474C391.962 200.116 391.375 199.096 390.613 198.412C389.86 197.729 388.971 197.387 387.946 197.387C386.413 197.387 385.187 198.154 384.267 199.687C383.347 201.22 382.883 203.515 382.874 206.572C382.874 208.639 383.08 210.365 383.492 211.749C383.912 213.124 384.503 214.157 385.265 214.849C386.027 215.533 386.921 215.874 387.946 215.874ZM405.109 220.342C404.242 220.342 403.497 220.035 402.875 219.422C402.262 218.8 401.955 218.055 401.955 217.188C401.955 216.33 402.262 215.594 402.875 214.981C403.497 214.368 404.242 214.061 405.109 214.061C405.95 214.061 406.686 214.368 407.316 214.981C407.947 215.594 408.262 216.33 408.262 217.188C408.262 217.766 408.113 218.296 407.816 218.778C407.526 219.251 407.145 219.632 406.672 219.921C406.199 220.201 405.678 220.342 405.109 220.342ZM422.272 220.591C420.012 220.583 418.067 220.026 416.438 218.923C414.818 217.819 413.569 216.22 412.693 214.127C411.826 212.033 411.397 209.515 411.406 206.572C411.406 203.637 411.839 201.136 412.707 199.069C413.583 197.002 414.831 195.43 416.451 194.352C418.081 193.266 420.021 192.723 422.272 192.723C424.523 192.723 426.459 193.266 428.079 194.352C429.709 195.438 430.961 197.015 431.837 199.082C432.713 201.141 433.147 203.637 433.138 206.572C433.138 209.524 432.7 212.046 431.824 214.14C430.957 216.233 429.713 217.832 428.093 218.936C426.472 220.039 424.532 220.591 422.272 220.591ZM422.272 215.874C423.814 215.874 425.044 215.099 425.964 213.549C426.884 211.998 427.339 209.673 427.331 206.572C427.331 204.531 427.12 202.831 426.7 201.474C426.288 200.116 425.701 199.096 424.939 198.412C424.186 197.729 423.297 197.387 422.272 197.387C420.739 197.387 419.513 198.154 418.593 199.687C417.673 201.22 417.209 203.515 417.2 206.572C417.2 208.639 417.406 210.365 417.818 211.749C418.238 213.124 418.829 214.157 419.592 214.849C420.354 215.533 421.247 215.874 422.272 215.874ZM447.746 220.591C445.486 220.583 443.541 220.026 441.912 218.923C440.291 217.819 439.043 216.22 438.167 214.127C437.3 212.033 436.871 209.515 436.879 206.572C436.879 203.637 437.313 201.136 438.18 199.069C439.056 197.002 440.304 195.43 441.925 194.352C443.554 193.266 445.494 192.723 447.746 192.723C449.997 192.723 451.933 193.266 453.553 194.352C455.182 195.438 456.435 197.015 457.311 199.082C458.187 201.141 458.62 203.637 458.612 206.572C458.612 209.524 458.174 212.046 457.298 214.14C456.431 216.233 455.187 217.832 453.566 218.936C451.946 220.039 450.006 220.591 447.746 220.591ZM447.746 215.874C449.287 215.874 450.518 215.099 451.438 213.549C452.357 211.998 452.813 209.673 452.804 206.572C452.804 204.531 452.594 202.831 452.173 201.474C451.762 200.116 451.175 199.096 450.413 198.412C449.66 197.729 448.77 197.387 447.746 197.387C446.213 197.387 444.986 198.154 444.067 199.687C443.147 201.22 442.683 203.515 442.674 206.572C442.674 208.639 442.88 210.365 443.291 211.749C443.712 213.124 444.303 214.157 445.065 214.849C445.827 215.533 446.721 215.874 447.746 215.874Z" fill="#1EAA20"/>
<path d="M194.9 246.784H187.1V252.976H194.54V254.56H187.1V262H185.42V245.2H194.9V246.784ZM205.98 250H207.564V262H205.98V260.128C205.084 261.568 203.74 262.288 201.948 262.288C200.492 262.288 199.34 261.848 198.492 260.968C197.66 260.072 197.244 258.872 197.244 257.368V250H198.828V257.368C198.828 258.44 199.108 259.272 199.668 259.864C200.244 260.456 201.052 260.752 202.092 260.752C203.244 260.752 204.18 260.392 204.9 259.672C205.62 258.936 205.98 257.808 205.98 256.288V250ZM216.53 249.712C217.986 249.712 219.13 250.16 219.962 251.056C220.81 251.936 221.234 253.128 221.234 254.632V262H219.65V254.632C219.65 253.56 219.362 252.728 218.786 252.136C218.226 251.544 217.426 251.248 216.386 251.248C215.234 251.248 214.298 251.616 213.578 252.352C212.858 253.072 212.498 254.192 212.498 255.712V262H210.914V250H212.498V251.872C213.394 250.432 214.738 249.712 216.53 249.712ZM234.617 245.2H236.201V262H234.617V259.648C233.513 261.408 231.897 262.288 229.769 262.288C228.057 262.288 226.593 261.68 225.377 260.464C224.177 259.248 223.577 257.76 223.577 256C223.577 254.24 224.177 252.752 225.377 251.536C226.593 250.32 228.057 249.712 229.769 249.712C231.897 249.712 233.513 250.592 234.617 252.352V245.2ZM226.529 259.384C227.441 260.296 228.561 260.752 229.889 260.752C231.217 260.752 232.337 260.296 233.249 259.384C234.161 258.456 234.617 257.328 234.617 256C234.617 254.672 234.161 253.552 233.249 252.64C232.337 251.712 231.217 251.248 229.889 251.248C228.561 251.248 227.441 251.712 226.529 252.64C225.617 253.552 225.161 254.672 225.161 256C225.161 257.328 225.617 258.456 226.529 259.384ZM240.803 253.144C240.803 253.688 241.043 254.12 241.523 254.44C242.003 254.76 242.587 255.008 243.275 255.184C243.963 255.36 244.651 255.56 245.339 255.784C246.027 255.992 246.611 256.352 247.091 256.864C247.571 257.36 247.811 258.016 247.811 258.832C247.811 259.856 247.403 260.688 246.587 261.328C245.787 261.968 244.747 262.288 243.467 262.288C242.315 262.288 241.331 262.032 240.515 261.52C239.715 261.008 239.155 260.344 238.835 259.528L240.179 258.736C240.403 259.36 240.803 259.856 241.379 260.224C241.971 260.576 242.667 260.752 243.467 260.752C244.251 260.752 244.907 260.6 245.435 260.296C245.963 259.976 246.227 259.488 246.227 258.832C246.227 258.288 245.987 257.856 245.507 257.536C245.027 257.216 244.443 256.968 243.755 256.792C243.067 256.616 242.379 256.424 241.691 256.216C241.003 255.992 240.419 255.632 239.939 255.136C239.459 254.624 239.219 253.96 239.219 253.144C239.219 252.168 239.603 251.352 240.371 250.696C241.155 250.04 242.139 249.712 243.323 249.712C244.299 249.712 245.155 249.936 245.891 250.384C246.627 250.816 247.171 251.408 247.523 252.16L246.203 252.928C245.739 251.808 244.779 251.248 243.323 251.248C242.635 251.248 242.043 251.416 241.547 251.752C241.051 252.072 240.803 252.536 240.803 253.144ZM266.773 250H268.357V262H266.773V259.648C265.669 261.408 264.053 262.288 261.925 262.288C260.213 262.288 258.749 261.68 257.533 260.464C256.333 259.248 255.733 257.76 255.733 256C255.733 254.24 256.333 252.752 257.533 251.536C258.749 250.32 260.213 249.712 261.925 249.712C264.053 249.712 265.669 250.592 266.773 252.352V250ZM258.685 259.384C259.597 260.296 260.717 260.752 262.045 260.752C263.373 260.752 264.493 260.296 265.405 259.384C266.317 258.456 266.773 257.328 266.773 256C266.773 254.672 266.317 253.552 265.405 252.64C264.493 251.712 263.373 251.248 262.045 251.248C260.717 251.248 259.597 251.712 258.685 252.64C257.773 253.552 257.317 254.672 257.317 256C257.317 257.328 257.773 258.456 258.685 259.384ZM280.159 250H281.743V262H280.159V260.128C279.263 261.568 277.919 262.288 276.127 262.288C274.671 262.288 273.519 261.848 272.671 260.968C271.839 260.072 271.423 258.872 271.423 257.368V250H273.007V257.368C273.007 258.44 273.287 259.272 273.847 259.864C274.423 260.456 275.231 260.752 276.271 260.752C277.423 260.752 278.359 260.392 279.079 259.672C279.799 258.936 280.159 257.808 280.159 256.288V250ZM291.454 251.536H287.998V258.808C287.998 259.464 288.126 259.936 288.382 260.224C288.638 260.496 289.022 260.64 289.534 260.656C290.046 260.656 290.686 260.64 291.454 260.608V262C289.774 262.256 288.51 262.136 287.662 261.64C286.83 261.144 286.414 260.2 286.414 258.808V251.536H283.894V250H286.414V247.12L287.998 246.64V250H291.454V251.536ZM303.424 260.488C302.208 261.688 300.72 262.288 298.96 262.288C297.2 262.288 295.704 261.688 294.472 260.488C293.256 259.272 292.648 257.776 292.648 256C292.648 254.224 293.256 252.736 294.472 251.536C295.704 250.32 297.2 249.712 298.96 249.712C300.72 249.712 302.208 250.32 303.424 251.536C304.656 252.736 305.272 254.224 305.272 256C305.272 257.776 304.656 259.272 303.424 260.488ZM295.6 259.384C296.512 260.296 297.632 260.752 298.96 260.752C300.288 260.752 301.408 260.296 302.32 259.384C303.232 258.456 303.688 257.328 303.688 256C303.688 254.672 303.232 253.552 302.32 252.64C301.408 251.712 300.288 251.248 298.96 251.248C297.632 251.248 296.512 251.712 295.6 252.64C294.688 253.552 294.232 254.672 294.232 256C294.232 257.328 294.688 258.456 295.6 259.384ZM315.17 253.144C315.17 253.688 315.41 254.12 315.89 254.44C316.37 254.76 316.954 255.008 317.642 255.184C318.33 255.36 319.018 255.56 319.706 255.784C320.394 255.992 320.978 256.352 321.458 256.864C321.938 257.36 322.178 258.016 322.178 258.832C322.178 259.856 321.77 260.688 320.954 261.328C320.154 261.968 319.114 262.288 317.834 262.288C316.682 262.288 315.698 262.032 314.882 261.52C314.082 261.008 313.522 260.344 313.202 259.528L314.546 258.736C314.77 259.36 315.17 259.856 315.746 260.224C316.338 260.576 317.034 260.752 317.834 260.752C318.618 260.752 319.274 260.6 319.802 260.296C320.33 259.976 320.594 259.488 320.594 258.832C320.594 258.288 320.354 257.856 319.874 257.536C319.394 257.216 318.81 256.968 318.122 256.792C317.434 256.616 316.746 256.424 316.058 256.216C315.37 255.992 314.786 255.632 314.306 255.136C313.826 254.624 313.586 253.96 313.586 253.144C313.586 252.168 313.97 251.352 314.738 250.696C315.522 250.04 316.506 249.712 317.69 249.712C318.666 249.712 319.522 249.936 320.258 250.384C320.994 250.816 321.538 251.408 321.89 252.16L320.57 252.928C320.106 251.808 319.146 251.248 317.69 251.248C317.002 251.248 316.41 251.416 315.914 251.752C315.418 252.072 315.17 252.536 315.17 253.144ZM338.8 250H340.432L336.736 262H335.008L331.912 252.328L328.816 262H327.088L323.392 250H325.024L327.976 259.96L331.12 250H332.704L335.848 259.96L338.8 250ZM347.896 249.712C349.672 249.712 351.104 250.344 352.192 251.608C353.296 252.856 353.848 254.336 353.848 256.048C353.848 256.224 353.832 256.472 353.8 256.792H343.264C343.424 258.008 343.936 258.976 344.8 259.696C345.68 260.4 346.76 260.752 348.04 260.752C348.952 260.752 349.736 260.568 350.392 260.2C351.064 259.816 351.568 259.32 351.904 258.712L353.296 259.528C352.768 260.376 352.048 261.048 351.136 261.544C350.224 262.04 349.184 262.288 348.016 262.288C346.128 262.288 344.592 261.696 343.408 260.512C342.224 259.328 341.632 257.824 341.632 256C341.632 254.208 342.216 252.712 343.384 251.512C344.552 250.312 346.056 249.712 347.896 249.712ZM347.896 251.248C346.648 251.248 345.6 251.624 344.752 252.376C343.92 253.112 343.424 254.072 343.264 255.256H352.216C352.056 253.992 351.568 253.008 350.752 252.304C349.936 251.6 348.984 251.248 347.896 251.248ZM362.8 249.712C364.512 249.712 365.968 250.32 367.168 251.536C368.384 252.752 368.992 254.24 368.992 256C368.992 257.76 368.384 259.248 367.168 260.464C365.968 261.68 364.512 262.288 362.8 262.288C360.672 262.288 359.056 261.408 357.952 259.648V266.8H356.368V250H357.952V252.352C359.056 250.592 360.672 249.712 362.8 249.712ZM359.32 259.384C360.232 260.296 361.352 260.752 362.68 260.752C364.008 260.752 365.128 260.296 366.04 259.384C366.952 258.456 367.408 257.328 367.408 256C367.408 254.672 366.952 253.552 366.04 252.64C365.128 251.712 364.008 251.248 362.68 251.248C361.352 251.248 360.232 251.712 359.32 252.64C358.408 253.552 357.952 254.672 357.952 256C357.952 257.328 358.408 258.456 359.32 259.384ZM377.751 251.536H374.295V258.808C374.295 259.464 374.423 259.936 374.679 260.224C374.935 260.496 375.319 260.64 375.831 260.656C376.343 260.656 376.983 260.64 377.751 260.608V262C376.071 262.256 374.807 262.136 373.959 261.64C373.127 261.144 372.711 260.2 372.711 258.808V251.536H370.191V250H372.711V247.12L374.295 246.64V250H377.751V251.536ZM387.639 253.144C387.639 253.688 387.879 254.12 388.359 254.44C388.839 254.76 389.423 255.008 390.111 255.184C390.799 255.36 391.487 255.56 392.175 255.784C392.863 255.992 393.447 256.352 393.927 256.864C394.407 257.36 394.647 258.016 394.647 258.832C394.647 259.856 394.239 260.688 393.423 261.328C392.623 261.968 391.583 262.288 390.303 262.288C389.151 262.288 388.167 262.032 387.351 261.52C386.551 261.008 385.991 260.344 385.671 259.528L387.015 258.736C387.239 259.36 387.639 259.856 388.215 260.224C388.807 260.576 389.503 260.752 390.303 260.752C391.087 260.752 391.743 260.6 392.271 260.296C392.799 259.976 393.063 259.488 393.063 258.832C393.063 258.288 392.823 257.856 392.343 257.536C391.863 257.216 391.279 256.968 390.591 256.792C389.903 256.616 389.215 256.424 388.527 256.216C387.839 255.992 387.255 255.632 386.775 255.136C386.295 254.624 386.055 253.96 386.055 253.144C386.055 252.168 386.439 251.352 387.207 250.696C387.991 250.04 388.975 249.712 390.159 249.712C391.135 249.712 391.991 249.936 392.727 250.384C393.463 250.816 394.007 251.408 394.359 252.16L393.039 252.928C392.575 251.808 391.615 251.248 390.159 251.248C389.471 251.248 388.879 251.416 388.383 251.752C387.887 252.072 387.639 252.536 387.639 253.144ZM405.62 250H407.204V262H405.62V260.128C404.724 261.568 403.38 262.288 401.588 262.288C400.132 262.288 398.98 261.848 398.132 260.968C397.3 260.072 396.884 258.872 396.884 257.368V250H398.468V257.368C398.468 258.44 398.748 259.272 399.308 259.864C399.884 260.456 400.692 260.752 401.732 260.752C402.884 260.752 403.82 260.392 404.54 259.672C405.26 258.936 405.62 257.808 405.62 256.288V250ZM416.147 262.288C414.339 262.288 412.835 261.688 411.635 260.488C410.435 259.272 409.835 257.776 409.835 256C409.835 254.224 410.435 252.736 411.635 251.536C412.835 250.32 414.339 249.712 416.147 249.712C417.331 249.712 418.395 250 419.339 250.576C420.283 251.136 420.971 251.896 421.403 252.856L420.107 253.6C419.787 252.88 419.267 252.312 418.547 251.896C417.843 251.464 417.043 251.248 416.147 251.248C414.819 251.248 413.699 251.712 412.787 252.64C411.875 253.552 411.419 254.672 411.419 256C411.419 257.328 411.875 258.456 412.787 259.384C413.699 260.296 414.819 260.752 416.147 260.752C417.043 260.752 417.843 260.544 418.547 260.128C419.251 259.696 419.803 259.12 420.203 258.4L421.523 259.168C421.027 260.128 420.299 260.888 419.339 261.448C418.379 262.008 417.315 262.288 416.147 262.288ZM429.272 262.288C427.464 262.288 425.96 261.688 424.76 260.488C423.56 259.272 422.96 257.776 422.96 256C422.96 254.224 423.56 252.736 424.76 251.536C425.96 250.32 427.464 249.712 429.272 249.712C430.456 249.712 431.52 250 432.464 250.576C433.408 251.136 434.096 251.896 434.528 252.856L433.232 253.6C432.912 252.88 432.392 252.312 431.672 251.896C430.968 251.464 430.168 251.248 429.272 251.248C427.944 251.248 426.824 251.712 425.912 252.64C425 253.552 424.544 254.672 424.544 256C424.544 257.328 425 258.456 425.912 259.384C426.824 260.296 427.944 260.752 429.272 260.752C430.168 260.752 430.968 260.544 431.672 260.128C432.376 259.696 432.928 259.12 433.328 258.4L434.648 259.168C434.152 260.128 433.424 260.888 432.464 261.448C431.504 262.008 430.44 262.288 429.272 262.288ZM442.349 249.712C444.125 249.712 445.557 250.344 446.645 251.608C447.749 252.856 448.301 254.336 448.301 256.048C448.301 256.224 448.285 256.472 448.253 256.792H437.717C437.877 258.008 438.389 258.976 439.253 259.696C440.133 260.4 441.213 260.752 442.493 260.752C443.405 260.752 444.189 260.568 444.845 260.2C445.517 259.816 446.021 259.32 446.357 258.712L447.749 259.528C447.221 260.376 446.501 261.048 445.589 261.544C444.677 262.04 443.637 262.288 442.469 262.288C440.581 262.288 439.045 261.696 437.861 260.512C436.677 259.328 436.085 257.824 436.085 256C436.085 254.208 436.669 252.712 437.837 251.512C439.005 250.312 440.509 249.712 442.349 249.712ZM442.349 251.248C441.101 251.248 440.053 251.624 439.205 252.376C438.373 253.112 437.877 254.072 437.717 255.256H446.669C446.509 253.992 446.021 253.008 445.205 252.304C444.389 251.6 443.437 251.248 442.349 251.248ZM451.6 253.144C451.6 253.688 451.84 254.12 452.32 254.44C452.8 254.76 453.384 255.008 454.072 255.184C454.76 255.36 455.448 255.56 456.136 255.784C456.824 255.992 457.408 256.352 457.888 256.864C458.368 257.36 458.608 258.016 458.608 258.832C458.608 259.856 458.2 260.688 457.384 261.328C456.584 261.968 455.544 262.288 454.264 262.288C453.112 262.288 452.128 262.032 451.312 261.52C450.512 261.008 449.952 260.344 449.632 259.528L450.976 258.736C451.2 259.36 451.6 259.856 452.176 260.224C452.768 260.576 453.464 260.752 454.264 260.752C455.048 260.752 455.704 260.6 456.232 260.296C456.76 259.976 457.024 259.488 457.024 258.832C457.024 258.288 456.784 257.856 456.304 257.536C455.824 257.216 455.24 256.968 454.552 256.792C453.864 256.616 453.176 256.424 452.488 256.216C451.8 255.992 451.216 255.632 450.736 255.136C450.256 254.624 450.016 253.96 450.016 253.144C450.016 252.168 450.4 251.352 451.168 250.696C451.952 250.04 452.936 249.712 454.12 249.712C455.096 249.712 455.952 249.936 456.688 250.384C457.424 250.816 457.968 251.408 458.32 252.16L457 252.928C456.536 251.808 455.576 251.248 454.12 251.248C453.432 251.248 452.84 251.416 452.344 251.752C451.848 252.072 451.6 252.536 451.6 253.144ZM461.772 253.144C461.772 253.688 462.012 254.12 462.492 254.44C462.972 254.76 463.556 255.008 464.244 255.184C464.932 255.36 465.62 255.56 466.308 255.784C466.996 255.992 467.58 256.352 468.06 256.864C468.54 257.36 468.78 258.016 468.78 258.832C468.78 259.856 468.372 260.688 467.556 261.328C466.756 261.968 465.716 262.288 464.436 262.288C463.284 262.288 462.3 262.032 461.484 261.52C460.684 261.008 460.124 260.344 459.804 259.528L461.148 258.736C461.372 259.36 461.772 259.856 462.348 260.224C462.94 260.576 463.636 260.752 464.436 260.752C465.22 260.752 465.876 260.6 466.404 260.296C466.932 259.976 467.196 259.488 467.196 258.832C467.196 258.288 466.956 257.856 466.476 257.536C465.996 257.216 465.412 256.968 464.724 256.792C464.036 256.616 463.348 256.424 462.66 256.216C461.972 255.992 461.388 255.632 460.908 255.136C460.428 254.624 460.188 253.96 460.188 253.144C460.188 252.168 460.572 251.352 461.34 250.696C462.124 250.04 463.108 249.712 464.292 249.712C465.268 249.712 466.124 249.936 466.86 250.384C467.596 250.816 468.14 251.408 468.492 252.16L467.172 252.928C466.708 251.808 465.748 251.248 464.292 251.248C463.604 251.248 463.012 251.416 462.516 251.752C462.02 252.072 461.772 252.536 461.772 253.144ZM477.188 246.448C476.02 246.352 475.148 246.552 474.572 247.048C474.012 247.544 473.732 248.368 473.732 249.52V250H477.188V251.536H473.732V262H472.148V251.536H470.108V250H472.148V249.52C472.148 247.952 472.58 246.768 473.444 245.968C474.324 245.152 475.572 244.8 477.188 244.912V246.448ZM487.323 250H488.907V262H487.323V260.128C486.427 261.568 485.083 262.288 483.291 262.288C481.835 262.288 480.683 261.848 479.835 260.968C479.003 260.072 478.587 258.872 478.587 257.368V250H480.171V257.368C480.171 258.44 480.451 259.272 481.011 259.864C481.587 260.456 482.395 260.752 483.435 260.752C484.587 260.752 485.523 260.392 486.243 259.672C486.963 258.936 487.323 257.808 487.323 256.288V250ZM492.258 262V244.48H493.842V262H492.258ZM497.203 262V244.48H498.787V262H497.203ZM510.789 250H512.469L507.333 263.104C506.869 264.288 506.205 265.216 505.341 265.888C504.493 266.576 503.541 266.88 502.485 266.8V265.312C503.925 265.472 505.021 264.64 505.773 262.816L506.085 262.072L500.709 250H502.389L506.901 260.056L510.789 250Z" fill="#6B7783"/>
<circle cx="349" cy="106" r="58" fill="#DBE7EF"/>
<path d="M375.428 92.2522L349.616 76.1842C349.232 75.9442 348.74 75.9442 348.356 76.1842L322.544 92.2522C322.196 92.4682 321.98 92.8522 321.98 93.2722V97.9282C321.98 98.5882 322.52 99.1282 323.18 99.1282H374.792C375.452 99.1282 375.992 98.5882 375.992 97.9282V93.2722C375.992 92.8522 375.776 92.4682 375.428 92.2522ZM348.992 94.6882C346.244 94.6882 344.012 92.4562 344.012 89.7082C344.012 86.9602 346.244 84.7282 348.992 84.7282C351.74 84.7282 353.972 86.9602 353.972 89.7082C353.972 92.4562 351.74 94.6882 348.992 94.6882Z" fill="#4F6B7B"/>
<path d="M361.637 101.529H370.517V119.829H361.637V101.529Z" fill="#4F6B7B"/>
<path d="M344.559 101.529H353.439V119.829H344.559V101.529Z" fill="#4F6B7B"/>
<path d="M327.465 101.528H336.345V119.828H327.465V101.528Z" fill="#4F6B7B"/>
<path d="M378.996 129.092V134.804C378.996 135.464 378.456 136.004 377.796 136.004H320.196C319.524 136.004 318.996 135.464 318.996 134.804V129.092C318.996 128.432 319.524 127.892 320.196 127.892H323.076V123.428C323.076 122.768 323.616 122.228 324.276 122.228H373.716C374.376 122.228 374.916 122.768 374.916 123.428V127.892H377.796C378.456 127.892 378.996 128.432 378.996 129.092Z" fill="#4F6B7B"/>
<defs>
<filter id="filter0_f_13757_45908" x="0.5" y="26.5" width="695" height="451" filterUnits="userSpaceOnUse" color-interpolation-filters="sRGB">
<feFlood flood-opacity="0" result="BackgroundImageFix"/>
<feBlend mode="normal" in="SourceGraphic" in2="BackgroundImageFix" result="shape"/>
<feGaussianBlur stdDeviation="51.75" result="effect1_foregroundBlur_13757_45908"/>
</filter>
</defs>
</svg>
