<svg width="280" height="260" viewBox="0 0 280 260" fill="none" xmlns="http://www.w3.org/2000/svg">
<rect width="280" height="260" rx="20" fill="white"/>
<path d="M49.0254 151.781V166H46.1055V151.781H49.0254ZM53.4004 151.781V154.076H41.7988V151.781H53.4004ZM57.0234 157.738V166H54.2109V155.434H56.8574L57.0234 157.738ZM60.207 155.365L60.1582 157.973C60.0215 157.953 59.8555 157.937 59.6602 157.924C59.4714 157.904 59.2988 157.895 59.1426 157.895C58.7454 157.895 58.4004 157.947 58.1074 158.051C57.821 158.148 57.5801 158.295 57.3848 158.49C57.196 158.686 57.0527 158.923 56.9551 159.203C56.8639 159.483 56.8118 159.802 56.7988 160.16L56.2324 159.984C56.2324 159.301 56.3008 158.673 56.4375 158.1C56.5742 157.52 56.7728 157.016 57.0332 156.586C57.3001 156.156 57.6257 155.824 58.0098 155.59C58.3939 155.355 58.8333 155.238 59.3281 155.238C59.4844 155.238 59.6439 155.251 59.8066 155.277C59.9694 155.297 60.1029 155.326 60.207 155.365ZM66.9062 163.617V158.91C66.9062 158.572 66.8509 158.282 66.7402 158.041C66.6296 157.794 66.457 157.602 66.2227 157.465C65.9948 157.328 65.6986 157.26 65.334 157.26C65.0215 157.26 64.7513 157.315 64.5234 157.426C64.2956 157.53 64.1198 157.683 63.9961 157.885C63.8724 158.08 63.8105 158.311 63.8105 158.578H60.998C60.998 158.129 61.1022 157.702 61.3105 157.299C61.5189 156.895 61.8216 156.54 62.2188 156.234C62.6159 155.922 63.0879 155.678 63.6348 155.502C64.1882 155.326 64.8066 155.238 65.4902 155.238C66.3105 155.238 67.0397 155.375 67.6777 155.648C68.3158 155.922 68.8171 156.332 69.1816 156.879C69.5527 157.426 69.7383 158.109 69.7383 158.93V163.451C69.7383 164.031 69.7741 164.506 69.8457 164.877C69.9173 165.242 70.0215 165.561 70.1582 165.834V166H67.3164C67.1797 165.714 67.0755 165.355 67.0039 164.926C66.9388 164.49 66.9062 164.053 66.9062 163.617ZM67.2773 159.564L67.2969 161.156H65.7246C65.3535 161.156 65.0312 161.199 64.7578 161.283C64.4844 161.368 64.2598 161.488 64.084 161.645C63.9082 161.794 63.778 161.97 63.6934 162.172C63.6152 162.374 63.5762 162.595 63.5762 162.836C63.5762 163.077 63.6315 163.295 63.7422 163.49C63.8529 163.679 64.0124 163.829 64.2207 163.939C64.429 164.044 64.6732 164.096 64.9531 164.096C65.3763 164.096 65.7441 164.011 66.0566 163.842C66.3691 163.673 66.61 163.464 66.7793 163.217C66.9551 162.969 67.0462 162.735 67.0527 162.514L67.7949 163.705C67.6908 163.972 67.5475 164.249 67.3652 164.535C67.1895 164.822 66.9648 165.092 66.6914 165.346C66.418 165.593 66.0892 165.798 65.7051 165.961C65.321 166.117 64.8652 166.195 64.3379 166.195C63.6673 166.195 63.0586 166.062 62.5117 165.795C61.9714 165.521 61.5417 165.147 61.2227 164.672C60.9102 164.19 60.7539 163.643 60.7539 163.031C60.7539 162.478 60.8581 161.986 61.0664 161.557C61.2747 161.127 61.5807 160.766 61.9844 160.473C62.3945 160.173 62.9056 159.949 63.5176 159.799C64.1296 159.643 64.8392 159.564 65.6465 159.564H67.2773ZM74.6602 157.689V166H71.8477V155.434H74.4844L74.6602 157.689ZM74.25 160.346H73.4883C73.4883 159.564 73.5892 158.861 73.791 158.236C73.9928 157.605 74.276 157.068 74.6406 156.625C75.0052 156.176 75.4382 155.834 75.9395 155.6C76.4473 155.359 77.0137 155.238 77.6387 155.238C78.1335 155.238 78.5859 155.31 78.9961 155.453C79.4062 155.596 79.7578 155.824 80.0508 156.137C80.3503 156.449 80.5781 156.863 80.7344 157.377C80.8971 157.891 80.9785 158.52 80.9785 159.262V166H78.1465V159.252C78.1465 158.783 78.0814 158.419 77.9512 158.158C77.821 157.898 77.6289 157.715 77.375 157.611C77.1276 157.501 76.8216 157.445 76.457 157.445C76.0794 157.445 75.7507 157.52 75.4707 157.67C75.1973 157.82 74.9694 158.028 74.7871 158.295C74.6113 158.555 74.4779 158.861 74.3867 159.213C74.2956 159.564 74.25 159.942 74.25 160.346ZM88.8301 163.08C88.8301 162.878 88.7715 162.696 88.6543 162.533C88.5371 162.37 88.319 162.221 88 162.084C87.6875 161.941 87.235 161.811 86.6426 161.693C86.1087 161.576 85.6107 161.43 85.1484 161.254C84.6927 161.072 84.2956 160.854 83.957 160.6C83.625 160.346 83.3646 160.046 83.1758 159.701C82.987 159.35 82.8926 158.949 82.8926 158.5C82.8926 158.057 82.987 157.641 83.1758 157.25C83.3711 156.859 83.6478 156.514 84.0059 156.215C84.3704 155.909 84.8132 155.671 85.334 155.502C85.8613 155.326 86.4538 155.238 87.1113 155.238C88.0293 155.238 88.8171 155.385 89.4746 155.678C90.1387 155.971 90.6465 156.374 90.998 156.889C91.3561 157.396 91.5352 157.976 91.5352 158.627H88.7227C88.7227 158.354 88.6641 158.109 88.5469 157.895C88.4362 157.673 88.2604 157.501 88.0195 157.377C87.7852 157.247 87.4792 157.182 87.1016 157.182C86.7891 157.182 86.5189 157.237 86.291 157.348C86.0632 157.452 85.8874 157.595 85.7637 157.777C85.6465 157.953 85.5879 158.148 85.5879 158.363C85.5879 158.526 85.6204 158.673 85.6855 158.803C85.7572 158.926 85.8711 159.04 86.0273 159.145C86.1836 159.249 86.3854 159.346 86.6328 159.438C86.8867 159.522 87.1992 159.6 87.5703 159.672C88.332 159.828 89.0124 160.033 89.6113 160.287C90.2103 160.535 90.6855 160.873 91.0371 161.303C91.3887 161.726 91.5645 162.283 91.5645 162.973C91.5645 163.441 91.4603 163.871 91.252 164.262C91.0436 164.652 90.7441 164.994 90.3535 165.287C89.9629 165.574 89.4941 165.798 88.9473 165.961C88.4069 166.117 87.7982 166.195 87.1211 166.195C86.138 166.195 85.3047 166.02 84.6211 165.668C83.944 165.316 83.4297 164.87 83.0781 164.33C82.7331 163.783 82.5605 163.223 82.5605 162.65H85.2266C85.2396 163.035 85.3372 163.344 85.5195 163.578C85.7083 163.812 85.946 163.982 86.2324 164.086C86.5254 164.19 86.8411 164.242 87.1797 164.242C87.5443 164.242 87.847 164.193 88.0879 164.096C88.3288 163.992 88.5111 163.855 88.6348 163.686C88.765 163.51 88.8301 163.308 88.8301 163.08ZM99.0938 163.617V158.91C99.0938 158.572 99.0384 158.282 98.9277 158.041C98.8171 157.794 98.6445 157.602 98.4102 157.465C98.1823 157.328 97.8861 157.26 97.5215 157.26C97.209 157.26 96.9388 157.315 96.7109 157.426C96.4831 157.53 96.3073 157.683 96.1836 157.885C96.0599 158.08 95.998 158.311 95.998 158.578H93.1855C93.1855 158.129 93.2897 157.702 93.498 157.299C93.7064 156.895 94.0091 156.54 94.4062 156.234C94.8034 155.922 95.2754 155.678 95.8223 155.502C96.3757 155.326 96.9941 155.238 97.6777 155.238C98.498 155.238 99.2272 155.375 99.8652 155.648C100.503 155.922 101.005 156.332 101.369 156.879C101.74 157.426 101.926 158.109 101.926 158.93V163.451C101.926 164.031 101.962 164.506 102.033 164.877C102.105 165.242 102.209 165.561 102.346 165.834V166H99.5039C99.3672 165.714 99.263 165.355 99.1914 164.926C99.1263 164.49 99.0938 164.053 99.0938 163.617ZM99.4648 159.564L99.4844 161.156H97.9121C97.541 161.156 97.2188 161.199 96.9453 161.283C96.6719 161.368 96.4473 161.488 96.2715 161.645C96.0957 161.794 95.9655 161.97 95.8809 162.172C95.8027 162.374 95.7637 162.595 95.7637 162.836C95.7637 163.077 95.819 163.295 95.9297 163.49C96.0404 163.679 96.1999 163.829 96.4082 163.939C96.6165 164.044 96.8607 164.096 97.1406 164.096C97.5638 164.096 97.9316 164.011 98.2441 163.842C98.5566 163.673 98.7975 163.464 98.9668 163.217C99.1426 162.969 99.2337 162.735 99.2402 162.514L99.9824 163.705C99.8783 163.972 99.735 164.249 99.5527 164.535C99.377 164.822 99.1523 165.092 98.8789 165.346C98.6055 165.593 98.2767 165.798 97.8926 165.961C97.5085 166.117 97.0527 166.195 96.5254 166.195C95.8548 166.195 95.2461 166.062 94.6992 165.795C94.1589 165.521 93.7292 165.147 93.4102 164.672C93.0977 164.19 92.9414 163.643 92.9414 163.031C92.9414 162.478 93.0456 161.986 93.2539 161.557C93.4622 161.127 93.7682 160.766 94.1719 160.473C94.582 160.173 95.0931 159.949 95.7051 159.799C96.3171 159.643 97.0267 159.564 97.834 159.564H99.4648ZM108.459 163.998C108.804 163.998 109.11 163.933 109.377 163.803C109.644 163.666 109.852 163.477 110.002 163.236C110.158 162.989 110.24 162.699 110.246 162.367H112.893C112.886 163.109 112.688 163.77 112.297 164.35C111.906 164.923 111.382 165.375 110.725 165.707C110.067 166.033 109.331 166.195 108.518 166.195C107.697 166.195 106.981 166.059 106.369 165.785C105.764 165.512 105.259 165.134 104.855 164.652C104.452 164.164 104.149 163.598 103.947 162.953C103.745 162.302 103.645 161.605 103.645 160.863V160.58C103.645 159.831 103.745 159.135 103.947 158.49C104.149 157.839 104.452 157.273 104.855 156.791C105.259 156.303 105.764 155.922 106.369 155.648C106.975 155.375 107.684 155.238 108.498 155.238C109.364 155.238 110.122 155.404 110.773 155.736C111.431 156.068 111.945 156.544 112.316 157.162C112.694 157.774 112.886 158.5 112.893 159.34H110.246C110.24 158.988 110.165 158.669 110.021 158.383C109.885 158.096 109.683 157.868 109.416 157.699C109.156 157.523 108.833 157.436 108.449 157.436C108.039 157.436 107.704 157.523 107.443 157.699C107.183 157.868 106.981 158.103 106.838 158.402C106.695 158.695 106.594 159.031 106.535 159.408C106.483 159.779 106.457 160.17 106.457 160.58V160.863C106.457 161.273 106.483 161.667 106.535 162.045C106.587 162.423 106.685 162.758 106.828 163.051C106.978 163.344 107.183 163.575 107.443 163.744C107.704 163.913 108.042 163.998 108.459 163.998ZM119.699 155.434V157.426H113.547V155.434H119.699ZM115.07 152.826H117.883V162.816C117.883 163.122 117.922 163.357 118 163.52C118.085 163.682 118.208 163.796 118.371 163.861C118.534 163.92 118.739 163.949 118.986 163.949C119.162 163.949 119.318 163.943 119.455 163.93C119.598 163.91 119.719 163.891 119.816 163.871L119.826 165.941C119.585 166.02 119.325 166.081 119.045 166.127C118.765 166.173 118.456 166.195 118.117 166.195C117.499 166.195 116.958 166.094 116.496 165.893C116.04 165.684 115.689 165.352 115.441 164.896C115.194 164.441 115.07 163.842 115.07 163.1V152.826ZM124.27 155.434V166H121.447V155.434H124.27ZM121.271 152.68C121.271 152.27 121.415 151.931 121.701 151.664C121.988 151.397 122.372 151.264 122.854 151.264C123.329 151.264 123.71 151.397 123.996 151.664C124.289 151.931 124.436 152.27 124.436 152.68C124.436 153.09 124.289 153.428 123.996 153.695C123.71 153.962 123.329 154.096 122.854 154.096C122.372 154.096 121.988 153.962 121.701 153.695C121.415 153.428 121.271 153.09 121.271 152.68ZM126.145 160.824V160.619C126.145 159.844 126.255 159.132 126.477 158.48C126.698 157.823 127.02 157.253 127.443 156.771C127.867 156.29 128.387 155.915 129.006 155.648C129.624 155.375 130.334 155.238 131.135 155.238C131.936 155.238 132.648 155.375 133.273 155.648C133.898 155.915 134.423 156.29 134.846 156.771C135.275 157.253 135.601 157.823 135.822 158.48C136.044 159.132 136.154 159.844 136.154 160.619V160.824C136.154 161.592 136.044 162.305 135.822 162.963C135.601 163.614 135.275 164.184 134.846 164.672C134.423 165.154 133.902 165.528 133.283 165.795C132.665 166.062 131.955 166.195 131.154 166.195C130.354 166.195 129.641 166.062 129.016 165.795C128.397 165.528 127.873 165.154 127.443 164.672C127.02 164.184 126.698 163.614 126.477 162.963C126.255 162.305 126.145 161.592 126.145 160.824ZM128.957 160.619V160.824C128.957 161.267 128.996 161.68 129.074 162.064C129.152 162.449 129.276 162.787 129.445 163.08C129.621 163.367 129.849 163.591 130.129 163.754C130.409 163.917 130.751 163.998 131.154 163.998C131.545 163.998 131.88 163.917 132.16 163.754C132.44 163.591 132.665 163.367 132.834 163.08C133.003 162.787 133.127 162.449 133.205 162.064C133.29 161.68 133.332 161.267 133.332 160.824V160.619C133.332 160.189 133.29 159.786 133.205 159.408C133.127 159.024 133 158.686 132.824 158.393C132.655 158.093 132.43 157.859 132.15 157.689C131.87 157.52 131.532 157.436 131.135 157.436C130.738 157.436 130.399 157.52 130.119 157.689C129.846 157.859 129.621 158.093 129.445 158.393C129.276 158.686 129.152 159.024 129.074 159.408C128.996 159.786 128.957 160.189 128.957 160.619ZM140.637 157.689V166H137.824V155.434H140.461L140.637 157.689ZM140.227 160.346H139.465C139.465 159.564 139.566 158.861 139.768 158.236C139.969 157.605 140.253 157.068 140.617 156.625C140.982 156.176 141.415 155.834 141.916 155.6C142.424 155.359 142.99 155.238 143.615 155.238C144.11 155.238 144.562 155.31 144.973 155.453C145.383 155.596 145.734 155.824 146.027 156.137C146.327 156.449 146.555 156.863 146.711 157.377C146.874 157.891 146.955 158.52 146.955 159.262V166H144.123V159.252C144.123 158.783 144.058 158.419 143.928 158.158C143.798 157.898 143.605 157.715 143.352 157.611C143.104 157.501 142.798 157.445 142.434 157.445C142.056 157.445 141.727 157.52 141.447 157.67C141.174 157.82 140.946 158.028 140.764 158.295C140.588 158.555 140.454 158.861 140.363 159.213C140.272 159.564 140.227 159.942 140.227 160.346ZM162.492 161.283H165.412C165.354 162.24 165.09 163.09 164.621 163.832C164.159 164.574 163.511 165.154 162.678 165.57C161.851 165.987 160.855 166.195 159.689 166.195C158.778 166.195 157.961 166.039 157.238 165.727C156.516 165.408 155.897 164.952 155.383 164.359C154.875 163.767 154.488 163.051 154.221 162.211C153.954 161.371 153.82 160.43 153.82 159.389V158.402C153.82 157.361 153.957 156.42 154.23 155.58C154.51 154.734 154.908 154.014 155.422 153.422C155.943 152.829 156.564 152.374 157.287 152.055C158.01 151.736 158.817 151.576 159.709 151.576C160.894 151.576 161.893 151.791 162.707 152.221C163.527 152.65 164.162 153.243 164.611 153.998C165.067 154.753 165.34 155.613 165.432 156.576H162.502C162.469 156.003 162.355 155.518 162.16 155.121C161.965 154.717 161.669 154.415 161.271 154.213C160.881 154.005 160.36 153.9 159.709 153.9C159.221 153.9 158.794 153.992 158.43 154.174C158.065 154.356 157.759 154.633 157.512 155.004C157.264 155.375 157.079 155.844 156.955 156.41C156.838 156.97 156.779 157.628 156.779 158.383V159.389C156.779 160.124 156.835 160.772 156.945 161.332C157.056 161.885 157.225 162.354 157.453 162.738C157.688 163.116 157.987 163.402 158.352 163.598C158.723 163.786 159.169 163.881 159.689 163.881C160.301 163.881 160.806 163.783 161.203 163.588C161.6 163.393 161.903 163.103 162.111 162.719C162.326 162.335 162.453 161.856 162.492 161.283ZM166.711 160.824V160.619C166.711 159.844 166.822 159.132 167.043 158.48C167.264 157.823 167.587 157.253 168.01 156.771C168.433 156.29 168.954 155.915 169.572 155.648C170.191 155.375 170.9 155.238 171.701 155.238C172.502 155.238 173.215 155.375 173.84 155.648C174.465 155.915 174.989 156.29 175.412 156.771C175.842 157.253 176.167 157.823 176.389 158.48C176.61 159.132 176.721 159.844 176.721 160.619V160.824C176.721 161.592 176.61 162.305 176.389 162.963C176.167 163.614 175.842 164.184 175.412 164.672C174.989 165.154 174.468 165.528 173.85 165.795C173.231 166.062 172.521 166.195 171.721 166.195C170.92 166.195 170.207 166.062 169.582 165.795C168.964 165.528 168.439 165.154 168.01 164.672C167.587 164.184 167.264 163.614 167.043 162.963C166.822 162.305 166.711 161.592 166.711 160.824ZM169.523 160.619V160.824C169.523 161.267 169.562 161.68 169.641 162.064C169.719 162.449 169.842 162.787 170.012 163.08C170.188 163.367 170.415 163.591 170.695 163.754C170.975 163.917 171.317 163.998 171.721 163.998C172.111 163.998 172.447 163.917 172.727 163.754C173.007 163.591 173.231 163.367 173.4 163.08C173.57 162.787 173.693 162.449 173.771 162.064C173.856 161.68 173.898 161.267 173.898 160.824V160.619C173.898 160.189 173.856 159.786 173.771 159.408C173.693 159.024 173.566 158.686 173.391 158.393C173.221 158.093 172.997 157.859 172.717 157.689C172.437 157.52 172.098 157.436 171.701 157.436C171.304 157.436 170.965 157.52 170.686 157.689C170.412 157.859 170.188 158.093 170.012 158.393C169.842 158.686 169.719 159.024 169.641 159.408C169.562 159.786 169.523 160.189 169.523 160.619ZM181.262 157.621V166H178.439V155.434H181.086L181.262 157.621ZM180.871 160.346H180.09C180.09 159.61 180.178 158.933 180.354 158.314C180.536 157.689 180.799 157.149 181.145 156.693C181.496 156.231 181.929 155.873 182.443 155.619C182.958 155.365 183.553 155.238 184.23 155.238C184.699 155.238 185.129 155.31 185.52 155.453C185.91 155.59 186.245 155.808 186.525 156.107C186.812 156.4 187.033 156.785 187.189 157.26C187.346 157.729 187.424 158.292 187.424 158.949V166H184.611V159.262C184.611 158.78 184.546 158.409 184.416 158.148C184.286 157.888 184.1 157.706 183.859 157.602C183.625 157.497 183.342 157.445 183.01 157.445C182.645 157.445 182.326 157.52 182.053 157.67C181.786 157.82 181.564 158.028 181.389 158.295C181.213 158.555 181.083 158.861 180.998 159.213C180.913 159.564 180.871 159.942 180.871 160.346ZM187.16 160.023L186.154 160.15C186.154 159.46 186.239 158.819 186.408 158.227C186.584 157.634 186.841 157.113 187.18 156.664C187.525 156.215 187.951 155.867 188.459 155.619C188.967 155.365 189.553 155.238 190.217 155.238C190.725 155.238 191.187 155.313 191.604 155.463C192.02 155.606 192.375 155.837 192.668 156.156C192.967 156.469 193.195 156.879 193.352 157.387C193.514 157.895 193.596 158.516 193.596 159.252V166H190.773V159.252C190.773 158.764 190.708 158.393 190.578 158.139C190.454 157.878 190.272 157.699 190.031 157.602C189.797 157.497 189.517 157.445 189.191 157.445C188.853 157.445 188.557 157.514 188.303 157.65C188.049 157.781 187.837 157.963 187.668 158.197C187.499 158.432 187.372 158.705 187.287 159.018C187.202 159.324 187.16 159.659 187.16 160.023ZM198.586 157.465V170.062H195.773V155.434H198.381L198.586 157.465ZM205.275 160.6V160.805C205.275 161.573 205.184 162.286 205.002 162.943C204.826 163.601 204.566 164.174 204.221 164.662C203.876 165.144 203.446 165.521 202.932 165.795C202.424 166.062 201.838 166.195 201.174 166.195C200.529 166.195 199.969 166.065 199.494 165.805C199.019 165.544 198.618 165.18 198.293 164.711C197.974 164.236 197.717 163.686 197.521 163.061C197.326 162.436 197.176 161.765 197.072 161.049V160.512C197.176 159.743 197.326 159.04 197.521 158.402C197.717 157.758 197.974 157.201 198.293 156.732C198.618 156.257 199.016 155.889 199.484 155.629C199.96 155.368 200.516 155.238 201.154 155.238C201.825 155.238 202.414 155.365 202.922 155.619C203.436 155.873 203.866 156.238 204.211 156.713C204.562 157.188 204.826 157.755 205.002 158.412C205.184 159.07 205.275 159.799 205.275 160.6ZM202.453 160.805V160.6C202.453 160.15 202.414 159.737 202.336 159.359C202.264 158.975 202.147 158.64 201.984 158.354C201.828 158.067 201.62 157.846 201.359 157.689C201.105 157.527 200.796 157.445 200.432 157.445C200.048 157.445 199.719 157.507 199.445 157.631C199.178 157.755 198.96 157.934 198.791 158.168C198.622 158.402 198.495 158.682 198.41 159.008C198.326 159.333 198.273 159.701 198.254 160.111V161.469C198.286 161.951 198.378 162.383 198.527 162.768C198.677 163.145 198.908 163.445 199.221 163.666C199.533 163.887 199.943 163.998 200.451 163.998C200.822 163.998 201.135 163.917 201.389 163.754C201.643 163.585 201.848 163.354 202.004 163.061C202.167 162.768 202.281 162.429 202.346 162.045C202.417 161.661 202.453 161.247 202.453 160.805ZM209.992 151V166H207.17V151H209.992ZM217.18 166.195C216.359 166.195 215.624 166.065 214.973 165.805C214.322 165.538 213.768 165.17 213.312 164.701C212.863 164.232 212.518 163.689 212.277 163.07C212.036 162.445 211.916 161.781 211.916 161.078V160.688C211.916 159.887 212.03 159.154 212.258 158.49C212.486 157.826 212.811 157.25 213.234 156.762C213.664 156.273 214.185 155.899 214.797 155.639C215.409 155.372 216.099 155.238 216.867 155.238C217.616 155.238 218.28 155.362 218.859 155.609C219.439 155.857 219.924 156.208 220.314 156.664C220.712 157.12 221.011 157.667 221.213 158.305C221.415 158.936 221.516 159.639 221.516 160.414V161.586H213.117V159.711H218.752V159.496C218.752 159.105 218.68 158.757 218.537 158.451C218.4 158.139 218.192 157.891 217.912 157.709C217.632 157.527 217.274 157.436 216.838 157.436C216.467 157.436 216.148 157.517 215.881 157.68C215.614 157.842 215.396 158.07 215.227 158.363C215.064 158.656 214.94 159.001 214.855 159.398C214.777 159.789 214.738 160.219 214.738 160.688V161.078C214.738 161.501 214.797 161.892 214.914 162.25C215.038 162.608 215.21 162.917 215.432 163.178C215.66 163.438 215.933 163.64 216.252 163.783C216.577 163.926 216.945 163.998 217.355 163.998C217.863 163.998 218.335 163.9 218.771 163.705C219.214 163.503 219.595 163.201 219.914 162.797L221.281 164.281C221.06 164.6 220.757 164.906 220.373 165.199C219.995 165.492 219.54 165.733 219.006 165.922C218.472 166.104 217.863 166.195 217.18 166.195ZM228.293 155.434V157.426H222.141V155.434H228.293ZM223.664 152.826H226.477V162.816C226.477 163.122 226.516 163.357 226.594 163.52C226.678 163.682 226.802 163.796 226.965 163.861C227.128 163.92 227.333 163.949 227.58 163.949C227.756 163.949 227.912 163.943 228.049 163.93C228.192 163.91 228.312 163.891 228.41 163.871L228.42 165.941C228.179 166.02 227.919 166.081 227.639 166.127C227.359 166.173 227.049 166.195 226.711 166.195C226.092 166.195 225.552 166.094 225.09 165.893C224.634 165.684 224.283 165.352 224.035 164.896C223.788 164.441 223.664 163.842 223.664 163.1V152.826ZM234.758 166.195C233.938 166.195 233.202 166.065 232.551 165.805C231.9 165.538 231.346 165.17 230.891 164.701C230.441 164.232 230.096 163.689 229.855 163.07C229.615 162.445 229.494 161.781 229.494 161.078V160.688C229.494 159.887 229.608 159.154 229.836 158.49C230.064 157.826 230.389 157.25 230.812 156.762C231.242 156.273 231.763 155.899 232.375 155.639C232.987 155.372 233.677 155.238 234.445 155.238C235.194 155.238 235.858 155.362 236.438 155.609C237.017 155.857 237.502 156.208 237.893 156.664C238.29 157.12 238.589 157.667 238.791 158.305C238.993 158.936 239.094 159.639 239.094 160.414V161.586H230.695V159.711H236.33V159.496C236.33 159.105 236.258 158.757 236.115 158.451C235.979 158.139 235.77 157.891 235.49 157.709C235.21 157.527 234.852 157.436 234.416 157.436C234.045 157.436 233.726 157.517 233.459 157.68C233.192 157.842 232.974 158.07 232.805 158.363C232.642 158.656 232.518 159.001 232.434 159.398C232.355 159.789 232.316 160.219 232.316 160.688V161.078C232.316 161.501 232.375 161.892 232.492 162.25C232.616 162.608 232.788 162.917 233.01 163.178C233.238 163.438 233.511 163.64 233.83 163.783C234.156 163.926 234.523 163.998 234.934 163.998C235.441 163.998 235.913 163.9 236.35 163.705C236.792 163.503 237.173 163.201 237.492 162.797L238.859 164.281C238.638 164.6 238.335 164.906 237.951 165.199C237.574 165.492 237.118 165.733 236.584 165.922C236.05 166.104 235.441 166.195 234.758 166.195Z" fill="#2B3B45"/>
<path d="M123.189 187.605L120.641 195H119.1L122.311 186.469H123.295L123.189 187.605ZM125.322 195L122.768 187.605L122.656 186.469H123.646L126.869 195H125.322ZM125.199 191.836V193.002H120.559V191.836H125.199ZM128.99 189.949V195H127.578V188.66H128.908L128.99 189.949ZM128.762 191.596L128.281 191.59C128.281 191.152 128.336 190.748 128.445 190.377C128.555 190.006 128.715 189.684 128.926 189.41C129.137 189.133 129.398 188.92 129.711 188.771C130.027 188.619 130.393 188.543 130.807 188.543C131.096 188.543 131.359 188.586 131.598 188.672C131.84 188.754 132.049 188.885 132.225 189.064C132.404 189.244 132.541 189.475 132.635 189.756C132.732 190.037 132.781 190.377 132.781 190.775V195H131.369V190.898C131.369 190.59 131.322 190.348 131.229 190.172C131.139 189.996 131.008 189.871 130.836 189.797C130.668 189.719 130.467 189.68 130.232 189.68C129.967 189.68 129.74 189.73 129.553 189.832C129.369 189.934 129.219 190.072 129.102 190.248C128.984 190.424 128.898 190.627 128.844 190.857C128.789 191.088 128.762 191.334 128.762 191.596ZM132.693 191.221L132.031 191.367C132.031 190.984 132.084 190.623 132.189 190.283C132.299 189.939 132.457 189.639 132.664 189.381C132.875 189.119 133.135 188.914 133.443 188.766C133.752 188.617 134.105 188.543 134.504 188.543C134.828 188.543 135.117 188.588 135.371 188.678C135.629 188.764 135.848 188.9 136.027 189.088C136.207 189.275 136.344 189.52 136.438 189.82C136.531 190.117 136.578 190.477 136.578 190.898V195H135.16V190.893C135.16 190.572 135.113 190.324 135.02 190.148C134.93 189.973 134.801 189.852 134.633 189.785C134.465 189.715 134.264 189.68 134.029 189.68C133.811 189.68 133.617 189.721 133.449 189.803C133.285 189.881 133.146 189.992 133.033 190.137C132.92 190.277 132.834 190.439 132.775 190.623C132.721 190.807 132.693 191.006 132.693 191.221ZM137.762 191.9V191.766C137.762 191.309 137.828 190.885 137.961 190.494C138.094 190.1 138.285 189.758 138.535 189.469C138.789 189.176 139.098 188.949 139.461 188.789C139.828 188.625 140.242 188.543 140.703 188.543C141.168 188.543 141.582 188.625 141.945 188.789C142.312 188.949 142.623 189.176 142.877 189.469C143.131 189.758 143.324 190.1 143.457 190.494C143.59 190.885 143.656 191.309 143.656 191.766V191.9C143.656 192.357 143.59 192.781 143.457 193.172C143.324 193.562 143.131 193.904 142.877 194.197C142.623 194.486 142.314 194.713 141.951 194.877C141.588 195.037 141.176 195.117 140.715 195.117C140.25 195.117 139.834 195.037 139.467 194.877C139.104 194.713 138.795 194.486 138.541 194.197C138.287 193.904 138.094 193.562 137.961 193.172C137.828 192.781 137.762 192.357 137.762 191.9ZM139.174 191.766V191.9C139.174 192.186 139.203 192.455 139.262 192.709C139.32 192.963 139.412 193.186 139.537 193.377C139.662 193.568 139.822 193.719 140.018 193.828C140.213 193.938 140.445 193.992 140.715 193.992C140.977 193.992 141.203 193.938 141.395 193.828C141.59 193.719 141.75 193.568 141.875 193.377C142 193.186 142.092 192.963 142.15 192.709C142.213 192.455 142.244 192.186 142.244 191.9V191.766C142.244 191.484 142.213 191.219 142.15 190.969C142.092 190.715 141.998 190.49 141.869 190.295C141.744 190.1 141.584 189.947 141.389 189.838C141.197 189.725 140.969 189.668 140.703 189.668C140.438 189.668 140.207 189.725 140.012 189.838C139.82 189.947 139.662 190.1 139.537 190.295C139.412 190.49 139.32 190.715 139.262 190.969C139.203 191.219 139.174 191.484 139.174 191.766ZM148.654 193.506V188.66H150.072V195H148.736L148.654 193.506ZM148.854 192.188L149.328 192.176C149.328 192.602 149.281 192.994 149.188 193.354C149.094 193.709 148.949 194.02 148.754 194.285C148.559 194.547 148.309 194.752 148.004 194.9C147.699 195.045 147.334 195.117 146.908 195.117C146.6 195.117 146.316 195.072 146.059 194.982C145.801 194.893 145.578 194.754 145.391 194.566C145.207 194.379 145.064 194.135 144.963 193.834C144.861 193.533 144.811 193.174 144.811 192.756V188.66H146.223V192.768C146.223 192.998 146.25 193.191 146.305 193.348C146.359 193.5 146.434 193.623 146.527 193.717C146.621 193.811 146.73 193.877 146.855 193.916C146.98 193.955 147.113 193.975 147.254 193.975C147.656 193.975 147.973 193.896 148.203 193.74C148.438 193.58 148.604 193.365 148.701 193.096C148.803 192.826 148.854 192.523 148.854 192.188ZM152.92 190.014V195H151.508V188.66H152.838L152.92 190.014ZM152.668 191.596L152.211 191.59C152.215 191.141 152.277 190.729 152.398 190.354C152.523 189.979 152.695 189.656 152.914 189.387C153.137 189.117 153.402 188.91 153.711 188.766C154.02 188.617 154.363 188.543 154.742 188.543C155.047 188.543 155.322 188.586 155.568 188.672C155.818 188.754 156.031 188.889 156.207 189.076C156.387 189.264 156.523 189.508 156.617 189.809C156.711 190.105 156.758 190.471 156.758 190.904V195H155.34V190.898C155.34 190.594 155.295 190.354 155.205 190.178C155.119 189.998 154.992 189.871 154.824 189.797C154.66 189.719 154.455 189.68 154.209 189.68C153.967 189.68 153.75 189.73 153.559 189.832C153.367 189.934 153.205 190.072 153.072 190.248C152.943 190.424 152.844 190.627 152.773 190.857C152.703 191.088 152.668 191.334 152.668 191.596ZM161.105 188.66V189.691H157.531V188.66H161.105ZM158.562 187.107H159.975V193.248C159.975 193.443 160.002 193.594 160.057 193.699C160.115 193.801 160.195 193.869 160.297 193.904C160.398 193.939 160.518 193.957 160.654 193.957C160.752 193.957 160.846 193.951 160.936 193.939C161.025 193.928 161.098 193.916 161.152 193.904L161.158 194.982C161.041 195.018 160.904 195.049 160.748 195.076C160.596 195.104 160.42 195.117 160.221 195.117C159.896 195.117 159.609 195.061 159.359 194.947C159.109 194.83 158.914 194.641 158.773 194.379C158.633 194.117 158.562 193.77 158.562 193.336V187.107Z" fill="#6B7783"/>
<path d="M109.094 212.598V214.426H90.543V212.598H109.094ZM109.094 216.289V218.117H90.543V216.289H109.094ZM106.645 206.938V224H103.434L96.168 212.164V224H92.9453V206.938H96.168L103.445 218.785V206.938H106.645ZM120.121 214.098H121.867C122.484 214.098 122.992 213.992 123.391 213.781C123.797 213.562 124.098 213.266 124.293 212.891C124.496 212.508 124.598 212.066 124.598 211.566C124.598 211.074 124.508 210.648 124.328 210.289C124.148 209.922 123.875 209.641 123.508 209.445C123.148 209.242 122.688 209.141 122.125 209.141C121.672 209.141 121.254 209.23 120.871 209.41C120.496 209.59 120.195 209.848 119.969 210.184C119.75 210.512 119.641 210.906 119.641 211.367H116.535C116.535 210.445 116.777 209.637 117.262 208.941C117.754 208.238 118.418 207.688 119.254 207.289C120.09 206.891 121.023 206.691 122.055 206.691C123.18 206.691 124.164 206.879 125.008 207.254C125.859 207.621 126.52 208.164 126.988 208.883C127.465 209.602 127.703 210.492 127.703 211.555C127.703 212.062 127.582 212.57 127.34 213.078C127.105 213.578 126.758 214.031 126.297 214.438C125.844 214.836 125.285 215.16 124.621 215.41C123.965 215.652 123.211 215.773 122.359 215.773H120.121V214.098ZM120.121 216.488V214.836H122.359C123.32 214.836 124.152 214.949 124.855 215.176C125.566 215.395 126.152 215.707 126.613 216.113C127.074 216.512 127.414 216.977 127.633 217.508C127.859 218.039 127.973 218.609 127.973 219.219C127.973 220.016 127.824 220.727 127.527 221.352C127.23 221.969 126.812 222.492 126.273 222.922C125.742 223.352 125.117 223.68 124.398 223.906C123.68 224.125 122.902 224.234 122.066 224.234C121.34 224.234 120.633 224.137 119.945 223.941C119.266 223.738 118.652 223.438 118.105 223.039C117.559 222.633 117.125 222.125 116.805 221.516C116.484 220.898 116.324 220.184 116.324 219.371H119.43C119.43 219.84 119.543 220.258 119.77 220.625C120.004 220.992 120.324 221.281 120.73 221.492C121.145 221.695 121.609 221.797 122.125 221.797C122.695 221.797 123.184 221.695 123.59 221.492C124.004 221.281 124.32 220.984 124.539 220.602C124.758 220.211 124.867 219.746 124.867 219.207C124.867 218.566 124.746 218.047 124.504 217.648C124.262 217.25 123.914 216.957 123.461 216.77C123.016 216.582 122.484 216.488 121.867 216.488H120.121ZM133.516 216.148L131.043 215.551L131.992 206.938H141.379V209.504H134.559L134.113 213.488C134.355 213.34 134.707 213.191 135.168 213.043C135.637 212.887 136.164 212.809 136.75 212.809C137.562 212.809 138.289 212.941 138.93 213.207C139.57 213.465 140.113 213.84 140.559 214.332C141.012 214.824 141.352 215.426 141.578 216.137C141.812 216.84 141.93 217.637 141.93 218.527C141.93 219.309 141.812 220.043 141.578 220.73C141.352 221.41 141.004 222.016 140.535 222.547C140.066 223.07 139.477 223.484 138.766 223.789C138.055 224.086 137.219 224.234 136.258 224.234C135.531 224.234 134.832 224.129 134.16 223.918C133.496 223.699 132.898 223.383 132.367 222.969C131.836 222.547 131.41 222.031 131.09 221.422C130.777 220.812 130.605 220.113 130.574 219.324H133.633C133.688 219.848 133.828 220.293 134.055 220.66C134.281 221.027 134.578 221.309 134.945 221.504C135.32 221.699 135.754 221.797 136.246 221.797C136.691 221.797 137.074 221.715 137.395 221.551C137.723 221.379 137.992 221.141 138.203 220.836C138.414 220.531 138.57 220.172 138.672 219.758C138.773 219.344 138.824 218.891 138.824 218.398C138.824 217.922 138.766 217.488 138.648 217.098C138.531 216.699 138.352 216.355 138.109 216.066C137.867 215.777 137.562 215.555 137.195 215.398C136.836 215.242 136.414 215.164 135.93 215.164C135.281 215.164 134.781 215.262 134.43 215.457C134.086 215.652 133.781 215.883 133.516 216.148ZM155.453 214.004V216.875C155.453 218.188 155.32 219.309 155.055 220.238C154.789 221.168 154.406 221.93 153.906 222.523C153.406 223.109 152.809 223.543 152.113 223.824C151.418 224.098 150.645 224.234 149.793 224.234C149.113 224.234 148.48 224.148 147.895 223.977C147.309 223.797 146.781 223.523 146.312 223.156C145.852 222.781 145.453 222.305 145.117 221.727C144.789 221.148 144.535 220.457 144.355 219.652C144.184 218.848 144.098 217.922 144.098 216.875V214.004C144.098 212.691 144.23 211.574 144.496 210.652C144.77 209.73 145.156 208.977 145.656 208.391C146.156 207.805 146.754 207.379 147.449 207.113C148.145 206.84 148.918 206.703 149.77 206.703C150.457 206.703 151.09 206.789 151.668 206.961C152.254 207.133 152.777 207.402 153.238 207.77C153.707 208.129 154.105 208.598 154.434 209.176C154.762 209.746 155.012 210.434 155.184 211.238C155.363 212.035 155.453 212.957 155.453 214.004ZM152.359 217.297V213.57C152.359 212.914 152.32 212.344 152.242 211.859C152.172 211.367 152.066 210.949 151.926 210.605C151.785 210.262 151.609 209.984 151.398 209.773C151.188 209.555 150.945 209.395 150.672 209.293C150.398 209.191 150.098 209.141 149.77 209.141C149.363 209.141 149 209.223 148.68 209.387C148.359 209.543 148.09 209.793 147.871 210.137C147.652 210.48 147.484 210.938 147.367 211.508C147.258 212.07 147.203 212.758 147.203 213.57V217.297C147.203 217.953 147.238 218.527 147.309 219.02C147.387 219.512 147.496 219.934 147.637 220.285C147.785 220.637 147.961 220.926 148.164 221.152C148.375 221.371 148.617 221.535 148.891 221.645C149.164 221.746 149.465 221.797 149.793 221.797C150.207 221.797 150.57 221.715 150.883 221.551C151.203 221.387 151.473 221.129 151.691 220.777C151.91 220.418 152.074 219.953 152.184 219.383C152.301 218.805 152.359 218.109 152.359 217.297ZM158.16 222.488C158.16 222.02 158.32 221.625 158.641 221.305C158.961 220.984 159.395 220.824 159.941 220.824C160.488 220.824 160.922 220.984 161.242 221.305C161.562 221.625 161.723 222.02 161.723 222.488C161.723 222.949 161.562 223.34 161.242 223.66C160.922 223.973 160.488 224.129 159.941 224.129C159.395 224.129 158.961 223.973 158.641 223.66C158.32 223.34 158.16 222.949 158.16 222.488ZM175.984 214.004V216.875C175.984 218.188 175.852 219.309 175.586 220.238C175.32 221.168 174.938 221.93 174.438 222.523C173.938 223.109 173.34 223.543 172.645 223.824C171.949 224.098 171.176 224.234 170.324 224.234C169.645 224.234 169.012 224.148 168.426 223.977C167.84 223.797 167.312 223.523 166.844 223.156C166.383 222.781 165.984 222.305 165.648 221.727C165.32 221.148 165.066 220.457 164.887 219.652C164.715 218.848 164.629 217.922 164.629 216.875V214.004C164.629 212.691 164.762 211.574 165.027 210.652C165.301 209.73 165.688 208.977 166.188 208.391C166.688 207.805 167.285 207.379 167.98 207.113C168.676 206.84 169.449 206.703 170.301 206.703C170.988 206.703 171.621 206.789 172.199 206.961C172.785 207.133 173.309 207.402 173.77 207.77C174.238 208.129 174.637 208.598 174.965 209.176C175.293 209.746 175.543 210.434 175.715 211.238C175.895 212.035 175.984 212.957 175.984 214.004ZM172.891 217.297V213.57C172.891 212.914 172.852 212.344 172.773 211.859C172.703 211.367 172.598 210.949 172.457 210.605C172.316 210.262 172.141 209.984 171.93 209.773C171.719 209.555 171.477 209.395 171.203 209.293C170.93 209.191 170.629 209.141 170.301 209.141C169.895 209.141 169.531 209.223 169.211 209.387C168.891 209.543 168.621 209.793 168.402 210.137C168.184 210.48 168.016 210.938 167.898 211.508C167.789 212.07 167.734 212.758 167.734 213.57V217.297C167.734 217.953 167.77 218.527 167.84 219.02C167.918 219.512 168.027 219.934 168.168 220.285C168.316 220.637 168.492 220.926 168.695 221.152C168.906 221.371 169.148 221.535 169.422 221.645C169.695 221.746 169.996 221.797 170.324 221.797C170.738 221.797 171.102 221.715 171.414 221.551C171.734 221.387 172.004 221.129 172.223 220.777C172.441 220.418 172.605 219.953 172.715 219.383C172.832 218.805 172.891 218.109 172.891 217.297ZM189.695 214.004V216.875C189.695 218.188 189.562 219.309 189.297 220.238C189.031 221.168 188.648 221.93 188.148 222.523C187.648 223.109 187.051 223.543 186.355 223.824C185.66 224.098 184.887 224.234 184.035 224.234C183.355 224.234 182.723 224.148 182.137 223.977C181.551 223.797 181.023 223.523 180.555 223.156C180.094 222.781 179.695 222.305 179.359 221.727C179.031 221.148 178.777 220.457 178.598 219.652C178.426 218.848 178.34 217.922 178.34 216.875V214.004C178.34 212.691 178.473 211.574 178.738 210.652C179.012 209.73 179.398 208.977 179.898 208.391C180.398 207.805 180.996 207.379 181.691 207.113C182.387 206.84 183.16 206.703 184.012 206.703C184.699 206.703 185.332 206.789 185.91 206.961C186.496 207.133 187.02 207.402 187.48 207.77C187.949 208.129 188.348 208.598 188.676 209.176C189.004 209.746 189.254 210.434 189.426 211.238C189.605 212.035 189.695 212.957 189.695 214.004ZM186.602 217.297V213.57C186.602 212.914 186.562 212.344 186.484 211.859C186.414 211.367 186.309 210.949 186.168 210.605C186.027 210.262 185.852 209.984 185.641 209.773C185.43 209.555 185.188 209.395 184.914 209.293C184.641 209.191 184.34 209.141 184.012 209.141C183.605 209.141 183.242 209.223 182.922 209.387C182.602 209.543 182.332 209.793 182.113 210.137C181.895 210.48 181.727 210.938 181.609 211.508C181.5 212.07 181.445 212.758 181.445 213.57V217.297C181.445 217.953 181.48 218.527 181.551 219.02C181.629 219.512 181.738 219.934 181.879 220.285C182.027 220.637 182.203 220.926 182.406 221.152C182.617 221.371 182.859 221.535 183.133 221.645C183.406 221.746 183.707 221.797 184.035 221.797C184.449 221.797 184.812 221.715 185.125 221.551C185.445 221.387 185.715 221.129 185.934 220.777C186.152 220.418 186.316 219.953 186.426 219.383C186.543 218.805 186.602 218.109 186.602 217.297Z" fill="#1EAA20"/>
<g clip-path="url(#clip0_12708_51516)">
<path d="M186.977 49.3613C184.352 39.6992 174.303 29.6484 164.639 27.0234C158.713 25.5469 150.775 24.0254 140 24C129.225 24.0254 121.287 25.5469 115.361 27.0234C105.699 29.6484 95.6484 39.6973 93.0234 49.3613C91.5469 55.2871 90.0254 63.2246 90 74C90.0254 84.7754 91.5469 92.7129 93.0234 98.6387C95.6484 108.303 105.699 118.352 115.361 120.977C121.287 122.453 129.229 123.975 140 124C150.773 123.975 158.713 122.453 164.639 120.977C174.303 118.352 184.352 108.303 186.977 98.6387C188.453 92.7129 189.975 84.7715 190 74C189.975 63.2246 188.453 55.2871 186.977 49.3613Z" fill="#DFFFE2"/>
<path d="M170.33 67.4133C168.954 66.0748 167.574 64.7317 166.191 63.384C166.152 61.5129 166.104 59.6405 166.045 57.7668C165.967 55.261 164.885 52.8704 163.025 51.011C161.235 49.1831 158.815 48.1061 156.258 47.9993C154.38 47.9407 152.504 47.8918 150.629 47.8528C149.272 46.4778 147.929 45.1021 146.6 43.7258C145.756 42.8193 144.735 42.0964 143.6 41.602C142.464 41.1077 141.239 40.8525 140.001 40.8525C138.763 40.8525 137.538 41.1077 136.402 41.602C135.267 42.0964 134.246 42.8193 133.402 43.7258C132.072 45.1034 130.726 46.4823 129.365 47.8625C127.49 47.899 125.615 47.9472 123.74 48.0071C118.574 48.1829 114.129 52.6184 113.953 57.7727C113.895 59.6438 113.846 61.5162 113.807 63.3899C112.425 64.7401 111.046 66.0819 109.668 67.4153C107.83 69.2024 106.797 71.5305 106.797 73.9993C106.805 75.2342 107.064 76.4546 107.557 77.5866C108.051 78.7187 108.769 79.7388 109.668 80.5852C111.046 81.9172 112.425 83.2577 113.807 84.6067C113.846 86.4817 113.895 88.356 113.953 90.2297C114.031 92.7395 115.113 95.1243 116.971 96.9856C118.762 98.8133 121.183 99.8902 123.74 99.9973C125.618 100.056 127.494 100.105 129.369 100.144C130.727 101.521 132.07 102.898 133.398 104.273C134.243 105.179 135.265 105.901 136.4 106.396C137.536 106.89 138.761 107.145 140 107.145C141.239 107.145 142.464 106.89 143.6 106.396C144.735 105.901 145.757 105.179 146.602 104.273C147.937 102.899 149.282 101.522 150.635 100.142C152.51 100.104 154.385 100.056 156.26 99.9973C161.424 99.8215 165.871 95.3821 166.047 90.2317C166.105 88.3606 166.154 86.4888 166.193 84.6164C167.575 83.2675 168.954 81.9231 170.332 80.5832C171.23 79.7365 171.948 78.7166 172.441 77.585C172.935 76.4535 173.194 75.2337 173.203 73.9993C173.203 71.5266 172.17 69.1985 170.33 67.4133Z" fill="url(#paint0_linear_12708_51516)"/>
<path d="M153.998 70.6358C149.255 75.6434 144.436 80.7639 139.698 85.8422C139.312 86.2565 138.848 86.5867 138.333 86.8126C137.818 87.0386 137.263 87.1555 136.702 87.1564H136.687C136.126 87.1523 135.572 87.0344 135.057 86.8096C134.542 86.5848 134.076 86.2576 133.687 85.8472C131.155 83.1903 128.605 80.535 126.069 77.9016C125.683 77.5077 125.379 77.0394 125.174 76.5242C124.969 76.0091 124.868 75.4574 124.875 74.9018C124.883 74.3462 125 73.7978 125.22 73.2888C125.439 72.7799 125.757 72.3206 126.154 71.9382C126.953 71.1529 128.025 70.7203 129.136 70.7345C130.247 70.7486 131.308 71.2085 132.088 72.0139C133.601 73.5911 135.118 75.1734 136.639 76.7608C140.401 72.756 144.181 68.7293 147.9 64.7582C149.48 63.0755 152.115 63.0418 153.809 64.6707C155.504 66.2995 155.59 68.9565 153.998 70.6358Z" fill="#EAFFEC"/>
</g>
<defs>
<linearGradient id="paint0_linear_12708_51516" x1="163" y1="97.0012" x2="116.998" y2="51.0012" gradientUnits="userSpaceOnUse">
<stop stop-color="#14B66C"/>
<stop offset="0.54" stop-color="#14B66C"/>
<stop offset="1" stop-color="#33D48A"/>
</linearGradient>
<clipPath id="clip0_12708_51516">
<rect width="100" height="100" fill="white" transform="translate(90 24)"/>
</clipPath>
</defs>
</svg>
