<svg width="376" height="188" viewBox="0 0 376 188" fill="none" xmlns="http://www.w3.org/2000/svg">
<path d="M319.377 159.036V157.356C321.08 156.888 321.695 156.483 321.695 154.593V114.826C321.695 112.951 321.132 112.396 319.377 112.062V110.397H345.367C367.217 110.397 373.865 122.817 373.865 134.573C373.865 146.471 367.64 159.033 344.707 159.033L319.377 159.036ZM332.453 150.896H345.108C358.086 150.896 362.758 143.771 362.758 134.576C362.758 123.417 356.2 118.313 345.108 118.313H332.453V150.896ZM300.58 159.036V157.356C302.597 156.944 303.467 155.733 302.387 153.528L300.295 148.154H274.257L272.296 153.528C271.212 155.733 271.879 156.944 273.9 157.356V159.036H257.139V157.356C258.227 156.963 259.212 156.329 260.021 155.502C260.83 154.674 261.442 153.676 261.811 152.579L277.223 115.756C277.898 114.279 278.044 112.805 275.262 112.062V110.397H299.301V112.062C296.301 112.812 296.65 114.432 297.34 115.906L312.68 152.579C313.715 154.593 314.844 156.738 317.353 157.356V159.036H300.58ZM277.088 140.76H297.464L288.798 118.726H285.682L277.088 140.76ZM203.462 159.036V157.356C205.171 156.888 205.779 156.483 205.779 154.593V114.826C205.779 112.951 205.235 112.396 203.462 112.062V110.397H229.451C251.316 110.397 257.949 122.817 257.949 134.573C257.949 146.471 251.71 159.033 228.784 159.033L203.462 159.036ZM216.529 150.896H229.174C242.163 150.896 246.831 143.771 246.831 134.576C246.831 123.417 240.28 118.313 229.174 118.313H216.537L216.529 150.896ZM184.657 159.036V157.356C186.674 156.944 187.57 155.733 186.486 153.528L184.394 148.154H158.345L156.383 153.528C155.292 155.733 155.975 156.944 158.011 157.356V159.036H141.216V157.356C142.306 156.968 143.294 156.335 144.104 155.508C144.913 154.68 145.524 153.678 145.888 152.579L161.333 115.752C162.001 114.275 162.132 112.801 159.372 112.059V110.394H183.37V112.059C180.408 112.809 180.746 114.429 181.409 115.902L196.783 152.575C197.792 154.589 198.932 156.734 201.455 157.353V159.033L184.657 159.036ZM161.187 140.76H181.556L172.886 118.726H169.785L161.187 140.76ZM339.559 88.161C338.337 87.4075 336.935 86.9976 335.501 86.9744C334.066 86.9513 332.651 87.316 331.407 88.0298C328.222 89.8977 324.565 90.8038 320.877 90.6388C317.188 90.4738 313.627 89.2447 310.622 87.0998C309.017 85.9749 307.997 86.5749 306.422 87.1523C293.583 91.8959 280.838 93.9883 269.266 84.0137C267.826 82.7651 266.93 83.2113 265.662 84.0137C256.892 89.5222 247.086 90.4559 237.018 90.5497C232.601 90.6059 232.372 87.9548 232.47 84.7787C232.56 81.7189 231.866 78.1865 236.887 78.374C242.292 78.5392 247.692 77.9293 252.924 76.5629C262.34 74.1555 264.924 69.7832 262.374 60.4124C260.392 54.4956 257.827 48.7904 254.717 43.3807C253.644 41.1983 249.793 38.5847 253.318 36.1023C255.439 35.1993 257.796 35.0079 260.035 35.5569C262.274 36.1058 264.274 37.3655 265.737 39.1471C269.53 46.7468 272.53 54.7173 274.688 62.9323C275.022 64.2934 275.322 65.6396 275.674 66.9858C278.513 77.7778 285.495 81.4189 296.245 77.834C297.652 77.3645 298.911 76.5349 299.898 75.4277C300.885 74.3205 301.565 72.9744 301.87 71.5231C302.688 67.9682 302.908 64.3021 302.522 60.6749C302.376 56.5501 303.231 54.3489 308.203 54.3002C313.175 54.2514 314.623 56.2051 314.42 60.7199C314.265 64.3513 314.421 67.9894 314.885 71.5943C314.888 72.4751 315.065 73.3467 315.407 74.1586C315.748 74.9705 316.247 75.7068 316.875 76.3249C317.502 76.943 318.246 77.4307 319.063 77.7599C319.88 78.089 320.754 78.2532 321.635 78.2428C323.398 78.313 325.124 77.7191 326.471 76.5783C327.818 75.4376 328.688 73.833 328.909 72.0818C329.804 67.8367 330.095 63.4863 329.772 59.1599C329.618 54.9976 331.935 54.3827 335.396 54.3977C338.857 54.4127 341.752 54.4914 341.587 59.1224C341.48 62.2353 341.556 65.3518 341.816 68.4557C342.371 74.8304 345.566 78.1303 351.108 78.314C356.732 78.5015 360.163 75.5916 360.857 69.037C361.334 63.5168 361.44 57.9709 361.176 52.4365C361.063 48.2892 362.796 47.0255 366.8 47.0968C370.52 47.1755 373.483 47.393 373.123 52.2265C372.961 54.6376 373.089 57.1013 373.123 59.4937C373.234 63.4764 373.011 67.4615 372.455 71.4068C370.419 83.7588 361.982 91.1309 351.516 91.1309C347.355 91.0759 343.262 90.0595 339.559 88.161ZM208.831 84.4975C209.034 71.3506 208.906 58.1887 208.906 45.0269C208.906 32.0525 209.037 19.0556 208.85 6.08121C208.797 1.88141 210.132 0.310235 214.52 0.257738C219.019 0.21649 220.778 1.58142 220.744 6.13746C220.629 32.2962 220.629 58.4425 220.744 84.5762C220.744 88.941 219.387 90.6584 214.715 90.6584C209.971 90.6584 208.771 88.866 208.831 84.4975ZM157.767 90.3622C153.129 90.1222 154.887 86.0124 154.651 83.4175C154.422 80.9164 154.685 78.5428 158.273 78.3778C162.773 78.1903 167.306 77.909 171.772 77.2753C185.298 75.4004 188.646 68.1295 181.417 56.7188C176.528 49.7005 171.288 42.9335 165.717 36.4435C174.116 34.7073 180.446 35.3973 184.84 42.9757C187.769 48.038 191.59 52.594 194.32 57.84C196.835 61.9686 197.649 66.9121 196.592 71.6293C195.534 76.3465 192.687 80.4692 188.65 83.1288C180.92 88.3435 171.716 90.9286 162.402 90.5009C160.868 90.4934 159.323 90.4447 157.767 90.3622Z" fill="white"/>
<path d="M139.075 115.092C137.441 110.556 135.191 106.266 132.389 102.343C129.42 98.4835 125.811 95.1607 121.721 92.5182C117.814 89.8311 113.736 87.4019 109.512 85.247C105.076 83.1371 100.478 81.3877 95.7618 80.0159C90.1922 78.3135 85.9087 77.08 82.9114 76.3151C80.8715 75.7976 78.3705 75.2128 75.4119 74.5715L75.0144 88.0896L33.5572 62.6771L76.4656 39.7053L75.9968 55.6609C83.2819 56.1146 90.5076 57.2584 97.5766 59.077C105.149 60.6716 112.403 63.5166 119.04 67.4953L135.49 29.9971C115.906 18.6648 93.6193 12.8445 70.9947 13.1531C54.474 12.5959 38.17 17.0397 24.2166 25.9026C18.0699 29.9124 13.0797 35.4613 9.7425 41.9977C6.40527 48.5342 4.83721 55.8301 5.19418 63.1605C5.10545 69.8651 6.41841 76.5146 9.04892 82.6823C11.3393 88.145 14.7045 93.0916 18.9445 97.2279C23.4657 101.398 28.5749 104.881 34.1085 107.566C39.723 110.435 45.5696 112.824 51.586 114.71C55.9982 116.059 60.9779 117.407 66.525 118.752L67.2374 107.128L107.892 133.822L64.2827 155.436L65.1451 141.367C59.2398 141.084 53.3711 140.28 47.6075 138.963C41.8935 137.782 36.3012 136.073 30.9024 133.86C27.1327 132.157 22.4205 129.69 16.7659 126.458L0.829468 164.226C1.17194 164.396 3.3568 165.715 7.38403 168.182C11.5353 170.718 15.8255 173.019 20.2344 175.074C26.8928 177.849 33.8294 179.902 40.9255 181.197C50.8203 183.221 60.8992 184.206 70.9985 184.138C82.4649 184.244 93.8749 182.521 104.799 179.034C115.016 175.73 124.13 169.683 131.144 161.552C138.389 153.173 142.24 142.387 141.94 131.314C141.974 125.778 141.004 120.281 139.075 115.092Z" fill="white"/>
</svg>
