<svg width="80" height="80" viewBox="0 0 80 80" fill="none" xmlns="http://www.w3.org/2000/svg">
<rect width="80" height="80" rx="40" fill="#F8B53C"/>
<path d="M30.741 37.6807C30.0829 37.6807 29.5273 38.4056 29.5273 39.2627C29.5273 40.1205 30.0828 40.8454 30.741 40.8454C31.3991 40.8454 31.9553 40.1205 31.9553 39.2627C31.9553 38.4056 31.3991 37.6807 30.741 37.6807Z" fill="white"/>
<path d="M41.3934 46.0469C40.7352 46.0469 40.1797 46.7718 40.1797 47.6296C40.1797 48.4867 40.7352 49.2116 41.3934 49.2116C42.0515 49.2116 42.6077 48.4867 42.6077 47.6296C42.6077 46.7718 42.0515 46.0469 41.3934 46.0469Z" fill="white"/>
<path d="M48.2864 33.2294C37.5931 23.39 38.14 23.7658 37.2899 23.4356C36.0817 22.9563 34.6441 23.2069 33.6511 24.1204L23.7516 33.2294C22.6384 34.2532 22 35.71 22 37.2274V53.3578C22 55.2583 23.5385 56.8052 25.4292 56.8052H46.608C48.4987 56.8052 50.0372 55.2583 50.0372 53.3578V37.2274C50.0373 35.71 49.3987 34.2532 48.2864 33.2294ZM34.9983 29.7715C35.0622 29.1585 35.6245 28.7232 36.2535 28.8412C36.8551 28.9667 37.1939 29.5439 37.0818 30.0815C36.9626 30.6543 36.4238 31.0191 35.8414 30.9098C35.2853 30.7938 34.9458 30.2885 34.9983 29.7715ZM27.4233 39.2622C27.4233 37.2267 28.914 35.5708 30.7465 35.5708C32.5796 35.5708 34.0702 37.2267 34.0702 39.2622C34.0702 41.2978 32.5795 42.9543 30.7465 42.9543C28.914 42.9543 27.4233 41.2978 27.4233 39.2622ZM33.4697 50.4883C32.7244 50.4883 32.2042 49.7242 32.498 49.0251L37.6324 36.7879C37.8581 36.2507 38.4761 35.9976 39.0133 36.2233C39.5505 36.4483 39.8029 37.0671 39.5779 37.6043L34.4429 49.8415C34.2734 50.245 33.8825 50.4883 33.4697 50.4883ZM41.3892 51.3208C39.5568 51.3208 38.0662 49.665 38.0662 47.6294C38.0662 45.5939 39.5569 43.9373 41.3892 43.9373C43.2217 43.9373 44.713 45.5939 44.713 47.6294C44.713 49.665 43.2217 51.3208 41.3892 51.3208Z" fill="white"/>
<path d="M57.7325 44.8131C54.2985 34.8165 52.3911 29.2584 52.364 29.1952C51.7671 27.8129 50.6069 26.7378 49.1823 26.2463C49.1005 26.2186 49.5829 26.3357 41.9336 24.5209L49.7111 31.6773C51.2572 33.099 52.144 35.1219 52.144 37.2277V50.8965L55.9382 49.2723C57.6545 48.5298 58.4525 46.5364 57.7325 44.8131Z" fill="white"/>
</svg>
