<svg width="114" height="114" viewBox="0 0 114 114" fill="none" xmlns="http://www.w3.org/2000/svg">
<circle cx="57" cy="57" r="57" fill="#0F2531"/>
<path d="M72.75 71.6252V53.8086C72.75 52.4665 71.6588 51.3752 70.3166 51.3752H63.75V43.2032C63.75 43.1065 63.7286 41.8903 62.6711 41.1816C61.6136 40.474 60.4807 40.9172 60.3908 40.9532L43.8814 47.7516C42.9668 48.1285 42.375 49.0105 42.375 50.0016V71.6252H41.25C40.629 71.6252 40.125 72.1292 40.125 72.7502C40.125 73.3712 40.629 73.8752 41.25 73.8752H43.5H62.625H71.625H72.75C73.371 73.8752 73.875 73.3712 73.875 72.7502C73.875 72.1292 73.371 71.6252 72.75 71.6252ZM44.625 50.0016C44.625 49.9273 44.67 49.861 44.7386 49.8328L61.248 43.0356C61.3099 43.0108 61.3661 43.0165 61.419 43.0525C61.473 43.0873 61.5 43.138 61.5 43.2032V52.5002V71.6252H44.625V50.0016ZM63.75 71.6252V53.6252H70.3166C70.4179 53.6252 70.5 53.7073 70.5 53.8086V71.6252H63.75Z" fill="white"/>
<path d="M55.875 66H50.25C49.629 66 49.125 66.504 49.125 67.125C49.125 67.746 49.629 68.25 50.25 68.25H55.875C56.496 68.25 57 67.746 57 67.125C57 66.504 56.496 66 55.875 66Z" fill="white"/>
<path d="M55.875 61.5H50.25C49.629 61.5 49.125 62.004 49.125 62.625C49.125 63.246 49.629 63.75 50.25 63.75H55.875C56.496 63.75 57 63.246 57 62.625C57 62.004 56.496 61.5 55.875 61.5Z" fill="white"/>
<path d="M55.875 57H50.25C49.629 57 49.125 57.504 49.125 58.125C49.125 58.746 49.629 59.25 50.25 59.25H55.875C56.496 59.25 57 58.746 57 58.125C57 57.504 56.496 57 55.875 57Z" fill="white"/>
<path d="M55.875 52.5H50.25C49.629 52.5 49.125 53.004 49.125 53.625C49.125 54.246 49.629 54.75 50.25 54.75H55.875C56.496 54.75 57 54.246 57 53.625C57 53.004 56.496 52.5 55.875 52.5Z" fill="white"/>
</svg>
