<svg width="114" height="114" viewBox="0 0 114 114" fill="none" xmlns="http://www.w3.org/2000/svg">
<circle cx="57" cy="57" r="57" fill="#8E1B3E"/>
<path d="M72.75 71.625V53.8083C72.75 52.4662 71.6588 51.375 70.3166 51.375H63.75V43.203C63.75 43.1062 63.7286 41.8901 62.6711 41.1813C61.6136 40.4737 60.4807 40.917 60.3908 40.953L43.8814 47.7513C42.9668 48.1282 42.375 49.0102 42.375 50.0013V71.625H41.25C40.629 71.625 40.125 72.129 40.125 72.75C40.125 73.371 40.629 73.875 41.25 73.875H43.5H62.625H71.625H72.75C73.371 73.875 73.875 73.371 73.875 72.75C73.875 72.129 73.371 71.625 72.75 71.625ZM44.625 50.0013C44.625 49.9271 44.67 49.8607 44.7386 49.8326L61.248 43.0353C61.3099 43.0106 61.3661 43.0162 61.419 43.0522C61.473 43.0871 61.5 43.1377 61.5 43.203V52.5V71.625H44.625V50.0013ZM63.75 71.625V53.625H70.3166C70.4179 53.625 70.5 53.7071 70.5 53.8083V71.625H63.75Z" fill="white"/>
<path d="M55.875 66H50.25C49.629 66 49.125 66.504 49.125 67.125C49.125 67.746 49.629 68.25 50.25 68.25H55.875C56.496 68.25 57 67.746 57 67.125C57 66.504 56.496 66 55.875 66Z" fill="white"/>
<path d="M55.875 61.5H50.25C49.629 61.5 49.125 62.004 49.125 62.625C49.125 63.246 49.629 63.75 50.25 63.75H55.875C56.496 63.75 57 63.246 57 62.625C57 62.004 56.496 61.5 55.875 61.5Z" fill="white"/>
<path d="M55.875 57H50.25C49.629 57 49.125 57.504 49.125 58.125C49.125 58.746 49.629 59.25 50.25 59.25H55.875C56.496 59.25 57 58.746 57 58.125C57 57.504 56.496 57 55.875 57Z" fill="white"/>
<path d="M55.875 52.5H50.25C49.629 52.5 49.125 53.004 49.125 53.625C49.125 54.246 49.629 54.75 50.25 54.75H55.875C56.496 54.75 57 54.246 57 53.625C57 53.004 56.496 52.5 55.875 52.5Z" fill="white"/>
</svg>
