<svg width="81" height="81" viewBox="0 0 81 81" fill="none" xmlns="http://www.w3.org/2000/svg">
<rect x="0.971924" y="0.90918" width="80" height="80" rx="40" fill="#F8B53C"/>
<g clip-path="url(#clip0_2035_9399)">
<path d="M58.8594 29.458C58.7436 29.5743 58.6059 29.6666 58.4544 29.7296C58.3028 29.7926 58.1402 29.825 57.9761 29.825C57.812 29.825 57.6494 29.7926 57.4978 29.7296C57.3462 29.6666 57.2086 29.5743 57.0928 29.458L55.8928 28.2597V33.5747C55.8928 33.9062 55.7611 34.2242 55.5266 34.4586C55.2922 34.693 54.9743 34.8247 54.6428 34.8247C54.3112 34.8247 53.9933 34.693 53.7589 34.4586C53.5245 34.2242 53.3928 33.9062 53.3928 33.5747V28.2597L52.1928 29.458C51.9558 29.6788 51.6424 29.799 51.3186 29.7933C50.9947 29.7876 50.6857 29.6564 50.4567 29.4274C50.2277 29.1984 50.0965 28.8894 50.0908 28.5656C50.0851 28.2417 50.2053 27.9283 50.4261 27.6914L53.7594 24.358C53.994 24.1244 54.3116 23.9932 54.6428 23.9932C54.9739 23.9932 55.2915 24.1244 55.5261 24.358L58.8594 27.6914C58.9755 27.8073 59.0676 27.945 59.1305 28.0966C59.1933 28.2482 59.2257 28.4106 59.2257 28.5747C59.2257 28.7388 59.1933 28.9013 59.1305 29.0528C59.0676 29.2044 58.9755 29.3421 58.8594 29.458ZM57.9761 41.908C57.977 44.1373 57.5307 46.3441 56.6636 48.3978C55.7964 50.4514 54.5261 52.3103 52.9278 53.8643C51.3295 55.4183 49.4357 56.6359 47.3585 57.445C45.2812 58.2541 43.0628 58.6382 40.8344 58.5747C36.5921 58.412 32.5676 56.6538 29.5656 53.6518C26.5637 50.6499 24.8055 46.6253 24.6428 42.383C24.5792 40.1547 24.9634 37.9363 25.7725 35.859C26.5815 33.7818 27.7991 31.888 29.3531 30.2897C30.9072 28.6913 32.766 27.421 34.8197 26.5539C36.8734 25.6868 39.0802 25.2405 41.3094 25.2414C43.4512 25.2336 45.5735 25.6487 47.5544 26.463C47.6171 26.4906 47.6735 26.5306 47.7203 26.5806C47.7671 26.6305 47.8033 26.6894 47.8268 26.7536C47.8503 26.8179 47.8606 26.8863 47.857 26.9546C47.8535 27.023 47.8361 27.0899 47.8061 27.1514C47.3169 28.2324 47.0911 29.414 47.1474 30.5992C47.2037 31.7844 47.5403 32.9394 48.1297 33.9692C48.7192 34.999 49.5445 35.8742 50.5379 36.523C51.5314 37.1718 52.6646 37.5757 53.8444 37.7014C54.8418 37.8051 55.8498 37.7117 56.8111 37.4264C56.8749 37.4051 56.9422 37.3968 57.0093 37.4021C57.0763 37.4075 57.1415 37.4262 57.2011 37.4574C57.2607 37.4885 57.3134 37.5313 57.3561 37.5832C57.3987 37.6352 57.4305 37.6952 57.4494 37.7597C57.8007 39.1145 57.9777 40.5085 57.9761 41.908ZM46.2628 45.2697C46.2627 44.2949 45.9369 43.3481 45.3372 42.5796C44.7375 41.8112 43.8983 41.2651 42.9528 41.028L40.2728 40.3614C39.8636 40.259 39.5011 40.0211 39.2444 39.6864C38.9899 39.3605 38.8531 38.9582 38.8561 38.5447C38.857 38.0492 39.0543 37.5742 39.4049 37.224C39.7554 36.8737 40.2306 36.6768 40.7261 36.6764H41.8928C42.3534 36.6772 42.7976 36.8476 43.1406 37.155C43.4837 37.4624 43.7016 37.8853 43.7528 38.343C43.7664 38.5098 43.8134 38.6721 43.8909 38.8203C43.9685 38.9686 44.075 39.0998 44.2041 39.2061C44.3333 39.3124 44.4825 39.3917 44.6429 39.4393C44.8033 39.4869 44.9716 39.5019 45.1378 39.4832C45.3041 39.4646 45.4649 39.4128 45.6108 39.3309C45.7566 39.2489 45.8846 39.1385 45.987 39.0063C46.0894 38.874 46.1642 38.7225 46.207 38.5607C46.2498 38.399 46.2597 38.2303 46.2361 38.0647C46.129 37.1048 45.7062 36.2076 45.0342 35.5138C44.3621 34.8201 43.4788 34.369 42.5228 34.2314V33.5747C42.5228 33.2432 42.3911 32.9252 42.1566 32.6908C41.9222 32.4564 41.6043 32.3247 41.2728 32.3247C40.9412 32.3247 40.6233 32.4564 40.3889 32.6908C40.1545 32.9252 40.0228 33.2432 40.0228 33.5747V34.2414C39.0313 34.4027 38.1259 34.9011 37.4593 35.6525C36.7927 36.404 36.4058 37.3624 36.3639 38.366C36.322 39.3696 36.6276 40.357 37.2292 41.1614C37.8308 41.9658 45.7513 40.4148 46.7258 40.6582L50.0908 41.028C55.8745 41.028 43.1749 43.8286 43.4329 44.2049C48.8092 46.6637 43.8024 45.0387 43.7467 45.4915C43.691 45.9443 43.4719 46.3611 43.1305 46.6637C42.7891 46.9663 42.349 47.1338 41.8928 47.1347H40.7261C40.2655 47.1339 39.8213 46.9635 39.4782 46.6561C39.1352 46.3487 38.9173 45.9258 38.8661 45.468C38.8524 45.3013 38.8055 45.139 38.7279 44.9908C38.6504 44.8425 38.5439 44.7113 38.4147 44.605C38.2856 44.4987 38.1364 44.4194 37.976 44.3718C37.8156 44.3241 37.6473 44.3092 37.481 44.3278C37.3148 44.3465 37.154 44.3983 37.0081 44.4802C36.8622 44.5622 36.7343 44.6725 36.6319 44.8048C36.5295 44.9371 36.4546 45.0886 36.4118 45.2503C36.3691 45.4121 36.3592 45.5808 36.3828 45.7464C36.4878 46.6946 36.9005 47.5823 37.5579 48.2737C38.2153 48.9651 39.081 49.4221 40.0228 49.5747V50.2414C40.0228 50.5729 40.1545 50.8908 40.3889 51.1253C40.6233 51.3597 40.9412 51.4914 41.2728 51.4914C41.6043 51.4914 41.9222 51.3597 42.1566 51.1253C42.3911 50.8908 42.5228 50.5729 42.5228 50.2414V49.5747C43.5609 49.4284 44.5112 48.9117 45.1985 48.12C45.8858 47.3283 46.2638 46.3148 46.2628 45.2664V45.2697Z" fill="white"/>
<path d="M48.8066 36.0758L44.2232 29.4092L37.5566 30.6592L34.6399 34.4092V41.0758V49.8258L37.5566 52.7425L46.3066 51.4925L49.6399 47.3258L48.8066 36.0758Z" fill="white"/>
<path d="M48.4686 39.3383V40.6287H35.3V39.3383H48.4686ZM48.4686 41.9275V43.218H35.3V41.9275H48.4686ZM46.6805 35.2422V47.364H44.5916L39.1353 38.6806V47.364H37.038V35.2422H39.1353L44.6083 43.9423V35.2422H46.6805Z" fill="#F8B53C"/>
</g>
<rect x="0.971924" y="0.90918" width="80" height="80" rx="40" fill="#F8B53C"/>
<path d="M41.1399 23.5762C31.4732 23.5762 23.6399 31.4095 23.6399 41.0762C23.6399 50.7428 31.4732 58.5762 41.1399 58.5762C41.5566 58.5762 41.9649 58.5595 42.3733 58.5262C41.0226 56.5845 40.3011 54.2747 40.3066 51.9095C40.3072 48.8155 41.5365 45.8484 43.7243 43.6606C45.9121 41.4728 48.8792 40.2435 51.9733 40.2429C54.3385 40.2375 56.6482 40.9589 58.5899 42.3095C58.6232 41.9012 58.6399 41.4929 58.6399 41.0762C58.6399 31.4095 50.8067 23.5762 41.1399 23.5762ZM42.8066 41.0762C42.8066 41.5182 42.631 41.9421 42.3184 42.2547C42.0059 42.5673 41.5819 42.7429 41.1399 42.7429H33.6399C33.1998 42.7399 32.7788 42.563 32.4687 42.2507C32.1586 41.9385 31.9846 41.5163 31.9846 41.0762C31.9846 40.6361 32.1586 40.2139 32.4687 39.9017C32.7788 39.5895 33.1998 39.4125 33.6399 39.4095H39.4733V30.2429C39.4717 30.0231 39.5137 29.8051 39.5968 29.6016C39.6799 29.398 39.8024 29.213 39.9574 29.057C40.1123 28.901 40.2965 28.7772 40.4995 28.6927C40.7024 28.6083 40.9201 28.5648 41.1399 28.5648C41.3598 28.5648 41.5774 28.6083 41.7804 28.6927C41.9834 28.7772 42.1676 28.901 42.3225 29.057C42.4774 29.213 42.5999 29.398 42.683 29.6016C42.7661 29.8051 42.8081 30.0231 42.8066 30.2429V41.0762Z" fill="white"/>
<path d="M51.9733 43.5762C50.3251 43.5762 48.7139 44.0649 47.3435 44.9806C45.9731 45.8963 44.905 47.1978 44.2742 48.7205C43.6435 50.2432 43.4785 51.9188 43.8 53.5353C44.1216 55.1518 44.9152 56.6367 46.0807 57.8021C47.2461 58.9675 48.731 59.7612 50.3475 60.0828C51.964 60.4043 53.6396 60.2393 55.1623 59.6086C56.685 58.9778 57.9865 57.9097 58.9022 56.5393C59.8179 55.1689 60.3066 53.5577 60.3066 51.9095C60.3066 50.8152 60.0911 49.7315 59.6723 48.7205C59.2535 47.7094 58.6397 46.7908 57.8659 46.0169C57.092 45.2431 56.1734 44.6293 55.1623 44.2105C54.1513 43.7917 53.0676 43.5762 51.9733 43.5762ZM51.9733 57.7429C51.6436 57.7429 51.3214 57.6452 51.0473 57.462C50.7732 57.2789 50.5595 57.0186 50.4334 56.7141C50.3072 56.4095 50.2742 56.0744 50.3385 55.7511C50.4028 55.4277 50.5615 55.1308 50.7946 54.8977C51.0277 54.6645 51.3247 54.5058 51.648 54.4415C51.9713 54.3772 52.3064 54.4102 52.611 54.5363C52.9155 54.6625 53.1759 54.8761 53.359 55.1502C53.5421 55.4243 53.6399 55.7465 53.6399 56.0762C53.6399 56.5182 53.4643 56.9421 53.1518 57.2547C52.8392 57.5673 52.4153 57.7429 51.9733 57.7429ZM53.6399 51.9095C53.6399 52.3516 53.4643 52.7755 53.1517 53.088C52.8392 53.4006 52.4153 53.5762 51.9733 53.5762C51.5312 53.5762 51.1073 53.4006 50.7948 53.088C50.4822 52.7755 50.3066 52.3516 50.3066 51.9095V47.7429C50.3066 47.3009 50.4822 46.877 50.7948 46.5644C51.1073 46.2518 51.5312 46.0763 51.9733 46.0763C52.4153 46.0763 52.8392 46.2518 53.1517 46.5644C53.4643 46.877 53.6399 47.3009 53.6399 47.7429V51.9095Z" fill="white"/>
<ellipse cx="52.3899" cy="51.9089" rx="6.25" ry="6.66667" fill="white"/>
<path d="M55.968 50.4503V51.2343H47.968V50.4503H55.968ZM55.968 52.0233V52.8073H47.968V52.0233H55.968ZM54.8817 47.9619V55.326H53.6127L50.298 50.0508V55.326H49.0239V47.9619H50.298L53.6228 53.2473V47.9619H54.8817Z" fill="#F8B53C"/>
<defs>
<clipPath id="clip0_2035_9399">
<rect width="40" height="40" fill="white" transform="translate(22.9719 21.9092)"/>
</clipPath>
</defs>
</svg>
