<svg width="80" height="80" viewBox="0 0 80 80" fill="none" xmlns="http://www.w3.org/2000/svg">
<path d="M0 18C0 8.05888 8.05887 0 18 0H62C71.9411 0 80 8.05887 80 18V62C80 71.9411 71.9411 80 62 80H18C8.05888 80 0 71.9411 0 62V18Z" fill="#FF5656"/>
<path d="M52.2427 37.0337C46.899 37.0337 42.3804 41.3654 42.4874 46.8147C42.556 50.3137 44.1262 53.6035 46.3954 56.4454H24.4706C22.3299 56.4454 20.5883 54.7039 20.5883 52.5631C20.5883 50.4222 22.3299 48.6807 24.4706 48.6807C26.9965 48.6807 29.0514 46.6258 29.0514 44.0999V42.8181C33.5132 39.2759 37.4037 34.2543 37.5127 28.697C37.6196 23.2461 33.0995 18.916 27.7573 18.916C22.413 18.916 17.895 23.2483 18.0019 28.697C18.1106 34.2452 21.9948 39.2702 26.4631 42.818V44.0999C26.4631 45.1986 25.5693 46.0925 24.4706 46.0925C20.9027 46.0925 18 48.9952 18 52.5631C18 56.1309 20.9027 59.0336 24.4706 59.0336H48.7682C49.8688 60.0903 51.0464 61.0557 52.2427 61.9118C57.2193 58.3505 61.8788 52.9039 61.9981 46.8147C62.1052 41.3638 57.5849 37.0337 52.2427 37.0337ZM25.169 29.269C25.169 27.8395 26.3278 26.6807 27.7573 26.6807C29.1867 26.6807 30.3455 27.8395 30.3455 29.269C30.3455 30.6984 29.1867 31.8572 27.7573 31.8572C26.3279 31.8572 25.169 30.6983 25.169 29.269ZM52.2428 49.9748C50.8133 49.9748 49.6546 48.8161 49.6546 47.3866C49.6546 45.9572 50.8133 44.7984 52.2428 44.7984C53.6723 44.7984 54.8311 45.9572 54.8311 47.3866C54.8311 48.816 53.6722 49.9748 52.2428 49.9748Z" fill="white"/>
</svg>
