<svg width="80" height="80" viewBox="0 0 80 80" fill="none" xmlns="http://www.w3.org/2000/svg">
<path d="M0 18C0 8.05888 8.05887 0 18 0H62C71.9411 0 80 8.05887 80 18V62C80 71.9411 71.9411 80 62 80H18C8.05888 80 0 71.9411 0 62V18Z" fill="#FF5656"/>
<path d="M59.8753 47.9247L46.4069 24.6399C45.0869 22.3035 42.6669 20.8955 39.9829 20.8955C37.2945 20.8955 34.8745 22.3035 33.5545 24.6399L20.0861 47.9687C18.7661 50.3006 18.7661 53.1167 20.1301 55.4487C21.4501 57.7411 23.8261 59.105 26.5101 59.105H53.4073C56.0913 59.105 58.5113 57.697 59.8753 55.3606C61.2437 53.0287 61.2437 50.2567 59.8753 47.9247ZM39.9785 53.1826C38.6541 53.1826 37.5717 52.1003 37.5717 50.7759C37.5717 49.4515 38.6541 48.3735 39.9785 48.3735C41.3029 48.3735 42.3853 49.4515 42.3325 50.8243C42.3853 52.0519 41.2545 53.1826 39.9785 53.1826ZM42.2357 37.6727C42.1389 39.5383 42.0421 41.3511 41.8925 43.2167C41.8441 43.8062 41.8441 44.3475 41.8441 44.9371C41.7957 45.9183 41.0081 46.6531 40.0269 46.6531C39.0457 46.6531 38.3109 45.9667 38.2097 44.9855C38.0161 42.1871 37.8665 39.3403 37.7213 36.4451C37.6729 35.6619 37.6245 34.9227 37.5717 34.1395C37.5717 32.9119 38.2625 31.8295 39.4373 31.5391C40.5681 31.2443 41.7473 31.8295 42.2357 32.9119C42.3853 33.3035 42.4337 33.6951 42.4337 34.0911C42.3853 35.2659 42.2841 36.4935 42.2357 37.6727Z" fill="white"/>
</svg>
