<svg width="80" height="80" viewBox="0 0 80 80" fill="none" xmlns="http://www.w3.org/2000/svg">
<rect width="80" height="80" rx="18" fill="#FF5656"/>
<path d="M59.4399 58.1864H58.0702V31.5996H59.2787C59.7176 31.5996 60.1224 31.3612 60.3362 30.9765C60.5484 30.593 60.5366 30.1235 60.3029 29.7503L54.2605 19.883C53.8191 19.177 52.6534 19.177 52.2118 19.883L46.1693 29.7503C45.9357 30.1235 45.9239 30.593 46.1364 30.9765C46.3499 31.3612 46.7547 31.5996 47.1938 31.5996H48.4023V58.1864H45.9853V37.6421C45.9853 36.9744 45.4445 36.4336 44.7768 36.4336H37.5258C36.8579 36.4336 36.3174 36.9744 36.3174 37.6421V58.1864H33.9004V44.893C33.9004 44.2253 33.3596 43.6845 32.6919 43.6845H25.4409C24.773 43.6845 24.2324 44.2253 24.2324 44.893V58.1864H20.6069C19.939 58.1864 19.3984 58.7272 19.3984 59.3949C19.3984 60.0629 19.939 60.6034 20.6069 60.6034H59.4399C60.1076 60.6034 60.6484 60.0629 60.6484 59.3949C60.6484 58.7272 60.1076 58.1864 59.4399 58.1864Z" fill="white"/>
</svg>
