<svg width="80" height="80" viewBox="0 0 80 80" fill="none" xmlns="http://www.w3.org/2000/svg">
<rect width="80" height="80" rx="40" fill="#F8B53C"/>
<path fill-rule="evenodd" clip-rule="evenodd" d="M49.3934 29.372C49.3934 30.1692 48.6511 30.8162 47.7364 30.8162C46.8217 30.8162 46.0793 30.1692 46.0793 29.372V26.4836C46.0793 23.5586 43.3595 21.1882 40.0034 21.1882C36.6472 21.1882 33.9274 23.5586 33.9274 26.4836V29.372C33.9274 30.1692 33.1851 30.8162 32.2704 30.8162C31.3557 30.8162 30.6133 30.1692 30.6133 29.372V26.4836C30.6133 21.9642 34.8178 18.2998 40.0034 18.2998C45.1889 18.2998 49.3934 21.9642 49.3934 26.4836V29.372Z" fill="white"/>
<path fill-rule="evenodd" clip-rule="evenodd" d="M56.2216 31.9715L57.9892 55.0786C58.0798 56.2763 57.5981 57.4509 56.6591 58.3271C55.7179 59.2032 54.4033 59.7 53.029 59.7H26.971C25.5967 59.7 24.2821 59.2032 23.3409 58.3271C22.4019 57.4509 21.9202 56.2763 22.0108 55.0786L23.7784 31.9715C23.9529 29.6954 26.1226 27.9277 28.7385 27.9277H51.2615C53.8774 27.9277 56.0471 29.6954 56.2216 31.9715ZM45.4926 36.4543C44.5161 38.2431 42.4237 40.3813 40 40.3813C37.5763 40.3813 35.4839 38.2431 34.5074 36.4543C34.1163 35.7341 33.1265 35.4279 32.3001 35.7707C31.4738 36.1115 31.1225 36.9742 31.5136 37.6943C33.0204 40.4595 36.255 43.2697 40 43.2697C43.745 43.2697 46.9796 40.4595 48.4864 37.6943C48.8775 36.9742 48.5262 36.1115 47.6999 35.7707C46.8735 35.4279 45.8837 35.7341 45.4926 36.4543Z" fill="white"/>
</svg>
