<svg width="277" height="286" viewBox="0 0 277 286" fill="none" xmlns="http://www.w3.org/2000/svg">
<g clip-path="url(#clip0_12708_51209)">
<rect x="-29.8008" y="-13.2007" width="336" height="312" rx="24" fill="white"/>
<g clip-path="url(#clip1_12708_51209)">
<path d="M144.995 97.2C144.995 103.165 140.159 108 134.194 108C128.23 108 123.395 103.165 123.395 97.2C123.395 91.2352 128.23 86.3997 134.194 86.3997C140.159 86.3997 144.995 91.2352 144.995 97.2Z" fill="#FFA000"/>
<path d="M153.117 75.3876C143.964 74.0804 136.895 66.2098 136.895 56.7008C136.895 54.0005 137.473 51.4386 138.496 49.1135C137.114 48.7897 135.678 48.6008 134.195 48.6008C123.774 48.6008 115.295 57.0785 115.295 67.5007V75.0282C115.295 80.3715 112.954 85.4152 108.848 88.8873C107.797 89.7836 107.195 91.0932 107.195 92.4755C107.195 95.0814 109.315 97.2008 111.92 97.2008H156.47C159.076 97.2008 161.195 95.0814 161.195 92.4755C161.195 91.0932 160.593 89.7836 159.516 88.863C155.531 85.4908 153.22 80.5954 153.117 75.3876Z" fill="#FFC107"/>
<path d="M169.285 56.6997C169.285 64.1556 163.241 70.1994 155.785 70.1994C148.33 70.1994 142.285 64.1556 142.285 56.6997C142.285 49.2439 148.33 43.1996 155.785 43.1996C163.241 43.1996 169.285 49.2439 169.285 56.6997Z" fill="#F44336"/>
</g>
<path d="M67.1523 158.402V160.599H57.4258V158.724L62.0254 153.793C62.4876 153.279 62.8522 152.826 63.1191 152.435C63.3861 152.038 63.5781 151.683 63.6953 151.371C63.819 151.052 63.8809 150.749 63.8809 150.463C63.8809 150.033 63.8092 149.665 63.666 149.359C63.5228 149.047 63.3112 148.806 63.0312 148.637C62.7578 148.467 62.4193 148.383 62.0156 148.383C61.5859 148.383 61.2148 148.487 60.9023 148.695C60.5964 148.904 60.362 149.193 60.1992 149.564C60.043 149.935 59.9648 150.355 59.9648 150.824H57.1426C57.1426 149.978 57.3444 149.203 57.748 148.5C58.1517 147.79 58.7214 147.227 59.457 146.81C60.1927 146.387 61.0651 146.176 62.0742 146.176C63.0703 146.176 63.9102 146.338 64.5938 146.664C65.2839 146.983 65.8047 147.445 66.1562 148.051C66.5143 148.65 66.6934 149.366 66.6934 150.199C66.6934 150.668 66.6185 151.127 66.4688 151.576C66.319 152.019 66.1042 152.461 65.8242 152.904C65.5508 153.34 65.2188 153.783 64.8281 154.232C64.4375 154.682 64.0046 155.147 63.5293 155.629L61.0586 158.402H67.1523ZM85.8633 153.158V153.832C85.8633 154.913 85.7168 155.883 85.4238 156.742C85.1309 157.601 84.7174 158.334 84.1836 158.939C83.6497 159.538 83.0117 159.997 82.2695 160.316C81.5339 160.635 80.7168 160.795 79.8184 160.795C78.9264 160.795 78.1094 160.635 77.3672 160.316C76.6315 159.997 75.9935 159.538 75.4531 158.939C74.9128 158.334 74.4928 157.601 74.1934 156.742C73.9004 155.883 73.7539 154.913 73.7539 153.832V153.158C73.7539 152.071 73.9004 151.101 74.1934 150.248C74.4863 149.389 74.8997 148.656 75.4336 148.051C75.974 147.445 76.612 146.983 77.3477 146.664C78.0898 146.345 78.9069 146.185 79.7988 146.185C80.6973 146.185 81.5143 146.345 82.25 146.664C82.9922 146.983 83.6302 147.445 84.1641 148.051C84.7044 148.656 85.1211 149.389 85.4141 150.248C85.7135 151.101 85.8633 152.071 85.8633 153.158ZM82.9043 153.832V153.139C82.9043 152.383 82.8359 151.719 82.6992 151.146C82.5625 150.573 82.3607 150.092 82.0938 149.701C81.8268 149.31 81.5013 149.017 81.1172 148.822C80.7331 148.62 80.2936 148.519 79.7988 148.519C79.304 148.519 78.8646 148.62 78.4805 148.822C78.1029 149.017 77.7806 149.31 77.5137 149.701C77.2533 150.092 77.0547 150.573 76.918 151.146C76.7812 151.719 76.7129 152.383 76.7129 153.139V153.832C76.7129 154.581 76.7812 155.245 76.918 155.824C77.0547 156.397 77.2565 156.882 77.5234 157.279C77.7904 157.67 78.1159 157.966 78.5 158.168C78.8841 158.37 79.3236 158.471 79.8184 158.471C80.3132 158.471 80.7526 158.37 81.1367 158.168C81.5208 157.966 81.8431 157.67 82.1035 157.279C82.3639 156.882 82.5625 156.397 82.6992 155.824C82.8359 155.245 82.9043 154.581 82.9043 153.832ZM90.6094 152.338V160.599H87.7969V150.033H90.4434L90.6094 152.338ZM93.793 149.965L93.7441 152.572C93.6074 152.553 93.4414 152.536 93.2461 152.523C93.0573 152.504 92.8848 152.494 92.7285 152.494C92.3314 152.494 91.9863 152.546 91.6934 152.65C91.4069 152.748 91.166 152.894 90.9707 153.09C90.7819 153.285 90.6387 153.523 90.541 153.803C90.4499 154.083 90.3978 154.402 90.3848 154.76L89.8184 154.584C89.8184 153.9 89.8867 153.272 90.0234 152.699C90.1602 152.12 90.3587 151.615 90.6191 151.185C90.8861 150.756 91.2116 150.424 91.5957 150.189C91.9798 149.955 92.4193 149.838 92.9141 149.838C93.0703 149.838 93.2298 149.851 93.3926 149.877C93.5553 149.896 93.6888 149.926 93.793 149.965ZM101.166 158.295V145.599H103.998V160.599H101.449L101.166 158.295ZM94.4863 155.443V155.238C94.4863 154.431 94.5775 153.698 94.7598 153.041C94.9421 152.377 95.209 151.807 95.5605 151.332C95.9121 150.857 96.3451 150.489 96.8594 150.228C97.3737 149.968 97.9596 149.838 98.6172 149.838C99.2357 149.838 99.776 149.968 100.238 150.228C100.707 150.489 101.104 150.86 101.43 151.342C101.762 151.817 102.029 152.38 102.23 153.031C102.432 153.676 102.579 154.382 102.67 155.15V155.599C102.579 156.335 102.432 157.019 102.23 157.65C102.029 158.282 101.762 158.835 101.43 159.31C101.104 159.779 100.707 160.144 100.238 160.404C99.7695 160.665 99.2227 160.795 98.5977 160.795C97.9401 160.795 97.3542 160.661 96.8398 160.394C96.332 160.127 95.9023 159.753 95.5508 159.271C95.2057 158.79 94.9421 158.223 94.7598 157.572C94.5775 156.921 94.4863 156.211 94.4863 155.443ZM97.2988 155.238V155.443C97.2988 155.879 97.3314 156.286 97.3965 156.664C97.4681 157.042 97.582 157.377 97.7383 157.67C97.901 157.956 98.1094 158.181 98.3633 158.344C98.6237 158.5 98.9395 158.578 99.3105 158.578C99.7923 158.578 100.189 158.471 100.502 158.256C100.814 158.034 101.052 157.732 101.215 157.348C101.384 156.963 101.482 156.521 101.508 156.019V154.74C101.488 154.33 101.43 153.962 101.332 153.637C101.241 153.305 101.104 153.021 100.922 152.787C100.746 152.553 100.525 152.37 100.258 152.24C99.9974 152.11 99.6882 152.045 99.3301 152.045C98.9655 152.045 98.653 152.129 98.3926 152.299C98.1322 152.461 97.9206 152.686 97.7578 152.973C97.6016 153.259 97.4844 153.598 97.4062 153.988C97.3346 154.372 97.2988 154.789 97.2988 155.238ZM111.059 160.795C110.238 160.795 109.503 160.665 108.852 160.404C108.201 160.137 107.647 159.769 107.191 159.301C106.742 158.832 106.397 158.288 106.156 157.67C105.915 157.045 105.795 156.381 105.795 155.678V155.287C105.795 154.486 105.909 153.754 106.137 153.09C106.365 152.426 106.69 151.849 107.113 151.361C107.543 150.873 108.064 150.499 108.676 150.238C109.288 149.971 109.978 149.838 110.746 149.838C111.495 149.838 112.159 149.961 112.738 150.209C113.318 150.456 113.803 150.808 114.193 151.264C114.59 151.719 114.89 152.266 115.092 152.904C115.294 153.536 115.395 154.239 115.395 155.014V156.185H106.996V154.31H112.631V154.096C112.631 153.705 112.559 153.357 112.416 153.051C112.279 152.738 112.071 152.491 111.791 152.308C111.511 152.126 111.153 152.035 110.717 152.035C110.346 152.035 110.027 152.116 109.76 152.279C109.493 152.442 109.275 152.67 109.105 152.963C108.943 153.256 108.819 153.601 108.734 153.998C108.656 154.389 108.617 154.818 108.617 155.287V155.678C108.617 156.101 108.676 156.491 108.793 156.849C108.917 157.208 109.089 157.517 109.311 157.777C109.538 158.038 109.812 158.239 110.131 158.383C110.456 158.526 110.824 158.598 111.234 158.598C111.742 158.598 112.214 158.5 112.65 158.305C113.093 158.103 113.474 157.8 113.793 157.396L115.16 158.881C114.939 159.2 114.636 159.506 114.252 159.799C113.874 160.092 113.419 160.333 112.885 160.521C112.351 160.704 111.742 160.795 111.059 160.795ZM119.809 152.338V160.599H116.996V150.033H119.643L119.809 152.338ZM122.992 149.965L122.943 152.572C122.807 152.553 122.641 152.536 122.445 152.523C122.257 152.504 122.084 152.494 121.928 152.494C121.531 152.494 121.186 152.546 120.893 152.65C120.606 152.748 120.365 152.894 120.17 153.09C119.981 153.285 119.838 153.523 119.74 153.803C119.649 154.083 119.597 154.402 119.584 154.76L119.018 154.584C119.018 153.9 119.086 153.272 119.223 152.699C119.359 152.12 119.558 151.615 119.818 151.185C120.085 150.756 120.411 150.424 120.795 150.189C121.179 149.955 121.618 149.838 122.113 149.838C122.27 149.838 122.429 149.851 122.592 149.877C122.755 149.896 122.888 149.926 122.992 149.965ZM130.033 157.68C130.033 157.478 129.975 157.295 129.857 157.133C129.74 156.97 129.522 156.82 129.203 156.683C128.891 156.54 128.438 156.41 127.846 156.293C127.312 156.176 126.814 156.029 126.352 155.853C125.896 155.671 125.499 155.453 125.16 155.199C124.828 154.945 124.568 154.646 124.379 154.301C124.19 153.949 124.096 153.549 124.096 153.099C124.096 152.657 124.19 152.24 124.379 151.849C124.574 151.459 124.851 151.114 125.209 150.814C125.574 150.508 126.016 150.271 126.537 150.101C127.064 149.926 127.657 149.838 128.314 149.838C129.232 149.838 130.02 149.984 130.678 150.277C131.342 150.57 131.85 150.974 132.201 151.488C132.559 151.996 132.738 152.575 132.738 153.226H129.926C129.926 152.953 129.867 152.709 129.75 152.494C129.639 152.273 129.464 152.1 129.223 151.976C128.988 151.846 128.682 151.781 128.305 151.781C127.992 151.781 127.722 151.836 127.494 151.947C127.266 152.051 127.09 152.195 126.967 152.377C126.85 152.553 126.791 152.748 126.791 152.963C126.791 153.126 126.824 153.272 126.889 153.402C126.96 153.526 127.074 153.64 127.23 153.744C127.387 153.848 127.589 153.946 127.836 154.037C128.09 154.122 128.402 154.2 128.773 154.271C129.535 154.428 130.215 154.633 130.814 154.887C131.413 155.134 131.889 155.473 132.24 155.902C132.592 156.325 132.768 156.882 132.768 157.572C132.768 158.041 132.663 158.471 132.455 158.861C132.247 159.252 131.947 159.594 131.557 159.887C131.166 160.173 130.697 160.398 130.15 160.56C129.61 160.717 129.001 160.795 128.324 160.795C127.341 160.795 126.508 160.619 125.824 160.267C125.147 159.916 124.633 159.47 124.281 158.93C123.936 158.383 123.764 157.823 123.764 157.25H126.43C126.443 157.634 126.54 157.943 126.723 158.178C126.911 158.412 127.149 158.581 127.436 158.685C127.729 158.79 128.044 158.842 128.383 158.842C128.747 158.842 129.05 158.793 129.291 158.695C129.532 158.591 129.714 158.454 129.838 158.285C129.968 158.109 130.033 157.907 130.033 157.68ZM139.75 146.381H145.053C146.14 146.381 147.074 146.543 147.855 146.869C148.643 147.195 149.249 147.676 149.672 148.314C150.095 148.952 150.307 149.737 150.307 150.668C150.307 151.43 150.176 152.084 149.916 152.631C149.662 153.171 149.301 153.624 148.832 153.988C148.37 154.346 147.826 154.633 147.201 154.848L146.273 155.336H141.664L141.645 153.051H145.072C145.587 153.051 146.013 152.96 146.352 152.777C146.69 152.595 146.944 152.341 147.113 152.016C147.289 151.69 147.377 151.312 147.377 150.883C147.377 150.427 147.292 150.033 147.123 149.701C146.954 149.369 146.697 149.115 146.352 148.939C146.007 148.764 145.574 148.676 145.053 148.676H142.68V160.599H139.75V146.381ZM147.699 160.599L144.457 154.262L147.553 154.242L150.834 160.463V160.599H147.699ZM157.25 160.795C156.43 160.795 155.694 160.665 155.043 160.404C154.392 160.137 153.839 159.769 153.383 159.301C152.934 158.832 152.589 158.288 152.348 157.67C152.107 157.045 151.986 156.381 151.986 155.678V155.287C151.986 154.486 152.1 153.754 152.328 153.09C152.556 152.426 152.882 151.849 153.305 151.361C153.734 150.873 154.255 150.499 154.867 150.238C155.479 149.971 156.169 149.838 156.938 149.838C157.686 149.838 158.35 149.961 158.93 150.209C159.509 150.456 159.994 150.808 160.385 151.264C160.782 151.719 161.081 152.266 161.283 152.904C161.485 153.536 161.586 154.239 161.586 155.014V156.185H153.188V154.31H158.822V154.096C158.822 153.705 158.751 153.357 158.607 153.051C158.471 152.738 158.262 152.491 157.982 152.308C157.702 152.126 157.344 152.035 156.908 152.035C156.537 152.035 156.218 152.116 155.951 152.279C155.684 152.442 155.466 152.67 155.297 152.963C155.134 153.256 155.01 153.601 154.926 153.998C154.848 154.389 154.809 154.818 154.809 155.287V155.678C154.809 156.101 154.867 156.491 154.984 156.849C155.108 157.208 155.281 157.517 155.502 157.777C155.73 158.038 156.003 158.239 156.322 158.383C156.648 158.526 157.016 158.598 157.426 158.598C157.934 158.598 158.406 158.5 158.842 158.305C159.285 158.103 159.665 157.8 159.984 157.396L161.352 158.881C161.13 159.2 160.827 159.506 160.443 159.799C160.066 160.092 159.61 160.333 159.076 160.521C158.542 160.704 157.934 160.795 157.25 160.795ZM167.553 158.598C167.898 158.598 168.204 158.532 168.471 158.402C168.738 158.266 168.946 158.077 169.096 157.836C169.252 157.588 169.333 157.299 169.34 156.967H171.986C171.98 157.709 171.781 158.37 171.391 158.949C171 159.522 170.476 159.974 169.818 160.307C169.161 160.632 168.425 160.795 167.611 160.795C166.791 160.795 166.075 160.658 165.463 160.385C164.857 160.111 164.353 159.734 163.949 159.252C163.546 158.764 163.243 158.197 163.041 157.553C162.839 156.902 162.738 156.205 162.738 155.463V155.18C162.738 154.431 162.839 153.734 163.041 153.09C163.243 152.439 163.546 151.872 163.949 151.391C164.353 150.902 164.857 150.521 165.463 150.248C166.068 149.974 166.778 149.838 167.592 149.838C168.458 149.838 169.216 150.004 169.867 150.336C170.525 150.668 171.039 151.143 171.41 151.762C171.788 152.374 171.98 153.099 171.986 153.939H169.34C169.333 153.588 169.258 153.269 169.115 152.982C168.979 152.696 168.777 152.468 168.51 152.299C168.249 152.123 167.927 152.035 167.543 152.035C167.133 152.035 166.798 152.123 166.537 152.299C166.277 152.468 166.075 152.702 165.932 153.002C165.788 153.295 165.688 153.63 165.629 154.008C165.577 154.379 165.551 154.769 165.551 155.18V155.463C165.551 155.873 165.577 156.267 165.629 156.644C165.681 157.022 165.779 157.357 165.922 157.65C166.072 157.943 166.277 158.174 166.537 158.344C166.798 158.513 167.136 158.598 167.553 158.598ZM176.586 150.033V160.599H173.764V150.033H176.586ZM173.588 147.279C173.588 146.869 173.731 146.53 174.018 146.264C174.304 145.997 174.688 145.863 175.17 145.863C175.645 145.863 176.026 145.997 176.312 146.264C176.605 146.53 176.752 146.869 176.752 147.279C176.752 147.689 176.605 148.028 176.312 148.295C176.026 148.562 175.645 148.695 175.17 148.695C174.688 148.695 174.304 148.562 174.018 148.295C173.731 148.028 173.588 147.689 173.588 147.279ZM183.773 160.795C182.953 160.795 182.217 160.665 181.566 160.404C180.915 160.137 180.362 159.769 179.906 159.301C179.457 158.832 179.112 158.288 178.871 157.67C178.63 157.045 178.51 156.381 178.51 155.678V155.287C178.51 154.486 178.624 153.754 178.852 153.09C179.079 152.426 179.405 151.849 179.828 151.361C180.258 150.873 180.779 150.499 181.391 150.238C182.003 149.971 182.693 149.838 183.461 149.838C184.21 149.838 184.874 149.961 185.453 150.209C186.033 150.456 186.518 150.808 186.908 151.264C187.305 151.719 187.605 152.266 187.807 152.904C188.008 153.536 188.109 154.239 188.109 155.014V156.185H179.711V154.31H185.346V154.096C185.346 153.705 185.274 153.357 185.131 153.051C184.994 152.738 184.786 152.491 184.506 152.308C184.226 152.126 183.868 152.035 183.432 152.035C183.061 152.035 182.742 152.116 182.475 152.279C182.208 152.442 181.99 152.67 181.82 152.963C181.658 153.256 181.534 153.601 181.449 153.998C181.371 154.389 181.332 154.818 181.332 155.287V155.678C181.332 156.101 181.391 156.491 181.508 156.849C181.632 157.208 181.804 157.517 182.025 157.777C182.253 158.038 182.527 158.239 182.846 158.383C183.171 158.526 183.539 158.598 183.949 158.598C184.457 158.598 184.929 158.5 185.365 158.305C185.808 158.103 186.189 157.8 186.508 157.396L187.875 158.881C187.654 159.2 187.351 159.506 186.967 159.799C186.589 160.092 186.133 160.333 185.6 160.521C185.066 160.704 184.457 160.795 183.773 160.795ZM193.168 158.549L195.512 150.033H198.451L194.887 160.599H193.109L193.168 158.549ZM191.557 150.033L193.91 158.558L193.959 160.599H192.172L188.607 150.033H191.557ZM204.438 160.795C203.617 160.795 202.882 160.665 202.23 160.404C201.579 160.137 201.026 159.769 200.57 159.301C200.121 158.832 199.776 158.288 199.535 157.67C199.294 157.045 199.174 156.381 199.174 155.678V155.287C199.174 154.486 199.288 153.754 199.516 153.09C199.743 152.426 200.069 151.849 200.492 151.361C200.922 150.873 201.443 150.499 202.055 150.238C202.667 149.971 203.357 149.838 204.125 149.838C204.874 149.838 205.538 149.961 206.117 150.209C206.697 150.456 207.182 150.808 207.572 151.264C207.969 151.719 208.269 152.266 208.471 152.904C208.673 153.536 208.773 154.239 208.773 155.014V156.185H200.375V154.31H206.01V154.096C206.01 153.705 205.938 153.357 205.795 153.051C205.658 152.738 205.45 152.491 205.17 152.308C204.89 152.126 204.532 152.035 204.096 152.035C203.725 152.035 203.406 152.116 203.139 152.279C202.872 152.442 202.654 152.67 202.484 152.963C202.322 153.256 202.198 153.601 202.113 153.998C202.035 154.389 201.996 154.818 201.996 155.287V155.678C201.996 156.101 202.055 156.491 202.172 156.849C202.296 157.208 202.468 157.517 202.689 157.777C202.917 158.038 203.191 158.239 203.51 158.383C203.835 158.526 204.203 158.598 204.613 158.598C205.121 158.598 205.593 158.5 206.029 158.305C206.472 158.103 206.853 157.8 207.172 157.396L208.539 158.881C208.318 159.2 208.015 159.506 207.631 159.799C207.253 160.092 206.798 160.333 206.264 160.521C205.73 160.704 205.121 160.795 204.438 160.795ZM216.615 158.295V145.599H219.447V160.599H216.898L216.615 158.295ZM209.936 155.443V155.238C209.936 154.431 210.027 153.698 210.209 153.041C210.391 152.377 210.658 151.807 211.01 151.332C211.361 150.857 211.794 150.489 212.309 150.228C212.823 149.968 213.409 149.838 214.066 149.838C214.685 149.838 215.225 149.968 215.688 150.228C216.156 150.489 216.553 150.86 216.879 151.342C217.211 151.817 217.478 152.38 217.68 153.031C217.882 153.676 218.028 154.382 218.119 155.15V155.599C218.028 156.335 217.882 157.019 217.68 157.65C217.478 158.282 217.211 158.835 216.879 159.31C216.553 159.779 216.156 160.144 215.688 160.404C215.219 160.665 214.672 160.795 214.047 160.795C213.389 160.795 212.803 160.661 212.289 160.394C211.781 160.127 211.352 159.753 211 159.271C210.655 158.79 210.391 158.223 210.209 157.572C210.027 156.921 209.936 156.211 209.936 155.443ZM212.748 155.238V155.443C212.748 155.879 212.781 156.286 212.846 156.664C212.917 157.042 213.031 157.377 213.188 157.67C213.35 157.956 213.559 158.181 213.812 158.344C214.073 158.5 214.389 158.578 214.76 158.578C215.242 158.578 215.639 158.471 215.951 158.256C216.264 158.034 216.501 157.732 216.664 157.348C216.833 156.963 216.931 156.521 216.957 156.019V154.74C216.938 154.33 216.879 153.962 216.781 153.637C216.69 153.305 216.553 153.021 216.371 152.787C216.195 152.553 215.974 152.37 215.707 152.24C215.447 152.11 215.137 152.045 214.779 152.045C214.415 152.045 214.102 152.129 213.842 152.299C213.581 152.461 213.37 152.686 213.207 152.973C213.051 153.259 212.934 153.598 212.855 153.988C212.784 154.372 212.748 154.789 212.748 155.238Z" fill="#2B3B45"/>
<path d="M117.625 189.726L114.566 198.6H112.717L116.57 188.362H117.752L117.625 189.726ZM120.184 198.6L117.119 189.726L116.985 188.362H118.173L122.041 198.6H120.184ZM120.037 194.803V196.202H114.468V194.803H120.037ZM124.586 192.539V198.6H122.891V190.992H124.488L124.586 192.539ZM124.312 194.514L123.735 194.507C123.735 193.982 123.801 193.497 123.932 193.052C124.063 192.607 124.255 192.22 124.509 191.892C124.762 191.559 125.076 191.304 125.451 191.125C125.83 190.943 126.269 190.851 126.766 190.851C127.113 190.851 127.429 190.903 127.715 191.006C128.005 191.104 128.256 191.261 128.467 191.477C128.683 191.693 128.847 191.969 128.959 192.307C129.077 192.644 129.135 193.052 129.135 193.53V198.6H127.441V193.678C127.441 193.307 127.384 193.017 127.272 192.806C127.164 192.595 127.007 192.445 126.801 192.356C126.599 192.262 126.358 192.215 126.077 192.215C125.758 192.215 125.486 192.276 125.261 192.398C125.041 192.52 124.86 192.686 124.72 192.897C124.579 193.108 124.476 193.352 124.41 193.629C124.345 193.905 124.312 194.2 124.312 194.514ZM129.03 194.064L128.235 194.24C128.235 193.781 128.298 193.347 128.425 192.939C128.556 192.527 128.746 192.166 128.995 191.857C129.248 191.543 129.559 191.296 129.93 191.118C130.3 190.94 130.724 190.851 131.202 190.851C131.591 190.851 131.938 190.905 132.243 191.013C132.552 191.116 132.815 191.28 133.03 191.505C133.246 191.73 133.41 192.023 133.523 192.384C133.635 192.74 133.691 193.171 133.691 193.678V198.6H131.99V193.671C131.99 193.286 131.934 192.989 131.821 192.778C131.713 192.567 131.559 192.421 131.357 192.342C131.155 192.257 130.914 192.215 130.633 192.215C130.37 192.215 130.138 192.264 129.937 192.363C129.74 192.457 129.573 192.59 129.438 192.764C129.302 192.932 129.198 193.127 129.128 193.347C129.063 193.568 129.03 193.807 129.03 194.064ZM135.112 194.88V194.718C135.112 194.17 135.191 193.661 135.351 193.193C135.51 192.719 135.74 192.309 136.04 191.962C136.345 191.611 136.715 191.339 137.151 191.146C137.591 190.95 138.088 190.851 138.641 190.851C139.199 190.851 139.696 190.95 140.132 191.146C140.573 191.339 140.945 191.611 141.25 191.962C141.555 192.309 141.787 192.719 141.946 193.193C142.105 193.661 142.185 194.17 142.185 194.718V194.88C142.185 195.429 142.105 195.937 141.946 196.406C141.787 196.875 141.555 197.285 141.25 197.636C140.945 197.983 140.575 198.255 140.139 198.452C139.703 198.644 139.209 198.74 138.655 198.74C138.098 198.74 137.598 198.644 137.158 198.452C136.722 198.255 136.352 197.983 136.047 197.636C135.742 197.285 135.51 196.875 135.351 196.406C135.191 195.937 135.112 195.429 135.112 194.88ZM136.806 194.718V194.88C136.806 195.222 136.841 195.546 136.912 195.85C136.982 196.155 137.092 196.422 137.242 196.652C137.392 196.882 137.584 197.062 137.819 197.193C138.053 197.325 138.332 197.39 138.655 197.39C138.97 197.39 139.241 197.325 139.471 197.193C139.705 197.062 139.898 196.882 140.048 196.652C140.198 196.422 140.308 196.155 140.378 195.85C140.453 195.546 140.491 195.222 140.491 194.88V194.718C140.491 194.381 140.453 194.062 140.378 193.762C140.308 193.457 140.195 193.188 140.041 192.954C139.891 192.719 139.698 192.536 139.464 192.405C139.234 192.269 138.96 192.201 138.641 192.201C138.323 192.201 138.046 192.269 137.812 192.405C137.582 192.536 137.392 192.719 137.242 192.954C137.092 193.188 136.982 193.457 136.912 193.762C136.841 194.062 136.806 194.381 136.806 194.718ZM148.183 196.807V190.992H149.884V198.6H148.281L148.183 196.807ZM148.422 195.225L148.991 195.211C148.991 195.721 148.935 196.193 148.823 196.624C148.71 197.05 148.537 197.423 148.302 197.742C148.068 198.056 147.768 198.302 147.402 198.48C147.037 198.654 146.598 198.74 146.088 198.74C145.717 198.74 145.377 198.686 145.068 198.579C144.759 198.471 144.491 198.304 144.266 198.079C144.046 197.854 143.875 197.561 143.753 197.2C143.631 196.839 143.57 196.408 143.57 195.907V190.992H145.265V195.921C145.265 196.197 145.298 196.429 145.363 196.617C145.429 196.8 145.518 196.947 145.63 197.06C145.743 197.172 145.874 197.252 146.024 197.299C146.174 197.346 146.334 197.369 146.502 197.369C146.985 197.369 147.365 197.275 147.641 197.088C147.923 196.896 148.122 196.638 148.239 196.314C148.361 195.991 148.422 195.628 148.422 195.225ZM153.302 192.616V198.6H151.607V190.992H153.203L153.302 192.616ZM152.999 194.514L152.451 194.507C152.455 193.968 152.53 193.474 152.676 193.024C152.826 192.574 153.032 192.187 153.295 191.864C153.562 191.54 153.88 191.292 154.251 191.118C154.621 190.94 155.034 190.851 155.488 190.851C155.854 190.851 156.184 190.903 156.48 191.006C156.78 191.104 157.035 191.266 157.246 191.491C157.462 191.716 157.626 192.009 157.738 192.37C157.851 192.726 157.907 193.164 157.907 193.685V198.6H156.205V193.678C156.205 193.312 156.152 193.024 156.044 192.813C155.941 192.597 155.788 192.445 155.587 192.356C155.39 192.262 155.144 192.215 154.848 192.215C154.558 192.215 154.298 192.276 154.068 192.398C153.838 192.52 153.644 192.686 153.484 192.897C153.33 193.108 153.21 193.352 153.126 193.629C153.041 193.905 152.999 194.2 152.999 194.514ZM163.124 190.992V192.229H158.835V190.992H163.124ZM160.073 189.129H161.767V196.497C161.767 196.732 161.8 196.912 161.866 197.039C161.936 197.161 162.032 197.243 162.154 197.285C162.276 197.327 162.419 197.348 162.583 197.348C162.7 197.348 162.813 197.341 162.92 197.327C163.028 197.313 163.115 197.299 163.18 197.285L163.188 198.579C163.047 198.621 162.883 198.658 162.695 198.691C162.513 198.724 162.302 198.74 162.063 198.74C161.673 198.74 161.329 198.672 161.029 198.536C160.729 198.396 160.495 198.168 160.326 197.854C160.157 197.54 160.073 197.123 160.073 196.603V189.129Z" fill="#6B7783"/>
<path d="M88.7945 220.717V222.911H66.5336V220.717H88.7945ZM88.7945 225.147V227.34H66.5336V225.147H88.7945ZM85.8555 213.925V234.4H82.0023L73.2836 220.197V234.4H69.4164V213.925H73.2836L82.0164 228.142V213.925H85.8555ZM107.526 213.868V234.4H103.799V218.214L98.8633 219.845V216.836L107.104 213.868H107.526ZM118.115 231.053L118.087 233.626C118.087 234.629 117.838 235.647 117.341 236.678C116.845 237.709 116.202 238.562 115.415 239.237L113.446 238.154C113.699 237.732 113.934 237.306 114.149 236.875C114.374 236.443 114.552 235.975 114.684 235.468C114.824 234.972 114.895 234.414 114.895 233.795V231.053H118.115ZM134.751 222.404V225.85C134.751 227.425 134.591 228.77 134.273 229.886C133.954 231.001 133.495 231.915 132.895 232.628C132.295 233.331 131.577 233.851 130.743 234.189C129.909 234.517 128.98 234.681 127.959 234.681C127.143 234.681 126.384 234.578 125.68 234.372C124.977 234.156 124.345 233.828 123.782 233.387C123.229 232.937 122.751 232.365 122.348 231.672C121.954 230.978 121.649 230.148 121.434 229.182C121.227 228.217 121.124 227.106 121.124 225.85V222.404C121.124 220.829 121.284 219.489 121.602 218.382C121.93 217.276 122.395 216.372 122.995 215.668C123.595 214.965 124.312 214.454 125.146 214.136C125.98 213.807 126.909 213.643 127.93 213.643C128.755 213.643 129.515 213.747 130.209 213.953C130.912 214.159 131.54 214.482 132.093 214.923C132.655 215.354 133.134 215.917 133.527 216.611C133.921 217.295 134.221 218.12 134.427 219.086C134.643 220.042 134.751 221.148 134.751 222.404ZM131.038 226.356V221.884C131.038 221.097 130.991 220.412 130.898 219.831C130.813 219.24 130.687 218.739 130.518 218.326C130.349 217.914 130.138 217.581 129.885 217.328C129.632 217.065 129.341 216.873 129.013 216.751C128.685 216.629 128.324 216.568 127.93 216.568C127.443 216.568 127.007 216.667 126.623 216.864C126.238 217.051 125.915 217.351 125.652 217.764C125.39 218.176 125.188 218.725 125.048 219.409C124.916 220.084 124.851 220.909 124.851 221.884V226.356C124.851 227.143 124.893 227.832 124.977 228.423C125.071 229.014 125.202 229.52 125.371 229.942C125.549 230.364 125.76 230.711 126.004 230.982C126.257 231.245 126.548 231.442 126.876 231.573C127.204 231.695 127.565 231.756 127.959 231.756C128.455 231.756 128.891 231.657 129.266 231.461C129.651 231.264 129.974 230.954 130.237 230.532C130.499 230.101 130.696 229.543 130.827 228.859C130.968 228.165 131.038 227.331 131.038 226.356ZM141.332 224.978L138.365 224.261L139.504 213.925H150.768V217.004H142.584L142.049 221.786C142.34 221.607 142.762 221.429 143.315 221.251C143.877 221.064 144.51 220.97 145.213 220.97C146.188 220.97 147.06 221.129 147.829 221.448C148.598 221.757 149.249 222.207 149.784 222.798C150.327 223.389 150.735 224.111 151.007 224.964C151.288 225.807 151.429 226.764 151.429 227.832C151.429 228.77 151.288 229.651 151.007 230.476C150.735 231.292 150.318 232.018 149.755 232.656C149.193 233.284 148.485 233.781 147.632 234.147C146.779 234.503 145.776 234.681 144.623 234.681C143.751 234.681 142.912 234.554 142.105 234.301C141.309 234.039 140.591 233.659 139.954 233.162C139.316 232.656 138.805 232.037 138.421 231.306C138.046 230.575 137.84 229.736 137.802 228.789H141.473C141.538 229.417 141.707 229.951 141.979 230.392C142.251 230.832 142.607 231.17 143.048 231.404C143.498 231.639 144.018 231.756 144.609 231.756C145.143 231.756 145.602 231.657 145.987 231.461C146.38 231.254 146.704 230.968 146.957 230.603C147.21 230.237 147.398 229.806 147.52 229.309C147.641 228.812 147.702 228.268 147.702 227.678C147.702 227.106 147.632 226.586 147.491 226.117C147.351 225.639 147.135 225.226 146.845 224.879C146.554 224.532 146.188 224.265 145.748 224.078C145.316 223.89 144.81 223.797 144.229 223.797C143.451 223.797 142.851 223.914 142.429 224.148C142.016 224.382 141.651 224.659 141.332 224.978ZM167.657 222.404V225.85C167.657 227.425 167.498 228.77 167.179 229.886C166.86 231.001 166.401 231.915 165.801 232.628C165.201 233.331 164.484 233.851 163.649 234.189C162.815 234.517 161.887 234.681 160.865 234.681C160.049 234.681 159.29 234.578 158.587 234.372C157.884 234.156 157.251 233.828 156.688 233.387C156.135 232.937 155.657 232.365 155.254 231.672C154.86 230.978 154.555 230.148 154.34 229.182C154.134 228.217 154.03 227.106 154.03 225.85V222.404C154.03 220.829 154.19 219.489 154.509 218.382C154.837 217.276 155.301 216.372 155.901 215.668C156.501 214.965 157.218 214.454 158.052 214.136C158.887 213.807 159.815 213.643 160.837 213.643C161.662 213.643 162.421 213.747 163.115 213.953C163.818 214.159 164.446 214.482 164.999 214.923C165.562 215.354 166.04 215.917 166.434 216.611C166.827 217.295 167.127 218.12 167.334 219.086C167.549 220.042 167.657 221.148 167.657 222.404ZM163.945 226.356V221.884C163.945 221.097 163.898 220.412 163.804 219.831C163.72 219.24 163.593 218.739 163.424 218.326C163.255 217.914 163.045 217.581 162.791 217.328C162.538 217.065 162.248 216.873 161.92 216.751C161.591 216.629 161.23 216.568 160.837 216.568C160.349 216.568 159.913 216.667 159.529 216.864C159.145 217.051 158.821 217.351 158.559 217.764C158.296 218.176 158.095 218.725 157.954 219.409C157.823 220.084 157.757 220.909 157.757 221.884V226.356C157.757 227.143 157.799 227.832 157.884 228.423C157.977 229.014 158.109 229.52 158.277 229.942C158.455 230.364 158.666 230.711 158.91 230.982C159.163 231.245 159.454 231.442 159.782 231.573C160.11 231.695 160.471 231.756 160.865 231.756C161.362 231.756 161.798 231.657 162.173 231.461C162.557 231.264 162.88 230.954 163.143 230.532C163.405 230.101 163.602 229.543 163.734 228.859C163.874 228.165 163.945 227.331 163.945 226.356ZM170.905 232.586C170.905 232.023 171.098 231.55 171.482 231.165C171.866 230.781 172.387 230.589 173.043 230.589C173.699 230.589 174.22 230.781 174.604 231.165C174.988 231.55 175.18 232.023 175.18 232.586C175.18 233.139 174.988 233.607 174.604 233.992C174.22 234.367 173.699 234.554 173.043 234.554C172.387 234.554 171.866 234.367 171.482 233.992C171.098 233.607 170.905 233.139 170.905 232.586ZM192.295 222.404V225.85C192.295 227.425 192.135 228.77 191.816 229.886C191.498 231.001 191.038 231.915 190.438 232.628C189.838 233.331 189.121 233.851 188.287 234.189C187.452 234.517 186.524 234.681 185.502 234.681C184.687 234.681 183.927 234.578 183.224 234.372C182.521 234.156 181.888 233.828 181.326 233.387C180.773 232.937 180.295 232.365 179.891 231.672C179.498 230.978 179.193 230.148 178.977 229.182C178.771 228.217 178.668 227.106 178.668 225.85V222.404C178.668 220.829 178.827 219.489 179.146 218.382C179.474 217.276 179.938 216.372 180.538 215.668C181.138 214.965 181.855 214.454 182.69 214.136C183.524 213.807 184.452 213.643 185.474 213.643C186.299 213.643 187.059 213.747 187.752 213.953C188.455 214.159 189.084 214.482 189.637 214.923C190.199 215.354 190.677 215.917 191.071 216.611C191.465 217.295 191.765 218.12 191.971 219.086C192.187 220.042 192.295 221.148 192.295 222.404ZM188.582 226.356V221.884C188.582 221.097 188.535 220.412 188.441 219.831C188.357 219.24 188.23 218.739 188.062 218.326C187.893 217.914 187.682 217.581 187.429 217.328C187.176 217.065 186.885 216.873 186.557 216.751C186.229 216.629 185.868 216.568 185.474 216.568C184.987 216.568 184.551 216.667 184.166 216.864C183.782 217.051 183.459 217.351 183.196 217.764C182.934 218.176 182.732 218.725 182.591 219.409C182.46 220.084 182.395 220.909 182.395 221.884V226.356C182.395 227.143 182.437 227.832 182.521 228.423C182.615 229.014 182.746 229.52 182.915 229.942C183.093 230.364 183.304 230.711 183.548 230.982C183.801 231.245 184.091 231.442 184.42 231.573C184.748 231.695 185.109 231.756 185.502 231.756C185.999 231.756 186.435 231.657 186.81 231.461C187.195 231.264 187.518 230.954 187.78 230.532C188.043 230.101 188.24 229.543 188.371 228.859C188.512 228.165 188.582 227.331 188.582 226.356ZM208.748 222.404V225.85C208.748 227.425 208.588 228.77 208.27 229.886C207.951 231.001 207.491 231.915 206.891 232.628C206.291 233.331 205.574 233.851 204.74 234.189C203.905 234.517 202.977 234.681 201.955 234.681C201.14 234.681 200.38 234.578 199.677 234.372C198.974 234.156 198.341 233.828 197.779 233.387C197.226 232.937 196.748 232.365 196.345 231.672C195.951 230.978 195.646 230.148 195.43 229.182C195.224 228.217 195.121 227.106 195.121 225.85V222.404C195.121 220.829 195.28 219.489 195.599 218.382C195.927 217.276 196.391 216.372 196.991 215.668C197.591 214.965 198.309 214.454 199.143 214.136C199.977 213.807 200.905 213.643 201.927 213.643C202.752 213.643 203.512 213.747 204.205 213.953C204.909 214.159 205.537 214.482 206.09 214.923C206.652 215.354 207.13 215.917 207.524 216.611C207.918 217.295 208.218 218.12 208.424 219.086C208.64 220.042 208.748 221.148 208.748 222.404ZM205.035 226.356V221.884C205.035 221.097 204.988 220.412 204.895 219.831C204.81 219.24 204.684 218.739 204.515 218.326C204.346 217.914 204.135 217.581 203.882 217.328C203.629 217.065 203.338 216.873 203.01 216.751C202.682 216.629 202.321 216.568 201.927 216.568C201.44 216.568 201.004 216.667 200.62 216.864C200.235 217.051 199.912 217.351 199.649 217.764C199.387 218.176 199.185 218.725 199.045 219.409C198.913 220.084 198.848 220.909 198.848 221.884V226.356C198.848 227.143 198.89 227.832 198.974 228.423C199.068 229.014 199.199 229.52 199.368 229.942C199.546 230.364 199.757 230.711 200.001 230.982C200.254 231.245 200.545 231.442 200.873 231.573C201.201 231.695 201.562 231.756 201.955 231.756C202.452 231.756 202.888 231.657 203.263 231.461C203.648 231.264 203.971 230.954 204.234 230.532C204.496 230.101 204.693 229.543 204.824 228.859C204.965 228.165 205.035 227.331 205.035 226.356Z" fill="#1EAA20"/>
</g>
<defs>
<clipPath id="clip0_12708_51209">
<rect x="0.199219" width="276" height="285.6" rx="24" fill="white"/>
</clipPath>
<clipPath id="clip1_12708_51209">
<rect width="64.8" height="64.8" fill="white" transform="translate(105.801 43.1992)"/>
</clipPath>
</defs>
</svg>
