<svg width="60" height="60" viewBox="0 0 60 60" fill="none" xmlns="http://www.w3.org/2000/svg">
<g clip-path="url(#clip0_12894_46269)">
<path d="M30 0C13.4314 0 0 13.4314 0 30C0 46.5686 13.4314 60 30 60C46.5686 60 60 46.5686 60 30C60 13.4314 46.5686 0 30 0ZM37.9207 17.9798C37.9207 17.9798 34.8511 17.738 33.6418 18.1845C31.6431 18.9227 31.5955 20.6494 31.5955 22.2959V25.6584H37.7067L36.8138 32.0906H31.5955V47.9687H24.6932V32.0906H18.9544V25.6584H24.6935V20.2031C24.6935 14.4267 29.1398 12.3339 31.7907 12.0827C34.4416 11.8316 37.9207 12.585 37.9207 12.585V17.9798Z" fill="white"/>
</g>
<defs>
<clipPath id="clip0_12894_46269">
<rect width="60" height="60" fill="white"/>
</clipPath>
</defs>
</svg>
