<svg width="102" height="21" viewBox="0 0 102 21" fill="none" xmlns="http://www.w3.org/2000/svg">
<path d="M28.4409 6.44705C26.0198 6.40954 24.024 8.23795 23.9851 10.5305V10.633C23.9416 12.8813 25.8316 14.7365 28.2045 14.7767C28.2755 14.778 28.3452 14.778 28.4155 14.7754C29.3083 14.7814 30.1823 14.5316 30.923 14.0601L31.4535 14.5142C31.7629 14.8122 32.2686 14.8162 32.5833 14.5235C32.7354 14.3815 32.8211 14.1873 32.8218 13.9851C32.8238 13.7473 32.7099 13.5229 32.5137 13.3742L32.0656 13.0146C32.5947 12.3047 32.876 11.4574 32.872 10.5888C32.9149 8.34043 31.0248 6.48522 28.6512 6.44504C28.5809 6.4437 28.5106 6.44501 28.4409 6.44705ZM30.7476 12.0796C30.5667 12.3743 30.3229 12.6315 30.0309 12.8324C28.7865 13.6482 27.08 13.3542 26.2181 12.1761C25.8832 11.7173 25.7131 11.1701 25.7325 10.6135C25.7325 9.06978 26.8932 7.89906 28.4336 7.89906C29.9432 7.90107 31.1648 9.06174 31.1628 10.491C31.1628 10.5325 31.1615 10.5727 31.1594 10.6135C31.1608 11.1279 31.0188 11.6342 30.7476 12.0796Z" fill="#CFCFD4"/>
<path d="M38.7557 8.1094C38.3257 8.10607 37.9747 8.46707 37.9707 8.91714V11.8252C37.9707 12.7113 37.4939 13.2544 36.7196 13.2544C35.9454 13.2544 35.5395 12.7508 35.5395 11.8252V8.94527C35.5395 8.49587 35.1913 8.13152 34.762 8.13152C34.3326 8.13152 33.9844 8.49587 33.9844 8.94594V12.2753C33.9844 13.8183 34.8336 14.7761 36.2012 14.7761C36.8944 14.7881 37.5515 14.4539 37.9707 13.8759V13.8974C37.9707 14.3508 38.3223 14.7192 38.7557 14.7192C39.1883 14.7192 39.5393 14.3508 39.5393 13.8974V8.94594C39.546 8.49051 39.1977 8.11545 38.7624 8.11009L38.7557 8.1094Z" fill="#CFCFD4"/>
<path d="M43.7511 8.1123C41.9977 8.1123 40.6549 9.53016 40.6549 11.4651C40.5859 13.2245 41.9421 14.7073 43.6841 14.777C43.7551 14.7796 43.8268 14.7803 43.8985 14.7776C44.7376 14.8011 45.5541 14.4963 46.1776 13.9271C46.3122 13.7958 46.3899 13.6143 46.3913 13.4247C46.3913 13.0584 46.0979 12.7617 45.7356 12.7617C45.5815 12.757 45.4308 12.8113 45.315 12.9137C44.9258 13.254 44.4262 13.4381 43.9118 13.4314C43.1028 13.4515 42.4049 12.8615 42.2817 12.0531H46.0021C46.4201 12.0551 46.761 11.7142 46.763 11.2916V11.2735C46.763 9.73577 45.7074 8.1123 43.7511 8.1123ZM42.2576 10.9085C42.4116 10.0298 42.9829 9.46988 43.737 9.46988C44.6519 9.46988 45.0799 10.1785 45.185 10.9085H42.2576Z" fill="#CFCFD4"/>
<path d="M52.087 8.11233C51.6584 8.109 51.3068 8.47 51.3034 8.92007V11.8281C51.3034 12.7142 50.8252 13.2574 50.055 13.2574C49.2841 13.2574 48.8716 12.7537 48.8716 11.8281V8.9482C48.8716 8.4988 48.5233 8.13445 48.094 8.13445C47.664 8.13445 47.3164 8.4988 47.3164 8.94887V12.2782C47.3164 13.8213 48.1656 14.779 49.5333 14.779C50.2258 14.7911 50.8835 14.4569 51.3027 13.8789V13.9003C51.3027 14.3537 51.6544 14.7221 52.087 14.7221C52.5203 14.7221 52.872 14.3537 52.872 13.9003V8.94887C52.8773 8.49344 52.5291 8.11838 52.0944 8.11302H52.0877L52.087 8.11233Z" fill="#CFCFD4"/>
<path d="M57.0797 8.11074C55.3263 8.11074 53.9868 9.52859 53.9868 11.4635C53.9185 13.2229 55.2748 14.7057 57.0168 14.7754C57.0878 14.7781 57.1594 14.7787 57.2311 14.7761C58.0703 14.7995 58.8867 14.4948 59.5096 13.9255C59.6449 13.7942 59.7219 13.6127 59.7239 13.4232C59.7239 13.0568 59.4306 12.7601 59.0676 12.7601C58.9135 12.7554 58.7635 12.8097 58.6476 12.9122C58.2572 13.2511 57.7589 13.4346 57.2445 13.4299C56.4314 13.4553 55.7275 12.8639 55.6036 12.0515H59.3341C59.7527 12.0535 60.0936 11.7126 60.0956 11.29V11.2719C60.0956 9.73421 59.0367 8.11074 57.0797 8.11074ZM55.5902 10.9069C55.7443 10.0282 56.3162 9.46832 57.0704 9.46832C57.9852 9.46832 58.4132 10.1769 58.5184 10.9069H55.5902ZM66.4535 10.418C67.0871 10.0584 67.4695 9.35446 67.4407 8.603C67.4501 8.07591 67.2512 7.56824 66.8902 7.20055C66.3135 6.66877 65.5574 6.39953 64.7899 6.45043H61.9883C61.5604 6.44642 61.2107 6.8054 61.2067 7.25279V13.9576C61.2014 14.4044 61.5436 14.772 61.9716 14.7774H64.9011C66.763 14.7774 67.8734 13.9047 67.8734 12.4266C67.8734 11.4555 67.4206 10.8038 66.4535 10.418ZM62.7431 7.89776H64.6184C65.4275 7.89776 65.8936 8.24871 65.8936 8.85818C65.8936 9.73421 65.0317 9.86414 64.518 9.86414H62.7431V7.89776ZM64.9178 13.3026H62.7431V11.2666H64.8167C65.5078 11.2666 66.3269 11.4374 66.3269 12.2859C66.3269 13.1338 65.4275 13.302 64.9111 13.302L64.9178 13.3026Z" fill="#CFCFD4"/>
<path d="M73.2043 8.11064C72.775 8.10732 72.4241 8.46831 72.42 8.91838V11.8264C72.42 12.7125 71.9392 13.2557 71.1683 13.2557C70.3981 13.2557 69.9848 12.752 69.9848 11.8264V8.94651C69.9848 8.49711 69.6366 8.13277 69.2079 8.13277C68.778 8.13277 68.4297 8.49711 68.4297 8.94718V12.2765C68.4297 13.8196 69.2789 14.7773 70.6499 14.7773C71.3431 14.7894 72.0001 14.4552 72.42 13.8772V13.8986C72.4488 14.3514 72.8219 14.6943 73.2545 14.6641C73.647 14.6374 73.9591 14.3092 73.9852 13.8986V8.94718C73.9926 8.49309 73.6477 8.1187 73.215 8.11134L73.2043 8.11064ZM78.1651 10.7789L78.0473 10.7401C77.415 10.5291 76.8692 10.3476 76.8692 9.96252C76.8692 9.64774 77.1665 9.44481 77.6226 9.44481C78.1082 9.4716 78.5804 9.61358 79.0043 9.85871C79.1021 9.9143 79.212 9.94243 79.3225 9.94109C79.6828 9.94846 79.9815 9.6531 79.9889 9.28139V9.2633C79.9835 8.99072 79.8281 8.74626 79.5884 8.63173C78.9896 8.30021 78.3225 8.12205 77.6434 8.11067C76.32 8.11067 75.3944 8.93446 75.3944 10.1373C75.3944 11.3389 76.4064 11.7883 77.3501 12.0662L77.4947 12.1097C78.1062 12.3019 78.6346 12.466 78.6346 12.8692C78.6346 13.2724 78.3205 13.4439 77.7921 13.4439C77.184 13.4224 76.5953 13.2182 76.099 12.8545C75.9931 12.7942 75.8746 12.7607 75.7534 12.7587C75.3944 12.7547 75.101 13.0521 75.097 13.4218V13.4365C75.089 13.6716 75.2055 13.8926 75.4011 14.0145C76.0963 14.5034 76.9161 14.7693 77.7573 14.778C79.2012 14.778 80.0967 13.9857 80.0967 12.6911C80.1101 11.5605 79.1738 11.1038 78.1651 10.7789ZM83.3275 9.65243C83.6906 9.65243 83.9852 9.33229 83.9852 8.93781C83.9852 8.54266 83.6906 8.22319 83.3275 8.22319H82.3832V7.25875C82.3832 6.80868 82.0463 6.44434 81.6331 6.44434C81.2185 6.44434 80.883 6.80868 80.883 7.25875V8.22319H80.7544C80.3914 8.22319 80.0967 8.54266 80.0967 8.93781C80.0967 9.33229 80.3914 9.65176 80.7544 9.65176H80.883V12.8451C80.883 14.1277 81.4724 14.7773 82.6297 14.7773C82.9505 14.7807 83.2686 14.7224 83.5707 14.6059C83.8988 14.4733 84.0663 14.0761 83.9437 13.7191C83.8399 13.4164 83.5566 13.2329 83.2619 13.2771H83.2418C83.1628 13.2932 83.0824 13.3012 83.0014 13.3026C82.5741 13.3026 82.3832 13.0916 82.3832 12.6201V9.65176L83.3275 9.65243Z" fill="#CFCFD4"/>
<path d="M87.6344 8.1123C85.881 8.1123 84.5415 9.53016 84.5415 11.4651C84.4732 13.2245 85.8295 14.7073 87.5715 14.777C87.6425 14.7796 87.7141 14.7803 87.7858 14.7776C88.625 14.8011 89.4414 14.4963 90.0649 13.9271C90.1996 13.7958 90.2766 13.6143 90.2786 13.4247C90.2846 13.0584 89.9953 12.757 89.6336 12.751H89.6229C89.4689 12.7463 89.3182 12.8005 89.2023 12.9037C88.8118 13.2419 88.3135 13.4261 87.7992 13.4207C86.9895 13.4475 86.2869 12.8615 86.1583 12.0531H89.8888C90.3074 12.0551 90.6483 11.7142 90.6503 11.2916V11.2735C90.6503 9.73577 89.5914 8.1123 87.6344 8.1123ZM86.1442 10.9085C86.2983 10.0298 86.8702 9.46988 87.6244 9.46988C88.5393 9.46988 88.9672 10.1785 89.0724 10.9085H86.1442Z" fill="#CFCFD4"/>
<path d="M94.8441 8.11201C94.3016 8.11201 93.7551 8.52055 93.3753 9.19566V8.97129C93.3753 8.5172 93.0137 8.14817 92.5669 8.14817C92.1202 8.14817 91.7579 8.51653 91.7579 8.97196V13.9616C91.7519 14.4063 92.1015 14.772 92.5381 14.7773H92.5636C93.0083 14.7793 93.372 14.415 93.3753 13.9616V12.0836C93.3753 10.7401 93.954 9.91698 95.0001 9.71471C95.3819 9.65644 95.6592 9.31621 95.6458 8.92441C95.6679 8.49778 95.3464 8.13411 94.9278 8.11134C94.9003 8.11 94.8722 8.11067 94.8441 8.11201ZM97.144 6.67473H96.3497C96.2693 6.67473 96.2043 6.6245 96.2023 6.56087C96.2043 6.49725 96.2693 6.44568 96.3497 6.44434H98.2772C98.3576 6.44568 98.4225 6.49792 98.4246 6.56087C98.4225 6.6245 98.3576 6.67473 98.2772 6.67473H97.4822V8.54065C97.4822 8.61097 97.4112 8.66723 97.3235 8.66723C97.2357 8.66723 97.1648 8.61097 97.1648 8.54065L97.1447 6.6754L97.144 6.67473ZM98.9804 6.56556C98.9818 6.49926 99.0387 6.44568 99.1097 6.44434H99.1398C99.1901 6.44434 99.237 6.46912 99.2624 6.50997L100.09 7.69074L100.92 6.51868C100.945 6.47849 100.992 6.45304 101.043 6.45371H101.073C101.144 6.45505 101.2 6.50863 101.203 6.57494V8.52256C101.203 8.58954 101.145 8.64513 101.073 8.64714C101 8.6458 100.941 8.59088 100.94 8.52256V6.89909L100.206 7.92381C100.183 7.96198 100.142 7.98542 100.096 7.98676C100.049 7.98609 100.006 7.96198 99.9831 7.92448L99.2463 6.90244V8.52591C99.2571 8.59155 99.2095 8.6545 99.1392 8.66522C99.0682 8.67593 99.0012 8.63039 98.9898 8.56476C98.9878 8.55136 98.9878 8.53797 98.9898 8.52591L98.9804 6.56556Z" fill="#CFCFD4"/>
<path d="M4.3327 20.333C1.97653 20.333 0.0664062 18.4229 0.0664062 16.0667V4.5993C0.0664062 2.24313 1.97653 0.333008 4.3327 0.333008H15.7994C18.1563 0.333008 20.0657 2.24313 20.0657 4.5993V16.066C20.0657 18.4229 18.1563 20.3323 15.7994 20.3323H4.33337L4.3327 20.333Z" fill="#CFCFD4"/>
<path d="M13.81 14.0649C11.8322 14.0649 10.2215 12.3899 10.2195 10.3318L10.2141 7.16386C10.1994 6.86114 10.4325 6.60329 10.7358 6.58855C11.0386 6.57382 11.2964 6.80756 11.3118 7.11028V7.16386L11.3185 7.55968L11.3848 7.58647C12.0345 6.95021 12.9072 6.59324 13.8167 6.59123C15.7938 6.59458 17.4005 8.2723 17.4005 10.3318C17.4005 12.3912 15.7884 14.0649 13.81 14.0649ZM13.8153 12.9264C15.1917 12.9264 16.3122 11.759 16.3122 10.3271C16.3122 8.89516 15.1923 7.73181 13.8153 7.73181C12.4377 7.73181 11.3185 8.8965 11.3185 10.3318C11.3185 11.767 12.437 12.9264 13.8133 12.9277L13.8153 12.9264ZM6.32489 14.0649C4.34445 14.0649 2.73438 12.3899 2.73438 10.3318C2.73438 8.27364 4.34445 6.59123 6.32422 6.59123C7.74811 6.59123 9.03804 7.4686 9.60933 8.82618C10.182 10.1831 9.93081 11.7483 8.96303 12.8581L8.99049 12.9244L9.36823 12.9304C9.68435 12.9411 9.93148 13.2063 9.92077 13.5224C9.91072 13.8232 9.66894 14.0649 9.36823 14.075L6.32489 14.0649ZM6.32489 7.73181C4.95258 7.73181 3.8341 8.89851 3.83142 10.3251C3.8187 11.3605 4.42415 12.3042 5.3705 12.7248C5.67189 12.8567 5.99805 12.925 6.32757 12.925C6.99598 12.925 7.63492 12.6491 8.09436 12.1635C8.81166 11.4067 9.02263 10.3016 8.63418 9.33385C8.24573 8.3607 7.3409 7.73315 6.32824 7.73315L6.32489 7.73181Z" fill="#F5F5F5"/>
</svg>
