<svg width="65" height="19" viewBox="0 0 65 19" fill="none" xmlns="http://www.w3.org/2000/svg">
<ellipse cx="10.3487" cy="2.85068" rx="2.5167" ry="2.5167" fill="#C6C6C6"/>
<ellipse cx="13.837" cy="13.8429" rx="2.5167" ry="2.5167" fill="#C6C6C6"/>
<ellipse cx="2.6417" cy="11.4796" rx="2.5167" ry="2.5167" fill="#C6C6C6"/>
<ellipse cx="2.97667" cy="6.42003" rx="1.56652" ry="1.56652" fill="#D4D4D4"/>
<ellipse cx="14.5314" cy="5.75206" rx="1.56652" ry="1.56652" fill="#D4D4D4"/>
<ellipse cx="9.2423" cy="15.923" rx="1.56652" ry="1.56652" fill="#D4D4D4"/>
<circle cx="5.41452" cy="15.0229" r="1.07859" fill="#E1E1E1"/>
<circle cx="15.6372" cy="9.42527" r="1.07859" fill="#E1E1E1"/>
<circle cx="5.61765" cy="3.59519" r="1.07859" fill="#E1E1E1"/>
<path d="M50.3464 6.14466V4.99211H51.6946C51.7028 5.07223 51.7162 5.14619 51.7162 5.22015C51.7136 8.18216 51.7218 11.1436 51.6997 14.1056C51.6926 15.0486 51.4332 15.9321 50.8055 16.6686C49.9935 17.6218 48.936 18.042 47.7044 18.0584C46.3741 18.0764 45.2108 17.686 44.3392 16.6265C43.8399 16.0194 43.6109 15.3024 43.5261 14.5299C43.503 14.3183 43.5718 14.2382 43.7906 14.25C44.089 14.2659 44.389 14.2582 44.6884 14.2525C44.825 14.25 44.8862 14.2988 44.9031 14.439C44.9267 14.6331 44.9591 14.8288 45.0146 15.0158C45.314 16.0286 46.2354 16.74 47.3233 16.779C47.671 16.7913 48.0279 16.78 48.3685 16.7153C49.1342 16.5689 49.6838 16.1221 49.9899 15.3994C50.4203 14.384 50.352 13.3137 50.3438 12.1883C50.2524 12.2613 50.1995 12.2941 50.1579 12.3383C48.2652 14.3532 45.1322 13.8997 43.8836 11.4297C42.9093 9.50214 43.3505 7.01009 44.8969 5.66443C46.3428 4.40556 48.8271 4.37988 50.1548 6.04245C50.1918 6.08867 50.2144 6.1462 50.2437 6.19807C50.2781 6.1801 50.3125 6.16212 50.3474 6.14414L50.3464 6.14466ZM50.4424 9.12309C50.3936 8.79541 50.371 8.46105 50.2909 8.14107C49.993 6.95103 49.124 6.20578 47.8661 6.03577C46.8256 5.89453 45.747 6.43587 45.2215 7.43125C44.5246 8.75227 44.6186 10.0707 45.4758 11.2746C46.5236 12.7461 48.7978 12.6783 49.8204 11.1873C50.2442 10.5689 50.4178 9.87348 50.4424 9.12309Z" fill="#B0B0B0"/>
<path d="M24.5288 4.98648H25.894V6.20837C25.9936 6.12773 26.0445 6.1 26.0773 6.05839C27.5314 4.21966 30.5725 4.3229 32.0116 6.37991C33.3126 8.23919 33.1169 11.0276 31.5658 12.5499C30.16 13.929 27.4862 14.0266 26.1076 12.3471C26.065 12.2947 26.0326 12.2341 25.9951 12.1776C25.9669 12.1904 25.9381 12.2033 25.9099 12.2161V18.0949C25.4656 18.0949 25.066 18.0995 24.6675 18.0887C24.6207 18.0872 24.555 18.0071 24.536 17.9506C24.5129 17.8812 24.5288 17.7985 24.5288 17.7215C24.5288 13.5957 24.5288 9.47032 24.5288 5.34447C24.5288 5.23456 24.5288 5.12516 24.5288 4.98751V4.98648ZM25.8354 9.11028C25.8334 9.88686 26.0265 10.61 26.4867 11.2479C27.5283 12.6912 29.7836 12.7169 30.801 11.2541C31.6516 10.0312 31.7286 8.69014 31.0116 7.38095C30.1159 5.74509 27.8031 5.5417 26.5909 6.95465C26.0635 7.56944 25.8287 8.29672 25.8354 9.10976V9.11028Z" fill="#B0B0B0"/>
<path d="M60.0957 6.14942V4.97736C60.5416 4.97736 60.9571 4.97376 61.3721 4.98301C61.4157 4.98403 61.4738 5.05388 61.4953 5.10422C61.5169 5.15507 61.5015 5.22184 61.5015 5.28193C61.5015 7.87413 61.4984 10.4668 61.5071 13.059C61.5082 13.3056 61.4409 13.3862 61.1933 13.3713C60.8451 13.3508 60.4948 13.3662 60.107 13.3662V12.1844C60.0187 12.2532 59.974 12.2758 59.9463 12.3117C58.4743 14.1731 55.2519 14.0375 53.8512 11.776C52.729 9.96453 52.9555 7.32765 54.3926 5.87464C55.9273 4.32301 58.444 4.38619 59.8913 6.01537C59.9401 6.07032 59.9627 6.14788 59.9976 6.21516C60.03 6.19308 60.0634 6.17099 60.0957 6.14942ZM56.8862 12.3194C58.5395 12.32 59.4542 11.7067 59.9036 10.5911C60.2057 9.84178 60.2606 9.06828 60.0957 8.27988C59.8297 7.00612 58.8646 6.14737 57.5718 6.02975C56.3613 5.91932 55.2478 6.62502 54.7937 7.83047C54.37 8.95374 54.4809 10.0513 55.0983 11.0755C55.6001 11.9075 56.3659 12.3128 56.8862 12.3194Z" fill="#B0B0B0"/>
<path d="M40.6797 6.15081V4.99672H42.0372V13.365C41.6299 13.365 41.2303 13.3707 40.8317 13.3578C40.7845 13.3563 40.7049 13.2551 40.7013 13.196C40.6858 12.9572 40.6961 12.7173 40.6925 12.478C40.6915 12.3974 40.6792 12.3167 40.6679 12.1919C40.5852 12.2613 40.5359 12.291 40.502 12.3332C39.0248 14.1657 35.8533 14.0265 34.4511 11.819C33.3669 10.1113 33.4886 7.61306 34.7603 6.10099C36.2313 4.35214 38.8944 4.29513 40.4332 5.97978C40.4932 6.04552 40.5554 6.10921 40.6165 6.17341C40.6376 6.1657 40.6581 6.15851 40.6792 6.15081H40.6797ZM35.1301 8.85549C35.1239 9.68395 35.2359 10.2422 35.4943 10.7625C36.0197 11.8221 36.8692 12.3686 38.0639 12.3172C39.1871 12.269 39.9781 11.7055 40.4362 10.6886C40.7562 9.97773 40.8338 9.22632 40.7018 8.45847C40.3273 6.27716 38.3027 5.64131 36.8692 6.23145C35.8132 6.66648 35.1296 7.80156 35.1301 8.856V8.85549Z" fill="#B0B0B0"/>
<path d="M63.5031 6.0874L63.2702 5.75138H63.1159V6.0874H62.9883V5.26562H63.3039C63.3778 5.26562 63.44 5.27624 63.4905 5.29746C63.5419 5.31868 63.5802 5.34737 63.6055 5.38353C63.6307 5.41968 63.6434 5.46095 63.6434 5.50732C63.6434 5.56392 63.6237 5.61383 63.5844 5.65706C63.5461 5.70029 63.4881 5.72898 63.4105 5.74313L63.656 6.0874H63.5031ZM63.1159 5.66531H63.3039C63.3731 5.66531 63.425 5.65117 63.4596 5.62287C63.4942 5.59379 63.5115 5.55527 63.5115 5.50732C63.5115 5.45859 63.4942 5.42086 63.4596 5.39414C63.4259 5.36741 63.374 5.35405 63.3039 5.35405H63.1159V5.66531Z" fill="#B0B0B0"/>
<path d="M64.0124 5.70177C64.0124 6.08262 63.7037 6.39136 63.3229 6.39136C62.942 6.39136 62.6333 6.08262 62.6333 5.70177C62.6333 5.32092 62.942 5.01218 63.3229 5.01218C63.7037 5.01218 64.0124 5.32092 64.0124 5.70177Z" stroke="#B0B0B0" stroke-width="0.110303"/>
</svg>
