<svg width="79" height="9" viewBox="0 0 79 9" fill="none" xmlns="http://www.w3.org/2000/svg">
<path d="M5.44091 0.44689C3.01981 0.40938 1.02401 2.23779 0.985111 4.53034V4.63284C0.941611 6.88114 2.83161 8.73634 5.20451 8.77654C5.27551 8.77784 5.34521 8.77784 5.41551 8.77524C6.30831 8.78124 7.18231 8.53144 7.92301 8.05994L8.45351 8.51404C8.76291 8.81204 9.26861 8.81604 9.58331 8.52334C9.73541 8.38134 9.82111 8.18714 9.82181 7.98494C9.82381 7.74714 9.70991 7.52274 9.51371 7.37404L9.06561 7.01444C9.59471 6.30454 9.87601 5.45724 9.87201 4.58864C9.91491 2.34027 8.02481 0.48506 5.65121 0.44488C5.58091 0.44354 5.51061 0.44485 5.44091 0.44689ZM7.74761 6.07944C7.56671 6.37414 7.32291 6.63134 7.03091 6.83224C5.78651 7.64804 4.08001 7.35404 3.21811 6.17594C2.88321 5.71714 2.71311 5.16994 2.73251 4.61334C2.73251 3.06962 3.89321 1.8989 5.43361 1.8989C6.94321 1.90091 8.16481 3.06158 8.16281 4.49084C8.16281 4.53234 8.16151 4.57254 8.15941 4.61334C8.16081 5.12774 8.01881 5.63404 7.74761 6.07944Z" fill="#B0B0B0"/>
<path d="M15.7557 2.1094C15.3257 2.10607 14.9747 2.46707 14.9707 2.91714V5.8252C14.9707 6.7113 14.4939 7.2544 13.7196 7.2544C12.9454 7.2544 12.5395 6.7508 12.5395 5.8252V2.94527C12.5395 2.49587 12.1913 2.13152 11.762 2.13152C11.3326 2.13152 10.9844 2.49587 10.9844 2.94594V6.2753C10.9844 7.8183 11.8336 8.7761 13.2012 8.7761C13.8944 8.7881 14.5515 8.4539 14.9707 7.8759V7.8974C14.9707 8.3508 15.3223 8.7192 15.7557 8.7192C16.1883 8.7192 16.5393 8.3508 16.5393 7.8974V2.94594C16.546 2.49051 16.1977 2.11545 15.7624 2.11009L15.7557 2.1094Z" fill="#B0B0B0"/>
<path d="M20.7511 2.1123C18.9977 2.1123 17.6549 3.53017 17.6549 5.46511C17.5859 7.22451 18.9421 8.70731 20.6841 8.77701C20.7551 8.77961 20.8268 8.78031 20.8985 8.77761C21.7376 8.80111 22.5541 8.4963 23.1776 7.9271C23.3122 7.7958 23.3899 7.6143 23.3913 7.4247C23.3913 7.0584 23.0979 6.7617 22.7356 6.7617C22.5815 6.757 22.4308 6.8113 22.315 6.9137C21.9258 7.254 21.4262 7.43811 20.9118 7.43141C20.1028 7.45151 19.4049 6.8615 19.2817 6.0531H23.0021C23.4201 6.0551 23.761 5.7142 23.763 5.2916V5.27351C23.763 3.73578 22.7074 2.1123 20.7511 2.1123ZM19.2576 4.9085C19.4116 4.0298 19.9829 3.46988 20.737 3.46988C21.6519 3.46988 22.0799 4.1785 22.185 4.9085H19.2576Z" fill="#B0B0B0"/>
<path d="M29.087 2.11233C28.6584 2.109 28.3068 2.47 28.3034 2.92007V5.8281C28.3034 6.7142 27.8252 7.2574 27.055 7.2574C26.2841 7.2574 25.8716 6.7537 25.8716 5.8281V2.9482C25.8716 2.4988 25.5233 2.13445 25.094 2.13445C24.664 2.13445 24.3164 2.4988 24.3164 2.94887V6.2782C24.3164 7.8213 25.1656 8.779 26.5333 8.779C27.2258 8.7911 27.8835 8.4569 28.3027 7.8789V7.9003C28.3027 8.3537 28.6544 8.7221 29.087 8.7221C29.5203 8.7221 29.872 8.3537 29.872 7.9003V2.94887C29.8773 2.49344 29.5291 2.11838 29.0944 2.11302L29.087 2.11233Z" fill="#B0B0B0"/>
<path d="M34.0797 2.11074C32.3263 2.11074 30.9868 3.52859 30.9868 5.4635C30.9185 7.2229 32.2748 8.7057 34.0168 8.7754C34.0878 8.7781 34.1594 8.7787 34.2311 8.7761C35.0703 8.7995 35.8867 8.4948 36.5096 7.9255C36.6449 7.7942 36.7219 7.6127 36.7239 7.4232C36.7239 7.0568 36.4306 6.76011 36.0676 6.76011C35.9135 6.75541 35.7635 6.8097 35.6476 6.9122C35.2572 7.2511 34.7589 7.4346 34.2445 7.4299C33.4314 7.4553 32.7275 6.86391 32.6036 6.05151H36.3341C36.7527 6.05351 37.0936 5.7126 37.0956 5.29V5.2719C37.0956 3.73421 36.0367 2.11074 34.0797 2.11074ZM32.5902 4.90691C32.7443 4.02821 33.3162 3.46832 34.0704 3.46832C34.9852 3.46832 35.4132 4.17691 35.5184 4.90691H32.5902ZM43.4535 4.418C44.0871 4.0584 44.4695 3.35446 44.4407 2.603C44.4501 2.07591 44.2512 1.56824 43.8902 1.20055C43.3135 0.668775 42.5574 0.399535 41.7899 0.450435H38.9883C38.5604 0.446425 38.2107 0.805405 38.2067 1.25279V7.9576C38.2014 8.4044 38.5436 8.772 38.9716 8.7774H41.9011C43.763 8.7774 44.8734 7.90471 44.8734 6.42661C44.8734 5.45551 44.4206 4.8038 43.4535 4.418ZM39.7431 1.89776H41.6184C42.4275 1.89776 42.8936 2.24871 42.8936 2.85818C42.8936 3.73421 42.0317 3.86414 41.518 3.86414H39.7431V1.89776ZM41.9178 7.3026H39.7431V5.2666H41.8167C42.5078 5.2666 43.3269 5.4374 43.3269 6.2859C43.3269 7.1338 42.4275 7.302 41.9111 7.302L41.9178 7.3026Z" fill="#B0B0B0"/>
<path d="M50.2043 2.11064C49.775 2.10732 49.4241 2.46831 49.42 2.91838V5.8264C49.42 6.7125 48.9392 7.2557 48.1683 7.2557C47.3981 7.2557 46.9848 6.752 46.9848 5.8264V2.94651C46.9848 2.49711 46.6366 2.13277 46.2079 2.13277C45.778 2.13277 45.4297 2.49711 45.4297 2.94718V6.2765C45.4297 7.8196 46.2789 8.7773 47.6499 8.7773C48.3431 8.7894 49.0001 8.4552 49.42 7.8772V7.8986C49.4488 8.3514 49.8219 8.69429 50.2545 8.66409C50.647 8.63739 50.9591 8.3092 50.9852 7.8986V2.94718C50.9926 2.49309 50.6477 2.1187 50.215 2.11134L50.2043 2.11064ZM55.1651 4.7789L55.0473 4.7401C54.415 4.5291 53.8692 4.3476 53.8692 3.96252C53.8692 3.64774 54.1665 3.44481 54.6226 3.44481C55.1082 3.4716 55.5804 3.61358 56.0043 3.85871C56.1021 3.9143 56.212 3.94243 56.3225 3.94109C56.6828 3.94846 56.9815 3.6531 56.9889 3.28139V3.2633C56.9835 2.99072 56.8281 2.74626 56.5884 2.63173C55.9896 2.30021 55.3225 2.12205 54.6434 2.11067C53.32 2.11067 52.3944 2.93446 52.3944 4.1373C52.3944 5.3389 53.4064 5.7883 54.3501 6.0662L54.4947 6.1097C55.1062 6.3019 55.6346 6.466 55.6346 6.8692C55.6346 7.2724 55.3205 7.4439 54.7921 7.4439C54.184 7.4224 53.5953 7.2182 53.099 6.8545C52.9931 6.7942 52.8746 6.7607 52.7534 6.7587C52.3944 6.7547 52.101 7.0521 52.097 7.4218V7.4365C52.089 7.6716 52.2055 7.8926 52.4011 8.0145C53.0963 8.5034 53.9161 8.7693 54.7573 8.778C56.2012 8.778 57.0967 7.9857 57.0967 6.6911C57.1101 5.5605 56.1738 5.1038 55.1651 4.7789ZM60.3275 3.65243C60.6906 3.65243 60.9852 3.33229 60.9852 2.93781C60.9852 2.54266 60.6906 2.22319 60.3275 2.22319H59.3832V1.25875C59.3832 0.808676 59.0463 0.444336 58.6331 0.444336C58.2185 0.444336 57.883 0.808676 57.883 1.25875V2.22319H57.7544C57.3914 2.22319 57.0967 2.54266 57.0967 2.93781C57.0967 3.33229 57.3914 3.65176 57.7544 3.65176H57.883V6.8451C57.883 8.1277 58.4724 8.7773 59.6297 8.7773C59.9505 8.7807 60.2686 8.7224 60.5707 8.6059C60.8988 8.4733 61.0663 8.0761 60.9437 7.7191C60.8399 7.4164 60.5566 7.2329 60.2619 7.2771H60.2418C60.1628 7.2932 60.0824 7.3012 60.0014 7.3026C59.5741 7.3026 59.3832 7.0916 59.3832 6.6201V3.65176L60.3275 3.65243Z" fill="#B0B0B0"/>
<path d="M64.6344 2.1123C62.881 2.1123 61.5415 3.53017 61.5415 5.46511C61.4732 7.22451 62.8295 8.70731 64.5715 8.77701C64.6425 8.77961 64.7141 8.78031 64.7858 8.77761C65.625 8.80111 66.4414 8.4963 67.0649 7.9271C67.1996 7.7958 67.2766 7.6143 67.2786 7.4247C67.2846 7.0584 66.9953 6.75701 66.6336 6.75101H66.6229C66.4689 6.74631 66.3182 6.8005 66.2023 6.9037C65.8118 7.2419 65.3135 7.4261 64.7992 7.4207C63.9895 7.4475 63.2869 6.8615 63.1583 6.0531H66.8888C67.3074 6.0551 67.6483 5.7142 67.6503 5.2916V5.27351C67.6503 3.73578 66.5914 2.1123 64.6344 2.1123ZM63.1442 4.9085C63.2983 4.0298 63.8702 3.46988 64.6244 3.46988C65.5393 3.46988 65.9672 4.1785 66.0724 4.9085H63.1442Z" fill="#B0B0B0"/>
<path d="M71.8441 2.11201C71.3016 2.11201 70.7551 2.52055 70.3753 3.19566V2.97129C70.3753 2.5172 70.0137 2.14817 69.5669 2.14817C69.1202 2.14817 68.7579 2.51653 68.7579 2.97196V7.9616C68.7519 8.4063 69.1015 8.772 69.5381 8.7773H69.5636C70.0083 8.7793 70.372 8.415 70.3753 7.9616V6.0836C70.3753 4.7401 70.954 3.91698 72.0001 3.71471C72.3819 3.65644 72.6592 3.31621 72.6458 2.92441C72.6679 2.49778 72.3464 2.13411 71.9278 2.11134C71.9003 2.11 71.8722 2.11067 71.8441 2.11201ZM74.144 0.674726H73.3497C73.2693 0.674726 73.2043 0.624496 73.2023 0.560866C73.2043 0.497246 73.2693 0.445676 73.3497 0.444336H75.2772C75.3576 0.445676 75.4225 0.497916 75.4246 0.560866C75.4225 0.624496 75.3576 0.674726 75.2772 0.674726H74.4822V2.54065C74.4822 2.61097 74.4112 2.66723 74.3235 2.66723C74.2357 2.66723 74.1648 2.61097 74.1648 2.54065L74.144 0.674726ZM75.9804 0.565556C75.9818 0.499256 76.0387 0.445676 76.1097 0.444336H76.1398C76.1901 0.444336 76.237 0.469116 76.2624 0.509966L77.09 1.69074L77.92 0.518676C77.945 0.478486 77.992 0.453036 78.043 0.453706H78.073C78.144 0.455046 78.2 0.508626 78.203 0.574936V2.52256C78.203 2.58954 78.145 2.64513 78.073 2.64714C78 2.6458 77.941 2.59088 77.94 2.52256V0.899086L77.206 1.92381C77.183 1.96198 77.142 1.98542 77.096 1.98676C77.049 1.98609 77.006 1.96198 76.9831 1.92448L76.2463 0.902436V2.52591C76.2571 2.59155 76.2095 2.6545 76.1392 2.66522C76.0682 2.67593 76.0012 2.63039 75.9898 2.56476C75.9878 2.55136 75.9878 2.53797 75.9898 2.52591L75.9804 0.565556Z" fill="#B0B0B0"/>
</svg>
