<svg width="80" height="80" viewBox="0 0 80 80" fill="none" xmlns="http://www.w3.org/2000/svg">
<path d="M0 18C0 8.05888 8.05887 0 18 0H62C71.9411 0 80 8.05887 80 18V62C80 71.9411 71.9411 80 62 80H18C8.05888 80 0 71.9411 0 62V18Z" fill="#6ACD6E"/>
<path fill-rule="evenodd" clip-rule="evenodd" d="M49.4653 30.6977C49.4653 31.4679 48.748 32.093 47.8643 32.093C46.9805 32.093 46.2632 31.4679 46.2632 30.6977V27.907C46.2632 25.0809 43.6354 22.7907 40.3928 22.7907C37.1502 22.7907 34.5224 25.0809 34.5224 27.907V30.6977C34.5224 31.4679 33.8051 32.093 32.9213 32.093C32.0376 32.093 31.3203 31.4679 31.3203 30.6977V27.907C31.3203 23.5405 35.3827 20 40.3928 20C45.403 20 49.4653 23.5405 49.4653 27.907V30.6977Z" fill="white"/>
<path fill-rule="evenodd" clip-rule="evenodd" d="M56.0642 33.2087L57.772 55.5343C57.8595 56.6915 57.3941 57.8264 56.4869 58.6729C55.5775 59.5195 54.3073 59.9995 52.9796 59.9995H27.8029C26.4751 59.9995 25.2049 59.5195 24.2955 58.6729C23.3883 57.8264 22.9229 56.6915 23.0104 55.5343L24.7182 33.2087C24.8869 31.0097 26.9831 29.3018 29.5106 29.3018H51.2718C53.7993 29.3018 55.8956 31.0097 56.0642 33.2087ZM45.6981 37.5399C44.7545 39.2683 42.733 41.3341 40.3912 41.3341C38.0494 41.3341 36.0279 39.2683 35.0843 37.5399C34.7065 36.8441 33.7501 36.5483 32.9518 36.8794C32.1534 37.2087 31.814 38.0422 32.1918 38.738C33.6477 41.4097 36.7729 44.1248 40.3912 44.1248C44.0095 44.1248 47.1347 41.4097 48.5906 38.738C48.9684 38.0422 48.629 37.2087 47.8306 36.8794C47.0323 36.5483 46.0759 36.8441 45.6981 37.5399Z" fill="white"/>
</svg>
