<svg width="80" height="80" viewBox="0 0 80 80" fill="none" xmlns="http://www.w3.org/2000/svg">
<path d="M0 18C0 8.05888 8.05887 0 18 0H62C71.9411 0 80 8.05887 80 18V62C80 71.9411 71.9411 80 62 80H18C8.05888 80 0 71.9411 0 62V18Z" fill="#6ACD6E"/>
<path d="M29.7079 37.4219C28.9766 37.4219 28.3594 38.2273 28.3594 39.1797C28.3594 40.1328 28.9766 40.9383 29.7079 40.9383C30.4391 40.9383 31.0571 40.1328 31.0571 39.1797C31.0571 38.2273 30.4391 37.4219 29.7079 37.4219Z" fill="white"/>
<path d="M41.5516 46.7178C40.8204 46.7178 40.2031 47.5232 40.2031 48.4764C40.2031 49.4287 40.8203 50.2342 41.5516 50.2342C42.2829 50.2342 42.9009 49.4287 42.9009 48.4764C42.9009 47.5232 42.2829 46.7178 41.5516 46.7178Z" fill="white"/>
<path d="M49.2071 32.4771C37.3256 21.5444 37.9334 21.962 36.9887 21.595C35.6463 21.0625 34.049 21.341 32.9456 22.356L21.9462 32.4771C20.7094 33.6146 20 35.2333 20 36.9192V54.8419C20 56.9536 21.7095 58.6724 23.8102 58.6724H47.3422C49.443 58.6724 51.1524 56.9536 51.1524 54.8419V36.9192C51.1525 35.2333 50.443 33.6146 49.2071 32.4771ZM34.4426 28.6349C34.5136 27.9538 35.1383 27.4701 35.8372 27.6013C36.5056 27.7406 36.8821 28.3821 36.7575 28.9794C36.6251 29.6158 36.0264 30.0212 35.3794 29.8997C34.7614 29.7708 34.3842 29.2094 34.4426 28.6349ZM26.0259 39.1802C26.0259 36.9185 27.6823 35.0786 29.7183 35.0786C31.7551 35.0786 33.4113 36.9185 33.4113 39.1802C33.4113 41.4419 31.755 43.2825 29.7183 43.2825C27.6823 43.2825 26.0259 41.4419 26.0259 39.1802ZM32.7441 51.6536C31.916 51.6536 31.338 50.8046 31.6645 50.0278L37.3693 36.431C37.6201 35.8341 38.3068 35.5528 38.9037 35.8036C39.5005 36.0536 39.781 36.7411 39.531 37.338L33.8254 50.9349C33.6371 51.3833 33.2027 51.6536 32.7441 51.6536ZM41.5436 52.5786C39.5076 52.5786 37.8513 50.7388 37.8513 48.4771C37.8513 46.2153 39.5077 44.3747 41.5436 44.3747C43.5796 44.3747 45.2366 46.2153 45.2366 48.4771C45.2366 50.7388 43.5796 52.5786 41.5436 52.5786Z" fill="white"/>
<path d="M59.695 45.3477C55.8794 34.2403 53.7601 28.0647 53.73 27.9945C53.0667 26.4586 51.7776 25.2641 50.1948 24.718C50.1039 24.6871 50.6398 24.8173 42.1406 22.8008L50.7823 30.7523C52.5002 32.332 53.4855 34.5797 53.4855 36.9195V52.107L57.7013 50.3024C59.6083 49.4774 60.495 47.2625 59.695 45.3477Z" fill="white"/>
</svg>
