<svg width="80" height="80" viewBox="0 0 80 80" fill="none" xmlns="http://www.w3.org/2000/svg">
<rect width="80" height="80" rx="18" fill="#6ACD6E"/>
<path fill-rule="evenodd" clip-rule="evenodd" d="M54.1667 24.9167V56.5833C54.1667 57.0467 53.91 57.4717 53.5 57.6883C53.09 57.905 52.595 57.8767 52.2117 57.615L48.0533 54.7767L44.1217 57.5983C43.65 57.9383 43.0067 57.9067 42.57 57.5233L39.5833 54.9117L36.5967 57.5233C36.16 57.9067 35.5167 57.9383 35.045 57.5983L31.1133 54.7767L26.955 57.615C26.5717 57.8767 26.0767 57.905 25.6667 57.6883C25.2567 57.4717 25 57.0467 25 56.5833V24.9167C25 23.3067 26.305 22 27.9167 22H51.25C52.8617 22 54.1667 23.3067 54.1667 24.9167Z" fill="white"/>
<path d="M46.9054 36.5762C46.7413 36.2246 46.3878 36 46.0001 36H42.6183L44.8947 31.4473C45.05 31.1377 45.0334 30.7696 44.8508 30.4746C44.6682 30.1796 44.3468 30 44.0001 30H39.0001C38.6368 30 38.3019 30.1973 38.1261 30.5146L33.1261 39.5146C32.9542 39.8242 32.9581 40.2021 33.1378 40.5068C33.3175 40.8125 33.6456 41 34.0001 41H37.6124L35.0519 48.6836C34.8996 49.1397 35.0939 49.6397 35.5138 49.874C35.6661 49.959 35.8341 50 35.9991 50C36.2882 50 36.5723 49.875 36.7686 49.6406L46.7686 37.6406C47.0167 37.3418 47.0704 36.9268 46.9054 36.5762Z" fill="#6ACD6E"/>
</svg>
