<svg width="80" height="81" viewBox="0 0 80 81" fill="none" xmlns="http://www.w3.org/2000/svg">
<rect y="0.330078" width="80" height="80" rx="9.6" fill="#FBE1E0"/>
<path d="M58.5 24.3301H48V23.8301C48 21.9001 46.43 20.3301 44.5 20.3301H44H36H35.5C33.57 20.3301 32 21.9001 32 23.8301V24.3301H21.5C18.466 24.3301 16 26.7961 16 29.8301V54.8301C16 57.8641 18.466 60.3301 21.5 60.3301H58.5C61.534 60.3301 64 57.8641 64 54.8301V29.8301C64 26.7961 61.534 24.3301 58.5 24.3301ZM44.002 28.3301H36V24.3301H44L44.002 28.3301ZM31 34.3301C33.756 34.3301 36 36.5741 36 39.3301C36 42.0861 33.756 44.3301 31 44.3301C28.244 44.3301 26 42.0861 26 39.3301C26 36.5741 28.244 34.3301 31 34.3301ZM40 52.8301C40 53.6581 39.328 54.3301 38.5 54.3301H23.5C22.672 54.3301 22 53.6581 22 52.8301V51.8301C22 48.7961 24.466 46.3301 27.5 46.3301H34.5C37.534 46.3301 40 48.7961 40 51.8301V52.8301ZM56.5 54.3301H45.5C44.672 54.3301 44 53.6581 44 52.8301C44 52.0021 44.672 51.3301 45.5 51.3301H56.5C57.328 51.3301 58 52.0021 58 52.8301C58 53.6581 57.328 54.3301 56.5 54.3301ZM56.5 46.3301H45.5C44.672 46.3301 44 45.6581 44 44.8301C44 44.0021 44.672 43.3301 45.5 43.3301H56.5C57.328 43.3301 58 44.0021 58 44.8301C58 45.6581 57.328 46.3301 56.5 46.3301ZM56.5 38.3301H45.5C44.672 38.3301 44 37.6581 44 36.8301C44 36.0021 44.672 35.3301 45.5 35.3301H56.5C57.328 35.3301 58 36.0021 58 36.8301C58 37.6581 57.328 38.3301 56.5 38.3301Z" fill="#8E1B3E"/>
</svg>
