<svg width="80" height="81" viewBox="0 0 80 81" fill="none" xmlns="http://www.w3.org/2000/svg">
<rect y="0.330078" width="80" height="80" rx="9.6" fill="#E3FCEF"/>
<path fill-rule="evenodd" clip-rule="evenodd" d="M38.5 25.3301V40.3301C38.5 41.1581 39.172 41.8301 40 41.8301H55C55.828 41.8301 56.5 42.5021 56.5 43.3301C56.5 54.1001 47.77 62.8301 37 62.8301C26.2375 62.8301 17.5 54.0926 17.5 43.3301C17.5 32.5601 26.23 23.8301 37 23.8301C37.828 23.8301 38.5 24.5021 38.5 25.3301ZM61 38.8301H46C43.5145 38.8301 41.5 36.8156 41.5 34.3301V19.3301C41.5 18.5021 42.172 17.8301 43 17.8301C53.7625 17.8301 62.5 26.5676 62.5 37.3301C62.5 38.1581 61.828 38.8301 61 38.8301Z" fill="#00875B"/>
</svg>
