<svg width="80" height="81" viewBox="0 0 80 81" fill="none" xmlns="http://www.w3.org/2000/svg">
<rect y="0.330078" width="80" height="80" rx="9.6" fill="#E3FCEF"/>
<path d="M53.3557 37.0948C47.5262 37.0948 42.5968 41.8203 42.7135 47.765C42.7884 51.5821 44.5013 55.171 46.9768 58.2712H23.0589C20.7235 58.2712 18.8236 56.3714 18.8236 54.0359C18.8236 51.7005 20.7235 49.8007 23.0589 49.8007C25.8144 49.8007 28.056 47.559 28.056 44.8034V43.4051C32.9235 39.5409 37.1677 34.0628 37.2865 28.0002C37.4032 22.0538 32.4721 17.3301 26.6443 17.3301C20.8142 17.3301 15.8855 22.0562 16.002 28.0002C16.1207 34.0528 20.358 39.5347 25.2325 43.405V44.8034C25.2325 46.002 24.2575 46.9771 23.0589 46.9771C19.1666 46.9771 16 50.1437 16 54.0359C16 57.9282 19.1666 61.0948 23.0589 61.0948H49.5653C50.766 62.2474 52.0506 63.3006 53.3557 64.2345C58.7847 60.3495 63.8678 54.4078 63.998 47.765C64.1148 41.8185 59.1836 37.0948 53.3557 37.0948ZM23.8208 28.6242C23.8208 27.0648 25.0848 25.8007 26.6443 25.8007C28.2036 25.8007 29.4678 27.0648 29.4678 28.6242C29.4678 30.1836 28.2036 31.4477 26.6443 31.4477C25.0849 31.4477 23.8208 30.1835 23.8208 28.6242ZM53.3558 51.2124C51.7964 51.2124 50.5323 49.9483 50.5323 48.3889C50.5323 46.8296 51.7964 45.5654 53.3558 45.5654C54.9152 45.5654 56.1793 46.8296 56.1793 48.3889C56.1793 49.9482 54.9151 51.2124 53.3558 51.2124Z" fill="#00875B"/>
</svg>
