<svg width="80" height="81" viewBox="0 0 80 81" fill="none" xmlns="http://www.w3.org/2000/svg">
<rect y="0.330078" width="80" height="80" rx="9.6" fill="#FBE1E0"/>
<path d="M64 31.2773V28.7461C64 25.8466 61.6495 23.4961 58.75 23.4961H21.25C18.3505 23.4961 16 25.8466 16 28.7461V31.2773C16 31.5362 16.2099 31.7461 16.4688 31.7461H63.5312C63.7901 31.7461 64 31.5362 64 31.2773Z" fill="#C55652"/>
<path d="M16 35.2148V51.2461C16 54.1456 18.3505 56.4961 21.25 56.4961H58.75C61.6495 56.4961 64 54.1456 64 51.2461V35.2148C64 34.956 63.7901 34.7461 63.5312 34.7461H16.4688C16.2099 34.7461 16 34.956 16 35.2148ZM28 47.4961C28 48.3245 27.3284 48.9961 26.5 48.9961H25C24.1716 48.9961 23.5 48.3245 23.5 47.4961V45.9961C23.5 45.1677 24.1716 44.4961 25 44.4961H26.5C27.3284 44.4961 28 45.1677 28 45.9961V47.4961Z" fill="#C55652"/>
</svg>
