<svg width="80" height="81" viewBox="0 0 80 81" fill="none" xmlns="http://www.w3.org/2000/svg">
<rect y="0.330078" width="80" height="80" rx="9.6" fill="#FEF1B3"/>
<g clip-path="url(#clip0_12708_52151)">
<path d="M61.0603 25.3899C60.9213 25.5295 60.7561 25.6402 60.5742 25.7158C60.3923 25.7913 60.1973 25.8302 60.0003 25.8302C59.8033 25.8302 59.6083 25.7913 59.4264 25.7158C59.2445 25.6402 59.0793 25.5295 58.9403 25.3899L57.5003 23.9519V30.3299C57.5003 30.7277 57.3423 31.1092 57.061 31.3905C56.7797 31.6719 56.3981 31.8299 56.0003 31.8299C55.6025 31.8299 55.221 31.6719 54.9397 31.3905C54.6584 31.1092 54.5003 30.7277 54.5003 30.3299V23.9519L53.0603 25.3899C52.776 25.6548 52.3999 25.7991 52.0113 25.7922C51.6227 25.7854 51.2519 25.628 50.9771 25.3531C50.7022 25.0783 50.5448 24.7075 50.538 24.3189C50.5311 23.9303 50.6754 23.5542 50.9403 23.2699L54.9403 19.2699C55.2218 18.9895 55.603 18.832 56.0003 18.832C56.3977 18.832 56.7788 18.9895 57.0603 19.2699L61.0603 23.2699C61.1996 23.409 61.3102 23.5742 61.3856 23.7561C61.461 23.938 61.4998 24.133 61.4998 24.3299C61.4998 24.5268 61.461 24.7218 61.3856 24.9036C61.3102 25.0855 61.1996 25.2508 61.0603 25.3899ZM60.0003 40.3299C60.0014 43.005 59.4658 45.6531 58.4253 48.1175C57.3847 50.582 55.8603 52.8126 53.9424 54.6774C52.0244 56.5422 49.7518 58.0033 47.2591 58.9743C44.7665 59.9452 42.1043 60.4061 39.4303 60.3299C34.3395 60.1346 29.5101 58.0248 25.9078 54.4225C22.3054 50.8201 20.1956 45.9907 20.0003 40.8999C19.9241 38.2259 20.385 35.5637 21.3559 33.0711C22.3269 30.5784 23.788 28.3058 25.6528 26.3878C27.5176 24.4699 29.7482 22.9455 32.2127 21.9049C34.6771 20.8644 37.3252 20.3288 40.0003 20.3299C42.5705 20.3205 45.1172 20.8187 47.4943 21.7959C47.5695 21.829 47.6372 21.877 47.6933 21.9369C47.7495 21.9968 47.793 22.0675 47.8212 22.1446C47.8494 22.2217 47.8617 22.3038 47.8574 22.3858C47.8532 22.4678 47.8324 22.5481 47.7963 22.6219C47.2093 23.9191 46.9384 25.3371 47.0059 26.7593C47.0734 28.1815 47.4774 29.5675 48.1847 30.8032C48.892 32.039 49.8824 33.0893 51.0745 33.8679C52.2666 34.6464 53.6265 35.131 55.0423 35.2819C56.2391 35.4064 57.4488 35.2942 58.6023 34.9519C58.6788 34.9263 58.7597 34.9164 58.8401 34.9228C58.9205 34.9292 58.9988 34.9517 59.0703 34.9891C59.1419 35.0264 59.2051 35.0778 59.2563 35.1401C59.3075 35.2025 59.3456 35.2745 59.3683 35.3519C59.7899 36.9776 60.0023 38.6504 60.0003 40.3299ZM45.9443 44.3639C45.9442 43.1942 45.5533 42.058 44.8337 41.1358C44.114 40.2136 43.1069 39.5583 41.9723 39.2739L38.7563 38.4739C38.2653 38.3511 37.8303 38.0656 37.5223 37.6639C37.2169 37.2728 37.0527 36.79 37.0563 36.2939C37.0574 35.6993 37.2942 35.1293 37.7149 34.709C38.1355 34.2887 38.7057 34.0524 39.3003 34.0519H40.7003C41.2531 34.0529 41.7861 34.2573 42.1978 34.6262C42.6094 34.9951 42.8709 35.5026 42.9323 36.0519C42.9487 36.252 43.0051 36.4467 43.0981 36.6246C43.1912 36.8025 43.319 36.9599 43.474 37.0875C43.629 37.2151 43.808 37.3103 44.0005 37.3674C44.1929 37.4246 44.3949 37.4425 44.5944 37.4201C44.7939 37.3978 44.9869 37.3356 45.1619 37.2373C45.337 37.1389 45.4905 37.0065 45.6134 36.8477C45.7363 36.689 45.8261 36.5072 45.8774 36.3131C45.9288 36.1191 45.9406 35.9166 45.9123 35.7179C45.7837 34.566 45.2764 33.4893 44.47 32.6568C43.6635 31.8243 42.6036 31.283 41.4563 31.1179V30.3299C41.4563 29.9321 41.2983 29.5505 41.017 29.2692C40.7357 28.9879 40.3541 28.8299 39.9563 28.8299C39.5585 28.8299 39.177 28.9879 38.8957 29.2692C38.6143 29.5505 38.4563 29.9321 38.4563 30.3299V31.1299C37.2666 31.3234 36.18 31.9216 35.3801 32.8233C34.5802 33.725 34.116 34.8751 34.0657 36.0795C34.0154 37.2838 34.3821 38.4686 35.1041 39.4339C35.826 40.3992 45.3305 38.538 46.5 38.8301L50.538 39.2739C57.4784 39.2739 42.2389 42.6345 42.5484 43.0861C49 46.0367 42.9919 44.0867 42.9251 44.63C42.8582 45.1734 42.5953 45.6736 42.1856 46.0367C41.7759 46.3998 41.2477 46.6008 40.7003 46.6019H39.3003C38.7476 46.6009 38.2145 46.3965 37.8029 46.0276C37.3912 45.6587 37.1297 45.1512 37.0683 44.6019C37.0519 44.4018 36.9955 44.207 36.9025 44.0291C36.8095 43.8512 36.6817 43.6938 36.5267 43.5662C36.3717 43.4387 36.1926 43.3435 36.0002 43.2863C35.8077 43.2292 35.6058 43.2113 35.4062 43.2337C35.2067 43.256 35.0137 43.3182 34.8387 43.4165C34.6637 43.5148 34.5102 43.6473 34.3873 43.806C34.2644 43.9648 34.1746 44.1466 34.1232 44.3406C34.0719 44.5347 34.06 44.7371 34.0883 44.9359C34.2143 46.0737 34.7096 47.139 35.4985 47.9687C36.2873 48.7983 37.3262 49.3467 38.4563 49.5299V50.3299C38.4563 50.7277 38.6143 51.1092 38.8957 51.3905C39.177 51.6719 39.5585 51.8299 39.9563 51.8299C40.3541 51.8299 40.7357 51.6719 41.017 51.3905C41.2983 51.1092 41.4563 50.7277 41.4563 50.3299V49.5299C42.7021 49.3543 43.8425 48.7343 44.6672 47.7842C45.492 46.8342 45.9455 45.618 45.9443 44.3599V44.3639Z" fill="#FF8B00"/>
<path d="M49 33.3301L43.5 25.3301L35.5 26.8301L32 31.3301V39.3301V49.8301L35.5 53.3301L46 51.8301L50 46.8301L49 33.3301Z" fill="#FF8B00"/>
<path d="M48.5952 37.2454V38.794H32.793V37.2454H48.5952ZM48.5952 40.3525V41.901H32.793V40.3525H48.5952ZM46.4495 32.3301V46.8763H43.9428L37.3953 36.4562V46.8763H34.8785V32.3301H37.3953L43.9629 42.7702V32.3301H46.4495Z" fill="#FEF1B3"/>
</g>
<rect width="80" height="80" rx="9.6" fill="#DCF0FD"/>
<path fill-rule="evenodd" clip-rule="evenodd" d="M36.8773 29.0915H43.1281C44.3713 29.0915 45.5645 29.5858 46.4424 30.4656C47.3217 31.3439 47.8162 32.5374 47.8162 33.7811V36.9075C47.8162 37.7357 47.487 38.5309 46.9008 39.1169C46.3146 39.7043 45.5201 40.0324 44.6908 40.0324H41.5654V43.1588H55.6297C56.4923 43.1588 57.1924 43.8595 57.1924 44.722V47.0676C57.1924 47.9301 56.4923 48.6293 55.6297 48.6293C54.7671 48.6293 54.067 47.9301 54.067 47.0676V46.2852H41.5654V47.0676C41.5654 47.9301 40.8653 48.6293 40.0027 48.6293C39.1401 48.6293 38.44 47.9301 38.44 47.0676V46.2852H25.9385V47.0676C25.9385 47.9301 25.2384 48.6293 24.3758 48.6293C23.5132 48.6293 22.8131 47.9301 22.8131 47.0676V44.722C22.8131 43.8595 23.5132 43.1588 24.3758 43.1588H38.44V40.0324H35.3146C34.4854 40.0324 33.6908 39.7043 33.1047 39.1169C32.5185 38.5309 32.1893 37.7357 32.1893 36.9075V33.7811C32.1893 32.5374 32.6838 31.3439 33.563 30.4656C34.4409 29.5858 35.6341 29.0915 36.8773 29.0915ZM40.0027 29.0915C36.5523 29.0915 33.752 26.2903 33.752 22.8387C33.752 19.3885 36.5523 16.5873 40.0027 16.5873C43.4532 16.5873 46.2535 19.3885 46.2535 22.8387C46.2535 26.2903 43.4532 29.0915 40.0027 29.0915ZM25.9385 50.9748C28.5277 50.9748 30.6266 53.0739 30.6266 55.6644V58.7894C30.6266 61.3799 28.5277 63.479 25.9385 63.479H22.8131C20.2239 63.479 18.125 61.3799 18.125 58.7894V55.6644C18.125 53.0739 20.2239 50.9748 22.8131 50.9748V54.8821C22.8131 55.7447 23.5132 56.4453 24.3758 56.4453C25.2384 56.4453 25.9385 55.7447 25.9385 54.8821V50.9748ZM41.5654 50.9748C44.1546 50.9748 46.2535 53.0739 46.2535 55.6644V58.7894C46.2535 61.3799 44.1546 63.479 41.5654 63.479H38.44C35.8508 63.479 33.752 61.3799 33.752 58.7894V55.6644C33.752 53.0739 35.8508 50.9748 38.44 50.9748V54.8821C38.44 55.7447 39.1401 56.4453 40.0027 56.4453C40.8653 56.4453 41.5654 55.7447 41.5654 54.8821V50.9748ZM57.1924 50.9748C59.7816 50.9748 61.8805 53.0739 61.8805 55.6644V58.7894C61.8805 61.3799 59.7816 63.479 57.1924 63.479H54.067C51.4778 63.479 49.3789 61.3799 49.3789 58.7894V55.6644C49.3789 53.0739 51.4778 50.9748 54.067 50.9748V54.8821C54.067 55.7447 54.7671 56.4453 55.6297 56.4453C56.4923 56.4453 57.1924 55.7447 57.1924 54.8821V50.9748Z" fill="#004878"/>
<defs>
<clipPath id="clip0_12708_52151">
<rect width="48" height="48" fill="white" transform="translate(16 16.3301)"/>
</clipPath>
</defs>
</svg>
