<svg width="80" height="81" viewBox="0 0 80 81" fill="none" xmlns="http://www.w3.org/2000/svg">
<rect y="0.330078" width="80" height="80" rx="9.6" fill="#FBE1E0"/>
<g clip-path="url(#clip0_2035_5123)">
<path d="M27.6612 37.2363C26.7837 37.2363 26.043 38.2029 26.043 39.3457C26.043 40.4895 26.7836 41.456 27.6612 41.456C28.5387 41.456 29.2802 40.4895 29.2802 39.3457C29.2802 38.2029 28.5387 37.2363 27.6612 37.2363Z" fill="#8E1B3E"/>
<path d="M41.8526 48.3916C40.9751 48.3916 40.2344 49.3582 40.2344 50.5019C40.2344 51.6447 40.975 52.6113 41.8526 52.6113C42.7301 52.6113 43.4717 51.6447 43.4717 50.5019C43.4717 49.3582 42.7301 48.3916 41.8526 48.3916Z" fill="#8E1B3E"/>
<path d="M51.0485 31.3022C36.7908 18.183 37.52 18.6841 36.3865 18.2437C34.7756 17.6047 32.8588 17.9388 31.5347 19.1568L18.3354 31.3022C16.8512 32.6672 16 34.6097 16 36.6328V58.14C16 60.674 18.0513 62.7365 20.5723 62.7365H48.8106C51.3317 62.7365 53.3829 60.674 53.3829 58.14V36.6328C53.383 34.6097 52.5317 32.6672 51.0485 31.3022ZM33.3311 26.6915C33.4163 25.8742 34.1659 25.2938 35.0046 25.4512C35.8068 25.6185 36.2585 26.3881 36.109 27.105C35.9501 27.8686 35.2317 28.3551 34.4552 28.2093C33.7137 28.0546 33.2611 27.381 33.3311 26.6915ZM23.2311 39.3459C23.2311 36.6318 25.2187 34.424 27.6619 34.424C30.1061 34.424 32.0936 36.6318 32.0936 39.3459C32.0936 42.06 30.106 44.2687 27.6619 44.2687C25.2187 44.2687 23.2311 42.06 23.2311 39.3459ZM31.293 54.314C30.2992 54.314 29.6057 53.2952 29.9973 52.3631L36.8432 36.0468C37.1441 35.3306 37.9682 34.9931 38.6844 35.294C39.4007 35.594 39.7372 36.419 39.4372 37.1353L32.5905 53.4515C32.3645 53.9897 31.8433 54.314 31.293 54.314ZM41.8523 55.424C39.4091 55.424 37.4216 53.2162 37.4216 50.5022C37.4216 47.7881 39.4092 45.5793 41.8523 45.5793C44.2955 45.5793 46.284 47.7881 46.284 50.5022C46.284 53.2162 44.2955 55.424 41.8523 55.424Z" fill="#8E1B3E"/>
<path d="M63.6473 46.7467C59.0685 33.4179 56.5254 26.0071 56.4893 25.9229C55.6933 24.0798 54.1464 22.6464 52.247 21.9911C52.138 21.954 52.7811 22.1102 42.582 19.6904L52.952 29.2323C55.0136 31.1279 56.1958 33.8251 56.1958 36.6329V54.8579L61.2548 52.6923C63.5432 51.7023 64.6073 49.0445 63.6473 46.7467Z" fill="#8E1B3E"/>
</g>
<defs>
<clipPath id="clip0_2035_5123">
<rect width="48" height="48" fill="white" transform="translate(16 16.3301)"/>
</clipPath>
</defs>
</svg>
