<svg width="80" height="81" viewBox="0 0 80 81" fill="none" xmlns="http://www.w3.org/2000/svg">
<rect y="0.330078" width="80" height="80" rx="9.6" fill="#FEF1B3"/>
<g clip-path="url(#clip0_12708_52149)">
<path d="M27.6612 37.2363C26.7837 37.2363 26.043 38.2029 26.043 39.3457C26.043 40.4895 26.7836 41.456 27.6612 41.456C28.5387 41.456 29.2802 40.4895 29.2802 39.3457C29.2802 38.2029 28.5387 37.2363 27.6612 37.2363Z" fill="#FF8B00"/>
<path d="M41.8526 48.3917C40.9751 48.3917 40.2344 49.3582 40.2344 50.502C40.2344 51.6448 40.975 52.6114 41.8526 52.6114C42.7301 52.6114 43.4717 51.6448 43.4717 50.502C43.4717 49.3582 42.7301 48.3917 41.8526 48.3917Z" fill="#FF8B00"/>
<path d="M51.0485 31.302C36.7908 18.1828 37.52 18.6839 36.3865 18.2436C34.7756 17.6046 32.8588 17.9387 31.5347 19.1567L18.3354 31.302C16.8512 32.667 16 34.6095 16 36.6327V58.1398C16 60.6739 18.0513 62.7364 20.5723 62.7364H48.8106C51.3317 62.7364 53.3829 60.6739 53.3829 58.1398V36.6327C53.383 34.6095 52.5317 32.667 51.0485 31.302ZM33.3311 26.6914C33.4163 25.8741 34.1659 25.2937 35.0046 25.4511C35.8068 25.6183 36.2585 26.388 36.109 27.1048C35.9501 27.8685 35.2317 28.355 34.4552 28.2092C33.7137 28.0545 33.2611 27.3808 33.3311 26.6914ZM23.2311 39.3458C23.2311 36.6317 25.2187 34.4239 27.6619 34.4239C30.1061 34.4239 32.0936 36.6317 32.0936 39.3458C32.0936 42.0598 30.106 44.2686 27.6619 44.2686C25.2187 44.2686 23.2311 42.0598 23.2311 39.3458ZM31.293 54.3139C30.2992 54.3139 29.6057 53.295 29.9973 52.363L36.8432 36.0467C37.1441 35.3305 37.9682 34.993 38.6844 35.2939C39.4007 35.5939 39.7372 36.4189 39.4372 37.1352L32.5905 53.4514C32.3645 53.9895 31.8433 54.3139 31.293 54.3139ZM41.8523 55.4239C39.4091 55.4239 37.4216 53.2161 37.4216 50.502C37.4216 47.788 39.4092 45.5792 41.8523 45.5792C44.2955 45.5792 46.284 47.788 46.284 50.502C46.284 53.2161 44.2955 55.4239 41.8523 55.4239Z" fill="#FF8B00"/>
<path d="M63.6473 46.7464C59.0685 33.4176 56.5254 26.0068 56.4893 25.9226C55.6933 24.0795 54.1464 22.6461 52.247 21.9907C52.138 21.9537 52.7811 22.1099 42.582 19.6901L52.952 29.232C55.0136 31.1276 56.1958 33.8248 56.1958 36.6326V54.8576L61.2548 52.692C63.5432 51.702 64.6073 49.0442 63.6473 46.7464Z" fill="#FF8B00"/>
</g>
<defs>
<clipPath id="clip0_12708_52149">
<rect width="48" height="48" fill="white" transform="translate(16 16.3301)"/>
</clipPath>
</defs>
</svg>
