<svg width="80" height="80" viewBox="0 0 80 80" fill="none" xmlns="http://www.w3.org/2000/svg">
<rect width="80" height="80" rx="9.6" fill="#FEF1B3"/>
<path d="M47.75 44.25C47.75 42.9517 47.75 39 51.5 39H59V34.5C59 32.4323 57.3177 30.75 55.25 30.75H23C20.9323 30.75 19.25 32.4323 19.25 34.5V54C19.25 56.0677 20.9323 57.75 23 57.75H55.25C57.3177 57.75 59 56.0677 59 54V49.5H51.5C47.75 49.5 47.75 45.5483 47.75 44.25Z" fill="#FF8B00"/>
<path d="M49.2491 29.25V24.7035C49.2491 23.9287 48.8448 23.226 48.1676 22.824C47.4656 22.407 46.6181 22.3927 45.9018 22.7835L32.9336 29.25H49.2491Z" fill="#FF8B00"/>
<path d="M53.75 45.75C54.5784 45.75 55.25 45.0784 55.25 44.25C55.25 43.4216 54.5784 42.75 53.75 42.75C52.9216 42.75 52.25 43.4216 52.25 44.25C52.25 45.0784 52.9216 45.75 53.75 45.75Z" fill="#FF8B00"/>
<path d="M42.5018 22.8045V19.6117C42.5018 18.471 41.7998 17.7465 41.1436 17.4487C40.3471 17.0872 39.4741 17.2207 38.8081 17.805L25.7461 29.25H29.5756L42.5018 22.8045Z" fill="#FF8B00"/>
<path d="M60.5 40.5H51.5C50.1493 40.5 49.25 41.1382 49.25 44.25C49.25 47.3618 50.1493 48 51.5 48H60.5C61.7405 48 62.75 46.9905 62.75 45.75V42.75C62.75 41.5095 61.7405 40.5 60.5 40.5ZM53.75 47.25C52.0955 47.25 50.75 45.9045 50.75 44.25C50.75 42.5955 52.0955 41.25 53.75 41.25C55.4045 41.25 56.75 42.5955 56.75 44.25C56.75 45.9045 55.4045 47.25 53.75 47.25Z" fill="#FF8B00"/>
<path d="M63.3342 18.5985L59.8843 13.9575C59.4373 13.356 58.5357 13.356 58.0887 13.9583L54.6598 18.576C54.3185 18.9173 54.56 19.5 55.0422 19.5H56.7357C57.194 21.747 56.1845 24.039 54.218 25.2188L53.75 25.5L56.75 27.75L56.882 27.6623C59.6105 25.8428 61.25 22.7798 61.25 19.5H62.9607C63.4317 19.5 63.6672 18.9315 63.3342 18.5985Z" fill="#FF8B00"/>
</svg>
