<svg width="80" height="81" viewBox="0 0 80 81" fill="none" xmlns="http://www.w3.org/2000/svg">
<rect y="0.330078" width="80" height="80" rx="9.6" fill="#EAE6FF"/>
<path d="M58.5 24.33H48V23.83C48 21.9 46.43 20.33 44.5 20.33H44H36H35.5C33.57 20.33 32 21.9 32 23.83V24.33H21.5C18.466 24.33 16 26.796 16 29.83V54.83C16 57.864 18.466 60.33 21.5 60.33H58.5C61.534 60.33 64 57.864 64 54.83V29.83C64 26.796 61.534 24.33 58.5 24.33ZM44.002 28.33H36V24.33H44L44.002 28.33ZM31 34.33C33.756 34.33 36 36.574 36 39.33C36 42.086 33.756 44.33 31 44.33C28.244 44.33 26 42.086 26 39.33C26 36.574 28.244 34.33 31 34.33ZM40 52.83C40 53.658 39.328 54.33 38.5 54.33H23.5C22.672 54.33 22 53.658 22 52.83V51.83C22 48.796 24.466 46.33 27.5 46.33H34.5C37.534 46.33 40 48.796 40 51.83V52.83ZM56.5 54.33H45.5C44.672 54.33 44 53.658 44 52.83C44 52.002 44.672 51.33 45.5 51.33H56.5C57.328 51.33 58 52.002 58 52.83C58 53.658 57.328 54.33 56.5 54.33ZM56.5 46.33H45.5C44.672 46.33 44 45.658 44 44.83C44 44.002 44.672 43.33 45.5 43.33H56.5C57.328 43.33 58 44.002 58 44.83C58 45.658 57.328 46.33 56.5 46.33ZM56.5 38.33H45.5C44.672 38.33 44 37.658 44 36.83C44 36.002 44.672 35.33 45.5 35.33H56.5C57.328 35.33 58 36.002 58 36.83C58 37.658 57.328 38.33 56.5 38.33Z" fill="#5243AA"/>
</svg>
