<svg width="80" height="81" viewBox="0 0 80 81" fill="none" xmlns="http://www.w3.org/2000/svg">
<rect y="0.330078" width="80" height="80" rx="9.6" fill="#FBE1E0"/>
<g clip-path="url(#clip0_12708_52154)">
<path d="M30.1562 51.6914V55.0651L25.4788 57.6638C24.8347 57.1429 24.0159 56.8301 23.125 56.8301C21.0573 56.8301 19.375 58.5123 19.375 60.5801C19.375 62.6478 21.0573 64.3301 23.125 64.3301C25.1927 64.3301 26.875 62.6478 26.875 60.5801C26.875 60.4247 26.8644 60.2719 26.8459 60.1215L32.2454 57.1218C32.6919 56.8739 32.9688 56.4032 32.9688 55.8926V50.6895L32.2996 51.091C31.6517 51.4798 30.9111 51.6866 30.1562 51.6914Z" fill="#C55652"/>
<path d="M41.4062 57.1047V54.7676H38.5938V57.1047C37.221 57.6622 36.25 59.0095 36.25 60.5801C36.25 62.6478 37.9323 64.3301 40 64.3301C42.0677 64.3301 43.75 62.6478 43.75 60.5801C43.75 59.0095 42.7791 57.6622 41.4062 57.1047Z" fill="#C55652"/>
<path d="M56.875 56.8301C55.9841 56.8301 55.1653 57.1429 54.5212 57.6637L49.8438 55.0651V51.6914C49.0889 51.6865 48.3483 51.4798 47.7005 51.091L47.0312 50.6895V55.8926C47.0312 56.4032 47.3081 56.8739 47.7546 57.1218L53.1541 60.1215C53.1356 60.2719 53.125 60.4247 53.125 60.5801C53.125 62.6478 54.8073 64.3301 56.875 64.3301C58.9427 64.3301 60.625 62.6478 60.625 60.5801C60.625 58.5123 58.9427 56.8301 56.875 56.8301Z" fill="#C55652"/>
<path d="M50.8654 48.4679L54.3253 45.0079C54.7816 44.5516 54.8687 43.8434 54.5368 43.29L53.2517 41.1481C53.6869 40.325 54.0452 39.4582 54.3214 38.5598L56.7473 37.9533C57.3733 37.7969 57.8125 37.2344 57.8125 36.5891V31.6961C57.8125 31.0508 57.3733 30.4883 56.7473 30.3318L54.3214 29.7254C54.0452 28.827 53.6868 27.96 53.2517 27.1369L54.5368 24.995C54.8687 24.4417 54.7816 23.7334 54.3253 23.2771L50.8655 19.8173C50.4092 19.361 49.701 19.2738 49.1477 19.6058L47.0057 20.8909C46.1825 20.4556 45.3157 20.0974 44.4173 19.8211L43.8108 17.3953C43.6543 16.7692 43.0918 16.3301 42.4465 16.3301H37.5535C36.9082 16.3301 36.3457 16.7692 36.1893 17.3953L35.5828 19.8211C34.6846 20.0973 33.8176 20.4557 32.9945 20.8909L30.8524 19.6058C30.2991 19.2738 29.5908 19.361 29.1347 19.8173L25.6748 23.2771C25.2185 23.7334 25.1313 24.4417 25.4633 24.995L26.7484 27.1369C26.3132 27.96 25.9549 28.827 25.6787 29.7254L23.2528 30.3318C22.6266 30.4883 22.1875 31.0508 22.1875 31.6961V36.5891C22.1875 37.2344 22.6266 37.7969 23.2527 37.9533L25.6786 38.5598C25.9548 39.4582 26.3132 40.3251 26.7483 41.1481L25.4632 43.29C25.1313 43.8434 25.2184 44.5516 25.6747 45.0079L29.1346 48.4679C29.5908 48.9241 30.2991 49.0113 30.8524 48.6794L32.9943 47.3942C33.8176 47.8295 34.6845 48.1878 35.5827 48.4641L36.1892 50.89C36.3456 51.516 36.9081 51.9552 37.5534 51.9552H42.4464C43.0917 51.9552 43.6542 51.516 43.8107 50.89L44.4171 48.4641C45.3153 48.1879 46.1823 47.8295 47.0055 47.3942L49.1474 48.6794C49.7009 49.0113 50.4092 48.9241 50.8654 48.4679ZM40 40.7051C36.3756 40.7051 33.4375 37.767 33.4375 34.1426C33.4375 30.5182 36.3756 27.5801 40 27.5801C43.6244 27.5801 46.5625 30.5182 46.5625 34.1426C46.5625 37.767 43.6244 40.7051 40 40.7051Z" fill="#C55652"/>
</g>
<defs>
<clipPath id="clip0_12708_52154">
<rect width="48" height="48" fill="white" transform="translate(16 16.3301)"/>
</clipPath>
</defs>
</svg>
