<svg width="30" height="30" viewBox="0 0 30 30" fill="none" xmlns="http://www.w3.org/2000/svg">
<circle cx="15" cy="15" r="15" fill="white"/>
<path d="M18.3609 7.5H11.6276C9.33321 7.5 7.5 9.33321 7.5 11.6276V18.3724C7.5 20.6553 9.33321 22.5 11.6276 22.5H18.3724C20.6553 22.5 22.5 20.6668 22.5 18.3724V11.6276C22.4885 9.33321 20.6553 7.5 18.3609 7.5ZM21.1741 17.7729C21.1741 19.6407 19.6522 21.1856 17.7613 21.1856H12.2271C10.3593 21.1856 8.81437 19.6637 8.81437 17.7729V12.2271C8.81437 10.3593 10.3363 8.81437 12.2271 8.81437H17.7959C19.6637 8.81437 21.2087 10.3363 21.2087 12.2271V17.7729H21.1741Z" fill="#1A1A1A"/>
<path d="M17.7284 12.2961L17.6938 12.2615L17.6592 12.227C16.9444 11.5121 15.9874 11.1201 14.9959 11.1201C12.8744 11.1316 11.1565 12.8726 11.168 14.9941C11.168 16.0202 11.5831 17.0002 12.2979 17.7266C13.0128 18.4529 13.9812 18.8565 14.9959 18.8565C17.1288 18.8219 18.8352 17.0348 18.8006 14.8788C18.7776 13.9218 18.4086 12.9879 17.7284 12.2961ZM14.9959 17.5421C13.5892 17.5652 12.4478 16.4353 12.4248 15.0286C12.4017 13.622 13.5316 12.4806 14.9382 12.4575C16.3448 12.4345 17.4862 13.5644 17.5093 14.971V15.0056C17.5093 16.3776 16.3794 17.519 14.9959 17.5421Z" fill="#1A1A1A"/>
<path d="M19.9393 10.9478C19.9393 11.4551 19.5473 11.8701 19.04 11.8701C18.7979 11.8701 18.5673 11.7779 18.4059 11.6049C18.0485 11.2475 18.0485 10.648 18.4289 10.2906C18.6019 10.1176 18.8209 10.0254 19.0631 10.0254C19.2706 10.0254 19.4781 10.1061 19.6395 10.2329L19.6626 10.256C19.6972 10.279 19.7202 10.3136 19.7433 10.3367L19.7664 10.3597C19.8586 10.5212 19.9393 10.7287 19.9393 10.9478Z" fill="#1A1A1A"/>
</svg>
