<svg width="60" height="60" viewBox="0 0 60 60" fill="none" xmlns="http://www.w3.org/2000/svg">
<circle cx="30" cy="30" r="30" fill="white"/>
<g clip-path="url(#clip0_12894_46270)">
<path d="M36.875 15H23.125C20.9711 15.0033 18.9064 15.8604 17.3834 17.3834C15.8604 18.9064 15.0033 20.9711 15 23.125V36.875C15.0033 39.0289 15.8604 41.0936 17.3834 42.6166C18.9064 44.1396 20.9711 44.9967 23.125 45H36.875C39.0289 44.9967 41.0936 44.1396 42.6166 42.6166C44.1396 41.0936 44.9967 39.0289 45 36.875V23.125C44.9967 20.9711 44.1396 18.9064 42.6166 17.3834C41.0936 15.8604 39.0289 15.0033 36.875 15V15ZM30 36.875C28.6403 36.875 27.311 36.4718 26.1805 35.7164C25.0499 34.9609 24.1687 33.8872 23.6483 32.6309C23.128 31.3747 22.9918 29.9924 23.2571 28.6588C23.5224 27.3251 24.1772 26.1001 25.1386 25.1386C26.1001 24.1772 27.3251 23.5224 28.6588 23.2571C29.9924 22.9918 31.3747 23.128 32.6309 23.6483C33.8872 24.1687 34.9609 25.0499 35.7164 26.1805C36.4718 27.311 36.875 28.6403 36.875 30C36.875 31.8234 36.1507 33.572 34.8614 34.8614C33.572 36.1507 31.8234 36.875 30 36.875ZM38.125 23.125C37.7542 23.125 37.3916 23.015 37.0833 22.809C36.775 22.603 36.5346 22.3101 36.3927 21.9675C36.2508 21.6249 36.2137 21.2479 36.286 20.8842C36.3584 20.5205 36.537 20.1864 36.7992 19.9242C37.0614 19.662 37.3955 19.4834 37.7592 19.411C38.1229 19.3387 38.4999 19.3758 38.8425 19.5177C39.1851 19.6596 39.478 19.9 39.684 20.2083C39.89 20.5166 40 20.8792 40 21.25C40 21.7473 39.8025 22.2242 39.4508 22.5758C39.0992 22.9275 38.6223 23.125 38.125 23.125Z" fill="#1A1A1A"/>
</g>
<defs>
<clipPath id="clip0_12894_46270">
<rect width="30" height="30" fill="white" transform="translate(15 15)"/>
</clipPath>
</defs>
</svg>
