<svg width="424" height="234" viewBox="0 0 424 234" fill="none" xmlns="http://www.w3.org/2000/svg">
<g clip-path="url(#clip0_12708_51999)">
<rect x="0.785156" width="422.405" height="253.053" rx="19.4656" fill="white"/>
<path d="M33.3538 33.9105C33.3538 33.6843 33.3183 33.4847 33.2473 33.3117C33.1808 33.1343 33.061 32.9746 32.888 32.8326C32.7195 32.6907 32.4844 32.5554 32.1828 32.4268C31.8856 32.2982 31.5086 32.1673 31.0517 32.0342C30.5727 31.8923 30.1402 31.7348 29.7543 31.5619C29.3684 31.3844 29.038 31.1826 28.763 30.9564C28.488 30.7302 28.2773 30.4707 28.1309 30.178C27.9846 29.8852 27.9114 29.5503 27.9114 29.1733C27.9114 28.7963 27.989 28.4481 28.1442 28.1288C28.2995 27.8094 28.5213 27.5322 28.8096 27.2971C29.1023 27.0576 29.4505 26.8713 29.8541 26.7382C30.2578 26.6052 30.708 26.5386 31.2048 26.5386C31.9322 26.5386 32.5487 26.6783 33.0544 26.9578C33.5645 27.2328 33.9526 27.5943 34.2187 28.0423C34.4848 28.4858 34.6179 28.9604 34.6179 29.4661H33.3405C33.3405 29.1024 33.2628 28.7808 33.1076 28.5013C32.9524 28.2175 32.7173 27.9957 32.4024 27.836C32.0874 27.6719 31.6882 27.5898 31.2048 27.5898C30.7479 27.5898 30.3709 27.6586 30.0737 27.7961C29.7765 27.9336 29.5547 28.1199 29.4084 28.355C29.2664 28.5901 29.1955 28.8584 29.1955 29.16C29.1955 29.3641 29.2376 29.5503 29.3219 29.7189C29.4106 29.883 29.5459 30.036 29.7277 30.178C29.914 30.3199 30.1491 30.4508 30.433 30.5705C30.7213 30.6903 31.065 30.8056 31.4642 30.9165C32.0142 31.0717 32.4888 31.2447 32.888 31.4354C33.2872 31.6262 33.6155 31.8413 33.8727 32.0808C34.1344 32.3159 34.3274 32.5842 34.4516 32.8859C34.5802 33.183 34.6445 33.5201 34.6445 33.8972C34.6445 34.2919 34.5647 34.649 34.405 34.9683C34.2453 35.2877 34.0169 35.5605 33.7197 35.7867C33.4225 36.0129 33.0655 36.1881 32.6485 36.3123C32.236 36.4321 31.7747 36.492 31.2646 36.492C30.8166 36.492 30.3753 36.4299 29.9406 36.3057C29.5104 36.1815 29.1178 35.9952 28.763 35.7468C28.4126 35.4984 28.1309 35.1923 27.918 34.8286C27.7096 34.4605 27.6053 34.0347 27.6053 33.5512H28.8828C28.8828 33.8839 28.9471 34.17 29.0757 34.4095C29.2043 34.6446 29.3795 34.8397 29.6013 34.995C29.8275 35.1502 30.0826 35.2655 30.3664 35.3409C30.6548 35.4119 30.9542 35.4474 31.2646 35.4474C31.7126 35.4474 32.0919 35.3853 32.4024 35.2611C32.7128 35.1369 32.9479 34.9595 33.1076 34.7288C33.2717 34.4982 33.3538 34.2254 33.3538 33.9105ZM39.0823 36.492C38.581 36.492 38.1264 36.4077 37.7183 36.2391C37.3147 36.0661 36.9665 35.8244 36.6738 35.5139C36.3855 35.2034 36.1637 34.8353 36.0084 34.4095C35.8532 33.9837 35.7756 33.5179 35.7756 33.0123V32.7328C35.7756 32.1473 35.8621 31.6262 36.0351 31.1693C36.208 30.708 36.4431 30.3177 36.7403 29.9983C37.0375 29.679 37.3746 29.4372 37.7516 29.2731C38.1286 29.109 38.5189 29.027 38.9226 29.027C39.4371 29.027 39.8807 29.1157 40.2532 29.2931C40.6303 29.4705 40.9385 29.7189 41.1781 30.0383C41.4176 30.3532 41.595 30.7258 41.7103 31.156C41.8256 31.5818 41.8833 32.0475 41.8833 32.5532V33.1054H36.5074V32.1008H40.6524V32.0076C40.6347 31.6883 40.5682 31.3778 40.4528 31.0762C40.342 30.7746 40.1645 30.5262 39.9206 30.331C39.6766 30.1358 39.344 30.0383 38.9226 30.0383C38.6431 30.0383 38.3859 30.0981 38.1508 30.2179C37.9157 30.3332 37.7139 30.5062 37.5454 30.7368C37.3768 30.9675 37.246 31.2492 37.1528 31.5818C37.0597 31.9145 37.0131 32.2982 37.0131 32.7328V33.0123C37.0131 33.3538 37.0597 33.6754 37.1528 33.977C37.2504 34.2742 37.3901 34.5359 37.572 34.7621C37.7583 34.9883 37.9823 35.1657 38.2439 35.2944C38.5101 35.423 38.8117 35.4873 39.1488 35.4873C39.5835 35.4873 39.9516 35.3986 40.2532 35.2212C40.5549 35.0438 40.8188 34.8065 41.045 34.5093L41.7902 35.1014C41.6349 35.3365 41.4375 35.5605 41.198 35.7734C40.9585 35.9863 40.6635 36.1593 40.3131 36.2924C39.9672 36.4254 39.5569 36.492 39.0823 36.492ZM44.6577 26.1394V36.3589H43.4202V26.1394H44.6577ZM49.6211 36.492C49.1199 36.492 48.6652 36.4077 48.2572 36.2391C47.8535 36.0661 47.5053 35.8244 47.2126 35.5139C46.9243 35.2034 46.7025 34.8353 46.5473 34.4095C46.392 33.9837 46.3144 33.5179 46.3144 33.0123V32.7328C46.3144 32.1473 46.4009 31.6262 46.5739 31.1693C46.7469 30.708 46.9819 30.3177 47.2791 29.9983C47.5763 29.679 47.9134 29.4372 48.2904 29.2731C48.6674 29.109 49.0578 29.027 49.4614 29.027C49.9759 29.027 50.4195 29.1157 50.7921 29.2931C51.1691 29.4705 51.4774 29.7189 51.7169 30.0383C51.9564 30.3532 52.1338 30.7258 52.2491 31.156C52.3645 31.5818 52.4221 32.0475 52.4221 32.5532V33.1054H47.0463V32.1008H51.1913V32.0076C51.1735 31.6883 51.107 31.3778 50.9917 31.0762C50.8808 30.7746 50.7034 30.5262 50.4594 30.331C50.2154 30.1358 49.8828 30.0383 49.4614 30.0383C49.182 30.0383 48.9247 30.0981 48.6896 30.2179C48.4545 30.3332 48.2527 30.5062 48.0842 30.7368C47.9156 30.9675 47.7848 31.2492 47.6916 31.5818C47.5985 31.9145 47.5519 32.2982 47.5519 32.7328V33.0123C47.5519 33.3538 47.5985 33.6754 47.6916 33.977C47.7892 34.2742 47.9289 34.5359 48.1108 34.7621C48.2971 34.9883 48.5211 35.1657 48.7828 35.2944C49.0489 35.423 49.3505 35.4873 49.6876 35.4873C50.1223 35.4873 50.4905 35.3986 50.7921 35.2212C51.0937 35.0438 51.3576 34.8065 51.5838 34.5093L52.329 35.1014C52.1737 35.3365 51.9764 35.5605 51.7368 35.7734C51.4973 35.9863 51.2024 36.1593 50.8519 36.2924C50.506 36.4254 50.0957 36.492 49.6211 36.492ZM56.7401 35.4807C57.0329 35.4807 57.3034 35.4208 57.5518 35.301C57.8002 35.1813 58.0042 35.0171 58.1639 34.8087C58.3236 34.5958 58.4145 34.354 58.4367 34.0835H59.6077C59.5855 34.5093 59.4414 34.9062 59.1752 35.2744C58.9135 35.6381 58.5698 35.9331 58.144 36.1593C57.7182 36.3811 57.2502 36.492 56.7401 36.492C56.199 36.492 55.7266 36.3966 55.323 36.2059C54.9238 36.0151 54.5911 35.7534 54.325 35.4208C54.0633 35.0881 53.8659 34.7067 53.7328 34.2764C53.6042 33.8417 53.5399 33.3826 53.5399 32.8992V32.6197C53.5399 32.1363 53.6042 31.6794 53.7328 31.2492C53.8659 30.8145 54.0633 30.4308 54.325 30.0981C54.5911 29.7655 54.9238 29.5038 55.323 29.313C55.7266 29.1223 56.199 29.027 56.7401 29.027C57.3034 29.027 57.7958 29.1423 58.2171 29.3729C58.6385 29.5991 58.969 29.9096 59.2085 30.3044C59.4524 30.6947 59.5855 31.1383 59.6077 31.635H58.4367C58.4145 31.3379 58.3303 31.0695 58.1839 30.83C58.0419 30.5905 57.8468 30.3997 57.5984 30.2578C57.3544 30.1114 57.0683 30.0383 56.7401 30.0383C56.3631 30.0383 56.046 30.1137 55.7887 30.2645C55.5359 30.4108 55.3341 30.6104 55.1832 30.8633C55.0369 31.1117 54.9304 31.3889 54.8639 31.6949C54.8018 31.9965 54.7707 32.3048 54.7707 32.6197V32.8992C54.7707 33.2141 54.8018 33.5246 54.8639 33.8306C54.926 34.1367 55.0302 34.4139 55.1766 34.6623C55.3274 34.9107 55.5292 35.1103 55.782 35.2611C56.0393 35.4075 56.3587 35.4807 56.7401 35.4807ZM64.0055 29.16V30.1048H60.1133V29.16H64.0055ZM61.4307 27.4102H62.6616V34.5758C62.6616 34.8198 62.6993 35.0038 62.7747 35.128C62.8501 35.2522 62.9476 35.3343 63.0674 35.3742C63.1872 35.4141 63.3158 35.4341 63.4533 35.4341C63.5553 35.4341 63.6618 35.4252 63.7727 35.4075C63.888 35.3853 63.9745 35.3675 64.0321 35.3542L64.0388 36.3589C63.9412 36.3899 63.8126 36.4188 63.6529 36.4454C63.4976 36.4764 63.3091 36.492 63.0874 36.492C62.7857 36.492 62.5085 36.4321 62.2557 36.3123C62.0029 36.1926 61.8011 35.993 61.6503 35.7135C61.5039 35.4296 61.4307 35.0482 61.4307 34.5691V27.4102ZM74.1784 33.9105C74.1784 33.6843 74.1429 33.4847 74.072 33.3117C74.0054 33.1343 73.8857 32.9746 73.7127 32.8326C73.5441 32.6907 73.309 32.5554 73.0074 32.4268C72.7103 32.2982 72.3332 32.1673 71.8764 32.0342C71.3973 31.8923 70.9649 31.7348 70.579 31.5619C70.1931 31.3844 69.8626 31.1826 69.5876 30.9564C69.3126 30.7302 69.1019 30.4707 68.9556 30.178C68.8092 29.8852 68.736 29.5503 68.736 29.1733C68.736 28.7963 68.8136 28.4481 68.9689 28.1288C69.1241 27.8094 69.3459 27.5322 69.6342 27.2971C69.927 27.0576 70.2751 26.8713 70.6788 26.7382C71.0824 26.6052 71.5326 26.5386 72.0294 26.5386C72.7568 26.5386 73.3734 26.6783 73.879 26.9578C74.3891 27.2328 74.7772 27.5943 75.0433 28.0423C75.3095 28.4858 75.4425 28.9604 75.4425 29.4661H74.1651C74.1651 29.1024 74.0875 28.7808 73.9322 28.5013C73.777 28.2175 73.5419 27.9957 73.227 27.836C72.9121 27.6719 72.5129 27.5898 72.0294 27.5898C71.5725 27.5898 71.1955 27.6586 70.8983 27.7961C70.6012 27.9336 70.3794 28.1199 70.233 28.355C70.0911 28.5901 70.0201 28.8584 70.0201 29.16C70.0201 29.3641 70.0622 29.5503 70.1465 29.7189C70.2352 29.883 70.3705 30.036 70.5524 30.178C70.7387 30.3199 70.9737 30.4508 71.2576 30.5705C71.5459 30.6903 71.8897 30.8056 72.2889 30.9165C72.8389 31.0717 73.3135 31.2447 73.7127 31.4354C74.1119 31.6262 74.4401 31.8413 74.6974 32.0808C74.9591 32.3159 75.152 32.5842 75.2762 32.8859C75.4048 33.183 75.4692 33.5201 75.4692 33.8972C75.4692 34.2919 75.3893 34.649 75.2296 34.9683C75.07 35.2877 74.8415 35.5605 74.5443 35.7867C74.2472 36.0129 73.8901 36.1881 73.4732 36.3123C73.0607 36.4321 72.5994 36.492 72.0893 36.492C71.6413 36.492 71.2 36.4299 70.7653 36.3057C70.335 36.1815 69.9425 35.9952 69.5876 35.7468C69.2372 35.4984 68.9556 35.1923 68.7427 34.8286C68.5342 34.4605 68.43 34.0347 68.43 33.5512H69.7074C69.7074 33.8839 69.7717 34.17 69.9003 34.4095C70.029 34.6446 70.2042 34.8397 70.426 34.995C70.6522 35.1502 70.9072 35.2655 71.1911 35.3409C71.4794 35.4119 71.7788 35.4474 72.0893 35.4474C72.5373 35.4474 72.9165 35.3853 73.227 35.2611C73.5375 35.1369 73.7726 34.9595 73.9322 34.7288C74.0964 34.4982 74.1784 34.2254 74.1784 33.9105ZM79.9335 29.16V30.1048H76.0413V29.16H79.9335ZM77.3587 27.4102H78.5895V34.5758C78.5895 34.8198 78.6272 35.0038 78.7027 35.128C78.7781 35.2522 78.8756 35.3343 78.9954 35.3742C79.1152 35.4141 79.2438 35.4341 79.3813 35.4341C79.4833 35.4341 79.5898 35.4252 79.7006 35.4075C79.816 35.3853 79.9025 35.3675 79.9601 35.3542L79.9668 36.3589C79.8692 36.3899 79.7406 36.4188 79.5809 36.4454C79.4256 36.4764 79.2371 36.492 79.0154 36.492C78.7137 36.492 78.4365 36.4321 78.1837 36.3123C77.9309 36.1926 77.7291 35.993 77.5782 35.7135C77.4319 35.4296 77.3587 35.0482 77.3587 34.5691V27.4102ZM80.9182 32.8393V32.6863C80.9182 32.1673 80.9936 31.6861 81.1444 31.2425C81.2952 30.7945 81.5126 30.4064 81.7964 30.0782C82.0803 29.7455 82.4241 29.4882 82.8277 29.3064C83.2313 29.1201 83.6838 29.027 84.185 29.027C84.6906 29.027 85.1453 29.1201 85.5489 29.3064C85.957 29.4882 86.3029 29.7455 86.5868 30.0782C86.8751 30.4064 87.0947 30.7945 87.2455 31.2425C87.3963 31.6861 87.4717 32.1673 87.4717 32.6863V32.8393C87.4717 33.3582 87.3963 33.8395 87.2455 34.2831C87.0947 34.7266 86.8751 35.1147 86.5868 35.4474C86.3029 35.7756 85.9592 36.0329 85.5556 36.2192C85.1564 36.401 84.7039 36.492 84.1983 36.492C83.6926 36.492 83.238 36.401 82.8344 36.2192C82.4307 36.0329 82.0847 35.7756 81.7964 35.4474C81.5126 35.1147 81.2952 34.7266 81.1444 34.2831C80.9936 33.8395 80.9182 33.3582 80.9182 32.8393ZM82.1491 32.6863V32.8393C82.1491 33.1986 82.1912 33.5379 82.2755 33.8572C82.3598 34.1722 82.4862 34.4516 82.6547 34.6956C82.8277 34.9395 83.0428 35.1325 83.3001 35.2744C83.5573 35.4119 83.8567 35.4807 84.1983 35.4807C84.5354 35.4807 84.8303 35.4119 85.0832 35.2744C85.3404 35.1325 85.5533 34.9395 85.7219 34.6956C85.8904 34.4516 86.0168 34.1722 86.1011 33.8572C86.1898 33.5379 86.2342 33.1986 86.2342 32.8393V32.6863C86.2342 32.3314 86.1898 31.9965 86.1011 31.6816C86.0168 31.3623 85.8882 31.0806 85.7152 30.8366C85.5467 30.5883 85.3338 30.3931 85.0765 30.2512C84.8237 30.1092 84.5265 30.0383 84.185 30.0383C83.8479 30.0383 83.5507 30.1092 83.2934 30.2512C83.0406 30.3931 82.8277 30.5883 82.6547 30.8366C82.4862 31.0806 82.3598 31.3623 82.2755 31.6816C82.1912 31.9965 82.1491 32.3314 82.1491 32.6863ZM90.2461 30.2911V36.3589H89.0153V29.16H90.2129L90.2461 30.2911ZM92.4949 29.1201L92.4883 30.2645C92.3863 30.2423 92.2887 30.229 92.1955 30.2245C92.1068 30.2157 92.0048 30.2112 91.8895 30.2112C91.6056 30.2112 91.355 30.2556 91.1377 30.3443C90.9203 30.433 90.7362 30.5572 90.5854 30.7169C90.4346 30.8766 90.3149 31.0673 90.2262 31.2891C90.1419 31.5064 90.0864 31.7459 90.0598 32.0076L89.7139 32.2072C89.7139 31.7725 89.756 31.3645 89.8403 30.983C89.929 30.6016 90.0643 30.2645 90.2461 29.9717C90.428 29.6745 90.6586 29.4439 90.9381 29.2798C91.2219 29.1112 91.559 29.027 91.9494 29.027C92.0381 29.027 92.1401 29.038 92.2554 29.0602C92.3707 29.078 92.4506 29.0979 92.4949 29.1201ZM96.4869 36.492C95.9857 36.492 95.5311 36.4077 95.123 36.2391C94.7194 36.0661 94.3712 35.8244 94.0784 35.5139C93.7901 35.2034 93.5683 34.8353 93.4131 34.4095C93.2578 33.9837 93.1802 33.5179 93.1802 33.0123V32.7328C93.1802 32.1473 93.2667 31.6262 93.4397 31.1693C93.6127 30.708 93.8478 30.3177 94.145 29.9983C94.4421 29.679 94.7792 29.4372 95.1563 29.2731C95.5333 29.109 95.9236 29.027 96.3272 29.027C96.8418 29.027 97.2853 29.1157 97.6579 29.2931C98.0349 29.4705 98.3432 29.7189 98.5827 30.0383C98.8222 30.3532 98.9996 30.7258 99.115 31.156C99.2303 31.5818 99.288 32.0475 99.288 32.5532V33.1054H93.9121V32.1008H98.0571V32.0076C98.0394 31.6883 97.9728 31.3778 97.8575 31.0762C97.7466 30.7746 97.5692 30.5262 97.3252 30.331C97.0813 30.1358 96.7486 30.0383 96.3272 30.0383C96.0478 30.0383 95.7905 30.0981 95.5555 30.2179C95.3204 30.3332 95.1186 30.5062 94.95 30.7368C94.7815 30.9675 94.6506 31.2492 94.5575 31.5818C94.4643 31.9145 94.4177 32.2982 94.4177 32.7328V33.0123C94.4177 33.3538 94.4643 33.6754 94.5575 33.977C94.655 34.2742 94.7948 34.5359 94.9766 34.7621C95.1629 34.9883 95.3869 35.1657 95.6486 35.2944C95.9147 35.423 96.2163 35.4873 96.5534 35.4873C96.9881 35.4873 97.3563 35.3986 97.6579 35.2212C97.9595 35.0438 98.2234 34.8065 98.4496 34.5093L99.1948 35.1014C99.0396 35.3365 98.8422 35.5605 98.6027 35.7734C98.3631 35.9863 98.0682 36.1593 97.7178 36.2924C97.3718 36.4254 96.9615 36.492 96.4869 36.492Z" fill="#212B36"/>
<path d="M31.7883 65.221L34.2605 56.5299H35.4581L34.7652 59.9088L32.1049 68.9849H30.9158L31.7883 65.221ZM29.2306 56.5299L31.1981 65.0499L31.7883 68.9849H30.6079L27.5882 56.5299H29.2306ZM38.6574 65.0414L40.5821 56.5299H42.2331L39.222 68.9849H38.0415L38.6574 65.0414ZM35.6378 56.5299L38.0415 65.221L38.914 68.9849H37.725L35.1587 59.9088L34.4573 56.5299H35.6378ZM48.9909 67.4023V62.6376C48.9909 62.2726 48.9168 61.9561 48.7685 61.6881C48.6259 61.4144 48.4092 61.2034 48.1184 61.0551C47.8275 60.9068 47.4683 60.8327 47.0406 60.8327C46.6414 60.8327 46.2906 60.9011 45.9884 61.038C45.6918 61.1748 45.458 61.3545 45.2869 61.5769C45.1216 61.7993 45.0389 62.0388 45.0389 62.2954H43.4563C43.4563 61.9647 43.5419 61.6368 43.713 61.3117C43.884 60.9866 44.1293 60.693 44.4486 60.4306C44.7737 60.1626 45.1615 59.9516 45.612 59.7976C46.0682 59.6379 46.5758 59.5581 47.1347 59.5581C47.8076 59.5581 48.4007 59.6721 48.9139 59.9003C49.4329 60.1284 49.8378 60.4734 50.1286 60.9353C50.4252 61.3915 50.5735 61.9647 50.5735 62.6547V66.9661C50.5735 67.274 50.5991 67.6019 50.6504 67.9498C50.7075 68.2977 50.7902 68.5971 50.8985 68.848V68.9849H49.2476C49.1677 68.8024 49.105 68.56 49.0594 68.2578C49.0137 67.9498 48.9909 67.6647 48.9909 67.4023ZM49.2647 63.3733L49.2818 64.4853H47.6821C47.2316 64.4853 46.8296 64.5224 46.476 64.5965C46.1224 64.665 45.8259 64.7705 45.5863 64.913C45.3468 65.0556 45.1643 65.2353 45.0389 65.452C44.9134 65.663 44.8507 65.911 44.8507 66.1962C44.8507 66.487 44.9163 66.7522 45.0474 66.9917C45.1786 67.2312 45.3753 67.4223 45.6377 67.5649C45.9057 67.7017 46.2336 67.7702 46.6214 67.7702C47.1061 67.7702 47.5339 67.6675 47.9045 67.4622C48.2752 67.2569 48.5689 67.006 48.7856 66.7094C49.008 66.4129 49.1278 66.1249 49.1449 65.8455L49.8207 66.6068C49.7808 66.8463 49.6724 67.1115 49.4956 67.4023C49.3188 67.6932 49.0822 67.9726 48.7856 68.2406C48.4948 68.503 48.1469 68.7225 47.742 68.8993C47.3428 69.0704 46.8923 69.1559 46.3904 69.1559C45.7631 69.1559 45.2128 69.0333 44.7395 68.7881C44.2718 68.5429 43.9069 68.215 43.6445 67.8044C43.3879 67.3881 43.2596 66.9233 43.2596 66.41C43.2596 65.9139 43.3565 65.4776 43.5504 65.1012C43.7443 64.7191 44.0238 64.4026 44.3887 64.1517C44.7537 63.8951 45.1928 63.7012 45.7061 63.57C46.2194 63.4389 46.7925 63.3733 47.4255 63.3733H49.2647ZM59.9575 67.6846V68.9849H53.2253V67.6846H59.9575ZM59.7094 60.8498L53.5846 68.9849H52.6179V67.8215L58.7 59.7292H59.7094V60.8498ZM59.0079 59.7292V61.038H52.6864V59.7292H59.0079ZM61.1978 64.4597V64.2629C61.1978 63.5957 61.2948 62.9769 61.4887 62.4067C61.6826 61.8307 61.962 61.3317 62.327 60.9097C62.692 60.4819 63.1339 60.1512 63.6529 59.9174C64.1718 59.6778 64.7535 59.5581 65.398 59.5581C66.0481 59.5581 66.6326 59.6778 67.1516 59.9174C67.6762 60.1512 68.1211 60.4819 68.486 60.9097C68.8567 61.3317 69.139 61.8307 69.3329 62.4067C69.5268 62.9769 69.6238 63.5957 69.6238 64.2629V64.4597C69.6238 65.1269 69.5268 65.7457 69.3329 66.3159C69.139 66.8862 68.8567 67.3852 68.486 67.8129C68.1211 68.2349 67.6791 68.5657 67.1601 68.8052C66.6469 69.039 66.0652 69.1559 65.4151 69.1559C64.7649 69.1559 64.1804 69.039 63.6614 68.8052C63.1425 68.5657 62.6977 68.2349 62.327 67.8129C61.962 67.3852 61.6826 66.8862 61.4887 66.3159C61.2948 65.7457 61.1978 65.1269 61.1978 64.4597ZM62.7804 64.2629V64.4597C62.7804 64.9216 62.8345 65.3579 62.9429 65.7685C63.0512 66.1734 63.2138 66.5326 63.4305 66.8463C63.6529 67.16 63.9295 67.408 64.2602 67.5905C64.591 67.7673 64.9759 67.8557 65.4151 67.8557C65.8485 67.8557 66.2277 67.7673 66.5528 67.5905C66.8835 67.408 67.1573 67.16 67.374 66.8463C67.5907 66.5326 67.7532 66.1734 67.8616 65.7685C67.9756 65.3579 68.0327 64.9216 68.0327 64.4597V64.2629C68.0327 63.8067 67.9756 63.3761 67.8616 62.9712C67.7532 62.5606 67.5878 62.1985 67.3654 61.8848C67.1487 61.5655 66.875 61.3146 66.5442 61.1321C66.2192 60.9496 65.8371 60.8583 65.398 60.8583C64.9645 60.8583 64.5825 60.9496 64.2517 61.1321C63.9266 61.3146 63.6529 61.5655 63.4305 61.8848C63.2138 62.1985 63.0512 62.5606 62.9429 62.9712C62.8345 63.3761 62.7804 63.8067 62.7804 64.2629ZM71.5998 55.8455H73.1909V67.1885L73.054 68.9849H71.5998V55.8455ZM79.444 64.28V64.4597C79.444 65.1326 79.3642 65.7571 79.2045 66.333C79.0448 66.9033 78.811 67.3995 78.5031 67.8215C78.1951 68.2435 77.8187 68.5714 77.3739 68.8052C76.9291 69.039 76.4187 69.1559 75.8427 69.1559C75.2553 69.1559 74.7392 69.0561 74.2944 68.8565C73.8552 68.6512 73.4846 68.3576 73.1823 67.9755C72.8801 67.5934 72.6377 67.1314 72.4552 66.5897C72.2784 66.0479 72.1558 65.4377 72.0874 64.7591V63.9721C72.1558 63.2877 72.2784 62.6747 72.4552 62.1329C72.6377 61.5911 72.8801 61.1292 73.1823 60.7471C73.4846 60.3593 73.8552 60.0656 74.2944 59.866C74.7335 59.6607 75.2439 59.5581 75.8256 59.5581C76.4073 59.5581 76.9234 59.6721 77.3739 59.9003C77.8244 60.1227 78.2008 60.442 78.5031 60.8583C78.811 61.2746 79.0448 61.7736 79.2045 62.3553C79.3642 62.9313 79.444 63.5729 79.444 64.28ZM77.8529 64.4597V64.28C77.8529 63.8181 77.8102 63.3847 77.7246 62.9798C77.6391 62.5692 77.5022 62.2099 77.314 61.902C77.1258 61.5883 76.8777 61.3431 76.5698 61.1663C76.2618 60.9838 75.8826 60.8926 75.4321 60.8926C75.0329 60.8926 74.685 60.961 74.3885 61.0979C74.0976 61.2347 73.8495 61.4201 73.6442 61.6539C73.4389 61.882 73.2707 62.1443 73.1395 62.4409C73.0141 62.7317 72.92 63.034 72.8573 63.3476V65.4092C72.9485 65.8084 73.0968 66.1933 73.3021 66.564C73.5131 66.929 73.7925 67.2284 74.1404 67.4622C74.494 67.696 74.9302 67.8129 75.4492 67.8129C75.8769 67.8129 76.2419 67.7274 76.5441 67.5563C76.8521 67.3795 77.1002 67.1371 77.2884 66.8292C77.4822 66.5212 77.6248 66.1648 77.7161 65.7599C77.8073 65.355 77.8529 64.9216 77.8529 64.4597ZM83.1651 59.7292V68.9849H81.574V59.7292H83.1651ZM81.4543 57.2741C81.4543 57.0175 81.5313 56.8008 81.6852 56.624C81.8449 56.4472 82.0787 56.3588 82.3867 56.3588C82.6889 56.3588 82.9199 56.4472 83.0796 56.624C83.245 56.8008 83.3276 57.0175 83.3276 57.2741C83.3276 57.5193 83.245 57.7303 83.0796 57.9071C82.9199 58.0782 82.6889 58.1637 82.3867 58.1637C82.0787 58.1637 81.8449 58.0782 81.6852 57.9071C81.5313 57.7303 81.4543 57.5193 81.4543 57.2741ZM91.1633 67.4023V62.6376C91.1633 62.2726 91.0892 61.9561 90.9409 61.6881C90.7983 61.4144 90.5816 61.2034 90.2908 61.0551C90 60.9068 89.6407 60.8327 89.213 60.8327C88.8138 60.8327 88.463 60.9011 88.1608 61.038C87.8642 61.1748 87.6304 61.3545 87.4593 61.5769C87.294 61.7993 87.2113 62.0388 87.2113 62.2954H85.6287C85.6287 61.9647 85.7143 61.6368 85.8854 61.3117C86.0564 60.9866 86.3017 60.693 86.621 60.4306C86.9461 60.1626 87.3339 59.9516 87.7844 59.7976C88.2406 59.6379 88.7482 59.5581 89.3071 59.5581C89.98 59.5581 90.5731 59.6721 91.0863 59.9003C91.6053 60.1284 92.0102 60.4734 92.301 60.9353C92.5976 61.3915 92.7459 61.9647 92.7459 62.6547V66.9661C92.7459 67.274 92.7715 67.6019 92.8229 67.9498C92.8799 68.2977 92.9626 68.5971 93.0709 68.848V68.9849H91.42C91.3401 68.8024 91.2774 68.56 91.2318 68.2578C91.1861 67.9498 91.1633 67.6647 91.1633 67.4023ZM91.4371 63.3733L91.4542 64.4853H89.8545C89.404 64.4853 89.002 64.5224 88.6484 64.5965C88.2948 64.665 87.9983 64.7705 87.7587 64.913C87.5192 65.0556 87.3367 65.2353 87.2113 65.452C87.0858 65.663 87.0231 65.911 87.0231 66.1962C87.0231 66.487 87.0887 66.7522 87.2198 66.9917C87.351 67.2312 87.5477 67.4223 87.8101 67.5649C88.0781 67.7017 88.406 67.7702 88.7938 67.7702C89.2785 67.7702 89.7063 67.6675 90.0769 67.4622C90.4476 67.2569 90.7413 67.006 90.958 66.7094C91.1804 66.4129 91.3002 66.1249 91.3173 65.8455L91.9931 66.6068C91.9532 66.8463 91.8448 67.1115 91.668 67.4023C91.4912 67.6932 91.2546 67.9726 90.958 68.2406C90.6672 68.503 90.3193 68.7225 89.9144 68.8993C89.5152 69.0704 89.0647 69.1559 88.5628 69.1559C87.9355 69.1559 87.3852 69.0333 86.9119 68.7881C86.4442 68.5429 86.0793 68.215 85.8169 67.8044C85.5603 67.3881 85.432 66.9233 85.432 66.41C85.432 65.9139 85.5289 65.4776 85.7228 65.1012C85.9167 64.7191 86.1962 64.4026 86.5611 64.1517C86.9261 63.8951 87.3652 63.7012 87.8785 63.57C88.3918 63.4389 88.9649 63.3733 89.5979 63.3733H91.4371ZM104.08 56.5299V68.9849H102.455V56.5299H104.08ZM108.084 56.5299V57.8815H98.4601V56.5299H108.084ZM110.624 61.1834V68.9849H109.042V59.7292H110.581L110.624 61.1834ZM113.516 59.6778L113.507 61.1492C113.376 61.1207 113.25 61.1036 113.131 61.0979C113.017 61.0864 112.885 61.0807 112.737 61.0807C112.372 61.0807 112.05 61.1378 111.77 61.2518C111.491 61.3659 111.254 61.5256 111.06 61.7309C110.867 61.9362 110.713 62.1814 110.599 62.4665C110.49 62.746 110.419 63.0539 110.385 63.3904L109.94 63.647C109.94 63.0881 109.994 62.5635 110.102 62.073C110.216 61.5826 110.39 61.1492 110.624 60.7728C110.858 60.3907 111.155 60.0942 111.514 59.8832C111.879 59.6664 112.312 59.5581 112.814 59.5581C112.928 59.5581 113.059 59.5723 113.208 59.6009C113.356 59.6237 113.459 59.6493 113.516 59.6778ZM120.094 67.4023V62.6376C120.094 62.2726 120.02 61.9561 119.871 61.6881C119.729 61.4144 119.512 61.2034 119.221 61.0551C118.93 60.9068 118.571 60.8327 118.143 60.8327C117.744 60.8327 117.393 60.9011 117.091 61.038C116.795 61.1748 116.561 61.3545 116.39 61.5769C116.224 61.7993 116.142 62.0388 116.142 62.2954H114.559C114.559 61.9647 114.645 61.6368 114.816 61.3117C114.987 60.9866 115.232 60.693 115.551 60.4306C115.877 60.1626 116.264 59.9516 116.715 59.7976C117.171 59.6379 117.679 59.5581 118.237 59.5581C118.91 59.5581 119.504 59.6721 120.017 59.9003C120.536 60.1284 120.941 60.4734 121.231 60.9353C121.528 61.3915 121.676 61.9647 121.676 62.6547V66.9661C121.676 67.274 121.702 67.6019 121.753 67.9498C121.81 68.2977 121.893 68.5971 122.001 68.848V68.9849H120.35C120.271 68.8024 120.208 68.56 120.162 68.2578C120.117 67.9498 120.094 67.6647 120.094 67.4023ZM120.368 63.3733L120.385 64.4853H118.785C118.334 64.4853 117.932 64.5224 117.579 64.5965C117.225 64.665 116.929 64.7705 116.689 64.913C116.45 65.0556 116.267 65.2353 116.142 65.452C116.016 65.663 115.954 65.911 115.954 66.1962C115.954 66.487 116.019 66.7522 116.15 66.9917C116.281 67.2312 116.478 67.4223 116.741 67.5649C117.009 67.7017 117.336 67.7702 117.724 67.7702C118.209 67.7702 118.637 67.6675 119.007 67.4622C119.378 67.2569 119.672 67.006 119.888 66.7094C120.111 66.4129 120.231 66.1249 120.248 65.8455L120.924 66.6068C120.884 66.8463 120.775 67.1115 120.598 67.4023C120.422 67.6932 120.185 67.9726 119.888 68.2406C119.598 68.503 119.25 68.7225 118.845 68.8993C118.446 69.0704 117.995 69.1559 117.493 69.1559C116.866 69.1559 116.316 69.0333 115.842 68.7881C115.375 68.5429 115.01 68.215 114.747 67.8044C114.491 67.3881 114.362 66.9233 114.362 66.41C114.362 65.9139 114.459 65.4776 114.653 65.1012C114.847 64.7191 115.127 64.4026 115.492 64.1517C115.857 63.8951 116.296 63.7012 116.809 63.57C117.322 63.4389 117.895 63.3733 118.528 63.3733H120.368ZM130 67.1885V55.8455H131.591V68.9849H130.136L130 67.1885ZM123.772 64.4597V64.28C123.772 63.5729 123.858 62.9313 124.029 62.3553C124.206 61.7736 124.454 61.2746 124.773 60.8583C125.098 60.442 125.483 60.1227 125.928 59.9003C126.378 59.6721 126.88 59.5581 127.433 59.5581C128.015 59.5581 128.523 59.6607 128.956 59.866C129.395 60.0656 129.766 60.3593 130.068 60.7471C130.376 61.1292 130.618 61.5911 130.795 62.1329C130.972 62.6747 131.095 63.2877 131.163 63.9721V64.7591C131.1 65.4377 130.978 66.0479 130.795 66.5897C130.618 67.1314 130.376 67.5934 130.068 67.9755C129.766 68.3576 129.395 68.6512 128.956 68.8565C128.517 69.0561 128.004 69.1559 127.416 69.1559C126.874 69.1559 126.378 69.039 125.928 68.8052C125.483 68.5714 125.098 68.2435 124.773 67.8215C124.454 67.3995 124.206 66.9033 124.029 66.333C123.858 65.7571 123.772 65.1326 123.772 64.4597ZM125.363 64.28V64.4597C125.363 64.9216 125.409 65.355 125.5 65.7599C125.597 66.1648 125.745 66.5212 125.945 66.8292C126.144 67.1371 126.398 67.3795 126.706 67.5563C127.014 67.7274 127.382 67.8129 127.81 67.8129C128.334 67.8129 128.765 67.7017 129.101 67.4793C129.444 67.2569 129.717 66.9632 129.923 66.5982C130.128 66.2332 130.288 65.8369 130.402 65.4092V63.3476C130.333 63.034 130.233 62.7317 130.102 62.4409C129.977 62.1443 129.811 61.882 129.606 61.6539C129.406 61.4201 129.158 61.2347 128.862 61.0979C128.571 60.961 128.226 60.8926 127.827 60.8926C127.393 60.8926 127.02 60.9838 126.706 61.1663C126.398 61.3431 126.144 61.5883 125.945 61.902C125.745 62.2099 125.597 62.5692 125.5 62.9798C125.409 63.3847 125.363 63.8181 125.363 64.28ZM137.895 69.1559C137.251 69.1559 136.666 69.0476 136.142 68.8309C135.623 68.6085 135.175 68.2977 134.799 67.8985C134.428 67.4993 134.143 67.0259 133.943 66.4785C133.743 65.931 133.644 65.3322 133.644 64.6821V64.3228C133.644 63.57 133.755 62.8999 133.977 62.3126C134.2 61.7195 134.502 61.2176 134.884 60.807C135.266 60.3964 135.7 60.0856 136.184 59.8746C136.669 59.6636 137.171 59.5581 137.69 59.5581C138.351 59.5581 138.922 59.6721 139.401 59.9003C139.885 60.1284 140.282 60.4477 140.59 60.8583C140.898 61.2632 141.126 61.7423 141.274 62.2954C141.422 62.8429 141.496 63.4417 141.496 64.0918V64.8018H134.585V63.5101H139.914V63.3904C139.891 62.9798 139.806 62.5806 139.657 62.1928C139.515 61.805 139.287 61.4856 138.973 61.2347C138.659 60.9838 138.232 60.8583 137.69 60.8583C137.331 60.8583 137 60.9353 136.698 61.0893C136.395 61.2376 136.136 61.46 135.919 61.7565C135.702 62.0531 135.534 62.4152 135.414 62.8429C135.295 63.2706 135.235 63.7639 135.235 64.3228V64.6821C135.235 65.1212 135.295 65.5347 135.414 65.9224C135.54 66.3045 135.72 66.641 135.953 66.9318C136.193 67.2227 136.481 67.4508 136.817 67.6162C137.159 67.7816 137.547 67.8643 137.981 67.8643C138.54 67.8643 139.013 67.7502 139.401 67.5221C139.788 67.294 140.128 66.9889 140.419 66.6068L141.377 67.3681C141.177 67.6704 140.923 67.9584 140.615 68.2321C140.307 68.5058 139.928 68.7282 139.478 68.8993C139.033 69.0704 138.505 69.1559 137.895 69.1559Z" fill="#2B3B45"/>
<path d="M391.08 65.9634C390.837 65.9634 390.674 65.8823 390.512 65.7201L385.646 60.8537C385.321 60.5292 385.321 60.0426 385.646 59.7182C385.97 59.3937 386.457 59.3937 386.781 59.7182L391.08 64.0168L395.378 59.7182C395.703 59.3937 396.19 59.3937 396.514 59.7182C396.838 60.0426 396.838 60.5292 396.514 60.8537L391.648 65.7201C391.485 65.8823 391.323 65.9634 391.08 65.9634Z" fill="#6B7783"/>
<mask id="mask0_12708_51999" style="mask-type:luminance" maskUnits="userSpaceOnUse" x="385" y="59" width="12" height="7">
<path d="M391.084 65.9639C390.84 65.9639 390.678 65.8828 390.516 65.7206L385.65 60.8542C385.325 60.5297 385.325 60.0431 385.65 59.7187C385.974 59.3942 386.461 59.3942 386.785 59.7187L391.084 64.0173L395.382 59.7187C395.707 59.3942 396.193 59.3942 396.518 59.7187C396.842 60.0431 396.842 60.5297 396.518 60.8542L391.651 65.7206C391.489 65.8828 391.327 65.9639 391.084 65.9639Z" fill="white"/>
</mask>
<g mask="url(#mask0_12708_51999)">
<path d="M394.971 51.0403H387.185C382.884 51.0403 379.398 54.5263 379.398 58.8265V66.6128C379.398 70.913 382.884 74.3991 387.185 74.3991H394.971C399.271 74.3991 402.757 70.913 402.757 66.6128V58.8265C402.757 54.5263 399.271 51.0403 394.971 51.0403Z" fill="#6B7783"/>
</g>
<path d="M27.0664 78.8513H396.914" stroke="#8AB7D1" stroke-width="0.486641" stroke-linecap="round"/>
<path d="M33.7473 109.633V122.088H31.1896V109.633H33.7473ZM37.5796 109.633V111.643H27.4171V109.633H37.5796ZM37.0064 117.554V117.375C37.0064 116.696 37.1034 116.071 37.2973 115.501C37.4912 114.925 37.7735 114.426 38.1441 114.004C38.5148 113.582 38.9711 113.254 39.5128 113.02C40.0546 112.781 40.6762 112.661 41.3777 112.661C42.0791 112.661 42.7036 112.781 43.251 113.02C43.7985 113.254 44.2576 113.582 44.6283 114.004C45.0046 114.426 45.2898 114.925 45.4837 115.501C45.6776 116.071 45.7745 116.696 45.7745 117.375V117.554C45.7745 118.227 45.6776 118.852 45.4837 119.428C45.2898 119.998 45.0046 120.497 44.6283 120.925C44.2576 121.347 43.8014 121.674 43.2596 121.908C42.7178 122.142 42.0962 122.259 41.3948 122.259C40.6933 122.259 40.0689 122.142 39.5214 121.908C38.9796 121.674 38.5205 121.347 38.1441 120.925C37.7735 120.497 37.4912 119.998 37.2973 119.428C37.1034 118.852 37.0064 118.227 37.0064 117.554ZM39.4701 117.375V117.554C39.4701 117.942 39.5043 118.304 39.5727 118.641C39.6411 118.977 39.7495 119.274 39.8978 119.53C40.0517 119.781 40.2513 119.978 40.4966 120.12C40.7418 120.263 41.0412 120.334 41.3948 120.334C41.7369 120.334 42.0306 120.263 42.2758 120.12C42.5211 119.978 42.7178 119.781 42.8661 119.53C43.0144 119.274 43.1227 118.977 43.1912 118.641C43.2653 118.304 43.3024 117.942 43.3024 117.554V117.375C43.3024 116.998 43.2653 116.645 43.1912 116.314C43.1227 115.977 43.0115 115.681 42.8575 115.424C42.7093 115.162 42.5125 114.957 42.2673 114.808C42.0221 114.66 41.7255 114.586 41.3777 114.586C41.0298 114.586 40.7332 114.66 40.488 114.808C40.2485 114.957 40.0517 115.162 39.8978 115.424C39.7495 115.681 39.6411 115.977 39.5727 116.314C39.5043 116.645 39.4701 116.998 39.4701 117.375ZM51.8224 112.832V114.577H46.4332V112.832H51.8224ZM47.7677 110.548H50.2313V119.299C50.2313 119.567 50.2655 119.773 50.3339 119.915C50.4081 120.058 50.5164 120.157 50.659 120.215C50.8016 120.266 50.9812 120.292 51.1979 120.292C51.3519 120.292 51.4888 120.286 51.6085 120.274C51.734 120.257 51.8395 120.24 51.925 120.223L51.9336 122.037C51.7226 122.105 51.4945 122.159 51.2492 122.199C51.004 122.239 50.7331 122.259 50.4366 122.259C49.8948 122.259 49.4215 122.171 49.0166 121.994C48.6174 121.811 48.3094 121.52 48.0927 121.121C47.876 120.722 47.7677 120.197 47.7677 119.547V110.548ZM58.221 120.001V115.878C58.221 115.581 58.1725 115.327 58.0755 115.116C57.9786 114.899 57.8275 114.731 57.6222 114.611C57.4226 114.492 57.1631 114.432 56.8437 114.432C56.57 114.432 56.3333 114.48 56.1337 114.577C55.9341 114.669 55.7801 114.803 55.6718 114.979C55.5634 115.15 55.5093 115.353 55.5093 115.587H53.0456C53.0456 115.193 53.1369 114.82 53.3194 114.466C53.5019 114.112 53.767 113.802 54.1149 113.534C54.4628 113.26 54.8762 113.046 55.3553 112.892C55.84 112.738 56.3818 112.661 56.9806 112.661C57.6991 112.661 58.3379 112.781 58.8967 113.02C59.4556 113.26 59.8947 113.619 60.2141 114.098C60.5392 114.577 60.7017 115.176 60.7017 115.895V119.855C60.7017 120.363 60.733 120.779 60.7958 121.104C60.8585 121.424 60.9498 121.703 61.0695 121.942V122.088H58.5802C58.4605 121.837 58.3692 121.523 58.3065 121.147C58.2495 120.765 58.221 120.383 58.221 120.001ZM58.546 116.451L58.5631 117.845H57.1859C56.8608 117.845 56.5785 117.882 56.339 117.956C56.0995 118.03 55.9028 118.136 55.7488 118.273C55.5948 118.404 55.4807 118.558 55.4066 118.735C55.3382 118.911 55.304 119.105 55.304 119.316C55.304 119.527 55.3524 119.718 55.4494 119.889C55.5463 120.055 55.686 120.186 55.8685 120.283C56.051 120.374 56.2649 120.42 56.5101 120.42C56.8808 120.42 57.203 120.346 57.4767 120.197C57.7505 120.049 57.9615 119.867 58.1097 119.65C58.2637 119.433 58.3436 119.228 58.3493 119.034L58.9994 120.078C58.9081 120.311 58.7827 120.554 58.623 120.805C58.469 121.056 58.2723 121.292 58.0328 121.515C57.7932 121.731 57.5052 121.911 57.1688 122.054C56.8323 122.191 56.4331 122.259 55.9712 122.259C55.3838 122.259 54.8506 122.142 54.3715 121.908C53.8982 121.669 53.5218 121.341 53.2424 120.925C52.9686 120.503 52.8318 120.023 52.8318 119.487C52.8318 119.003 52.923 118.572 53.1055 118.196C53.288 117.819 53.556 117.503 53.9096 117.246C54.2689 116.984 54.7166 116.787 55.2526 116.656C55.7887 116.519 56.4103 116.451 57.1175 116.451H58.546ZM65.2012 108.949V122.088H62.729V108.949H65.2012ZM76.604 117.648H73.4304V115.647H76.604C77.0945 115.647 77.4937 115.567 77.8016 115.407C78.1096 115.242 78.3348 115.014 78.4774 114.723C78.62 114.432 78.6912 114.104 78.6912 113.739C78.6912 113.368 78.62 113.023 78.4774 112.704C78.3348 112.385 78.1096 112.128 77.8016 111.934C77.4937 111.74 77.0945 111.643 76.604 111.643H74.32V122.088H71.7538V109.633H76.604C77.5792 109.633 78.4147 109.81 79.1104 110.163C79.8119 110.511 80.3479 110.993 80.7186 111.609C81.0893 112.225 81.2746 112.929 81.2746 113.722C81.2746 114.526 81.0893 115.222 80.7186 115.809C80.3479 116.396 79.8119 116.85 79.1104 117.169C78.4147 117.489 77.5792 117.648 76.604 117.648ZM85.355 114.851V122.088H82.8914V112.832H85.2096L85.355 114.851ZM88.1437 112.772L88.1009 115.056C87.9812 115.039 87.8357 115.025 87.6646 115.014C87.4993 114.996 87.3481 114.988 87.2113 114.988C86.8634 114.988 86.5612 115.033 86.3045 115.125C86.0536 115.21 85.8426 115.339 85.6715 115.51C85.5061 115.681 85.3807 115.889 85.2951 116.134C85.2153 116.379 85.1697 116.659 85.1583 116.972L84.6621 116.818C84.6621 116.22 84.722 115.669 84.8417 115.168C84.9615 114.66 85.1354 114.218 85.3636 113.842C85.5974 113.465 85.8825 113.174 86.219 112.969C86.5554 112.764 86.9404 112.661 87.3738 112.661C87.5107 112.661 87.6504 112.673 87.793 112.695C87.9355 112.712 88.0524 112.738 88.1437 112.772ZM88.6569 117.554V117.375C88.6569 116.696 88.7539 116.071 88.9478 115.501C89.1417 114.925 89.424 114.426 89.7947 114.004C90.1653 113.582 90.6216 113.254 91.1633 113.02C91.7051 112.781 92.3267 112.661 93.0282 112.661C93.7296 112.661 94.3541 112.781 94.9015 113.02C95.449 113.254 95.9081 113.582 96.2788 114.004C96.6552 114.426 96.9403 114.925 97.1342 115.501C97.3281 116.071 97.425 116.696 97.425 117.375V117.554C97.425 118.227 97.3281 118.852 97.1342 119.428C96.9403 119.998 96.6552 120.497 96.2788 120.925C95.9081 121.347 95.4519 121.674 94.9101 121.908C94.3683 122.142 93.7467 122.259 93.0453 122.259C92.3438 122.259 91.7194 122.142 91.1719 121.908C90.6301 121.674 90.171 121.347 89.7947 120.925C89.424 120.497 89.1417 119.998 88.9478 119.428C88.7539 118.852 88.6569 118.227 88.6569 117.554ZM91.1206 117.375V117.554C91.1206 117.942 91.1548 118.304 91.2232 118.641C91.2916 118.977 91.4 119.274 91.5483 119.53C91.7023 119.781 91.9018 119.978 92.1471 120.12C92.3923 120.263 92.6917 120.334 93.0453 120.334C93.3874 120.334 93.6811 120.263 93.9264 120.12C94.1716 119.978 94.3683 119.781 94.5166 119.53C94.6649 119.274 94.7732 118.977 94.8417 118.641C94.9158 118.304 94.9529 117.942 94.9529 117.554V117.375C94.9529 116.998 94.9158 116.645 94.8417 116.314C94.7732 115.977 94.662 115.681 94.508 115.424C94.3598 115.162 94.163 114.957 93.9178 114.808C93.6726 114.66 93.376 114.586 93.0282 114.586C92.6803 114.586 92.3837 114.66 92.1385 114.808C91.899 114.957 91.7023 115.162 91.5483 115.424C91.4 115.681 91.2916 115.977 91.2232 116.314C91.1548 116.645 91.1206 116.998 91.1206 117.375ZM104.405 120.069V108.949H106.886V122.088H104.653L104.405 120.069ZM98.5542 117.571V117.392C98.5542 116.684 98.634 116.043 98.7937 115.467C98.9534 114.885 99.1872 114.386 99.4952 113.97C99.8031 113.554 100.182 113.231 100.633 113.003C101.083 112.775 101.597 112.661 102.173 112.661C102.714 112.661 103.188 112.775 103.593 113.003C104.003 113.231 104.351 113.556 104.636 113.978C104.927 114.395 105.161 114.888 105.338 115.458C105.514 116.023 105.643 116.642 105.723 117.315V117.708C105.643 118.353 105.514 118.951 105.338 119.505C105.161 120.058 104.927 120.542 104.636 120.959C104.351 121.369 104.003 121.689 103.593 121.917C103.182 122.145 102.703 122.259 102.156 122.259C101.58 122.259 101.066 122.142 100.616 121.908C100.171 121.674 99.7946 121.347 99.4866 120.925C99.1844 120.503 98.9534 120.006 98.7937 119.436C98.634 118.866 98.5542 118.244 98.5542 117.571ZM101.018 117.392V117.571C101.018 117.953 101.046 118.31 101.103 118.641C101.166 118.971 101.266 119.265 101.403 119.522C101.545 119.773 101.728 119.969 101.95 120.112C102.178 120.249 102.455 120.317 102.78 120.317C103.202 120.317 103.55 120.223 103.824 120.035C104.097 119.841 104.305 119.576 104.448 119.239C104.596 118.903 104.682 118.515 104.705 118.076V116.955C104.688 116.596 104.636 116.274 104.551 115.989C104.471 115.698 104.351 115.45 104.191 115.244C104.037 115.039 103.844 114.88 103.61 114.765C103.382 114.651 103.111 114.594 102.797 114.594C102.478 114.594 102.204 114.669 101.976 114.817C101.748 114.959 101.562 115.156 101.42 115.407C101.283 115.658 101.18 115.955 101.112 116.297C101.049 116.633 101.018 116.998 101.018 117.392ZM114.285 119.872V112.832H116.749V122.088H114.431L114.285 119.872ZM114.559 117.973L115.286 117.956C115.286 118.572 115.215 119.145 115.072 119.676C114.93 120.2 114.716 120.656 114.431 121.044C114.146 121.426 113.786 121.726 113.353 121.942C112.92 122.153 112.409 122.259 111.822 122.259C111.371 122.259 110.955 122.196 110.573 122.071C110.197 121.94 109.871 121.737 109.598 121.463C109.33 121.184 109.119 120.828 108.965 120.394C108.816 119.955 108.742 119.428 108.742 118.812V112.832H111.206V118.829C111.206 119.102 111.237 119.333 111.3 119.522C111.368 119.71 111.463 119.864 111.582 119.984C111.702 120.103 111.842 120.189 112.001 120.24C112.167 120.292 112.349 120.317 112.549 120.317C113.056 120.317 113.456 120.215 113.747 120.009C114.043 119.804 114.251 119.524 114.371 119.171C114.496 118.812 114.559 118.412 114.559 117.973ZM122.455 120.334C122.757 120.334 123.025 120.277 123.259 120.163C123.493 120.043 123.675 119.878 123.806 119.667C123.943 119.45 124.014 119.197 124.02 118.906H126.338C126.333 119.556 126.159 120.135 125.817 120.642C125.474 121.144 125.015 121.54 124.439 121.831C123.863 122.116 123.219 122.259 122.506 122.259C121.788 122.259 121.16 122.139 120.624 121.9C120.094 121.66 119.652 121.329 119.298 120.907C118.945 120.48 118.679 119.984 118.503 119.419C118.326 118.849 118.238 118.238 118.238 117.588V117.34C118.238 116.684 118.326 116.074 118.503 115.51C118.679 114.939 118.945 114.443 119.298 114.021C119.652 113.594 120.094 113.26 120.624 113.02C121.155 112.781 121.776 112.661 122.489 112.661C123.247 112.661 123.912 112.807 124.482 113.097C125.058 113.388 125.509 113.805 125.834 114.346C126.164 114.882 126.333 115.518 126.338 116.254H124.02C124.014 115.946 123.949 115.667 123.823 115.416C123.704 115.165 123.527 114.965 123.293 114.817C123.065 114.663 122.783 114.586 122.446 114.586C122.087 114.586 121.793 114.663 121.565 114.817C121.337 114.965 121.16 115.17 121.035 115.433C120.909 115.689 120.821 115.983 120.77 116.314C120.724 116.639 120.701 116.981 120.701 117.34V117.588C120.701 117.948 120.724 118.293 120.77 118.623C120.815 118.954 120.901 119.248 121.026 119.505C121.157 119.761 121.337 119.964 121.565 120.112C121.793 120.26 122.09 120.334 122.455 120.334ZM132.301 112.832V114.577H126.912V112.832H132.301ZM128.246 110.548H130.71V119.299C130.71 119.567 130.744 119.773 130.812 119.915C130.886 120.058 130.995 120.157 131.137 120.215C131.28 120.266 131.46 120.292 131.676 120.292C131.83 120.292 131.967 120.286 132.087 120.274C132.212 120.257 132.318 120.24 132.403 120.223L132.412 122.037C132.201 122.105 131.973 122.159 131.728 122.199C131.482 122.239 131.211 122.259 130.915 122.259C130.373 122.259 129.9 122.171 129.495 121.994C129.096 121.811 128.788 121.52 128.571 121.121C128.354 120.722 128.246 120.197 128.246 119.547V110.548ZM138.708 119.53C138.708 119.353 138.656 119.194 138.554 119.051C138.451 118.909 138.26 118.777 137.981 118.658C137.707 118.532 137.311 118.418 136.792 118.315C136.324 118.213 135.888 118.085 135.483 117.931C135.084 117.771 134.736 117.58 134.439 117.357C134.148 117.135 133.92 116.873 133.755 116.57C133.59 116.262 133.507 115.912 133.507 115.518C133.507 115.13 133.59 114.765 133.755 114.423C133.926 114.081 134.168 113.779 134.482 113.517C134.801 113.249 135.189 113.04 135.645 112.892C136.107 112.738 136.626 112.661 137.202 112.661C138.006 112.661 138.696 112.789 139.272 113.046C139.854 113.303 140.299 113.656 140.607 114.107C140.921 114.552 141.077 115.059 141.077 115.629H138.614C138.614 115.39 138.562 115.176 138.46 114.988C138.363 114.794 138.209 114.643 137.998 114.534C137.793 114.42 137.524 114.363 137.194 114.363C136.92 114.363 136.683 114.412 136.484 114.509C136.284 114.6 136.13 114.726 136.022 114.885C135.919 115.039 135.868 115.21 135.868 115.398C135.868 115.541 135.896 115.669 135.953 115.783C136.016 115.892 136.116 115.992 136.253 116.083C136.39 116.174 136.566 116.26 136.783 116.339C137.006 116.414 137.279 116.482 137.604 116.545C138.272 116.682 138.867 116.861 139.392 117.084C139.917 117.3 140.333 117.597 140.641 117.973C140.949 118.344 141.103 118.832 141.103 119.436C141.103 119.847 141.012 120.223 140.829 120.565C140.647 120.907 140.384 121.207 140.042 121.463C139.7 121.714 139.289 121.911 138.81 122.054C138.337 122.191 137.804 122.259 137.211 122.259C136.35 122.259 135.62 122.105 135.021 121.797C134.428 121.489 133.977 121.098 133.669 120.625C133.367 120.146 133.216 119.656 133.216 119.154H135.551C135.563 119.49 135.648 119.761 135.808 119.966C135.973 120.172 136.181 120.32 136.432 120.411C136.689 120.503 136.966 120.548 137.262 120.548C137.581 120.548 137.847 120.505 138.058 120.42C138.269 120.329 138.428 120.209 138.537 120.061C138.651 119.907 138.708 119.73 138.708 119.53Z" fill="#212B36"/>
<path d="M379.706 116.416L377.739 115.946L378.449 109.633H385.446V111.626H380.476L380.168 114.389C380.334 114.292 380.585 114.189 380.921 114.081C381.258 113.967 381.634 113.91 382.05 113.91C382.655 113.91 383.191 114.004 383.658 114.192C384.126 114.381 384.522 114.654 384.847 115.014C385.178 115.373 385.429 115.812 385.6 116.331C385.771 116.85 385.857 117.437 385.857 118.093C385.857 118.646 385.771 119.174 385.6 119.676C385.429 120.172 385.17 120.617 384.822 121.01C384.474 121.398 384.038 121.703 383.513 121.925C382.988 122.148 382.367 122.259 381.648 122.259C381.112 122.259 380.593 122.179 380.091 122.019C379.595 121.86 379.148 121.623 378.748 121.309C378.355 120.996 378.038 120.617 377.799 120.172C377.565 119.721 377.442 119.208 377.431 118.632H379.877C379.912 118.986 380.003 119.291 380.151 119.547C380.305 119.798 380.508 119.992 380.759 120.129C381.009 120.266 381.303 120.334 381.64 120.334C381.953 120.334 382.221 120.274 382.444 120.155C382.666 120.035 382.846 119.869 382.983 119.658C383.12 119.442 383.219 119.191 383.282 118.906C383.35 118.615 383.385 118.301 383.385 117.965C383.385 117.628 383.345 117.323 383.265 117.049C383.185 116.776 383.063 116.539 382.897 116.339C382.732 116.14 382.521 115.986 382.264 115.878C382.013 115.769 381.719 115.715 381.383 115.715C380.927 115.715 380.573 115.786 380.322 115.929C380.077 116.071 379.872 116.234 379.706 116.416ZM395.831 114.765V116.921C395.831 117.856 395.731 118.663 395.532 119.342C395.332 120.015 395.044 120.568 394.668 121.002C394.297 121.429 393.855 121.746 393.342 121.951C392.829 122.156 392.258 122.259 391.631 122.259C391.129 122.259 390.662 122.196 390.228 122.071C389.795 121.94 389.404 121.737 389.056 121.463C388.714 121.19 388.417 120.845 388.167 120.428C387.921 120.006 387.733 119.505 387.602 118.923C387.471 118.341 387.405 117.674 387.405 116.921V114.765C387.405 113.83 387.505 113.029 387.705 112.362C387.91 111.689 388.198 111.138 388.569 110.711C388.945 110.283 389.39 109.969 389.903 109.77C390.416 109.564 390.987 109.462 391.614 109.462C392.116 109.462 392.581 109.527 393.008 109.659C393.442 109.784 393.832 109.981 394.18 110.249C394.528 110.517 394.825 110.862 395.07 111.284C395.315 111.7 395.503 112.199 395.634 112.781C395.766 113.357 395.831 114.018 395.831 114.765ZM393.359 117.246V114.432C393.359 113.981 393.333 113.588 393.282 113.251C393.236 112.915 393.165 112.63 393.068 112.396C392.971 112.156 392.851 111.963 392.709 111.814C392.566 111.666 392.404 111.558 392.221 111.489C392.039 111.421 391.836 111.387 391.614 111.387C391.334 111.387 391.086 111.441 390.87 111.549C390.659 111.657 390.479 111.831 390.331 112.071C390.182 112.305 390.068 112.618 389.989 113.012C389.914 113.4 389.877 113.873 389.877 114.432V117.246C389.877 117.697 389.9 118.093 389.946 118.435C389.997 118.777 390.071 119.071 390.168 119.316C390.271 119.556 390.391 119.753 390.528 119.907C390.67 120.055 390.833 120.163 391.015 120.232C391.203 120.3 391.409 120.334 391.631 120.334C391.905 120.334 392.147 120.28 392.358 120.172C392.575 120.058 392.757 119.881 392.906 119.641C393.06 119.396 393.174 119.077 393.248 118.683C393.322 118.29 393.359 117.811 393.359 117.246Z" fill="#212B36"/>
<rect x="27.0586" y="163.511" width="369.847" height="46.7176" rx="7.78626" fill="#2B3B45"/>
<path d="M151.857 179.602H156.382C157.329 179.602 158.142 179.744 158.82 180.03C159.499 180.315 160.021 180.737 160.386 181.296C160.751 181.855 160.933 182.542 160.933 183.357C160.933 184.002 160.819 184.561 160.591 185.034C160.363 185.507 160.041 185.904 159.624 186.223C159.214 186.542 158.729 186.793 158.17 186.976L157.434 187.352H153.44L153.422 185.496H156.408C156.893 185.496 157.295 185.41 157.614 185.239C157.933 185.068 158.173 184.831 158.333 184.529C158.498 184.227 158.581 183.882 158.581 183.494C158.581 183.078 158.501 182.719 158.341 182.416C158.181 182.108 157.939 181.872 157.614 181.706C157.289 181.541 156.878 181.458 156.382 181.458H154.209V192.057H151.857V179.602ZM158.889 192.057L156.006 186.48L158.495 186.471L161.412 191.937V192.057H158.889ZM166.981 192.228C166.279 192.228 165.649 192.114 165.09 191.886C164.532 191.658 164.055 191.341 163.662 190.936C163.274 190.526 162.975 190.049 162.764 189.508C162.558 188.96 162.456 188.373 162.456 187.746V187.403C162.456 186.691 162.558 186.043 162.764 185.462C162.969 184.874 163.26 184.369 163.636 183.947C164.013 183.525 164.463 183.2 164.988 182.972C165.512 182.744 166.091 182.63 166.724 182.63C167.38 182.63 167.959 182.741 168.461 182.964C168.963 183.18 169.382 183.488 169.718 183.888C170.055 184.287 170.309 184.766 170.48 185.325C170.651 185.878 170.736 186.491 170.736 187.164V188.113H163.482V186.557H168.512V186.385C168.501 186.026 168.432 185.698 168.307 185.402C168.181 185.099 167.987 184.86 167.725 184.683C167.463 184.501 167.123 184.409 166.707 184.409C166.371 184.409 166.077 184.484 165.826 184.632C165.581 184.774 165.376 184.98 165.21 185.248C165.05 185.51 164.931 185.824 164.851 186.189C164.771 186.554 164.731 186.959 164.731 187.403V187.746C164.731 188.133 164.782 188.493 164.885 188.823C164.993 189.154 165.15 189.442 165.356 189.687C165.567 189.927 165.818 190.115 166.108 190.252C166.405 190.383 166.741 190.449 167.118 190.449C167.591 190.449 168.019 190.357 168.401 190.175C168.789 189.987 169.125 189.71 169.41 189.345L170.548 190.526C170.354 190.811 170.092 191.085 169.761 191.347C169.436 191.609 169.042 191.823 168.581 191.988C168.119 192.148 167.585 192.228 166.981 192.228ZM177.793 195.615V184.666L178.067 182.801H180.069V195.615H177.793ZM171.857 187.523V187.343C171.857 186.636 171.937 185.995 172.096 185.419C172.256 184.837 172.49 184.341 172.798 183.93C173.111 183.514 173.494 183.195 173.944 182.972C174.395 182.744 174.911 182.63 175.492 182.63C176.063 182.63 176.556 182.741 176.972 182.964C177.389 183.186 177.742 183.503 178.033 183.913C178.324 184.318 178.555 184.8 178.726 185.359C178.903 185.918 179.034 186.537 179.119 187.215V187.703C179.034 188.353 178.903 188.955 178.726 189.508C178.555 190.055 178.324 190.534 178.033 190.945C177.748 191.35 177.394 191.666 176.972 191.894C176.55 192.117 176.051 192.228 175.475 192.228C174.899 192.228 174.386 192.111 173.936 191.877C173.491 191.638 173.111 191.307 172.798 190.885C172.49 190.463 172.256 189.967 172.096 189.397C171.937 188.821 171.857 188.196 171.857 187.523ZM174.124 187.343V187.523C174.124 187.928 174.158 188.307 174.226 188.661C174.3 189.009 174.415 189.317 174.569 189.585C174.722 189.853 174.919 190.064 175.159 190.218C175.404 190.372 175.701 190.449 176.048 190.449C176.516 190.449 176.895 190.346 177.186 190.141C177.483 189.935 177.705 189.659 177.853 189.311C178.007 188.957 178.107 188.564 178.153 188.13V186.796C178.124 186.448 178.064 186.129 177.973 185.838C177.882 185.547 177.754 185.296 177.588 185.085C177.428 184.874 177.223 184.709 176.972 184.589C176.721 184.469 176.419 184.409 176.066 184.409C175.718 184.409 175.421 184.486 175.176 184.64C174.931 184.789 174.731 184.997 174.577 185.265C174.423 185.533 174.309 185.844 174.235 186.197C174.161 186.551 174.124 186.933 174.124 187.343ZM187.665 189.858V182.801H189.94V192.057H187.802L187.665 189.858ZM187.956 187.942L188.657 187.925C188.657 188.547 188.589 189.12 188.452 189.645C188.315 190.169 188.101 190.625 187.81 191.013C187.525 191.395 187.163 191.695 186.724 191.911C186.285 192.122 185.766 192.228 185.167 192.228C184.711 192.228 184.295 192.165 183.918 192.04C183.542 191.909 183.217 191.706 182.943 191.432C182.675 191.153 182.467 190.797 182.319 190.363C182.17 189.924 182.096 189.397 182.096 188.781V182.801H184.355V188.798C184.355 189.106 184.389 189.362 184.457 189.568C184.531 189.773 184.631 189.941 184.757 190.072C184.888 190.198 185.039 190.289 185.21 190.346C185.387 190.397 185.575 190.423 185.775 190.423C186.322 190.423 186.753 190.315 187.066 190.098C187.386 189.876 187.614 189.579 187.751 189.208C187.887 188.832 187.956 188.41 187.956 187.942ZM196.1 192.228C195.398 192.228 194.768 192.114 194.209 191.886C193.65 191.658 193.174 191.341 192.78 190.936C192.393 190.526 192.093 190.049 191.882 189.508C191.677 188.96 191.574 188.373 191.574 187.746V187.403C191.574 186.691 191.677 186.043 191.882 185.462C192.088 184.874 192.378 184.369 192.755 183.947C193.131 183.525 193.582 183.2 194.106 182.972C194.631 182.744 195.21 182.63 195.843 182.63C196.499 182.63 197.078 182.741 197.579 182.964C198.081 183.18 198.5 183.488 198.837 183.888C199.173 184.287 199.427 184.766 199.598 185.325C199.769 185.878 199.855 186.491 199.855 187.164V188.113H192.601V186.557H197.631V186.385C197.619 186.026 197.551 185.698 197.425 185.402C197.3 185.099 197.106 184.86 196.844 184.683C196.581 184.501 196.242 184.409 195.826 184.409C195.489 184.409 195.196 184.484 194.945 184.632C194.699 184.774 194.494 184.98 194.329 185.248C194.169 185.51 194.049 185.824 193.97 186.189C193.89 186.554 193.85 186.959 193.85 187.403V187.746C193.85 188.133 193.901 188.493 194.004 188.823C194.112 189.154 194.269 189.442 194.474 189.687C194.685 189.927 194.936 190.115 195.227 190.252C195.524 190.383 195.86 190.449 196.236 190.449C196.71 190.449 197.137 190.357 197.52 190.175C197.907 189.987 198.244 189.71 198.529 189.345L199.667 190.526C199.473 190.811 199.21 191.085 198.88 191.347C198.555 191.609 198.161 191.823 197.699 191.988C197.237 192.148 196.704 192.228 196.1 192.228ZM206.459 189.525C206.459 189.331 206.407 189.157 206.305 189.003C206.202 188.849 206.008 188.709 205.723 188.584C205.444 188.453 205.033 188.33 204.491 188.216C204.012 188.113 203.57 187.985 203.165 187.831C202.76 187.677 202.413 187.492 202.122 187.275C201.831 187.053 201.603 186.793 201.437 186.497C201.278 186.194 201.198 185.847 201.198 185.453C201.198 185.071 201.281 184.712 201.446 184.375C201.611 184.033 201.851 183.734 202.164 183.477C202.478 183.215 202.86 183.009 203.311 182.861C203.761 182.707 204.269 182.63 204.833 182.63C205.62 182.63 206.296 182.758 206.861 183.015C207.431 183.272 207.867 183.625 208.17 184.076C208.472 184.521 208.623 185.022 208.623 185.581H206.365C206.365 185.336 206.308 185.114 206.194 184.914C206.085 184.714 205.917 184.555 205.689 184.435C205.461 184.31 205.173 184.247 204.825 184.247C204.511 184.247 204.246 184.298 204.029 184.401C203.818 184.503 203.659 184.638 203.55 184.803C203.442 184.968 203.388 185.151 203.388 185.35C203.388 185.499 203.416 185.633 203.473 185.752C203.536 185.866 203.636 185.972 203.773 186.069C203.91 186.166 204.095 186.254 204.329 186.334C204.568 186.414 204.862 186.491 205.21 186.565C205.9 186.702 206.501 186.884 207.015 187.113C207.534 187.335 207.939 187.631 208.229 188.002C208.52 188.373 208.666 188.846 208.666 189.422C208.666 189.833 208.577 190.209 208.401 190.551C208.224 190.888 207.967 191.182 207.631 191.432C207.294 191.683 206.892 191.88 206.425 192.023C205.957 192.16 205.429 192.228 204.842 192.228C203.992 192.228 203.274 192.077 202.686 191.775C202.099 191.467 201.654 191.079 201.352 190.611C201.05 190.138 200.898 189.647 200.898 189.14H203.063C203.08 189.499 203.177 189.787 203.354 190.004C203.53 190.221 203.753 190.377 204.021 190.474C204.295 190.566 204.582 190.611 204.885 190.611C205.227 190.611 205.515 190.566 205.749 190.474C205.983 190.377 206.159 190.249 206.279 190.089C206.399 189.924 206.459 189.736 206.459 189.525ZM214.765 182.801V184.427H209.461V182.801H214.765ZM210.881 180.526H213.148V189.388C213.148 189.662 213.185 189.873 213.259 190.021C213.333 190.169 213.445 190.269 213.593 190.32C213.741 190.372 213.918 190.397 214.123 190.397C214.272 190.397 214.408 190.389 214.534 190.372C214.659 190.355 214.765 190.337 214.85 190.32L214.859 192.014C214.671 192.077 214.457 192.128 214.217 192.168C213.984 192.208 213.718 192.228 213.422 192.228C212.914 192.228 212.47 192.142 212.087 191.971C211.705 191.795 211.409 191.512 211.198 191.124C210.987 190.731 210.881 190.212 210.881 189.568V180.526ZM227.323 188.823C227.323 188.584 227.285 188.37 227.211 188.182C227.143 187.988 227.015 187.814 226.826 187.66C226.644 187.5 226.384 187.346 226.048 187.198C225.717 187.044 225.289 186.884 224.765 186.719C224.183 186.537 223.641 186.331 223.139 186.103C222.638 185.875 222.196 185.61 221.814 185.308C221.437 185.005 221.144 184.657 220.933 184.264C220.721 183.865 220.616 183.403 220.616 182.878C220.616 182.365 220.724 181.897 220.941 181.475C221.163 181.053 221.477 180.691 221.882 180.389C222.287 180.081 222.763 179.844 223.311 179.679C223.864 179.514 224.474 179.431 225.141 179.431C226.065 179.431 226.863 179.599 227.536 179.936C228.215 180.272 228.74 180.728 229.11 181.304C229.481 181.88 229.666 182.527 229.666 183.246H227.323C227.323 182.858 227.24 182.516 227.074 182.22C226.915 181.923 226.67 181.689 226.339 181.518C226.014 181.347 225.603 181.261 225.107 181.261C224.628 181.261 224.229 181.333 223.909 181.475C223.596 181.618 223.359 181.812 223.199 182.057C223.045 182.302 222.968 182.576 222.968 182.878C222.968 183.106 223.023 183.312 223.131 183.494C223.239 183.671 223.402 183.839 223.619 183.999C223.835 184.153 224.103 184.298 224.423 184.435C224.748 184.566 225.124 184.697 225.552 184.829C226.236 185.034 226.835 185.262 227.348 185.513C227.867 185.764 228.298 186.049 228.64 186.368C228.988 186.688 229.247 187.047 229.418 187.446C229.595 187.845 229.683 188.299 229.683 188.806C229.683 189.342 229.578 189.821 229.367 190.243C229.156 190.665 228.854 191.025 228.46 191.321C228.067 191.618 227.593 191.843 227.04 191.997C226.493 192.151 225.88 192.228 225.201 192.228C224.597 192.228 223.998 192.148 223.405 191.988C222.817 191.823 222.284 191.578 221.805 191.253C221.326 190.922 220.944 190.506 220.659 190.004C220.374 189.496 220.231 188.903 220.231 188.225H222.592C222.592 188.618 222.655 188.955 222.78 189.234C222.911 189.508 223.094 189.733 223.328 189.91C223.567 190.081 223.847 190.206 224.166 190.286C224.485 190.366 224.83 190.406 225.201 190.406C225.68 190.406 226.074 190.34 226.382 190.209C226.695 190.072 226.929 189.884 227.083 189.645C227.243 189.405 227.323 189.131 227.323 188.823ZM235.706 182.801V184.427H230.402V182.801H235.706ZM231.822 180.526H234.089V189.388C234.089 189.662 234.126 189.873 234.2 190.021C234.274 190.169 234.385 190.269 234.534 190.32C234.682 190.372 234.859 190.397 235.064 190.397C235.212 190.397 235.349 190.389 235.475 190.372C235.6 190.355 235.706 190.337 235.791 190.32L235.8 192.014C235.612 192.077 235.398 192.128 235.158 192.168C234.924 192.208 234.659 192.228 234.363 192.228C233.855 192.228 233.41 192.142 233.028 191.971C232.646 191.795 232.35 191.512 232.139 191.124C231.928 190.731 231.822 190.212 231.822 189.568V180.526ZM236.587 187.523V187.343C236.587 186.665 236.684 186.04 236.878 185.47C237.072 184.894 237.354 184.395 237.724 183.973C238.095 183.551 238.549 183.223 239.085 182.989C239.621 182.75 240.231 182.63 240.915 182.63C241.611 182.63 242.227 182.75 242.763 182.989C243.305 183.223 243.761 183.551 244.132 183.973C244.502 184.395 244.785 184.894 244.978 185.47C245.172 186.04 245.269 186.665 245.269 187.343V187.523C245.269 188.196 245.172 188.821 244.978 189.397C244.785 189.967 244.502 190.466 244.132 190.894C243.761 191.316 243.308 191.643 242.771 191.877C242.235 192.111 241.622 192.228 240.932 192.228C240.248 192.228 239.635 192.111 239.093 191.877C238.551 191.643 238.095 191.316 237.724 190.894C237.354 190.466 237.072 189.967 236.878 189.397C236.684 188.821 236.587 188.196 236.587 187.523ZM238.845 187.343V187.523C238.845 187.928 238.885 188.307 238.965 188.661C239.045 189.014 239.167 189.325 239.333 189.593C239.498 189.861 239.712 190.072 239.974 190.226C240.242 190.375 240.562 190.449 240.932 190.449C241.297 190.449 241.611 190.375 241.873 190.226C242.136 190.072 242.349 189.861 242.515 189.593C242.686 189.325 242.811 189.014 242.891 188.661C242.971 188.307 243.011 187.928 243.011 187.523V187.343C243.011 186.944 242.971 186.571 242.891 186.223C242.811 185.869 242.686 185.559 242.515 185.29C242.349 185.017 242.133 184.803 241.865 184.649C241.602 184.489 241.286 184.409 240.915 184.409C240.55 184.409 240.237 184.489 239.974 184.649C239.712 184.803 239.498 185.017 239.333 185.29C239.167 185.559 239.045 185.869 238.965 186.223C238.885 186.571 238.845 186.944 238.845 187.343ZM250.71 190.449C251.029 190.449 251.314 190.386 251.565 190.26C251.816 190.135 252.016 189.958 252.164 189.73C252.318 189.502 252.401 189.237 252.412 188.935H254.542C254.531 189.562 254.354 190.124 254.012 190.62C253.67 191.116 253.213 191.509 252.643 191.8C252.078 192.085 251.445 192.228 250.744 192.228C250.031 192.228 249.41 192.108 248.879 191.869C248.349 191.629 247.907 191.296 247.553 190.868C247.205 190.44 246.943 189.944 246.766 189.379C246.595 188.815 246.51 188.21 246.51 187.566V187.292C246.51 186.648 246.595 186.043 246.766 185.479C246.943 184.914 247.205 184.418 247.553 183.99C247.907 183.563 248.349 183.229 248.879 182.989C249.41 182.75 250.028 182.63 250.735 182.63C251.483 182.63 252.138 182.776 252.703 183.066C253.273 183.357 253.718 183.768 254.037 184.298C254.362 184.829 254.531 185.453 254.542 186.172H252.412C252.401 185.841 252.327 185.544 252.19 185.282C252.053 185.02 251.859 184.809 251.608 184.649C251.357 184.489 251.052 184.409 250.693 184.409C250.311 184.409 249.991 184.489 249.735 184.649C249.484 184.809 249.287 185.028 249.144 185.308C249.008 185.581 248.911 185.889 248.854 186.231C248.802 186.568 248.777 186.921 248.777 187.292V187.566C248.777 187.942 248.802 188.302 248.854 188.644C248.911 188.986 249.008 189.294 249.144 189.568C249.287 189.836 249.484 190.049 249.735 190.209C249.991 190.369 250.316 190.449 250.71 190.449ZM258.306 178.909V192.057H256.048V178.909H258.306ZM264.106 182.801L260.077 187.326L257.895 189.542L257.177 187.788L258.862 185.667L261.377 182.801H264.106ZM261.796 192.057L258.93 187.746L260.436 186.283L264.414 192.057H261.796ZM270.393 189.525C270.393 189.331 270.342 189.157 270.239 189.003C270.136 188.849 269.943 188.709 269.657 188.584C269.378 188.453 268.967 188.33 268.426 188.216C267.947 188.113 267.505 187.985 267.1 187.831C266.695 187.677 266.347 187.492 266.056 187.275C265.765 187.053 265.537 186.793 265.372 186.497C265.212 186.194 265.132 185.847 265.132 185.453C265.132 185.071 265.215 184.712 265.38 184.375C265.546 184.033 265.785 183.734 266.099 183.477C266.413 183.215 266.795 183.009 267.245 182.861C267.696 182.707 268.203 182.63 268.768 182.63C269.555 182.63 270.231 182.758 270.795 183.015C271.365 183.272 271.802 183.625 272.104 184.076C272.406 184.521 272.557 185.022 272.557 185.581H270.299C270.299 185.336 270.242 185.114 270.128 184.914C270.02 184.714 269.851 184.555 269.623 184.435C269.395 184.31 269.107 184.247 268.759 184.247C268.446 184.247 268.18 184.298 267.964 184.401C267.753 184.503 267.593 184.638 267.485 184.803C267.376 184.968 267.322 185.151 267.322 185.35C267.322 185.499 267.351 185.633 267.408 185.752C267.47 185.866 267.57 185.972 267.707 186.069C267.844 186.166 268.029 186.254 268.263 186.334C268.503 186.414 268.796 186.491 269.144 186.565C269.834 186.702 270.436 186.884 270.949 187.113C271.468 187.335 271.873 187.631 272.164 188.002C272.455 188.373 272.6 188.846 272.6 189.422C272.6 189.833 272.512 190.209 272.335 190.551C272.158 190.888 271.902 191.182 271.565 191.432C271.229 191.683 270.827 191.88 270.359 192.023C269.891 192.16 269.364 192.228 268.776 192.228C267.927 192.228 267.208 192.077 266.621 191.775C266.033 191.467 265.588 191.079 265.286 190.611C264.984 190.138 264.833 189.647 264.833 189.14H266.997C267.014 189.499 267.111 189.787 267.288 190.004C267.465 190.221 267.687 190.377 267.955 190.474C268.229 190.566 268.517 190.611 268.819 190.611C269.161 190.611 269.449 190.566 269.683 190.474C269.917 190.377 270.094 190.249 270.213 190.089C270.333 189.924 270.393 189.736 270.393 189.525Z" fill="white"/>
</g>
<defs>
<clipPath id="clip0_12708_51999">
<rect x="0.785156" width="422.405" height="233.588" rx="19.4656" fill="white"/>
</clipPath>
</defs>
</svg>
