<svg width="80" height="80" viewBox="0 0 80 80" fill="none" xmlns="http://www.w3.org/2000/svg">
<rect width="80" height="80" rx="40" fill="#F8B53C"/>
<path d="M40.5531 30.2966L43.5906 32.7268V24.6997H36.3906V32.7268L39.4281 30.2966C39.7586 30.0347 40.2227 30.0347 40.5531 30.2966Z" fill="white"/>
<path d="M45.3969 24.6997V34.5997C45.3969 34.946 45.1982 35.2606 44.8871 35.4109C44.7623 35.4707 44.6287 35.4997 44.4969 35.4997C44.2965 35.4997 44.0978 35.4329 43.9344 35.3028L39.9969 32.152L36.0594 35.3028C35.7869 35.519 35.4195 35.5604 35.1066 35.4109C34.7955 35.2606 34.5969 34.946 34.5969 34.5997V24.6997H27.3969C25.4086 24.6997 23.7969 26.3115 23.7969 28.2997V52.4197C23.7969 54.4079 25.4086 56.0197 27.3969 56.0197H52.5969C54.5851 56.0197 56.1969 54.4079 56.1969 52.4197V28.2997C56.1969 26.3115 54.5851 24.6997 52.5969 24.6997H45.3969Z" fill="white"/>
</svg>
