<svg width="68" height="68" viewBox="0 0 68 68" fill="none" xmlns="http://www.w3.org/2000/svg">
<g filter="url(#filter0_d_12894_46272)">
<circle cx="34" cy="30" r="30" fill="white"/>
<path d="M27.1367 25.6221H22.1367C21.7915 25.6221 21.5117 25.9019 21.5117 26.2471V42.4971C21.5117 42.8422 21.7915 43.1221 22.1367 43.1221H27.1367C27.4819 43.1221 27.7617 42.8422 27.7617 42.4971V26.2471C27.7617 25.9019 27.4819 25.6221 27.1367 25.6221Z" fill="#1A1A1A"/>
<path d="M24.6117 23.125C26.3238 23.125 27.7117 21.7259 27.7117 20C27.7117 18.2741 26.3238 16.875 24.6117 16.875C22.8996 16.875 21.5117 18.2741 21.5117 20C21.5117 21.7259 22.8996 23.125 24.6117 23.125Z" fill="#1A1A1A"/>
<path d="M42.125 43.1227H45.875C46.0408 43.1227 46.1997 43.0568 46.3169 42.9396C46.4342 42.8224 46.5 42.6634 46.5 42.4977V31.9977C46.5 27.2852 43.8375 24.9977 40.1125 24.9977C39.3778 24.9708 38.6456 25.0982 37.9631 25.3716C37.2806 25.645 36.6629 26.0584 36.15 26.5852C36.0815 26.6643 35.9904 26.7206 35.8889 26.7464C35.7875 26.7722 35.6806 26.7664 35.5825 26.7296C35.4845 26.6929 35.4001 26.627 35.3407 26.5408C35.2812 26.4546 35.2496 26.3523 35.25 26.2477C35.25 26.0819 35.1842 25.9229 35.0669 25.8057C34.9497 25.6885 34.7908 25.6227 34.625 25.6227H30.875C30.7092 25.6227 30.5503 25.6885 30.4331 25.8057C30.3158 25.9229 30.25 26.0819 30.25 26.2477V42.4977C30.25 42.6634 30.3158 42.8224 30.4331 42.9396C30.5503 43.0568 30.7092 43.1227 30.875 43.1227H34.625C34.7908 43.1227 34.9497 43.0568 35.0669 42.9396C35.1842 42.8224 35.25 42.6634 35.25 42.4977V33.1227C35.25 32.2939 35.5792 31.499 36.1653 30.9129C36.7513 30.3269 37.5462 29.9977 38.375 29.9977C39.2038 29.9977 39.9987 30.3269 40.5847 30.9129C41.1708 31.499 41.5 32.2939 41.5 33.1227V42.4977C41.5 42.6634 41.5658 42.8224 41.6831 42.9396C41.8003 43.0568 41.9592 43.1227 42.125 43.1227Z" fill="#1A1A1A"/>
</g>
<defs>
<filter id="filter0_d_12894_46272" x="0" y="0" width="68" height="68" filterUnits="userSpaceOnUse" color-interpolation-filters="sRGB">
<feFlood flood-opacity="0" result="BackgroundImageFix"/>
<feColorMatrix in="SourceAlpha" type="matrix" values="0 0 0 0 0 0 0 0 0 0 0 0 0 0 0 0 0 0 127 0" result="hardAlpha"/>
<feOffset dy="4"/>
<feGaussianBlur stdDeviation="2"/>
<feComposite in2="hardAlpha" operator="out"/>
<feColorMatrix type="matrix" values="0 0 0 0 0 0 0 0 0 0 0 0 0 0 0 0 0 0 0.25 0"/>
<feBlend mode="normal" in2="BackgroundImageFix" result="effect1_dropShadow_12894_46272"/>
<feBlend mode="normal" in="SourceGraphic" in2="effect1_dropShadow_12894_46272" result="shape"/>
</filter>
</defs>
</svg>
