<svg width="34" height="34" viewBox="0 0 34 34" fill="none" xmlns="http://www.w3.org/2000/svg">
<rect x="0.864258" y="0.651611" width="32.8643" height="32.8643" rx="16.4322" fill="#F8B53C"/>
<path fill-rule="evenodd" clip-rule="evenodd" d="M23.2928 10.9206V23.9294C23.2928 24.1197 23.1874 24.2943 23.019 24.3833C22.8505 24.4723 22.6472 24.4607 22.4897 24.3532L20.7814 23.1872L19.1663 24.3463C18.9725 24.486 18.7082 24.473 18.5289 24.3155L17.3019 23.2427L16.075 24.3155C15.8956 24.473 15.6313 24.486 15.4376 24.3463L13.8224 23.1872L12.1142 24.3532C11.9567 24.4607 11.7533 24.4723 11.5849 24.3833C11.4165 24.2943 11.311 24.1197 11.311 23.9294V10.9206C11.311 10.2592 11.8471 9.72241 12.5092 9.72241H22.0946C22.7567 9.72241 23.2928 10.2592 23.2928 10.9206ZM14.5632 16.2268H20.0406C20.3241 16.2268 20.5541 15.9968 20.5541 15.7133C20.5541 15.4298 20.3241 15.1998 20.0406 15.1998H14.5632C14.2798 15.1998 14.0497 15.4298 14.0497 15.7133C14.0497 15.9968 14.2798 16.2268 14.5632 16.2268ZM14.5632 13.4881H20.0406C20.3241 13.4881 20.5541 13.2581 20.5541 12.9746C20.5541 12.6912 20.3241 12.4611 20.0406 12.4611H14.5632C14.2798 12.4611 14.0497 12.6912 14.0497 12.9746C14.0497 13.2581 14.2798 13.4881 14.5632 13.4881ZM14.5632 18.9655H17.3019C17.5854 18.9655 17.8154 18.7355 17.8154 18.452C17.8154 18.1685 17.5854 17.9385 17.3019 17.9385H14.5632C14.2798 17.9385 14.0497 18.1685 14.0497 18.452C14.0497 18.7355 14.2798 18.9655 14.5632 18.9655Z" fill="white"/>
</svg>
