<svg width="80" height="80" viewBox="0 0 80 80" fill="none" xmlns="http://www.w3.org/2000/svg">
<rect width="80" height="80" rx="40" fill="#8E1B3E"/>
<g clip-path="url(#clip0_2035_8850)">
<path d="M40.3281 20C34.0818 20 29 25.0818 29 31.3281C29 37.5745 34.0818 42.6562 40.3281 42.6562C46.5745 42.6562 51.6562 37.5745 51.6562 31.3281C51.6562 25.0818 46.5745 20 40.3281 20Z" fill="white"/>
<path d="M46.6948 32.8776C46.5411 32.4509 46.3294 32.0474 46.0659 31.6783C45.7865 31.3153 45.4471 31.0027 45.0624 30.7541C44.6949 30.5014 44.3112 30.2729 43.9139 30.0702C43.4967 29.8717 43.0641 29.7071 42.6205 29.5781C42.0966 29.418 41.6936 29.3019 41.4117 29.23C41.2198 29.1813 40.9845 29.1263 40.7062 29.066L40.6689 30.3376L36.7691 27.9471L40.8054 25.7862L40.7613 27.2871C41.4465 27.3298 42.1262 27.4374 42.7912 27.6085C43.5035 27.7585 44.1858 28.0261 44.8102 28.4003L46.3576 24.873C44.5154 23.807 42.4189 23.2595 40.2907 23.2886C38.7367 23.2362 37.203 23.6542 35.8905 24.4879C35.3123 24.865 34.8429 25.387 34.529 26.0019C34.215 26.6167 34.0675 27.303 34.1011 27.9926C34.0928 28.6233 34.2163 29.2487 34.4637 29.8289C34.6792 30.3428 34.9957 30.8081 35.3946 31.1972C35.8199 31.5894 36.3005 31.9171 36.821 32.1696C37.3491 32.4395 37.8991 32.6643 38.465 32.8416C38.8801 32.9686 39.3485 33.0953 39.8703 33.2218L39.9373 32.1284L43.7615 34.6394L39.6594 36.6726L39.7405 35.3492C39.185 35.3226 38.6329 35.2469 38.0908 35.1231C37.5533 35.0119 37.0272 34.8512 36.5194 34.643C36.1648 34.4828 35.7215 34.2507 35.1896 33.9467L33.6906 37.4994C33.7228 37.5154 33.9283 37.6395 34.3071 37.8716C34.6976 38.1101 35.1012 38.3265 35.5159 38.5199C36.1422 38.7809 36.7947 38.974 37.4622 39.0959C38.393 39.2862 39.3411 39.3789 40.2911 39.3724C41.3697 39.3825 42.443 39.2204 43.4705 38.8923C44.4317 38.5816 45.2889 38.0127 45.9488 37.2479C46.6303 36.4597 46.9925 35.4451 46.9643 34.4035C46.9675 33.8827 46.8762 33.3657 46.6948 32.8776Z" fill="#8E1B3E"/>
<path d="M59.2484 41.4297C58.206 40.3466 56.4461 40.3669 55.3832 41.4299L49.8443 46.9688C49.6217 47.1914 49.4491 47.4578 49.3287 47.7487C48.5744 49.5723 46.7764 50.8586 44.6834 50.8586H36.8659V48.5149H44.6835C46.1641 48.5149 47.3643 47.3146 47.3643 45.8341C47.3643 44.8735 46.8587 44.0314 46.0995 43.5581C44.2615 44.4788 42.1889 44.9981 39.997 44.9981C36.2816 44.9981 32.9084 43.5077 30.4417 41.0943C28.858 41.2644 27.3348 41.9613 26.1494 43.1467L20 49.2991L30.6991 59.9981C32.5872 58.11 35.148 57.0493 37.8182 57.0493H44.0654C46.2058 57.0493 48.2579 56.1961 49.7673 54.6786L59.2118 45.1836C60.2464 44.1491 60.2586 42.4792 59.2484 41.4297Z" fill="white"/>
</g>
<defs>
<clipPath id="clip0_2035_8850">
<rect width="40" height="40" fill="white" transform="translate(20 20)"/>
</clipPath>
</defs>
</svg>
