<svg width="41" height="41" viewBox="0 0 41 41" fill="none" xmlns="http://www.w3.org/2000/svg">
<rect x="0.859375" y="0.570312" width="40" height="40" rx="20" fill="#F8B53C"/>
<path fill-rule="evenodd" clip-rule="evenodd" d="M28.1536 13.0692V28.9025C28.1536 29.1342 28.0253 29.3467 27.8203 29.455C27.6153 29.5633 27.3678 29.5492 27.1761 29.4183L25.097 27.9992L23.1311 29.41C22.8953 29.58 22.5736 29.5642 22.3553 29.3725L20.862 28.0667L19.3686 29.3725C19.1503 29.5642 18.8286 29.58 18.5928 29.41L16.627 27.9992L14.5478 29.4183C14.3561 29.5492 14.1086 29.5633 13.9036 29.455C13.6986 29.3467 13.5703 29.1342 13.5703 28.9025V13.0692C13.5703 12.2642 14.2228 11.6108 15.0286 11.6108H26.6953C27.5011 11.6108 28.1536 12.2642 28.1536 13.0692ZM17.5286 19.5275H24.1953C24.5403 19.5275 24.8203 19.2475 24.8203 18.9025C24.8203 18.5575 24.5403 18.2775 24.1953 18.2775H17.5286C17.1836 18.2775 16.9036 18.5575 16.9036 18.9025C16.9036 19.2475 17.1836 19.5275 17.5286 19.5275ZM17.5286 16.1942H24.1953C24.5403 16.1942 24.8203 15.9142 24.8203 15.5692C24.8203 15.2242 24.5403 14.9442 24.1953 14.9442H17.5286C17.1836 14.9442 16.9036 15.2242 16.9036 15.5692C16.9036 15.9142 17.1836 16.1942 17.5286 16.1942ZM17.5286 22.8608H20.862C21.207 22.8608 21.487 22.5808 21.487 22.2358C21.487 21.8908 21.207 21.6108 20.862 21.6108H17.5286C17.1836 21.6108 16.9036 21.8908 16.9036 22.2358C16.9036 22.5808 17.1836 22.8608 17.5286 22.8608Z" fill="white"/>
</svg>
