<svg width="80" height="80" viewBox="0 0 80 80" fill="none" xmlns="http://www.w3.org/2000/svg">
<rect width="80" height="80" rx="40" fill="#F8B53C"/>
<g clip-path="url(#clip0_12895_46349)">
<path d="M57.8875 28.5489C57.7717 28.6652 57.634 28.7575 57.4824 28.8204C57.3308 28.8834 57.1683 28.9158 57.0042 28.9158C56.84 28.9158 56.6775 28.8834 56.5259 28.8204C56.3743 28.7575 56.2367 28.6652 56.1208 28.5489L54.9208 27.3505V32.6655C54.9208 32.9971 54.7891 33.315 54.5547 33.5494C54.3203 33.7838 54.0024 33.9155 53.6708 33.9155C53.3393 33.9155 53.0214 33.7838 52.787 33.5494C52.5525 33.315 52.4208 32.9971 52.4208 32.6655V27.3505L51.2208 28.5489C50.9839 28.7697 50.6705 28.8899 50.3466 28.8842C50.0228 28.8784 49.7138 28.7473 49.4848 28.5182C49.2558 28.2892 49.1246 27.9802 49.1189 27.6564C49.1132 27.3326 49.2334 27.0192 49.4542 26.7822L52.7875 23.4489C53.0221 23.2152 53.3397 23.084 53.6708 23.084C54.002 23.084 54.3196 23.2152 54.5542 23.4489L57.8875 26.7822C58.0036 26.8981 58.0957 27.0358 58.1586 27.1874C58.2214 27.339 58.2538 27.5014 58.2538 27.6655C58.2538 27.8296 58.2214 27.9921 58.1586 28.1437C58.0957 28.2952 58.0036 28.4329 57.8875 28.5489ZM57.0042 40.9989C57.0051 43.2281 56.5588 45.4349 55.6916 47.4886C54.8245 49.5423 53.5542 51.4011 51.9559 52.9551C50.3576 54.5092 48.4638 55.7267 46.3865 56.5358C44.3093 57.3449 42.0908 57.7291 39.8625 57.6655C35.6202 57.5028 31.5957 55.7446 28.5937 52.7427C25.5917 49.7407 23.8336 45.7162 23.6708 41.4739C23.6073 39.2455 23.9914 37.0271 24.8005 34.9498C25.6096 32.8726 26.8272 30.9788 28.3812 29.3805C29.9352 27.7822 31.7941 26.5119 33.8478 25.6447C35.9015 24.7776 38.1083 24.3313 40.3375 24.3322C42.4793 24.3244 44.6015 24.7396 46.5825 25.5539C46.6451 25.5815 46.7015 25.6214 46.7483 25.6714C46.7951 25.7213 46.8314 25.7802 46.8549 25.8445C46.8784 25.9087 46.8887 25.9771 46.8851 26.0454C46.8815 26.1138 46.8642 26.1807 46.8342 26.2422C46.345 27.3232 46.1192 28.5048 46.1755 29.69C46.2318 30.8752 46.5684 32.0302 47.1578 33.06C47.7472 34.0898 48.5726 34.965 49.566 35.6138C50.5594 36.2627 51.6926 36.6665 52.8725 36.7922C53.8699 36.8959 54.8779 36.8025 55.8392 36.5172C55.9029 36.4959 55.9703 36.4876 56.0373 36.493C56.1044 36.4983 56.1696 36.5171 56.2292 36.5482C56.2888 36.5793 56.3415 36.6221 56.3842 36.6741C56.4268 36.726 56.4586 36.786 56.4775 36.8505C56.8288 38.2053 57.0058 39.5993 57.0042 40.9989ZM45.2908 44.3605C45.2907 43.3858 44.965 42.4389 44.3653 41.6705C43.7656 40.902 42.9264 40.3559 41.9808 40.1189L39.3008 39.4522C38.8916 39.3498 38.5292 39.1119 38.2725 38.7772C38.018 38.4513 37.8812 38.049 37.8842 37.6355C37.8851 37.14 38.0824 36.665 38.433 36.3148C38.7835 35.9646 39.2586 35.7676 39.7542 35.7672H40.9208C41.3815 35.768 41.8257 35.9384 42.1687 36.2458C42.5118 36.5532 42.7297 36.9761 42.7808 37.4339C42.7945 37.6006 42.8415 37.7629 42.919 37.9111C42.9965 38.0594 43.1031 38.1906 43.2322 38.2969C43.3614 38.4032 43.5106 38.4825 43.671 38.5302C43.8313 38.5778 43.9996 38.5927 44.1659 38.5741C44.3322 38.5554 44.493 38.5036 44.6388 38.4217C44.7847 38.3397 44.9126 38.2294 45.0151 38.0971C45.1175 37.9648 45.1923 37.8133 45.2351 37.6516C45.2779 37.4898 45.2878 37.3212 45.2642 37.1555C45.157 36.1956 44.7343 35.2984 44.0622 34.6046C43.3902 33.9109 42.5069 33.4598 41.5508 33.3222V32.6655C41.5508 32.334 41.4191 32.0161 41.1847 31.7816C40.9503 31.5472 40.6324 31.4155 40.3008 31.4155C39.9693 31.4155 39.6514 31.5472 39.417 31.7816C39.1825 32.0161 39.0508 32.334 39.0508 32.6655V33.3322C38.0594 33.4935 37.1539 33.9919 36.4874 34.7434C35.8208 35.4948 35.4339 36.4532 35.392 37.4568C35.35 38.4604 35.6557 39.4478 36.2573 40.2522C36.8589 41.0566 44.7794 39.5056 45.7539 39.749L49.1189 40.1189C54.9025 40.1189 42.203 42.9194 42.4609 43.2957C47.8372 45.7545 42.8305 44.1295 42.7748 44.5823C42.7191 45.0351 42.5 45.4519 42.1586 45.7545C41.8172 46.0571 41.377 46.2246 40.9208 46.2255H39.7542C39.2935 46.2247 38.8493 46.0543 38.5063 45.7469C38.1632 45.4396 37.9453 45.0166 37.8942 44.5589C37.8805 44.3921 37.8335 44.2298 37.756 44.0816C37.6785 43.9333 37.572 43.8022 37.4428 43.6958C37.3136 43.5895 37.1644 43.5102 37.0041 43.4626C36.8437 43.415 36.6754 43.4 36.5091 43.4187C36.3429 43.4373 36.182 43.4891 36.0362 43.5711C35.8903 43.653 35.7624 43.7634 35.66 43.8956C35.5575 44.0279 35.4827 44.1794 35.4399 44.3412C35.3971 44.5029 35.3872 44.6716 35.4108 44.8372C35.5158 45.7854 35.9286 46.6731 36.586 47.3645C37.2433 48.0559 38.1091 48.5129 39.0508 48.6655V49.3322C39.0508 49.6637 39.1825 49.9817 39.417 50.2161C39.6514 50.4505 39.9693 50.5822 40.3008 50.5822C40.6324 50.5822 40.9503 50.4505 41.1847 50.2161C41.4191 49.9817 41.5508 49.6637 41.5508 49.3322V48.6655C42.589 48.5192 43.5393 48.0026 44.2266 47.2108C44.9139 46.4191 45.2919 45.4056 45.2908 44.3572V44.3605Z" fill="white"/>
<path d="M47.8385 35.1667L43.2552 28.5L36.5885 29.75L33.6719 33.5V40.1667V48.9167L36.5885 51.8333L45.3385 50.5833L48.6719 46.4167L47.8385 35.1667Z" fill="white"/>
<path d="M47.4967 38.4281V39.7186H34.3281V38.4281H47.4967ZM47.4967 41.0174V42.3078H34.3281V41.0174H47.4967ZM45.7086 34.332V46.4539H43.6197L38.1634 37.7704V46.4539H36.0661V34.332H38.1634L43.6364 43.0321V34.332H45.7086Z" fill="#F8B53C"/>
</g>
<rect width="80" height="80" rx="40" fill="#F8B53C"/>
<path d="M40.1719 22.668C30.5052 22.668 22.6719 30.5013 22.6719 40.168C22.6719 49.8346 30.5052 57.668 40.1719 57.668C40.5886 57.668 40.9969 57.6513 41.4052 57.618C40.0546 55.6763 39.3331 53.3665 39.3386 51.0013C39.3392 47.9073 40.5685 44.9402 42.7563 42.7524C44.9441 40.5646 47.9112 39.3352 51.0052 39.3347C53.3704 39.3293 55.6802 40.0507 57.6219 41.4013C57.6552 40.993 57.6719 40.5847 57.6719 40.168C57.6719 30.5013 49.8387 22.668 40.1719 22.668ZM41.8386 40.168C41.8386 40.61 41.663 41.0339 41.3504 41.3465C41.0378 41.6591 40.6139 41.8347 40.1719 41.8347H32.6719C32.2318 41.8317 31.8108 41.6548 31.5007 41.3425C31.1906 41.0303 31.0166 40.6081 31.0166 40.168C31.0166 39.7279 31.1906 39.3057 31.5007 38.9935C31.8108 38.6813 32.2318 38.5043 32.6719 38.5013H38.5052V29.3347C38.5037 29.1149 38.5457 28.8969 38.6288 28.6934C38.7119 28.4898 38.8344 28.3047 38.9893 28.1488C39.1443 27.9928 39.3285 27.869 39.5315 27.7845C39.7344 27.7 39.9521 27.6566 40.1719 27.6566C40.3918 27.6566 40.6094 27.7 40.8124 27.7845C41.0153 27.869 41.1996 27.9928 41.3545 28.1488C41.5094 28.3047 41.6319 28.4898 41.715 28.6934C41.7981 28.8969 41.8401 29.1149 41.8386 29.3347V40.168Z" fill="white"/>
<path d="M51.0052 42.668C49.3571 42.668 47.7459 43.1567 46.3755 44.0724C45.0051 44.9881 43.937 46.2896 43.3062 47.8123C42.6755 49.335 42.5105 51.0106 42.832 52.6271C43.1535 54.2436 43.9472 55.7285 45.1127 56.8939C46.2781 58.0593 47.763 58.853 49.3795 59.1746C50.996 59.4961 52.6716 59.3311 54.1943 58.7003C55.717 58.0696 57.0185 57.0015 57.9342 55.6311C58.8499 54.2607 59.3386 52.6495 59.3386 51.0013C59.3386 49.907 59.1231 48.8233 58.7043 47.8123C58.2855 46.8012 57.6717 45.8826 56.8978 45.1087C56.124 44.3349 55.2053 43.7211 54.1943 43.3023C53.1832 42.8835 52.0996 42.668 51.0052 42.668ZM51.0052 56.8347C50.6756 56.8347 50.3533 56.737 50.0792 56.5538C49.8051 56.3707 49.5915 56.1104 49.4653 55.8058C49.3392 55.5013 49.3062 55.1662 49.3705 54.8429C49.4348 54.5195 49.5935 54.2225 49.8266 53.9894C50.0597 53.7563 50.3567 53.5976 50.68 53.5333C51.0033 53.469 51.3384 53.502 51.643 53.6281C51.9475 53.7543 52.2078 53.9679 52.391 54.242C52.5741 54.5161 52.6719 54.8383 52.6719 55.168C52.6719 55.61 52.4963 56.0339 52.1837 56.3465C51.8712 56.6591 51.4473 56.8347 51.0052 56.8347ZM52.6719 51.0013C52.6719 51.4433 52.4963 51.8673 52.1837 52.1798C51.8712 52.4924 51.4473 52.668 51.0052 52.668C50.5632 52.668 50.1393 52.4924 49.8267 52.1798C49.5142 51.8673 49.3386 51.4433 49.3386 51.0013V46.8347C49.3386 46.3927 49.5142 45.9688 49.8267 45.6562C50.1393 45.3436 50.5632 45.168 51.0052 45.168C51.4473 45.168 51.8712 45.3436 52.1837 45.6562C52.4963 45.9688 52.6719 46.3927 52.6719 46.8347V51.0013Z" fill="white"/>
<ellipse cx="51.4219" cy="50.9987" rx="6.25" ry="6.66667" fill="white"/>
<path d="M55 49.5412V50.3251H47V49.5412H55ZM55 51.1141V51.8981H47V51.1141H55ZM53.9137 47.0527V54.4168H52.6447L49.3299 49.1416V54.4168H48.0558V47.0527H49.3299L52.6548 52.3381V47.0527H53.9137Z" fill="#F8B53C"/>
<rect width="80" height="80" rx="40" fill="#F8B53C"/>
<g clip-path="url(#clip1_12895_46349)">
<path d="M40.3281 20C34.0818 20 29 25.0818 29 31.3281C29 37.5745 34.0818 42.6562 40.3281 42.6562C46.5745 42.6562 51.6562 37.5745 51.6562 31.3281C51.6562 25.0818 46.5745 20 40.3281 20Z" fill="white"/>
<path d="M59.2484 41.4297C58.206 40.3466 56.4461 40.3669 55.3832 41.4299L49.8443 46.9688C49.6217 47.1914 49.4491 47.4578 49.3287 47.7487C48.5744 49.5723 46.7764 50.8586 44.6834 50.8586H36.8659V48.5149H44.6835C46.1641 48.5149 47.3643 47.3146 47.3643 45.8341C47.3643 44.8735 46.8587 44.0314 46.0995 43.5581C44.2615 44.4788 42.1889 44.9981 39.997 44.9981C36.2816 44.9981 32.9084 43.5077 30.4417 41.0943C28.858 41.2644 27.3348 41.9613 26.1494 43.1467L20 49.2991L30.6991 59.9981C32.5872 58.11 35.148 57.0493 37.8182 57.0493H44.0654C46.2058 57.0493 48.2579 56.1961 49.7673 54.6786L59.2118 45.1836C60.2464 44.1491 60.2586 42.4792 59.2484 41.4297Z" fill="white"/>
<path d="M47 29.0549V30.3324H34V29.0549H47ZM47 31.6181V32.8956H34V31.6181H47ZM45.2348 25V37H43.1726L37.7862 28.4038V37H35.7157V25H37.7862L43.1891 33.6126V25H45.2348Z" fill="#F8B53C"/>
</g>
<defs>
<clipPath id="clip0_12895_46349">
<rect width="40" height="40" fill="white" transform="translate(22 21)"/>
</clipPath>
<clipPath id="clip1_12895_46349">
<rect width="40" height="40" fill="white" transform="translate(20 20)"/>
</clipPath>
</defs>
</svg>
