<svg width="122" height="122" viewBox="0 0 122 122" fill="none" xmlns="http://www.w3.org/2000/svg">
<path d="M45.6478 53.4893C45.2922 53.369 44.9916 53.096 44.8494 52.7171C44.5984 52.0474 44.9376 51.3009 45.6073 51.0498C45.9488 50.9218 46.3007 50.8006 46.6528 50.6897C47.3348 50.4749 48.0624 50.854 48.2768 51.5362C48.4915 52.2185 48.1124 52.9455 47.4302 53.1601C47.1222 53.2572 46.8149 53.3629 46.5166 53.4747C46.2259 53.5838 45.9207 53.5815 45.6478 53.4893Z" fill="#D0CFD1"/>
<path d="M39.1146 88.7377C38.9188 88.6715 38.7361 88.5574 38.5849 88.3958C38.1084 87.8867 37.6466 87.2968 37.2123 86.643C36.8166 86.0473 36.9788 85.2435 37.5745 84.8478C38.1702 84.4522 38.9741 84.6141 39.3697 85.21C39.725 85.7449 40.0972 86.2214 40.4761 86.6263C40.9648 87.1485 40.9375 87.968 40.4153 88.4567C40.0546 88.7942 39.5518 88.8856 39.1146 88.7377ZM44.6514 90.4332C44.3143 90.3191 44.0254 90.0674 43.8746 89.7144C43.5941 89.0565 43.9 88.2958 44.5578 88.0152C44.9883 87.8316 45.426 87.5376 45.859 87.1412C46.3863 86.6583 47.2053 86.6939 47.6886 87.2216C48.1716 87.7489 48.1357 88.5681 47.6083 89.0512C46.9591 89.6459 46.2746 90.0988 45.574 90.3978C45.2693 90.5275 44.9424 90.5316 44.6514 90.4332ZM11.0297 77.8589C10.9069 77.8174 10.7882 77.7565 10.6781 77.6757C10.1016 77.2525 9.97723 76.4421 10.4005 75.8655C10.8341 75.2748 11.3069 74.7127 11.8056 74.1949C12.3017 73.6798 13.1216 73.6647 13.6366 74.1608C14.1518 74.6569 14.1671 75.4767 13.6708 75.9918C13.2517 76.4268 12.854 76.9 12.4883 77.3982C12.1459 77.8644 11.55 78.0349 11.0297 77.8589ZM35.334 81.509C34.9501 81.3792 34.6327 81.0715 34.5075 80.6539C34.3092 79.9926 34.1297 79.3074 33.974 78.6178C33.8166 77.9201 34.2546 77.227 34.9522 77.0695C35.6502 76.9122 36.3432 77.3502 36.5006 78.0477C36.643 78.6792 36.8072 79.3056 36.9883 79.9096C37.1937 80.5947 36.8049 81.3166 36.1199 81.5222C35.8526 81.6026 35.5797 81.5921 35.334 81.509ZM47.8948 83.7255C47.523 83.5997 47.2128 83.3072 47.0796 82.906C46.9163 82.4139 46.6676 81.9001 46.3399 81.3792C45.9593 80.7736 46.1416 79.9742 46.747 79.5937C47.3525 79.213 48.1518 79.3953 48.5325 80.0007C48.9708 80.6978 49.309 81.4009 49.5378 82.0906C49.763 82.7693 49.3952 83.5022 48.7164 83.7274C48.4388 83.8196 48.1519 83.8124 47.8948 83.7255ZM17.4346 72.8843C17.0904 72.7679 16.7969 72.5083 16.6494 72.1454C16.3799 71.4828 16.6986 70.7274 17.361 70.4578C18.0175 70.1908 18.7079 69.9575 19.4133 69.7646C20.1031 69.5758 20.8155 69.982 21.0041 70.6719C21.1927 71.3619 20.7865 72.0741 20.0968 72.2627C19.4904 72.4286 18.8984 72.6284 18.337 72.8569C18.0373 72.9788 17.7185 72.9804 17.4346 72.8843ZM42.6965 77.5089C42.573 77.4671 42.4539 77.4059 42.3433 77.3245C41.8438 76.9567 41.3102 76.5947 40.7574 76.249C40.1511 75.8697 39.9672 75.0705 40.3465 74.4642C40.7258 73.8579 41.5244 73.674 42.1313 74.0533C42.7392 74.4336 43.3272 74.8325 43.8791 75.2389C44.455 75.6629 44.5781 76.4736 44.154 77.0496C43.8114 77.515 43.2163 77.6847 42.6965 77.5089ZM25.4899 71.5552C24.9654 71.3778 24.5947 70.8747 24.6109 70.2923C24.6307 69.5774 25.2263 69.0138 25.9412 69.0336C26.6317 69.0528 27.3409 69.1 28.049 69.1738C28.761 69.2482 29.2769 69.8849 29.2026 70.5962C29.1284 71.3077 28.4915 71.8241 27.7802 71.7498C27.1372 71.6827 26.4944 71.6399 25.8694 71.6226C25.7368 71.6192 25.6093 71.5956 25.4899 71.5552ZM34.07 73.4033C33.8004 73.3122 33.5701 73.1346 33.4128 72.9029C32.8473 72.626 32.554 71.9703 32.7488 71.3516C32.8316 71.089 32.9902 70.8714 33.1928 70.7152C33.198 70.5101 33.2054 70.3057 33.2146 70.1028C33.2471 69.3884 33.8528 68.8355 34.5672 68.8683C35.282 68.9008 35.8345 69.5065 35.8018 70.2209C35.7904 70.4722 35.7822 70.7259 35.7775 70.9808C35.968 71.0498 36.1581 71.1204 36.3468 71.1925C37.015 71.4476 37.3498 72.1961 37.0948 72.8643C36.8397 73.5324 36.0871 73.8612 35.423 73.6123C35.2429 73.5436 35.0615 73.476 34.8798 73.4104C34.7641 73.4473 34.641 73.4685 34.5134 73.4713C34.3584 73.4743 34.2088 73.4503 34.07 73.4033ZM35.0814 65.2714C34.427 65.0501 34.0584 64.3496 34.2545 63.6807C34.3457 63.3697 34.4434 63.0596 34.5452 62.7586C34.6703 62.389 34.8055 62.0209 34.9468 61.6646C35.2106 60.9998 35.9648 60.6752 36.6281 60.9386C37.293 61.2024 37.618 61.9552 37.3542 62.6199C37.229 62.935 37.1095 63.261 36.9985 63.5885C36.9081 63.8558 36.821 64.1322 36.7397 64.4091C36.5384 65.0954 35.819 65.4887 35.1327 65.2873C35.1155 65.2826 35.0982 65.2771 35.0814 65.2714ZM38.9248 58.0778C38.7678 58.0247 38.6184 57.9403 38.4862 57.8243C37.9486 57.3527 37.8953 56.5345 38.3671 55.9968C38.8451 55.4522 39.3607 54.9334 39.8993 54.4551C40.4341 53.9802 41.2523 54.0287 41.7274 54.5636C42.2024 55.0985 42.1537 55.917 41.6189 56.3918C41.1605 56.7989 40.7212 57.2409 40.3137 57.7051C39.958 58.1105 39.4055 58.2404 38.9248 58.0778Z" fill="#D0CFD1"/>
<path d="M8.0382 84.4349C7.40259 84.2199 7.03069 83.5475 7.20002 82.8868C7.2908 82.5327 7.38992 82.1787 7.49452 81.8344C7.70229 81.1501 8.42556 80.7637 9.10985 80.9716C9.79548 81.1756 10.1806 81.9026 9.97269 82.5869C9.87917 82.8952 9.79041 83.2126 9.70892 83.5301C9.53131 84.2228 8.82554 84.6405 8.13282 84.4629C8.10074 84.4548 8.06912 84.4454 8.0382 84.4349Z" fill="#D0CFD1"/>
<path d="M66.5517 48.3085L60.0786 38.3505C59.884 38.054 59.5422 37.889 59.1889 37.9208C58.8359 37.9529 58.529 38.1765 58.3908 38.5031L55.4051 47.999C55.2828 48.2879 55.3095 48.6185 55.4763 48.8842C55.5953 49.0737 55.7751 49.2134 55.9821 49.2834C56.0653 49.3115 56.153 49.3285 56.243 49.3328L65.7016 49.7948C66.0626 49.8125 66.403 49.626 66.5824 49.3121C66.7618 48.9983 66.75 48.6107 66.5517 48.3085Z" fill="#F2931E"/>
<path d="M102.313 27.2261C102.094 26.8304 101.629 26.6411 101.196 26.7711L59.1433 39.4059C58.8906 39.4818 58.6803 39.6583 58.5616 39.894C58.443 40.1297 58.4266 40.4037 58.5162 40.652L65.1448 59.0154C65.2446 59.2917 65.4646 59.5059 65.7405 59.5992C65.7627 59.6067 65.7853 59.6134 65.8081 59.6194C66.1154 59.6987 66.4421 59.6213 66.681 59.4122L102.105 28.4141C102.445 28.1164 102.532 27.6217 102.313 27.2261Z" fill="#FFBD41"/>
<path d="M102.315 27.2229C102.096 26.8272 101.631 26.6379 101.198 26.7679L99.473 27.2863C99.4283 27.3512 99.3781 27.4132 99.3167 27.467L64.6957 57.7621L65.147 59.0121C65.2467 59.2884 65.4667 59.5026 65.7426 59.5959C65.7648 59.6034 65.7874 59.6101 65.8103 59.6161C66.1176 59.6954 66.4442 59.6179 66.6831 59.4088L102.107 28.4107C102.448 28.1132 102.534 27.6185 102.315 27.2229Z" fill="#D77D01"/>
<path d="M102.431 27.5924C102.385 27.1345 102.02 26.7734 101.562 26.7324L52.5321 22.3006C52.1981 22.2704 51.8724 22.4166 51.673 22.6864C51.4737 22.9562 51.4295 23.3104 51.5564 23.6209L58.7723 41.352C58.8816 41.619 102.477 28.0502 102.431 27.5924Z" fill="#F9E075"/>
</svg>
