<svg width="80" height="80" viewBox="0 0 80 80" fill="none" xmlns="http://www.w3.org/2000/svg">
<rect width="80" height="80" rx="40" fill="#F8B53C"/>
<path d="M40.168 22.667C30.5012 22.667 22.668 30.5004 22.668 40.167C22.668 49.8336 30.5012 57.667 40.168 57.667C40.5847 57.667 40.993 57.6503 41.4013 57.617C40.0507 55.6754 39.3292 53.3656 39.3347 51.0004C39.3352 47.9063 40.5646 44.9392 42.7524 42.7514C44.9402 40.5636 47.9073 39.3343 51.0013 39.3337C53.3665 39.3283 55.6763 40.0497 57.618 41.4004C57.6513 40.992 57.668 40.5837 57.668 40.167C57.668 30.5004 49.8348 22.667 40.168 22.667ZM41.8347 40.167C41.8347 40.609 41.6591 41.033 41.3465 41.3455C41.0339 41.6581 40.61 41.8337 40.168 41.8337H32.668C32.2279 41.8307 31.8069 41.6538 31.4968 41.3415C31.1867 41.0293 31.0127 40.6071 31.0127 40.167C31.0127 39.727 31.1867 39.3048 31.4968 38.9925C31.8069 38.6803 32.2279 38.5034 32.668 38.5004H38.5013V29.3337C38.4998 29.1139 38.5418 28.8959 38.6249 28.6924C38.708 28.4889 38.8305 28.3038 38.9854 28.1478C39.1403 27.9918 39.3246 27.868 39.5275 27.7835C39.7305 27.6991 39.9482 27.6556 40.168 27.6556C40.3878 27.6556 40.6055 27.6991 40.8085 27.7835C41.0114 27.868 41.1957 27.9918 41.3506 28.1478C41.5055 28.3038 41.628 28.4889 41.7111 28.6924C41.7942 28.8959 41.8362 29.1139 41.8347 29.3337V40.167Z" fill="white"/>
<path d="M51.0013 42.667C49.3531 42.667 47.742 43.1557 46.3716 44.0714C45.0012 44.9871 43.933 46.2886 43.3023 47.8113C42.6716 49.334 42.5066 51.0096 42.8281 52.6261C43.1496 54.2426 43.9433 55.7275 45.1088 56.8929C46.2742 58.0584 47.7591 58.852 49.3756 59.1736C50.9921 59.4951 52.6676 59.3301 54.1904 58.6994C55.7131 58.0686 57.0146 57.0005 57.9303 55.6301C58.8459 54.2597 59.3347 52.6485 59.3347 51.0004C59.3347 49.906 59.1192 48.8224 58.7004 47.8113C58.2816 46.8002 57.6678 45.8816 56.8939 45.1078C56.1201 44.3339 55.2014 43.7201 54.1904 43.3013C53.1793 42.8825 52.0957 42.667 51.0013 42.667ZM51.0013 56.8337C50.6717 56.8337 50.3494 56.736 50.0753 56.5529C49.8012 56.3697 49.5876 56.1094 49.4614 55.8049C49.3353 55.5003 49.3022 55.1652 49.3666 54.8419C49.4309 54.5186 49.5896 54.2216 49.8227 53.9885C50.0558 53.7554 50.3528 53.5966 50.6761 53.5323C50.9994 53.468 51.3345 53.501 51.6391 53.6271C51.9436 53.7533 52.2039 53.9669 52.3871 54.241C52.5702 54.5151 52.668 54.8373 52.668 55.167C52.668 55.609 52.4924 56.0329 52.1798 56.3455C51.8673 56.6581 51.4434 56.8337 51.0013 56.8337ZM52.668 51.0004C52.668 51.4424 52.4924 51.8663 52.1798 52.1788C51.8673 52.4914 51.4434 52.667 51.0013 52.667C50.5593 52.667 50.1354 52.4914 49.8228 52.1788C49.5103 51.8663 49.3347 51.4424 49.3347 51.0004V46.8337C49.3347 46.3917 49.5103 45.9678 49.8228 45.6552C50.1354 45.3427 50.5593 45.1671 51.0013 45.1671C51.4434 45.1671 51.8673 45.3427 52.1798 45.6552C52.4924 45.9678 52.668 46.3917 52.668 46.8337V51.0004Z" fill="white"/>
<ellipse cx="51.418" cy="50.9997" rx="6.25" ry="6.66667" fill="white"/>
<path d="M54.9961 49.5412V50.3251H46.9961V49.5412H54.9961ZM54.9961 51.1141V51.8981H46.9961V51.1141H54.9961ZM53.9098 47.0527V54.4168H52.6408L49.326 49.1416V54.4168H48.0519V47.0527H49.326L52.6509 52.3381V47.0527H53.9098Z" fill="#F8B53C"/>
<rect width="80" height="80" rx="40" fill="#F8B53C"/>
<g clip-path="url(#clip0_12737_38003)">
<path d="M59.9817 27.3037C59.8543 27.4317 59.7029 27.5332 59.5361 27.6024C59.3694 27.6717 59.1906 27.7074 59.0101 27.7074C58.8295 27.7074 58.6507 27.6717 58.484 27.6024C58.3172 27.5332 58.1658 27.4317 58.0384 27.3037L56.7184 25.9856V31.8321C56.7184 32.1967 56.5735 32.5465 56.3157 32.8043C56.0578 33.0622 55.7081 33.2071 55.3434 33.2071C54.9787 33.2071 54.629 33.0622 54.3711 32.8043C54.1133 32.5465 53.9684 32.1967 53.9684 31.8321V25.9856L52.6484 27.3037C52.3877 27.5466 52.043 27.6788 51.6868 27.6725C51.3305 27.6663 50.9907 27.522 50.7388 27.27C50.4868 27.0181 50.3425 26.6782 50.3362 26.322C50.33 25.9658 50.4622 25.621 50.7051 25.3604L54.3717 21.6937C54.6298 21.4367 54.9792 21.2924 55.3434 21.2924C55.7076 21.2924 56.057 21.4367 56.3151 21.6937L59.9817 25.3604C60.1094 25.4879 60.2108 25.6394 60.2799 25.8061C60.349 25.9728 60.3846 26.1516 60.3846 26.3321C60.3846 26.5126 60.349 26.6913 60.2799 26.858C60.2108 27.0247 60.1094 27.1762 59.9817 27.3037ZM59.0101 40.9987C59.0111 43.4509 58.5201 45.8784 57.5663 48.1374C56.6124 50.3965 55.2151 52.4412 53.457 54.1506C51.6988 55.8601 49.6156 57.1994 47.3307 58.0894C45.0457 58.9794 42.6054 59.4019 40.1542 59.3321C35.4877 59.153 31.0607 57.2191 27.7585 53.9169C24.4564 50.6147 22.5224 46.1878 22.3434 41.5212C22.2735 39.0701 22.6961 36.6298 23.5861 34.3448C24.476 32.0598 25.8154 29.9766 27.5248 28.2185C29.2342 26.4604 31.279 25.063 33.538 24.1092C35.7971 23.1553 38.2245 22.6644 40.6767 22.6654C43.0327 22.6568 45.3672 23.1135 47.5462 24.0092C47.6151 24.0396 47.6772 24.0836 47.7286 24.1385C47.7801 24.1934 47.82 24.2582 47.8458 24.3289C47.8717 24.3996 47.883 24.4748 47.8791 24.55C47.8752 24.6251 47.8561 24.6988 47.8231 24.7664C47.2849 25.9555 47.0366 27.2553 47.0985 28.559C47.1604 29.8627 47.5307 31.1332 48.1791 32.266C48.8274 33.3987 49.7353 34.3615 50.8281 35.0752C51.9209 35.7889 53.1674 36.2331 54.4652 36.3714C55.5623 36.4855 56.6711 36.3827 57.7286 36.0689C57.7987 36.0454 57.8728 36.0364 57.9465 36.0422C58.0203 36.0481 58.092 36.0687 58.1576 36.103C58.2231 36.1372 58.2811 36.1843 58.328 36.2414C58.375 36.2986 58.4099 36.3646 58.4307 36.4356C58.8172 37.9258 59.0118 39.4592 59.0101 40.9987ZM46.1254 44.6966C46.1253 43.6243 45.767 42.5828 45.1073 41.7375C44.4476 40.8922 43.5245 40.2914 42.4844 40.0307L39.5364 39.2974C39.0863 39.1848 38.6876 38.9231 38.4052 38.5549C38.1253 38.1964 37.9748 37.7539 37.9781 37.2991C37.979 36.754 38.1961 36.2315 38.5817 35.8463C38.9673 35.461 39.49 35.2444 40.0351 35.2439H41.3184C41.8251 35.2448 42.3137 35.4322 42.691 35.7703C43.0684 36.1085 43.3081 36.5737 43.3644 37.0772C43.3794 37.2606 43.4311 37.4392 43.5164 37.6022C43.6017 37.7653 43.7188 37.9096 43.8609 38.0266C44.003 38.1435 44.1671 38.2308 44.3435 38.2831C44.5199 38.3355 44.7051 38.3519 44.888 38.3314C45.0708 38.3109 45.2477 38.2539 45.4082 38.1638C45.5686 38.0737 45.7094 37.9523 45.822 37.8068C45.9347 37.6613 46.017 37.4946 46.0641 37.3167C46.1111 37.1388 46.122 36.9532 46.0961 36.7711C45.9782 35.7151 45.5132 34.7282 44.7739 33.9651C44.0347 33.2019 43.063 32.7058 42.0114 32.5544V31.8321C42.0114 31.4674 41.8665 31.1177 41.6087 30.8598C41.3508 30.6019 41.0011 30.4571 40.6364 30.4571C40.2717 30.4571 39.922 30.6019 39.6641 30.8598C39.4063 31.1177 39.2614 31.4674 39.2614 31.8321V32.5654C38.1708 32.7428 37.1748 33.2911 36.4416 34.1177C35.7083 34.9443 35.2827 35.9985 35.2366 37.1025C35.1905 38.2065 35.5267 39.2925 36.1885 40.1774C36.8503 41.0622 45.5628 39.3562 46.6348 39.6239L50.3362 40.0307C56.6983 40.0307 42.7288 43.1113 43.0125 43.5252C48.9264 46.23 43.419 44.4424 43.3577 44.9405C43.2965 45.4386 43.0555 45.8971 42.6799 46.23C42.3044 46.5628 41.8202 46.7471 41.3184 46.7481H40.0351C39.5284 46.7471 39.0397 46.5597 38.6624 46.2216C38.285 45.8835 38.0454 45.4183 37.9891 44.9147C37.974 44.7313 37.9223 44.5528 37.8371 44.3897C37.7518 44.2266 37.6346 44.0823 37.4925 43.9654C37.3505 43.8484 37.1863 43.7612 37.0099 43.7088C36.8335 43.6564 36.6484 43.64 36.4655 43.6605C36.2826 43.681 36.1057 43.738 35.9453 43.8281C35.7848 43.9183 35.6441 44.0397 35.5314 44.1852C35.4188 44.3307 35.3365 44.4973 35.2894 44.6753C35.2423 44.8532 35.2314 45.0387 35.2574 45.2209C35.3729 46.2639 35.8269 47.2404 36.55 48.0009C37.2731 48.7615 38.2255 49.2641 39.2614 49.4321V50.1654C39.2614 50.5301 39.4063 50.8798 39.6641 51.1377C39.922 51.3955 40.2717 51.5404 40.6364 51.5404C41.0011 51.5404 41.3508 51.3955 41.6087 51.1377C41.8665 50.8798 42.0114 50.5301 42.0114 50.1654V49.4321C43.1534 49.2711 44.1987 48.7028 44.9547 47.8319C45.7107 46.961 46.1265 45.8462 46.1254 44.6929V44.6966Z" fill="white"/>
<path d="M48.9232 34.5833L43.8815 27.25L36.5482 28.625L33.3398 32.75V40.0833V49.7083L36.5482 52.9167L46.1732 51.5417L49.8398 46.9583L48.9232 34.5833Z" fill="white"/>
<path d="M48.5479 38.172V39.5915H34.0625V38.172H48.5479ZM48.5479 41.0201V42.4396H34.0625V41.0201H48.5479ZM46.581 33.6663V47.0003H44.2832L38.2813 37.4485V47.0003H35.9743V33.6663H38.2813L44.3016 43.2364V33.6663H46.581Z" fill="#F8B53C"/>
</g>
<defs>
<clipPath id="clip0_12737_38003">
<rect width="44" height="44" fill="white" transform="translate(20.5 19)"/>
</clipPath>
</defs>
</svg>
