<svg width="80" height="81" viewBox="0 0 80 81" fill="none" xmlns="http://www.w3.org/2000/svg">
<rect y="0.330078" width="80" height="80" rx="9.6" fill="#E3FCEF"/>
<g clip-path="url(#clip0_12708_52150)">
<path fill-rule="evenodd" clip-rule="evenodd" d="M44.9755 37.9465C42.3415 43.213 38.374 51.1465 35.9335 56.029C35.236 57.424 35.311 59.0815 36.13 60.4075C36.9505 61.735 38.398 62.542 39.958 62.542H58.042C59.602 62.542 61.0495 61.735 61.87 60.4075C62.689 59.0815 62.764 57.424 62.0665 56.029L53.0245 37.9465C52.2625 36.421 50.704 35.458 49 35.458C47.296 35.458 45.7375 36.421 44.9755 37.9465ZM33.2935 61.4815C32.9605 60.8365 32.7265 60.154 32.593 59.4565C31.207 56.731 30.106 53.1325 29.4445 49H19.375C21.97 54.9325 27.049 59.533 33.2935 61.4815ZM49 55C49.828 55 50.5 55.672 50.5 56.5C50.5 57.328 49.828 58 49 58C48.172 58 47.5 57.328 47.5 56.5C47.5 55.672 48.172 55 49 55ZM36.094 49L33.6235 53.9395C33.163 52.4275 32.776 50.77 32.476 49H36.094ZM47.5 44.5V52C47.5 52.828 48.172 53.5 49 53.5C49.828 53.5 50.5 52.828 50.5 52V44.5C50.5 43.672 49.828 43 49 43C48.172 43 47.5 43.672 47.5 44.5ZM18.31 34C17.782 35.911 17.5 37.9225 17.5 40C17.5 42.0775 17.782 44.089 18.31 46H29.0515C28.855 44.0785 28.75 42.0685 28.75 40C28.75 37.9315 28.855 35.9215 29.0515 34H18.31ZM53.5555 34C54.445 34.681 55.1875 35.5645 55.708 36.604L60.406 46H61.69C62.218 44.089 62.5 42.0775 62.5 40C62.5 37.9225 62.218 35.911 61.69 34H53.5555ZM44.4445 34C43.555 34.681 42.8125 35.5645 42.292 36.604L37.594 46H32.0635C31.858 44.086 31.75 42.0745 31.75 40C31.75 37.9255 31.858 35.914 32.0635 34H44.4445ZM46.0825 18.334C46.4245 18.814 46.7545 19.339 47.068 19.906C48.6145 22.696 49.84 26.536 50.5555 31H60.625C57.9445 24.8725 52.612 20.1655 46.0825 18.334ZM33.9175 18.334C27.388 20.1655 22.0555 24.8725 19.375 31H29.4445C30.16 26.536 31.3855 22.696 32.932 19.906C33.2455 19.339 33.5755 18.814 33.9175 18.334ZM47.524 31H32.476C33.1315 27.1375 34.198 23.809 35.5555 21.3595C36.841 19.0405 38.2855 17.5 40 17.5C41.7145 17.5 43.159 19.0405 44.4445 21.3595C45.802 23.809 46.8685 27.1375 47.524 31Z" fill="#00875B"/>
</g>
<defs>
<clipPath id="clip0_12708_52150">
<rect width="48" height="48" fill="white" transform="translate(16 16.3301)"/>
</clipPath>
</defs>
</svg>
