<svg width="201" height="60" viewBox="0 0 201 60" fill="none" xmlns="http://www.w3.org/2000/svg">
<g clip-path="url(#clip0_12298_19503)">
<path d="M192.734 59.6907H7.70584C3.63525 59.6907 0.304688 56.3506 0.304688 52.2682V7.7331C0.304688 3.65068 3.63519 0.310547 7.70584 0.310547H192.734C196.805 0.310547 200.136 3.65068 200.136 7.7331V52.2682C200.136 56.3506 196.805 59.6907 192.734 59.6907Z" fill="black"/>
<path d="M192.734 0.310547H7.70584C3.63525 0.310547 0.304688 3.65068 0.304688 7.7331V52.2682C0.304688 56.3506 3.63519 59.6907 7.70584 59.6907H192.734C196.805 59.6907 200.136 56.3506 200.136 52.2682V7.7331C200.136 3.65068 196.805 0.310547 192.734 0.310547ZM192.734 1.49811C196.163 1.49811 198.951 4.29556 198.951 7.7331V52.2682C198.951 55.7064 196.163 58.5037 192.734 58.5037H7.70584C4.27826 58.5037 1.48888 55.7063 1.48888 52.2682V7.7331C1.48888 4.29556 4.27819 1.49818 7.70584 1.49818H192.734" fill="#A6A6A6"/>
<path d="M70.4954 15.5164C70.4954 16.7601 70.1281 17.7505 69.3926 18.4893C68.5571 19.3679 67.4682 19.8075 66.1297 19.8075C64.8478 19.8075 63.7579 19.3621 62.8616 18.4702C61.9637 17.5789 61.5156 16.4737 61.5156 15.155C61.5156 13.8357 61.9637 12.7312 62.8616 11.8392C63.7579 10.948 64.8478 10.502 66.1297 10.502C66.7657 10.502 67.3747 10.6267 67.9529 10.8755C68.531 11.1249 68.9948 11.4559 69.3418 11.8705L68.5611 12.6539C67.9731 11.9494 67.1636 11.5974 66.1297 11.5974C65.1948 11.5974 64.3864 11.9268 63.7042 12.5861C63.0218 13.2461 62.6807 14.1019 62.6807 15.155C62.6807 16.2081 63.0218 17.0639 63.7042 17.724C64.3864 18.3833 65.1947 18.7126 66.1297 18.7126C67.1214 18.7126 67.9483 18.3815 68.6103 17.7182C69.04 17.286 69.2885 16.6854 69.355 15.9141H66.1296V14.8442H70.4334C70.475 15.0768 70.4952 15.3001 70.4952 15.5164" fill="white"/>
<path d="M70.4949 15.5173H70.3468C70.3456 16.7327 69.9916 17.6767 69.2873 18.3854L69.2858 18.3866L69.2851 18.3878C68.4762 19.236 67.4364 19.6582 66.1291 19.66C64.8815 19.6582 63.8371 19.2314 62.9651 18.3662C62.095 17.4993 61.6648 16.441 61.6631 15.156C61.6648 13.8704 62.095 12.8127 62.9651 11.9464C63.8371 11.0806 64.8815 10.6532 66.1291 10.6514C66.7461 10.6514 67.3336 10.7721 67.8939 11.0127C68.4547 11.2552 68.8977 11.5729 69.2278 11.9673L69.3412 11.8715L69.2366 11.7666L68.4559 12.5505L68.5605 12.6549L68.6745 12.5599C68.0592 11.8205 67.1955 11.4477 66.1292 11.4499C65.1596 11.4487 64.3067 11.7962 63.6012 12.4805C62.8889 13.167 62.531 14.071 62.5322 15.156C62.531 16.241 62.8889 17.145 63.6012 17.8316C64.3067 18.5159 65.1596 18.8633 66.1291 18.8621C67.1537 18.8639 68.0269 18.5153 68.7144 17.8241C69.1735 17.3624 69.4337 16.7229 69.502 15.9278L69.5158 15.7666H66.2771V14.9936H70.4329V14.8452L70.2871 14.8712C70.3276 15.0964 70.3468 15.3102 70.3468 15.5173H70.6428C70.6428 15.2917 70.6219 15.0598 70.5786 14.8186L70.5566 14.6967H65.9812V16.0635H69.3544V15.915L69.207 15.9023C69.1417 16.6493 68.9046 17.2118 68.5051 17.6143C67.8691 18.2497 67.0885 18.5634 66.1292 18.5652C65.2289 18.564 64.4651 18.2531 63.8065 17.6182C63.1543 16.9855 62.8299 16.1778 62.8282 15.156C62.8299 14.1342 63.1543 13.3265 63.8065 12.6938C64.4651 12.0589 65.2289 11.748 66.1292 11.7468C67.1301 11.7492 67.8859 12.0809 68.4474 12.7506L68.5515 12.8747L69.4459 11.9765L69.5419 11.8803L69.4545 11.7764C69.0908 11.3416 68.6063 10.9964 68.0107 10.7403C67.414 10.4833 66.7844 10.3545 66.1292 10.3545C64.8132 10.3534 63.6776 10.8172 62.7565 11.7353C61.832 12.6515 61.3659 13.8032 61.3672 15.156C61.3659 16.5082 61.8319 17.6606 62.7571 18.5773C63.6776 19.4947 64.8132 19.9581 66.1292 19.9569C67.4996 19.9581 68.6364 19.5016 69.4991 18.5929L69.392 18.4903L69.4967 18.5953C70.2634 17.827 70.6438 16.789 70.6428 15.5173H70.4949ZM77.3176 11.7967H73.273V14.6209H76.9205V15.6911H73.273V18.5153H77.3176V19.6095H72.1328V10.7025H77.3176V11.7967Z" fill="white"/>
<path d="M77.3172 11.7964V11.6479H73.1246V14.769H76.772V15.542L73.1245 15.5424V18.6634H77.1691V19.4607H72.2804V10.8506H77.1691V11.7964H77.3172H77.4652V10.5537H71.9844V19.7576H77.4652V18.3665H73.4206V15.8392H77.068V14.4721H73.4206V11.9448H77.4652V11.7964H77.3172ZM82.1297 19.6092H80.9877V11.7963H78.5071V10.7021H84.6103V11.7963H82.1297V19.6091" fill="white"/>
<path d="M82.1299 19.6092V19.4607H81.136V11.6479H78.6554V10.8507H84.4625V11.6479H81.9819V19.6092H82.1299H82.278V11.9448H84.7585V10.5537H78.3594V11.9448H80.8399V19.7575H82.278V19.6091H82.1299M89.0263 19.6092V10.7021H90.1671V19.6091H89.0263" fill="white"/>
<path d="M89.023 19.6092H89.171V10.8506H90.0158V19.4607H89.023V19.6092V19.7576H90.3118V10.5537H88.875V19.7576H89.023V19.6092M95.226 19.6092H94.0841V11.7963H91.6036V10.7021H97.7066V11.7963H95.226V19.6091" fill="white"/>
<path d="M95.2313 19.6086V19.4601H94.2374V11.6473H91.757V10.85H97.5639V11.6473H95.0834V19.6085H95.2313H95.3794V11.9442H97.8599V10.5531H91.4609V11.9441H93.9413V19.7569H95.3794V19.6084H95.2313M103.596 17.7118C104.253 18.3792 105.058 18.7126 106.009 18.7126C106.96 18.7126 107.765 18.3792 108.421 17.7118C109.079 17.0444 109.409 16.1912 109.409 15.155C109.409 14.1189 109.079 13.2657 108.421 12.5983C107.765 11.9308 106.96 11.5974 106.009 11.5974C105.058 11.5974 104.253 11.9308 103.596 12.5983C102.94 13.2657 102.61 14.1188 102.61 15.155C102.61 16.1912 102.94 17.0444 103.596 17.7118ZM109.265 18.4574C108.392 19.3579 107.306 19.8075 106.009 19.8075C104.71 19.8075 103.625 19.3579 102.753 18.4574C101.88 17.558 101.445 16.4569 101.445 15.155C101.445 13.8531 101.88 12.7519 102.753 11.8526C103.625 10.9519 104.71 10.502 106.009 10.502C107.299 10.502 108.382 10.9543 109.26 11.8584C110.135 12.7624 110.574 13.8612 110.574 15.155C110.574 16.4569 110.137 17.558 109.265 18.4574Z" fill="white"/>
<path d="M103.596 17.7118L103.491 17.8162C104.172 18.5103 105.023 18.8629 106.009 18.8611C106.994 18.8629 107.846 18.5103 108.526 17.8162C109.213 17.1214 109.558 16.2226 109.557 15.155C109.558 14.0875 109.213 13.1887 108.526 12.4939C107.846 11.7997 106.994 11.4472 106.009 11.4489C105.023 11.4472 104.172 11.7997 103.491 12.4939C102.806 13.1887 102.46 14.0875 102.462 15.155C102.46 16.2225 102.806 17.1214 103.491 17.8162L103.596 17.7118L103.701 17.6074C103.073 16.9666 102.759 16.1605 102.758 15.155C102.759 14.1496 103.073 13.3435 103.701 12.7026C104.335 12.0619 105.092 11.7476 106.009 11.7459C106.925 11.7476 107.684 12.0619 108.316 12.7026C108.945 13.3435 109.259 14.1496 109.26 15.155C109.259 16.1605 108.945 16.9666 108.316 17.6074C107.684 18.2482 106.925 18.5624 106.009 18.5641C105.092 18.5624 104.335 18.2482 103.701 17.6074L103.596 17.7118ZM109.265 18.4575L109.159 18.3543C108.311 19.2264 107.273 19.6573 106.009 19.659C104.744 19.6572 103.706 19.2264 102.859 18.3543C102.012 17.4792 101.594 16.4239 101.593 15.155C101.594 13.8862 102.012 12.8309 102.859 11.9558C103.706 11.0836 104.744 10.6522 106.009 10.6505C107.265 10.6522 108.3 11.0854 109.154 11.9621C110.004 12.8413 110.424 13.8949 110.426 15.155C110.424 16.4239 110.005 17.4792 109.159 18.3543L109.265 18.4575L109.372 18.5606C110.269 17.6364 110.723 16.4899 110.722 15.155C110.723 13.8278 110.267 12.6836 109.366 11.7552C108.464 10.8232 107.334 10.3519 106.009 10.3535C104.677 10.3519 103.543 10.821 102.647 11.7494V11.7488C101.748 12.6737 101.296 13.8201 101.297 15.155C101.296 16.4899 101.748 17.6364 102.647 18.5612L102.651 18.5654L102.647 18.5606C103.543 19.489 104.677 19.9571 106.009 19.9559C107.34 19.9571 108.474 19.489 109.372 18.5606L109.265 18.4575ZM112.175 19.6086V10.7014H113.564L117.881 17.6305H117.93L117.881 15.914V10.7014H119.023V19.6085H117.831L113.316 12.3436H113.266L113.316 14.0607V19.6085H112.175" fill="white"/>
<path d="M112.172 19.6092H112.32V10.8506H113.479L117.795 17.7797H118.079L118.026 15.9125V10.8507H118.872V19.4607H117.911L113.395 12.1959H113.111L113.165 14.0638V19.4607H112.172V19.6092V19.7576H113.461V14.0591L113.411 12.3403L113.263 12.3443V12.4928H113.313V12.3443L113.187 12.4233L117.746 19.7576H119.168V10.5537H117.73V15.9164L117.779 17.6352L117.927 17.6312V17.4828H117.878V17.6312L118.003 17.5524L113.643 10.5537H112.024V19.7576H112.172V19.6092M158.593 44.8457H161.355V26.2877H158.593L158.593 44.8457ZM183.471 32.9728L180.305 41.0186H180.21L176.924 32.9727H173.949L178.877 44.2183L176.067 50.4735H178.949L186.543 32.9727L183.471 32.9728ZM167.808 42.7379C166.902 42.7379 165.641 42.2844 165.641 41.1618C165.641 39.7294 167.213 39.1803 168.568 39.1803C169.784 39.1803 170.354 39.4429 171.092 39.8015C170.878 41.5202 169.402 42.7379 167.808 42.7379ZM168.141 32.5667C166.141 32.5667 164.07 33.4504 163.213 35.4082L165.664 36.4346C166.188 35.4082 167.164 35.0735 168.188 35.0735C169.617 35.0735 171.069 35.9335 171.092 37.4616V37.6524C170.592 37.3658 169.522 36.9362 168.212 36.9362C165.57 36.9362 162.878 38.3922 162.878 41.1142C162.878 43.5973 165.046 45.1972 167.473 45.1972C169.331 45.1972 170.354 44.3615 170.998 43.3828H171.092V44.8151H173.758V37.6998C173.758 34.4056 171.307 32.5667 168.141 32.5667ZM151.071 35.2318H147.142V28.8706H151.071C153.136 28.8706 154.308 30.5852 154.308 32.0511C154.308 33.4893 153.136 35.2318 151.071 35.2318ZM151 26.2877H144.382V44.8457H147.142V37.8147H151C154.061 37.8147 157.07 35.5919 157.07 32.0511C157.07 28.5104 154.061 26.2877 151 26.2877ZM114.91 42.7414C113.002 42.7414 111.404 41.1391 111.404 38.9385C111.404 36.7147 113.002 35.0881 114.91 35.0881C116.794 35.0881 118.273 36.7147 118.273 38.9385C118.273 41.1391 116.794 42.7414 114.91 42.7414ZM118.082 34.0119H117.986C117.366 33.2706 116.174 32.601 114.671 32.601C111.524 32.601 108.638 35.3751 108.638 38.9385C108.638 42.4782 111.524 45.2285 114.671 45.2285C116.174 45.2285 117.366 44.5587 117.986 43.7938H118.082V44.7025C118.082 47.1184 116.794 48.4098 114.719 48.4098C113.026 48.4098 111.977 47.1897 111.547 46.1615L109.139 47.1659C109.831 48.84 111.667 50.8969 114.719 50.8969C117.963 50.8969 120.705 48.9832 120.705 44.3198V32.9837H118.082V34.0119ZM122.613 44.8457H125.379V26.287H122.613V44.8457ZM129.457 38.7234C129.385 36.2837 131.341 35.0405 132.748 35.0405C133.845 35.0405 134.775 35.5902 135.084 36.3801L129.457 38.7234ZM138.042 36.6189C137.518 35.2074 135.919 32.601 132.652 32.601C129.409 32.601 126.714 35.1599 126.714 38.9147C126.714 42.4544 129.385 45.2285 132.962 45.2285C135.848 45.2285 137.518 43.4586 138.209 42.4305L136.063 40.9952C135.348 42.0478 134.369 42.7414 132.962 42.7414C131.555 42.7414 130.554 42.0954 129.91 40.8282L138.327 37.3363L138.042 36.6189ZM70.9752 34.5383V37.2168H77.3661C77.1753 38.7234 76.6745 39.8234 75.9113 40.5888C74.9816 41.5218 73.5268 42.55 70.9752 42.55C67.0403 42.55 63.9643 39.3693 63.9643 35.4231C63.9643 31.4771 67.0403 28.2959 70.9752 28.2959C73.0977 28.2959 74.6473 29.1332 75.7922 30.2094L77.6761 28.3202C76.0785 26.7893 73.9558 25.6175 70.9752 25.6175C65.5856 25.6175 61.0547 30.0181 61.0547 35.4231C61.0547 40.8282 65.5856 45.2285 70.9752 45.2285C73.8847 45.2285 76.0785 44.2723 77.7952 42.4782C79.56 40.7083 80.1087 38.2212 80.1087 36.2125C80.1087 35.5902 80.0612 35.0167 79.9652 34.5383H70.9752ZM87.3745 42.7414C85.4664 42.7414 83.8208 41.1628 83.8208 38.9147C83.8208 36.6427 85.4664 35.0881 87.3745 35.0881C89.2819 35.0881 90.9275 36.6427 90.9275 38.9147C90.9275 41.1629 89.2819 42.7414 87.3745 42.7414ZM87.3745 32.601C83.8924 32.601 81.0545 35.2556 81.0545 38.9147C81.0545 42.55 83.8924 45.2285 87.3745 45.2285C90.8559 45.2285 93.6937 42.55 93.6937 38.9147C93.6937 35.2556 90.8559 32.601 87.3745 32.601ZM101.16 42.7414C99.2528 42.7414 97.607 41.1628 97.607 38.9147C97.607 36.6427 99.2528 35.0881 101.16 35.0881C103.068 35.0881 104.713 36.6427 104.713 38.9147C104.713 41.1629 103.068 42.7414 101.16 42.7414ZM101.16 32.601C97.6783 32.601 94.841 35.2556 94.841 38.9147C94.841 42.55 97.6782 45.2285 101.16 45.2285C104.642 45.2285 107.48 42.55 107.48 38.9147C107.48 35.2556 104.642 32.601 101.16 32.601Z" fill="white"/>
<path d="M15.8636 11.6089C15.3668 12.0583 15.0703 12.808 15.0703 13.8032V13.5782V46.4171V46.2008C15.0703 47.1198 15.3246 47.8295 15.7554 48.2866L15.8653 48.3922V48.3926C16.2139 48.7081 16.661 48.8757 17.1733 48.8751C17.6739 48.8751 18.2372 48.7151 18.8316 48.3771L40.3174 36.134L47.6976 31.928C48.635 31.394 49.1612 30.7051 49.2491 30.0034V30.0005C49.1612 29.2972 48.635 28.6088 47.6977 28.0747L40.3168 23.8693L18.8317 11.6262C18.236 11.2876 17.6723 11.127 17.1704 11.127C16.6586 11.127 16.2122 11.2939 15.8637 11.6089H15.8636Z" fill="#00C1FF"/>
<path d="M15.8654 48.3926L15.7554 48.287C15.3246 47.83 15.0703 47.1202 15.0703 46.2012V46.4175V13.5868V13.8036C15.0703 12.8084 15.3668 12.0587 15.8636 11.6093L34.2033 30.0015L15.8654 48.3926Z" fill="url(#paint0_linear_12298_19503)"/>
<path d="M40.3172 36.1348L34.2031 30.002L40.3167 23.8702L47.6975 28.0755C48.6348 28.6097 49.161 29.298 49.2489 30.0014V30.0042C49.161 30.7059 48.6348 31.3949 47.6975 31.9288L40.3173 36.1347" fill="url(#paint1_linear_12298_19503)"/>
<path d="M17.1672 48.876C16.655 48.8764 16.2079 48.7088 15.8594 48.3934V48.3929L34.1973 30.0019L40.3114 36.1347L18.8255 48.3779C18.2311 48.7159 17.6679 48.876 17.1672 48.876Z" fill="url(#paint2_linear_12298_19503)"/>
<path d="M34.1992 30.002L15.8594 11.6097C16.208 11.2948 16.6544 11.1278 17.1661 11.1278C17.6681 11.1278 18.2318 11.2884 18.8274 11.627L40.3127 23.8702L34.1991 30.002" fill="url(#paint3_linear_12298_19503)"/>
<path d="M17.1684 49.0938C16.6561 49.0938 16.2085 48.9262 15.8599 48.6107L15.8593 48.6113C15.8578 48.6098 15.8563 48.6085 15.8547 48.6072L15.7593 48.5138C15.7563 48.5109 15.7535 48.5075 15.75 48.5041L15.8599 48.3938C16.2086 48.7093 16.6555 48.8769 17.1679 48.8763C17.6685 48.8763 18.2317 48.7163 18.8262 48.3782L40.312 36.1351L40.4496 36.2732L40.3103 36.3526L18.8261 48.595C18.2844 48.903 17.7691 49.0636 17.3037 49.0903C17.2586 49.0926 17.2135 49.0937 17.1684 49.0938Z" fill="url(#paint4_linear_12298_19503)"/>
<path d="M15.7554 48.5039C15.3246 48.0469 15.0703 47.3377 15.0703 46.4181V46.2018C15.0703 47.1208 15.3246 47.8305 15.7554 48.2876L15.8653 48.3932L15.7554 48.5039Z" fill="url(#paint5_linear_12298_19503)"/>
<path d="M40.4502 36.2734L40.3125 36.1353L47.6927 31.9294C48.6301 31.3955 49.1562 30.7065 49.2442 30.0048C49.2442 30.2623 49.1869 30.5197 49.0731 30.7703C48.8435 31.2754 48.3833 31.7526 47.6928 32.1463L40.4502 36.2734" fill="url(#paint6_linear_12298_19503)"/>
<path d="M49.2448 30.002C49.1568 29.2986 48.6307 28.6102 47.6934 28.0761L40.3125 23.8708L40.4502 23.7327H40.4508L47.6934 27.8598C48.7267 28.449 49.2442 29.2254 49.2448 30.002Z" fill="url(#paint7_linear_12298_19503)"/>
<path d="M15.0703 13.8037V13.5769C15.0703 13.4951 15.0725 13.4151 15.0767 13.3374V13.3339C15.0767 13.3328 15.0767 13.3317 15.0771 13.3305V13.3217C15.1217 12.5301 15.3668 11.9127 15.7554 11.5004L15.8636 11.6093C15.3668 12.0589 15.0703 12.8086 15.0703 13.8037Z" fill="url(#paint8_linear_12298_19503)"/>
<path d="M40.3114 23.8701L18.8262 11.6268C18.2305 11.2883 17.6669 11.1277 17.1649 11.1277C16.6532 11.1277 16.2068 11.2947 15.8582 11.6096L15.75 11.5005C15.7838 11.4647 15.8189 11.4301 15.8553 11.3968C15.8564 11.3956 15.8582 11.3944 15.8593 11.3933C16.2052 11.0808 16.6469 10.9138 17.154 10.9108H17.1649C17.6669 10.9108 18.2305 11.0714 18.8262 11.4101L40.4496 23.7315L40.449 23.732L40.3114 23.8701Z" fill="url(#paint9_linear_12298_19503)"/>
</g>
<defs>
<linearGradient id="paint0_linear_12298_19503" x1="26.7905" y1="13.2398" x2="10.9657" y2="29.07" gradientUnits="userSpaceOnUse">
<stop stop-color="#00A0FF"/>
<stop offset="0.00657" stop-color="#00A1FF"/>
<stop offset="0.2601" stop-color="#00BEFF"/>
<stop offset="0.5122" stop-color="#00D2FF"/>
<stop offset="0.7604" stop-color="#00DFFF"/>
<stop offset="1" stop-color="#00E3FF"/>
</linearGradient>
<linearGradient id="paint1_linear_12298_19503" x1="50.3909" y1="29.896" x2="14.5738" y2="29.896" gradientUnits="userSpaceOnUse">
<stop stop-color="#FFE000"/>
<stop offset="0.4087" stop-color="#FFBD00"/>
<stop offset="0.7754" stop-color="#FFA500"/>
<stop offset="1" stop-color="#FF9C00"/>
</linearGradient>
<linearGradient id="paint2_linear_12298_19503" x1="37.0654" y1="35.8327" x2="10.2492" y2="62.462" gradientUnits="userSpaceOnUse">
<stop stop-color="#FF3A44"/>
<stop offset="1" stop-color="#C31162"/>
</linearGradient>
<linearGradient id="paint3_linear_12298_19503" x1="11.1327" y1="8.88295" x2="23.0841" y2="20.7693" gradientUnits="userSpaceOnUse">
<stop stop-color="#32A071"/>
<stop offset="0.0685" stop-color="#2DA771"/>
<stop offset="0.4762" stop-color="#15CF74"/>
<stop offset="0.8009" stop-color="#06E775"/>
<stop offset="1" stop-color="#00F076"/>
</linearGradient>
<linearGradient id="paint4_linear_12298_19503" x1="37.0526" y1="40.0871" x2="15.5767" y2="61.5705" gradientUnits="userSpaceOnUse">
<stop stop-color="#CC2E36"/>
<stop offset="1" stop-color="#9C0E4E"/>
</linearGradient>
<linearGradient id="paint5_linear_12298_19503" x1="17.5134" y1="13.2403" x2="3.57198" y2="27.1867" gradientUnits="userSpaceOnUse">
<stop stop-color="#008DE0"/>
<stop offset="0.00657" stop-color="#008DE0"/>
<stop offset="0.2601" stop-color="#00A7E0"/>
<stop offset="0.5122" stop-color="#00B8E0"/>
<stop offset="0.7604" stop-color="#00C4E0"/>
<stop offset="1" stop-color="#00C7E0"/>
</linearGradient>
<linearGradient id="paint6_linear_12298_19503" x1="50.3862" y1="30.0034" x2="14.5691" y2="30.0034" gradientUnits="userSpaceOnUse">
<stop stop-color="#E0C500"/>
<stop offset="0.4087" stop-color="#E0A600"/>
<stop offset="0.7754" stop-color="#E09100"/>
<stop offset="1" stop-color="#E08900"/>
</linearGradient>
<linearGradient id="paint7_linear_12298_19503" x1="50.3868" y1="30.0034" x2="14.5698" y2="30.0034" gradientUnits="userSpaceOnUse">
<stop stop-color="#FFE840"/>
<stop offset="0.4087" stop-color="#FFCE40"/>
<stop offset="0.7754" stop-color="#FFBC40"/>
<stop offset="1" stop-color="#FFB540"/>
</linearGradient>
<linearGradient id="paint8_linear_12298_19503" x1="17.4983" y1="13.2651" x2="4.071" y2="26.1152" gradientUnits="userSpaceOnUse">
<stop stop-color="#40B8FF"/>
<stop offset="0.00657" stop-color="#40B9FF"/>
<stop offset="0.2601" stop-color="#40CEFF"/>
<stop offset="0.5122" stop-color="#40DDFF"/>
<stop offset="0.7604" stop-color="#40E7FF"/>
<stop offset="1" stop-color="#40EAFF"/>
</linearGradient>
<linearGradient id="paint9_linear_12298_19503" x1="11.1047" y1="12.7724" x2="20.6947" y2="22.3658" gradientUnits="userSpaceOnUse">
<stop stop-color="#65B895"/>
<stop offset="0.0685" stop-color="#62BD95"/>
<stop offset="0.4762" stop-color="#50DB97"/>
<stop offset="0.8009" stop-color="#44ED98"/>
<stop offset="1" stop-color="#40F498"/>
</linearGradient>
<clipPath id="clip0_12298_19503">
<rect width="200.44" height="60" fill="white"/>
</clipPath>
</defs>
</svg>
