<svg width="80" height="80" viewBox="0 0 80 80" fill="none" xmlns="http://www.w3.org/2000/svg">
<rect width="80" height="80" rx="18" fill="#F5775B"/>
<g clip-path="url(#clip0_14700_48973)">
<path d="M61.8776 23.335C60.1544 23.335 58.7526 24.7367 58.7526 26.46V40.0017H51.4609C49.7377 40.0017 48.3359 41.4034 48.3359 43.1267C48.3359 44.8499 49.7377 46.2517 51.4609 46.2517H56.6692V54.585H53.5442C52.9685 54.585 52.5025 55.0509 52.5025 55.6267C52.5025 56.2024 52.9685 56.6684 53.5442 56.6684H61.8776C62.4534 56.6684 62.9193 56.2024 62.9193 55.6267C62.9193 55.0509 62.4534 54.585 61.8776 54.585H58.7526V46.2517H61.8776C63.6009 46.2517 65.0026 44.8499 65.0026 43.1267V26.46C65.0026 24.7368 63.6009 23.335 61.8776 23.335Z" fill="white"/>
<path d="M28.5417 40.0017H21.25V26.46C21.25 24.7367 19.8482 23.335 18.125 23.335C16.4018 23.335 15 24.7367 15 26.46V43.1267C15 44.8499 16.4018 46.2517 18.125 46.2517H21.25V54.585H18.125C17.5492 54.585 17.0833 55.0509 17.0833 55.6267C17.0833 56.2024 17.5492 56.6684 18.125 56.6684H26.4583C27.0341 56.6684 27.5 56.2024 27.5 55.6267C27.5 55.0509 27.0341 54.585 26.4583 54.585H23.3333V46.2517H28.5416C30.2648 46.2517 31.6666 44.8499 31.6666 43.1267C31.6666 41.4034 30.2649 40.0017 28.5417 40.0017Z" fill="white"/>
<path d="M42.8285 38.8054C43.7399 39.3659 44.7735 40.0017 46.7622 40.0017C48.751 40.0017 49.7845 39.3659 50.6959 38.8054C51.5025 38.31 52.1394 37.9184 53.5392 37.9184C54.1149 37.9184 54.5809 37.4524 54.5809 36.8767V33.7517C54.5809 31.4537 52.7122 29.585 50.4142 29.585H29.5808C27.2828 29.585 25.4141 31.4536 25.4141 33.7517V36.8767C25.4141 37.4524 25.88 37.9184 26.4558 37.9184C27.8515 37.9184 28.4862 38.31 29.2908 38.8054C30.2013 39.3659 31.2327 40.0017 33.2194 40.0017C35.2051 40.0017 36.2376 39.3659 37.148 38.8054C37.7208 38.4527 38.2188 38.1598 38.9557 38.0161V54.585H34.789C34.2132 54.585 33.7473 55.0509 33.7473 55.6267C33.7473 56.2024 34.2132 56.6684 34.789 56.6684H45.2057C45.7814 56.6684 46.2474 56.2024 46.2474 55.6267C46.2474 55.0509 45.7814 54.585 45.2057 54.585H41.039V38.0219C41.7645 38.1673 42.2605 38.4565 42.8285 38.8054Z" fill="white"/>
</g>
<defs>
<clipPath id="clip0_14700_48973">
<rect width="50" height="50" fill="white" transform="translate(15 15)"/>
</clipPath>
</defs>
</svg>
