<svg width="80" height="80" viewBox="0 0 80 80" fill="none" xmlns="http://www.w3.org/2000/svg">
<path d="M0 18C0 8.05888 8.05887 0 18 0H62C71.9411 0 80 8.05887 80 18V62C80 71.9411 71.9411 80 62 80H18C8.05888 80 0 71.9411 0 62V18Z" fill="#F5775B"/>
<g clip-path="url(#clip0_14700_49023)">
<path d="M60.7109 50.8281H40.9453C40.2334 50.8281 39.6562 51.4053 39.6562 52.1172V55.9844C39.6562 59.3067 42.3495 62 45.6719 62H55.9844C59.3067 62 62 59.3067 62 55.9844V52.1172C62 51.4053 61.4228 50.8281 60.7109 50.8281Z" fill="white"/>
<path d="M41.375 48.25H49.9688C49.9688 45.8769 48.045 43.9531 45.6719 43.9531C43.2988 43.9531 41.375 45.8769 41.375 48.25Z" fill="white"/>
<path d="M37.0781 52.1172C37.0781 50.7792 37.7612 49.5978 38.7969 48.9032V48.25C38.7969 44.4591 41.881 41.375 45.6719 41.375C46.5831 41.375 47.4534 41.5532 48.25 41.8766V24.6172C48.25 23.9053 47.6728 23.3281 46.9609 23.3281H43.0938V26.3359C43.0938 28.4683 39.3824 27.1667 37.25 27.1667C36.5381 27.1667 37.9375 29.626 37.9375 28.9141C37.9375 28.2022 41.1214 32.6667 41.8333 32.6667C42.5441 32.6667 45.0273 24.0389 45.0273 23.3281H40.5156H37.9375V21.8672C37.9375 21.1564 38.5158 20.5781 39.2266 20.5781C39.9374 20.5781 40.5156 21.1564 40.5156 21.8672V23.3281H43.0938V21.8672C43.0938 19.7348 41.3589 18 39.2266 18C37.0942 18 35.3594 19.7348 35.3594 21.8672V23.3281H30.8906V26.3359C30.8906 28.4683 29.1558 30.2031 27.0234 30.2031C26.3115 30.2031 25.7344 29.626 25.7344 28.9141C25.7344 28.2022 25.5381 33.125 26.25 33.125C30.8333 32.2083 33.125 24.0389 33.125 23.3281H28.3125H25.7344V21.8672C25.7344 21.1564 26.3126 20.5781 27.0234 20.5781C27.7342 20.5781 28.3125 21.1564 28.3125 21.8672V23.3281H30.8906V21.8672C30.8906 19.7348 29.1558 18 27.0234 18C24.8911 18 23.1562 19.7348 23.1562 21.8672V23.3281H19.2891C18.5772 23.3281 18 23.9053 18 24.6172V60.7109C18 61.4228 18.5772 62 19.2891 62H39.5404C38.0182 60.4487 37.0781 58.3243 37.0781 55.9844V52.1172ZM23.1562 52.8333C22.4443 52.8333 22.2969 56.2666 22.2969 55.5547C22.2969 54.8428 22.874 54.2656 23.5859 54.2656C24.2978 54.2656 22.2969 56.8438 24.875 55.5547C24.875 56.2666 23.8682 52.8333 23.1562 52.8333ZM23.5859 51.6875C22.874 51.6875 22.2969 51.1103 22.2969 50.3984C22.2969 49.6865 22.874 49.1094 23.5859 49.1094C24.2978 49.1094 24.875 49.6865 24.875 50.3984C24.875 51.1103 24.2978 51.6875 23.5859 51.6875ZM23.5859 46.5312C22.874 46.5312 22.2969 45.9541 22.2969 45.2422C22.2969 44.5303 22.874 43.9531 23.5859 43.9531C24.2978 43.9531 24.875 44.5303 24.875 45.2422C24.875 45.9541 24.2978 46.5312 23.5859 46.5312ZM23.5859 41.375C22.874 41.375 22.2969 40.7978 22.2969 40.0859C22.2969 39.374 22.874 38.7969 23.5859 38.7969C24.2978 38.7969 24.875 39.374 24.875 40.0859C24.875 40.7978 24.2978 41.375 23.5859 41.375ZM23.5859 36.2188C22.874 36.2188 22.2969 35.6416 22.2969 34.9297C22.2969 34.2178 22.874 33.6406 23.5859 33.6406C24.2978 33.6406 24.875 34.2178 24.875 34.9297C24.875 35.6416 24.2978 36.2188 23.5859 36.2188ZM28.7422 33.6406H40.9453C41.6572 33.6406 42.2344 34.2178 42.2344 34.9297C42.2344 35.6416 41.6572 36.2188 40.9453 36.2188H28.7422C28.0303 36.2188 27.4531 35.6416 27.4531 34.9297C27.4531 34.2178 28.0303 33.6406 28.7422 33.6406ZM28.7422 38.7969H37.5078C38.2197 38.7969 38.7969 39.374 38.7969 40.0859C38.7969 40.7978 38.2197 41.375 37.5078 41.375H28.7422C28.0303 41.375 27.4531 40.7978 27.4531 40.0859C27.4531 39.374 28.0303 38.7969 28.7422 38.7969ZM35.3594 53.2917L27.0234 52.8333C26.3115 52.8333 27.4531 56.2666 27.4531 55.5547C27.4531 54.8428 28.0303 54.2656 28.7422 54.2656H33.2109C33.9228 54.2656 34.5 54.8428 34.5 55.5547C34.5 56.2666 36.0713 53.2917 35.3594 53.2917ZM33.2109 51.6875H28.7422C28.0303 51.6875 27.4531 51.1103 27.4531 50.3984C27.4531 49.6865 28.0303 49.1094 28.7422 49.1094H33.2109C33.9228 49.1094 34.5 49.6865 34.5 50.3984C34.5 51.1103 33.9228 51.6875 33.2109 51.6875ZM35.7891 46.5312H28.7422C28.0303 46.5312 27.4531 45.9541 27.4531 45.2422C27.4531 44.5303 28.0303 43.9531 28.7422 43.9531H35.7891C36.501 43.9531 37.0781 44.5303 37.0781 45.2422C37.0781 45.9541 36.501 46.5312 35.7891 46.5312Z" fill="white"/>
<path d="M51.9453 36.2188C52.6572 36.2188 53.2344 35.6416 53.2344 34.9297C53.2344 34.2178 52.6572 33.6406 51.9453 33.6406C51.2334 33.6406 50.6562 34.2178 50.6562 34.9297C50.6562 35.6416 51.2334 36.2188 51.9453 36.2188Z" fill="white"/>
<path d="M53.3041 43.8683C55.2251 44.7991 57.6041 44.4672 59.1987 42.8726C60.7932 41.2781 61.1251 38.8991 60.1944 36.978C59.8116 36.188 58.7528 36.0265 58.1321 36.6472L52.9734 41.8059C52.3527 42.4267 52.5142 43.4855 53.3041 43.8683Z" fill="white"/>
</g>
<defs>
<clipPath id="clip0_14700_49023">
<rect width="44" height="44" fill="white" transform="translate(18 18)"/>
</clipPath>
</defs>
</svg>
