<svg width="80" height="80" viewBox="0 0 80 80" fill="none" xmlns="http://www.w3.org/2000/svg">
<rect width="80" height="80" rx="18" fill="#F5775B"/>
<path d="M51.6611 23.3335H44.6886C43.9986 21.3965 42.1676 20 39.9946 20C37.8201 20 35.9906 21.3965 35.3006 23.3335H28.3281V26.6665H35.3006C35.9906 28.6035 37.8201 30 39.9946 30C42.1676 30 43.9986 28.6035 44.6886 26.6665H51.6611V23.3335Z" fill="white"/>
<path d="M39.9946 30C33.5526 30 28.3281 35.2245 28.3281 41.6665V51.6665C28.3281 53.5075 29.8186 55 31.6611 55H33.3281V46.6665C33.3281 42.9895 36.3191 40 39.9946 40C43.6716 40 46.6611 42.9895 46.6611 46.6665V55.0015H48.3281C50.1691 55.0015 51.6611 53.5095 51.6611 51.6685V41.6665C51.6611 35.2245 46.4366 30 39.9946 30Z" fill="white"/>
<path d="M43.3311 46.666C43.3311 44.825 41.8371 43.333 39.9976 43.333C38.1566 43.333 36.6641 44.825 36.6641 46.666V56.666C36.6641 58.507 38.1581 59.9995 39.9976 59.9995C41.8386 59.9995 43.3311 58.507 43.3311 56.666V46.666Z" fill="white"/>
</svg>
