<svg width="80" height="80" viewBox="0 0 80 80" fill="none" xmlns="http://www.w3.org/2000/svg">
<rect width="80" height="80" rx="40" fill="#F8B53C"/>
<path fill-rule="evenodd" clip-rule="evenodd" d="M40.875 26.75V38C40.875 38.621 41.379 39.125 42 39.125H53.25C53.871 39.125 54.375 39.629 54.375 40.25C54.375 48.3275 47.8275 54.875 39.75 54.875C31.6781 54.875 25.125 48.3219 25.125 40.25C25.125 32.1725 31.6725 25.625 39.75 25.625C40.371 25.625 40.875 26.129 40.875 26.75ZM57.75 36.875H46.5C44.6359 36.875 43.125 35.3641 43.125 33.5V22.25C43.125 21.629 43.629 21.125 44.25 21.125C52.3219 21.125 58.875 27.6781 58.875 35.75C58.875 36.371 58.371 36.875 57.75 36.875Z" fill="white"/>
</svg>
