<svg width="80" height="80" viewBox="0 0 80 80" fill="none" xmlns="http://www.w3.org/2000/svg">
<path d="M0 18C0 8.05888 8.05887 0 18 0H62C71.9411 0 80 8.05887 80 18V62C80 71.9411 71.9411 80 62 80H18C8.05888 80 0 71.9411 0 62V18Z" fill="#1E92F7"/>
<path fill-rule="evenodd" clip-rule="evenodd" d="M54.5964 24.9967V56.6634C54.5964 57.1267 54.3397 57.5517 53.9297 57.7684C53.5197 57.9851 53.0247 57.9567 52.6414 57.6951L48.483 54.8567L44.5514 57.6784C44.0797 58.0184 43.4364 57.9867 42.9997 57.6034L40.013 54.9917L37.0264 57.6034C36.5897 57.9867 35.9464 58.0184 35.4747 57.6784L31.543 54.8567L27.3847 57.6951C27.0014 57.9567 26.5064 57.9851 26.0964 57.7684C25.6864 57.5517 25.4297 57.1267 25.4297 56.6634V24.9967C25.4297 23.3867 26.7347 22.0801 28.3464 22.0801H51.6797C53.2914 22.0801 54.5964 23.3867 54.5964 24.9967ZM33.3464 37.9134H46.6797C47.3697 37.9134 47.9297 37.3534 47.9297 36.6634C47.9297 35.9734 47.3697 35.4134 46.6797 35.4134H33.3464C32.6564 35.4134 32.0964 35.9734 32.0964 36.6634C32.0964 37.3534 32.6564 37.9134 33.3464 37.9134ZM33.3464 31.2467H46.6797C47.3697 31.2467 47.9297 30.6867 47.9297 29.9967C47.9297 29.3067 47.3697 28.7467 46.6797 28.7467H33.3464C32.6564 28.7467 32.0964 29.3067 32.0964 29.9967C32.0964 30.6867 32.6564 31.2467 33.3464 31.2467ZM33.3464 44.5801H40.013C40.703 44.5801 41.263 44.0201 41.263 43.3301C41.263 42.6401 40.703 42.0801 40.013 42.0801H33.3464C32.6564 42.0801 32.0964 42.6401 32.0964 43.3301C32.0964 44.0201 32.6564 44.5801 33.3464 44.5801Z" fill="white"/>
</svg>
