<svg width="80" height="80" viewBox="0 0 80 80" fill="none" xmlns="http://www.w3.org/2000/svg">
<path d="M0 18C0 8.05888 8.05887 0 18 0H62C71.9411 0 80 8.05887 80 18V62C80 71.9411 71.9411 80 62 80H18C8.05888 80 0 71.9411 0 62V18Z" fill="#1E92F7"/>
<g clip-path="url(#clip0_14700_49106)">
<path fill-rule="evenodd" clip-rule="evenodd" d="M44.5609 37.8149C42.1464 42.6425 38.5095 49.9149 36.2724 54.3905C35.633 55.6693 35.7018 57.1886 36.4525 58.4041C37.2046 59.621 38.5315 60.3608 39.9615 60.3608H56.5385C57.9685 60.3608 59.2954 59.621 60.0475 58.4041C60.7982 57.1886 60.867 55.6693 60.2276 54.3905L51.9391 37.8149C51.2406 36.4165 49.812 35.5338 48.25 35.5338C46.688 35.5338 45.2594 36.4165 44.5609 37.8149ZM33.8524 59.3886C33.5471 58.7974 33.3326 58.1718 33.2103 57.5324C31.9398 55.034 30.9305 51.7354 30.3241 47.9473H21.0938C23.4725 53.3854 28.1282 57.6025 33.8524 59.3886ZM48.25 53.4473C49.009 53.4473 49.625 54.0633 49.625 54.8223C49.625 55.5813 49.009 56.1973 48.25 56.1973C47.491 56.1973 46.875 55.5813 46.875 54.8223C46.875 54.0633 47.491 53.4473 48.25 53.4473ZM36.4195 47.9473L34.1549 52.4751C33.7327 51.0891 33.378 49.5698 33.103 47.9473H36.4195ZM46.875 43.8223V50.6973C46.875 51.4563 47.491 52.0723 48.25 52.0723C49.009 52.0723 49.625 51.4563 49.625 50.6973V43.8223C49.625 43.0633 49.009 42.4473 48.25 42.4473C47.491 42.4473 46.875 43.0633 46.875 43.8223ZM20.1175 34.1973C19.6335 35.949 19.375 37.7929 19.375 39.6973C19.375 41.6016 19.6335 43.4455 20.1175 45.1973H29.9639C29.7837 43.4359 29.6875 41.5934 29.6875 39.6973C29.6875 37.8011 29.7837 35.9586 29.9639 34.1973H20.1175ZM52.4259 34.1973C53.2412 34.8215 53.9219 35.6314 54.399 36.5843L58.7055 45.1973H59.8825C60.3665 43.4455 60.625 41.6016 60.625 39.6973C60.625 37.7929 60.3665 35.949 59.8825 34.1973H52.4259ZM44.0741 34.1973C43.2588 34.8215 42.5781 35.6314 42.101 36.5843L37.7945 45.1973H32.7249C32.5365 43.4428 32.4375 41.5989 32.4375 39.6973C32.4375 37.7956 32.5365 35.9518 32.7249 34.1973H44.0741ZM45.5756 19.8368C45.8891 20.2768 46.1916 20.758 46.479 21.2778C47.8966 23.8353 49.02 27.3553 49.6759 31.4473H58.9062C56.4491 25.8304 51.561 21.5156 45.5756 19.8368ZM34.4244 19.8368C28.439 21.5156 23.5509 25.8304 21.0938 31.4473H30.3241C30.98 27.3553 32.1034 23.8353 33.521 21.2778C33.8084 20.758 34.1109 20.2768 34.4244 19.8368ZM46.897 31.4473H33.103C33.7039 27.9066 34.6815 24.8555 35.9259 22.6101C37.1042 20.4844 38.4284 19.0723 40 19.0723C41.5716 19.0723 42.8958 20.4844 44.0741 22.6101C45.3185 24.8555 46.2961 27.9066 46.897 31.4473Z" fill="white"/>
</g>
<defs>
<clipPath id="clip0_14700_49106">
<rect width="44" height="44" fill="white" transform="translate(18 18)"/>
</clipPath>
</defs>
</svg>
