<svg width="80" height="80" viewBox="0 0 80 80" fill="none" xmlns="http://www.w3.org/2000/svg">
<rect width="80" height="80" rx="18" fill="#1E92F7"/>
<g clip-path="url(#clip0_14700_49011)">
<path d="M60.1615 32.6667C59.1495 32.6667 58.3281 31.8472 58.3281 30.8333V23.5C58.3281 22.488 57.505 21.6667 56.4948 21.6667H49.1615C48.1495 21.6667 47.3281 20.8472 47.3281 19.8333C47.3281 18.8195 48.1495 18 49.1615 18H56.4948C59.5271 18 61.9948 20.4677 61.9948 23.5V30.8333C61.9948 31.8472 61.1735 32.6667 60.1615 32.6667Z" fill="white"/>
<path d="M56.4948 61.9997H49.1615C48.1495 61.9997 47.3281 61.1802 47.3281 60.1663C47.3281 59.1525 48.1495 58.333 49.1615 58.333H56.4948C57.505 58.333 58.3281 57.5117 58.3281 56.4997V49.1663C58.3281 48.1525 59.1495 47.333 60.1615 47.333C61.1735 47.333 61.9948 48.1525 61.9948 49.1663V56.4997C61.9948 59.532 59.5271 61.9997 56.4948 61.9997Z" fill="white"/>
<path d="M30.8333 61.9997H23.5C20.4677 61.9997 18 59.532 18 56.4997V49.1663C18 48.1525 18.8213 47.333 19.8333 47.333C20.8453 47.333 21.6667 48.1525 21.6667 49.1663V56.4997C21.6667 57.5117 22.4898 58.333 23.5 58.333H30.8333C31.8453 58.333 32.6667 59.1525 32.6667 60.1663C32.6667 61.1802 31.8453 61.9997 30.8333 61.9997Z" fill="white"/>
<path d="M19.8333 32.6667C18.8213 32.6667 18 31.8472 18 30.8333V23.5C18 20.4677 20.4677 18 23.5 18H30.8333C31.8453 18 32.6667 18.8195 32.6667 19.8333C32.6667 20.8472 31.8453 21.6667 30.8333 21.6667H23.5C22.4898 21.6667 21.6667 22.488 21.6667 23.5V30.8333C21.6667 31.8472 20.8453 32.6667 19.8333 32.6667Z" fill="white"/>
<path d="M51.0052 38.167C49.9932 38.167 49.1719 37.3475 49.1719 36.3337V30.8337H30.8385V36.3337C30.8385 37.3475 30.0172 38.167 29.0052 38.167C27.9932 38.167 27.1719 37.3475 27.1719 36.3337V30.8337C27.1719 28.8115 28.8164 27.167 30.8385 27.167H49.1719C51.194 27.167 52.8385 28.8115 52.8385 30.8337V36.3337C52.8385 37.3475 52.0172 38.167 51.0052 38.167Z" fill="white"/>
<path d="M56.5 43.6663C56.5 44.6802 55.6787 45.4997 54.6667 45.4997H52.8333V49.1663C52.8333 51.1885 51.1888 52.833 49.1667 52.833H30.8333C28.8112 52.833 27.1667 51.1885 27.1667 49.1663V45.4997H25.3333C24.3213 45.4997 23.5 44.6802 23.5 43.6663C23.5 42.6525 24.3213 41.833 25.3333 41.833H54.6667C55.6787 41.833 56.5 42.6525 56.5 43.6663Z" fill="white"/>
</g>
<defs>
<clipPath id="clip0_14700_49011">
<rect width="44" height="44" fill="white" transform="translate(18 18)"/>
</clipPath>
</defs>
</svg>
