<svg width="82" height="18" viewBox="0 0 82 18" fill="none" xmlns="http://www.w3.org/2000/svg">
<path d="M79.6673 6.94706L74.7595 6.52856L72.8415 2.06006L70.9234 6.53531L66.0156 6.94706L69.7425 10.1398L68.6231 14.8851L72.8415 12.3673L77.0598 14.8851L75.9472 10.1398L79.6673 6.94706ZM72.8415 11.1051V4.82756L74.0087 7.55456L76.9984 7.81106L74.7322 9.75506L75.4148 12.6441L72.8415 11.1051Z" fill="white"/>
<g clip-path="url(#clip0_12298_22117)">
<path d="M8.22428 12.3673L12.4427 14.8851L11.3232 10.1398L15.0501 6.94706L10.1423 6.53531L8.22428 2.06006L6.30622 6.53531L1.39844 6.94706L5.12535 10.1398L4.00591 14.8851L8.22428 12.3673Z" fill="white"/>
</g>
<g clip-path="url(#clip1_12298_22117)">
<path d="M24.6071 12.3673L28.8255 14.8851L27.706 10.1398L31.4329 6.94706L26.5252 6.53531L24.6071 2.06006L22.689 6.53531L17.7812 6.94706L21.5082 10.1398L20.3887 14.8851L24.6071 12.3673Z" fill="white"/>
</g>
<g clip-path="url(#clip2_12298_22117)">
<path d="M40.9899 12.3673L45.2083 14.8851L44.0888 10.1398L47.8157 6.94706L42.908 6.53531L40.9899 2.06006L39.0718 6.53531L34.1641 6.94706L37.891 10.1398L36.7715 14.8851L40.9899 12.3673Z" fill="white"/>
</g>
<g clip-path="url(#clip3_12298_22117)">
<path d="M56.4587 12.3673L60.677 14.8851L59.5576 10.1398L63.2845 6.94706L58.3767 6.53531L56.4587 2.06006L54.5406 6.53531L49.6328 6.94706L53.3597 10.1398L52.2403 14.8851L56.4587 12.3673Z" fill="white"/>
</g>
<defs>
<clipPath id="clip0_12298_22117">
<rect width="16.382" height="16.2" fill="white" transform="translate(0.03125 0.899902)"/>
</clipPath>
<clipPath id="clip1_12298_22117">
<rect width="16.382" height="16.2" fill="white" transform="translate(16.4141 0.899902)"/>
</clipPath>
<clipPath id="clip2_12298_22117">
<rect width="16.382" height="16.2" fill="white" transform="translate(32.7969 0.899902)"/>
</clipPath>
<clipPath id="clip3_12298_22117">
<rect width="16.382" height="16.2" fill="white" transform="translate(48.2656 0.899902)"/>
</clipPath>
</defs>
</svg>
