<svg width="80" height="80" viewBox="0 0 80 80" fill="none" xmlns="http://www.w3.org/2000/svg">
<rect width="80" height="80" rx="18" fill="#CA80E9"/>
<g clip-path="url(#clip0_14700_48985)">
<path d="M58.0968 39.0957V53.5719C58.0968 56.5574 55.6537 59.0005 52.6682 59.0005H27.3348C24.3493 59.0005 21.9062 56.5574 21.9062 53.5719V39.0957H58.0968Z" fill="white"/>
<path d="M58.0968 31.8572V35.4762H21.9062V31.8572C21.9062 28.8716 24.3493 26.4286 27.3348 26.4286H30.9539V22.8095C30.9539 21.8146 31.7681 21 32.7634 21C33.7588 21 34.5729 21.8146 34.5729 22.8095V26.4286H45.4301V22.8095C45.4301 21.8146 46.2443 21 47.2396 21C48.235 21 49.0492 21.8146 49.0492 22.8095V26.4286H52.6682C55.6537 26.4286 58.0968 28.8716 58.0968 31.8572Z" fill="white"/>
</g>
<defs>
<clipPath id="clip0_14700_48985">
<rect width="38" height="38" fill="white" transform="translate(21 21)"/>
</clipPath>
</defs>
</svg>
