<svg width="80" height="80" viewBox="0 0 80 80" fill="none" xmlns="http://www.w3.org/2000/svg">
<rect width="80" height="80" rx="18" fill="#CA80E9"/>
<g clip-path="url(#clip0_14700_49075)">
<path d="M40.0051 26.333C30.432 26.333 22.6719 34.0932 22.6719 43.6662C22.6719 53.2393 30.432 60.9994 40.0051 60.9994C49.5781 60.9994 57.3383 53.2393 57.3383 43.6662C57.3383 34.0932 49.5781 26.333 40.0051 26.333ZM40.0051 45.2505C32.5566 45.2505 40.0051 51.1064 40.0051 43.6662C32.5566 43.6662 40.0051 36.226 40.0051 43.6662C47.4535 43.6662 33.7983 35.2278 36.6619 43.6662C36.6619 51.1064 47.4535 45.2505 40.0051 45.2505Z" fill="white"/>
<path d="M57.8134 21.1249C54.8192 18.5983 50.5372 18.2948 47.2231 20.3702C46.2388 20.9936 45.9434 22.2979 46.5751 23.2823C46.6899 23.4628 46.8376 23.6268 47.0016 23.7663L57.0177 32.2319C58.1087 33.1507 59.7821 32.7569 60.3317 31.4444C61.8165 27.8268 60.7993 23.6514 57.8134 21.1249Z" fill="white"/>
<path d="M33.0141 23.7742C33.9082 23.0277 34.0231 21.6906 33.2684 20.7964C33.1289 20.6324 32.9649 20.4847 32.7844 20.3699C28.5762 17.7285 23.0145 19.0081 20.3731 23.2245C18.8309 25.6937 18.5684 28.7535 19.684 31.4441C20.2254 32.7648 21.9071 33.1585 22.9981 32.2316L33.0141 23.7742Z" fill="white"/>
<path d="M40.8365 42.7196V35.8421C40.8365 35.0096 40.1648 34.3379 39.3323 34.3379C38.4998 34.3379 37.8281 35.0096 37.8281 35.8421V44.2238C37.8281 45.0563 38.4998 45.7279 39.3323 45.7279H49.502C50.3345 45.7279 51.0061 45.0563 51.0061 44.2238C51.0061 43.3913 50.3345 42.7196 49.502 42.7196H40.8365Z" fill="#CA80E9"/>
</g>
<defs>
<clipPath id="clip0_14700_49075">
<rect width="42" height="42" fill="white" transform="translate(19 19)"/>
</clipPath>
</defs>
</svg>
