<svg width="80" height="80" viewBox="0 0 80 80" fill="none" xmlns="http://www.w3.org/2000/svg">
<path d="M0 18C0 8.05888 8.05887 0 18 0H62C71.9411 0 80 8.05887 80 18V62C80 71.9411 71.9411 80 62 80H18C8.05888 80 0 71.9411 0 62V18Z" fill="#CA80E9"/>
<path d="M56.9583 23.5H23.0417C20.2605 23.5 18 25.7605 18 28.5417V51.4583C18 54.2395 20.2605 56.5 23.0417 56.5H56.9583C59.7395 56.5 62 54.2395 62 51.4583V28.5417C62 25.7605 59.7395 23.5 56.9583 23.5ZM31.75 30.8333C34.2763 30.8333 36.3333 32.8903 36.3333 35.4167C36.3333 37.943 34.2763 40 31.75 40C29.2237 40 27.1667 37.943 27.1667 35.4167C27.1667 32.8903 29.2237 30.8333 31.75 30.8333ZM40 47.7917C40 48.5507 39.384 49.1667 38.625 49.1667H24.875C24.116 49.1667 23.5 48.5507 23.5 47.7917V46.875C23.5 44.0938 25.7605 41.8333 28.5417 41.8333H34.9583C37.7395 41.8333 40 44.0938 40 46.875V47.7917ZM55.125 49.1667H45.0417C44.2827 49.1667 43.6667 48.5507 43.6667 47.7917C43.6667 47.0327 44.2827 46.4167 45.0417 46.4167H55.125C55.884 46.4167 56.5 47.0327 56.5 47.7917C56.5 48.5507 55.884 49.1667 55.125 49.1667ZM55.125 41.8333H45.0417C44.2827 41.8333 43.6667 41.2173 43.6667 40.4583C43.6667 39.6993 44.2827 39.0833 45.0417 39.0833H55.125C55.884 39.0833 56.5 39.6993 56.5 40.4583C56.5 41.2173 55.884 41.8333 55.125 41.8333ZM55.125 34.5H45.0417C44.2827 34.5 43.6667 33.884 43.6667 33.125C43.6667 32.366 44.2827 31.75 45.0417 31.75H55.125C55.884 31.75 56.5 32.366 56.5 33.125C56.5 33.884 55.884 34.5 55.125 34.5Z" fill="white"/>
</svg>
