<svg width="57" height="54" viewBox="0 0 57 54" fill="none" xmlns="http://www.w3.org/2000/svg">
<path d="M1.66722 33.0432C9.33623 31.4355 15.3305 25.4412 16.9379 17.7721C17.1354 16.8307 17.9657 16.1562 18.9279 16.1562C19.8901 16.1562 20.7205 16.8307 20.9178 17.7722C22.5254 25.4412 28.5196 31.4353 36.1886 33.0428C37.1302 33.2401 37.8047 34.0706 37.8047 35.0327C37.8047 35.9947 37.1303 36.8252 36.1886 37.0225C28.5197 38.6302 22.5257 44.6243 20.9182 52.2933C20.7208 53.2349 19.8905 53.9094 18.9283 53.9094C17.9662 53.9094 17.1357 53.235 16.9384 52.2933C15.3307 44.6243 9.33636 38.6302 1.66734 37.0229C0.725784 36.8256 0.0512466 35.9952 0.0512466 35.033C0.0513687 34.071 0.725784 33.2405 1.66722 33.0432Z" fill="white"/>
<path d="M38.4545 9.09977C42.2891 8.29592 45.2862 5.29878 46.09 1.46418C46.1887 0.99346 46.6039 0.65625 47.085 0.65625C47.5661 0.65625 47.9812 0.99346 48.0799 1.46424C48.8837 5.29878 51.8808 8.29586 55.7154 9.09959C56.1862 9.19826 56.5234 9.6135 56.5234 10.0945C56.5234 10.5756 56.1862 10.9908 55.7154 11.0895C51.8809 11.8933 48.8839 14.8904 48.0801 18.725C47.9814 19.1957 47.5663 19.533 47.0851 19.533C46.6041 19.533 46.1889 19.1958 46.0902 18.725C45.2863 14.8904 42.2891 11.8933 38.4546 11.0897C37.9838 10.991 37.6466 10.5758 37.6466 10.0947C37.6466 9.61368 37.9838 9.19844 38.4545 9.09977Z" fill="white"/>
</svg>
