<svg width="36" height="34" viewBox="0 0 36 34" fill="none" xmlns="http://www.w3.org/2000/svg">
<path d="M34.9375 20.8824C30.1443 19.8776 26.398 16.1312 25.3933 11.338C25.2699 10.7496 24.7509 10.3281 24.1496 10.3281C23.5482 10.3281 23.0292 10.7496 22.9059 11.3381C21.9011 16.1312 18.1548 19.8776 13.3616 20.8822C12.7731 21.0055 12.3516 21.5246 12.3516 22.1259C12.3516 22.7272 12.7731 23.2462 13.3616 23.3696C18.1547 24.3744 21.9009 28.1207 22.9056 32.9138C23.029 33.5023 23.5479 33.9239 24.1493 33.9239C24.7506 33.9239 25.2697 33.5024 25.393 32.9138C26.3978 28.1207 30.1443 24.3744 34.9374 23.3698C35.5259 23.2465 35.9475 22.7275 35.9475 22.1261C35.9474 21.5248 35.5259 21.0058 34.9375 20.8824Z" fill="white"/>
<path d="M11.9493 5.91978C9.55272 5.41737 7.67951 3.54416 7.17718 1.14754C7.11547 0.853334 6.85598 0.642578 6.55529 0.642578C6.25461 0.642578 5.99512 0.853334 5.93345 1.14757C5.43108 3.54416 3.55787 5.41733 1.16128 5.91967C0.867045 5.98133 0.65625 6.24086 0.65625 6.54151C0.65625 6.84216 0.867006 7.10168 1.16128 7.16335C3.55783 7.66576 5.43097 9.53893 5.93334 11.9355C5.995 12.2298 6.25449 12.4406 6.55518 12.4406C6.85583 12.4406 7.11535 12.2298 7.17702 11.9355C7.67943 9.53893 9.55268 7.66576 11.9493 7.16347C12.2435 7.1018 12.4543 6.84231 12.4543 6.54162C12.4543 6.24097 12.2435 5.98145 11.9493 5.91978Z" fill="white"/>
</svg>
