<svg width="36" height="36" viewBox="0 0 36 36" fill="none" xmlns="http://www.w3.org/2000/svg">
<g clip-path="url(#clip0_12298_19911)">
<path fill-rule="evenodd" clip-rule="evenodd" d="M12.1171 22.4815C18.6971 22.4815 24.0117 17.1458 24.0117 10.5869C24.0117 17.1458 29.3474 22.4815 35.9062 22.4815C29.3474 22.4815 24.0117 27.7961 24.0117 34.3549C24.0117 27.7961 18.6971 22.4815 12.1171 22.4815Z" fill="#FFD93B"/>
<path fill-rule="evenodd" clip-rule="evenodd" d="M0.013484 28.6181C3.61981 28.6181 6.53018 25.6867 6.53018 22.1014C6.53018 25.6867 9.46164 28.6181 13.0469 28.6181C9.46164 28.6181 6.53018 31.5285 6.53018 35.1348C6.53018 31.5285 3.61981 28.6181 0.013484 28.6181Z" fill="#FFB030"/>
<path fill-rule="evenodd" clip-rule="evenodd" d="M3.7656 8.79396C8.15224 8.79396 11.6953 5.2509 11.6953 0.864258C11.6953 5.2509 15.2384 8.79396 19.625 8.79396C15.2384 8.79396 11.6953 12.337 11.6953 16.7237C11.6953 12.337 8.15224 8.79396 3.7656 8.79396Z" fill="#FFB030"/>
</g>
<defs>
<clipPath id="clip0_12298_19911">
<rect width="36" height="36" fill="white" transform="matrix(-1 0 0 1 36 0)"/>
</clipPath>
</defs>
</svg>
