<svg width="80" height="80" viewBox="0 0 80 80" fill="none" xmlns="http://www.w3.org/2000/svg">
<rect width="80" height="80" rx="40" fill="#F8B53C"/>
<g clip-path="url(#clip0_12737_38004)">
<path d="M57.8875 28.5489C57.7717 28.6652 57.634 28.7575 57.4824 28.8204C57.3308 28.8834 57.1683 28.9158 57.0042 28.9158C56.84 28.9158 56.6775 28.8834 56.5259 28.8204C56.3743 28.7575 56.2367 28.6652 56.1208 28.5489L54.9208 27.3505V32.6655C54.9208 32.9971 54.7891 33.315 54.5547 33.5494C54.3203 33.7838 54.0024 33.9155 53.6708 33.9155C53.3393 33.9155 53.0214 33.7838 52.787 33.5494C52.5525 33.315 52.4208 32.9971 52.4208 32.6655V27.3505L51.2208 28.5489C50.9839 28.7697 50.6705 28.8899 50.3466 28.8842C50.0228 28.8784 49.7138 28.7473 49.4848 28.5182C49.2558 28.2892 49.1246 27.9802 49.1189 27.6564C49.1132 27.3326 49.2334 27.0192 49.4542 26.7822L52.7875 23.4489C53.0221 23.2152 53.3397 23.084 53.6708 23.084C54.002 23.084 54.3196 23.2152 54.5542 23.4489L57.8875 26.7822C58.0036 26.8981 58.0957 27.0358 58.1586 27.1874C58.2214 27.339 58.2538 27.5014 58.2538 27.6655C58.2538 27.8296 58.2214 27.9921 58.1586 28.1437C58.0957 28.2952 58.0036 28.4329 57.8875 28.5489ZM57.0042 40.9989C57.0051 43.2281 56.5588 45.4349 55.6916 47.4886C54.8245 49.5423 53.5542 51.4011 51.9559 52.9551C50.3576 54.5092 48.4638 55.7267 46.3865 56.5358C44.3093 57.3449 42.0908 57.7291 39.8625 57.6655C35.6202 57.5028 31.5957 55.7446 28.5937 52.7427C25.5917 49.7407 23.8336 45.7162 23.6708 41.4739C23.6073 39.2455 23.9914 37.0271 24.8005 34.9498C25.6096 32.8726 26.8272 30.9788 28.3812 29.3805C29.9352 27.7822 31.7941 26.5119 33.8478 25.6447C35.9015 24.7776 38.1083 24.3313 40.3375 24.3322C42.4793 24.3244 44.6015 24.7396 46.5825 25.5539C46.6451 25.5815 46.7015 25.6214 46.7483 25.6714C46.7951 25.7213 46.8314 25.7802 46.8549 25.8445C46.8784 25.9087 46.8887 25.9771 46.8851 26.0454C46.8815 26.1138 46.8642 26.1807 46.8342 26.2422C46.345 27.3232 46.1192 28.5048 46.1755 29.69C46.2318 30.8752 46.5684 32.0302 47.1578 33.06C47.7472 34.0898 48.5726 34.965 49.566 35.6138C50.5594 36.2627 51.6926 36.6665 52.8725 36.7922C53.8699 36.8959 54.8779 36.8025 55.8392 36.5172C55.9029 36.4959 55.9703 36.4876 56.0373 36.493C56.1044 36.4983 56.1696 36.5171 56.2292 36.5482C56.2888 36.5793 56.3415 36.6221 56.3842 36.6741C56.4268 36.726 56.4586 36.786 56.4775 36.8505C56.8288 38.2053 57.0058 39.5993 57.0042 40.9989ZM45.2908 44.3605C45.2907 43.3858 44.965 42.4389 44.3653 41.6705C43.7656 40.902 42.9264 40.3559 41.9808 40.1189L39.3008 39.4522C38.8916 39.3498 38.5292 39.1119 38.2725 38.7772C38.018 38.4513 37.8812 38.049 37.8842 37.6355C37.8851 37.14 38.0824 36.665 38.433 36.3148C38.7835 35.9646 39.2586 35.7676 39.7542 35.7672H40.9208C41.3815 35.768 41.8257 35.9384 42.1687 36.2458C42.5118 36.5532 42.7297 36.9761 42.7808 37.4339C42.7945 37.6006 42.8415 37.7629 42.919 37.9111C42.9965 38.0594 43.1031 38.1906 43.2322 38.2969C43.3614 38.4032 43.5106 38.4825 43.671 38.5302C43.8313 38.5778 43.9996 38.5927 44.1659 38.5741C44.3322 38.5554 44.493 38.5036 44.6388 38.4217C44.7847 38.3397 44.9126 38.2294 45.0151 38.0971C45.1175 37.9648 45.1923 37.8133 45.2351 37.6516C45.2779 37.4898 45.2878 37.3212 45.2642 37.1555C45.157 36.1956 44.7343 35.2984 44.0622 34.6046C43.3902 33.9109 42.5069 33.4598 41.5508 33.3222V32.6655C41.5508 32.334 41.4191 32.0161 41.1847 31.7816C40.9503 31.5472 40.6324 31.4155 40.3008 31.4155C39.9693 31.4155 39.6514 31.5472 39.417 31.7816C39.1825 32.0161 39.0508 32.334 39.0508 32.6655V33.3322C38.0594 33.4935 37.1539 33.9919 36.4874 34.7434C35.8208 35.4948 35.4339 36.4532 35.392 37.4568C35.35 38.4604 35.6557 39.4478 36.2573 40.2522C36.8589 41.0566 44.7794 39.5056 45.7539 39.749L49.1189 40.1189C54.9025 40.1189 42.203 42.9194 42.4609 43.2957C47.8372 45.7545 42.8305 44.1295 42.7748 44.5823C42.7191 45.0351 42.5 45.4519 42.1586 45.7545C41.8172 46.0571 41.377 46.2246 40.9208 46.2255H39.7542C39.2935 46.2247 38.8493 46.0543 38.5063 45.7469C38.1632 45.4396 37.9453 45.0166 37.8942 44.5589C37.8805 44.3921 37.8335 44.2298 37.756 44.0816C37.6785 43.9333 37.572 43.8022 37.4428 43.6958C37.3136 43.5895 37.1644 43.5102 37.0041 43.4626C36.8437 43.415 36.6754 43.4 36.5091 43.4187C36.3429 43.4373 36.182 43.4891 36.0362 43.5711C35.8903 43.653 35.7624 43.7634 35.66 43.8956C35.5575 44.0279 35.4827 44.1794 35.4399 44.3412C35.3971 44.5029 35.3872 44.6716 35.4108 44.8372C35.5158 45.7854 35.9286 46.6731 36.586 47.3645C37.2433 48.0559 38.1091 48.5129 39.0508 48.6655V49.3322C39.0508 49.6637 39.1825 49.9817 39.417 50.2161C39.6514 50.4505 39.9693 50.5822 40.3008 50.5822C40.6324 50.5822 40.9503 50.4505 41.1847 50.2161C41.4191 49.9817 41.5508 49.6637 41.5508 49.3322V48.6655C42.589 48.5192 43.5393 48.0026 44.2266 47.2108C44.9139 46.4191 45.2919 45.4056 45.2908 44.3572V44.3605Z" fill="white"/>
<path d="M47.8346 35.1667L43.2513 28.5L36.5846 29.75L33.668 33.5V40.1667V48.9167L36.5846 51.8333L45.3346 50.5833L48.668 46.4167L47.8346 35.1667Z" fill="white"/>
<path d="M47.4967 38.4291V39.7196H34.3281V38.4291H47.4967ZM47.4967 41.0183V42.3088H34.3281V41.0183H47.4967ZM45.7086 34.333V46.4548H43.6197L38.1634 37.7714V46.4548H36.0661V34.333H38.1634L43.6364 43.0331V34.333H45.7086Z" fill="#F8B53C"/>
</g>
<rect width="80" height="80" rx="40" fill="#F8B53C"/>
<path d="M40.168 22.667C30.5012 22.667 22.668 30.5004 22.668 40.167C22.668 49.8336 30.5012 57.667 40.168 57.667C40.5847 57.667 40.993 57.6503 41.4013 57.617C40.0507 55.6754 39.3292 53.3656 39.3347 51.0004C39.3352 47.9063 40.5646 44.9392 42.7524 42.7514C44.9402 40.5636 47.9073 39.3343 51.0013 39.3337C53.3665 39.3283 55.6763 40.0497 57.618 41.4004C57.6513 40.992 57.668 40.5837 57.668 40.167C57.668 30.5004 49.8348 22.667 40.168 22.667ZM41.8347 40.167C41.8347 40.609 41.6591 41.033 41.3465 41.3455C41.0339 41.6581 40.61 41.8337 40.168 41.8337H32.668C32.2279 41.8307 31.8069 41.6538 31.4968 41.3415C31.1867 41.0293 31.0127 40.6071 31.0127 40.167C31.0127 39.727 31.1867 39.3048 31.4968 38.9925C31.8069 38.6803 32.2279 38.5034 32.668 38.5004H38.5013V29.3337C38.4998 29.1139 38.5418 28.8959 38.6249 28.6924C38.708 28.4889 38.8305 28.3038 38.9854 28.1478C39.1403 27.9918 39.3246 27.868 39.5275 27.7835C39.7305 27.6991 39.9482 27.6556 40.168 27.6556C40.3878 27.6556 40.6055 27.6991 40.8085 27.7835C41.0114 27.868 41.1957 27.9918 41.3506 28.1478C41.5055 28.3038 41.628 28.4889 41.7111 28.6924C41.7942 28.8959 41.8362 29.1139 41.8347 29.3337V40.167Z" fill="white"/>
<path d="M51.0013 42.667C49.3531 42.667 47.742 43.1557 46.3716 44.0714C45.0012 44.9871 43.933 46.2886 43.3023 47.8113C42.6716 49.334 42.5066 51.0096 42.8281 52.6261C43.1496 54.2426 43.9433 55.7275 45.1088 56.8929C46.2742 58.0584 47.7591 58.852 49.3756 59.1736C50.9921 59.4951 52.6676 59.3301 54.1904 58.6994C55.7131 58.0686 57.0146 57.0005 57.9303 55.6301C58.8459 54.2597 59.3347 52.6485 59.3347 51.0004C59.3347 49.906 59.1192 48.8224 58.7004 47.8113C58.2816 46.8002 57.6678 45.8816 56.8939 45.1078C56.1201 44.3339 55.2014 43.7201 54.1904 43.3013C53.1793 42.8825 52.0957 42.667 51.0013 42.667ZM51.0013 56.8337C50.6717 56.8337 50.3494 56.736 50.0753 56.5529C49.8012 56.3697 49.5876 56.1094 49.4614 55.8049C49.3353 55.5003 49.3022 55.1652 49.3666 54.8419C49.4309 54.5186 49.5896 54.2216 49.8227 53.9885C50.0558 53.7554 50.3528 53.5966 50.6761 53.5323C50.9994 53.468 51.3345 53.501 51.6391 53.6271C51.9436 53.7533 52.2039 53.9669 52.3871 54.241C52.5702 54.5151 52.668 54.8373 52.668 55.167C52.668 55.609 52.4924 56.0329 52.1798 56.3455C51.8673 56.6581 51.4434 56.8337 51.0013 56.8337ZM52.668 51.0004C52.668 51.4424 52.4924 51.8663 52.1798 52.1788C51.8673 52.4914 51.4434 52.667 51.0013 52.667C50.5593 52.667 50.1354 52.4914 49.8228 52.1788C49.5103 51.8663 49.3347 51.4424 49.3347 51.0004V46.8337C49.3347 46.3917 49.5103 45.9678 49.8228 45.6552C50.1354 45.3427 50.5593 45.1671 51.0013 45.1671C51.4434 45.1671 51.8673 45.3427 52.1798 45.6552C52.4924 45.9678 52.668 46.3917 52.668 46.8337V51.0004Z" fill="white"/>
<ellipse cx="51.418" cy="50.9997" rx="6.25" ry="6.66667" fill="white"/>
<path d="M54.9961 49.5412V50.3251H46.9961V49.5412H54.9961ZM54.9961 51.1141V51.8981H46.9961V51.1141H54.9961ZM53.9098 47.0527V54.4168H52.6408L49.326 49.1416V54.4168H48.0519V47.0527H49.326L52.6509 52.3381V47.0527H53.9098Z" fill="#F8B53C"/>
<defs>
<clipPath id="clip0_12737_38004">
<rect width="40" height="40" fill="white" transform="translate(22 21)"/>
</clipPath>
</defs>
</svg>
