<svg width="114" height="114" viewBox="0 0 114 114" fill="none" xmlns="http://www.w3.org/2000/svg">
<circle cx="57" cy="57" r="57" fill="#8E1B3E"/>
<path d="M47.9688 66.9961L55.5469 73.0117L52.1094 76L44.6484 70.0234L47.9688 66.9961ZM55.6836 56.0586V57.5234C55.6836 59.6719 55.3971 61.6055 54.8242 63.3242C54.2513 65.0299 53.431 66.4818 52.3633 67.6797C51.3086 68.8776 50.0521 69.7956 48.5938 70.4336C47.1354 71.0716 45.5208 71.3906 43.75 71.3906C41.9922 71.3906 40.3776 71.0716 38.9062 70.4336C37.4479 69.7956 36.1849 68.8776 35.1172 67.6797C34.0495 66.4818 33.2227 65.0299 32.6367 63.3242C32.0508 61.6055 31.7578 59.6719 31.7578 57.5234V56.0586C31.7578 53.8971 32.0443 51.9635 32.6172 50.2578C33.2031 48.5521 34.0234 47.1003 35.0781 45.9023C36.1458 44.6914 37.4089 43.7669 38.8672 43.1289C40.3385 42.4909 41.9531 42.1719 43.7109 42.1719C45.4818 42.1719 47.0964 42.4909 48.5547 43.1289C50.026 43.7669 51.2891 44.6914 52.3438 45.9023C53.4115 47.1003 54.2318 48.5521 54.8047 50.2578C55.3906 51.9635 55.6836 53.8971 55.6836 56.0586ZM50.2539 57.5234V56.0195C50.2539 54.4701 50.1107 53.1094 49.8242 51.9375C49.5378 50.7526 49.1081 49.7565 48.5352 48.9492C47.9753 48.1419 47.2917 47.5365 46.4844 47.1328C45.6771 46.7161 44.7526 46.5078 43.7109 46.5078C42.6823 46.5078 41.7643 46.7161 40.957 47.1328C40.1497 47.5365 39.4661 48.1419 38.9062 48.9492C38.3464 49.7565 37.9167 50.7526 37.6172 51.9375C37.3307 53.1094 37.1875 54.4701 37.1875 56.0195V57.5234C37.1875 59.0599 37.3307 60.4206 37.6172 61.6055C37.9167 62.7904 38.3464 63.793 38.9062 64.6133C39.4792 65.4206 40.1693 66.0326 40.9766 66.4492C41.7969 66.8659 42.7214 67.0742 43.75 67.0742C44.7917 67.0742 45.7161 66.8659 46.5234 66.4492C47.3307 66.0326 48.0078 65.4206 48.5547 64.6133C49.1146 63.793 49.5378 62.7904 49.8242 61.6055C50.1107 60.4206 50.2539 59.0599 50.2539 57.5234ZM60.293 42.5625H70.625C72.7865 42.5625 74.6419 42.888 76.1914 43.5391C77.7409 44.1901 78.9323 45.1536 79.7656 46.4297C80.599 47.7057 81.0156 49.2747 81.0156 51.1367C81.0156 52.6081 80.7552 53.8841 80.2344 54.9648C79.7135 56.0456 78.9779 56.9505 78.0273 57.6797C77.0898 58.4089 75.9831 58.9818 74.707 59.3984L73.0273 60.2578H63.9062L63.8672 56.0195H70.6836C71.7904 56.0195 72.7083 55.8242 73.4375 55.4336C74.1667 55.043 74.7135 54.5026 75.0781 53.8125C75.4557 53.1224 75.6445 52.3346 75.6445 51.4492C75.6445 50.4987 75.4622 49.6784 75.0977 48.9883C74.7331 48.2852 74.1797 47.7448 73.4375 47.3672C72.6953 46.9896 71.7578 46.8008 70.625 46.8008H65.6641V71H60.293V42.5625ZM76.3477 71L69.7656 58.2656L75.4492 58.2461L82.1094 70.7266V71H76.3477Z" fill="white"/>
</svg>
