<svg width="40" height="40" viewBox="0 0 40 40" fill="none" xmlns="http://www.w3.org/2000/svg">
<circle cx="20" cy="20" r="20" fill="white"/>
<g clip-path="url(#clip0_17490_154956)">
<path d="M29.6544 15.2722C29.4095 14.2086 28.5396 13.4239 27.4922 13.3068C25.0121 13.03 22.5019 13.0285 20.0032 13.03C17.5041 13.0285 14.9934 13.03 12.5133 13.3068C11.4666 13.4239 10.5973 14.2086 10.3524 15.2722C10.0039 16.787 10 18.4404 10 20C10 21.5595 10 23.2128 10.3485 24.7273C10.5929 25.7907 11.4625 26.5755 12.5098 26.6927C14.9897 26.9698 17.5002 26.9712 19.9993 26.9698C22.4988 26.9712 25.0086 26.9698 27.4883 26.6927C28.535 26.5757 29.4052 25.7909 29.6501 24.7273C29.9988 23.2126 30 21.5593 30 20C30 18.4404 30.0029 16.787 29.6544 15.2722ZM17.419 23.1042C17.419 20.8918 17.419 18.7026 17.419 16.4901C19.5387 17.596 21.6443 18.6946 23.7773 19.8074C21.6509 20.9102 19.5443 22.0021 17.419 23.1042Z" fill="#1A1A1A"/>
</g>
<defs>
<clipPath id="clip0_17490_154956">
<rect width="20" height="20" fill="white" transform="translate(10 10)"/>
</clipPath>
</defs>
</svg>
