<svg width="16" height="15" viewBox="0 0 16 15" fill="none" xmlns="http://www.w3.org/2000/svg">
<path d="M0.595762 5.79862C2.61555 6.22204 4.19425 7.80074 4.6176 9.82056C4.6696 10.0685 4.88829 10.2461 5.14171 10.2461C5.39512 10.2461 5.61381 10.0685 5.66578 9.82053C6.08917 7.80074 7.66786 6.22207 9.68765 5.79872C9.93563 5.74675 10.1133 5.52803 10.1133 5.27465C10.1133 5.02127 9.93566 4.80255 9.68765 4.75057C7.6679 4.32716 6.08926 2.74849 5.66588 0.728703C5.61391 0.480725 5.39522 0.303073 5.1418 0.303073C4.88842 0.303073 4.6697 0.480693 4.61773 0.728703C4.19431 2.74849 2.61558 4.32716 0.595796 4.75048C0.347817 4.80245 0.170164 5.02114 0.170164 5.27455C0.170197 5.52793 0.347816 5.74665 0.595762 5.79862Z" fill="#FFD93B"/>
<path d="M10.2842 12.1037C11.2941 12.3154 12.0834 13.1048 12.2951 14.1147C12.3211 14.2386 12.4305 14.3275 12.5572 14.3275C12.6839 14.3275 12.7932 14.2386 12.8192 14.1147C13.0309 13.1048 13.8202 12.3154 14.8302 12.1037C14.9541 12.0777 15.043 11.9684 15.043 11.8417C15.043 11.715 14.9542 11.6056 14.8302 11.5797C13.8203 11.3679 13.0309 10.5786 12.8192 9.5687C12.7933 9.44471 12.6839 9.35588 12.5572 9.35588C12.4305 9.35588 12.3212 9.4447 12.2952 9.5687C12.0835 10.5786 11.2941 11.3679 10.2842 11.5796C10.1602 11.6056 10.0714 11.7149 10.0714 11.8416C10.0714 11.9683 10.1602 12.0777 10.2842 12.1037Z" fill="#FFB030"/>
</svg>
