<svg width="25" height="23" viewBox="0 0 25 23" fill="none" xmlns="http://www.w3.org/2000/svg">
<path d="M23.4351 8.88757C20.2034 9.56504 17.6775 12.091 17.0001 15.3227C16.9169 15.7194 16.567 16.0036 16.1616 16.0036C15.7561 16.0036 15.4062 15.7194 15.323 15.3226C14.6456 12.091 12.1197 9.56509 8.88804 8.88773C8.49128 8.80457 8.20703 8.45462 8.20703 8.04921C8.20703 7.6438 8.49122 7.29384 8.88804 7.21069C12.1196 6.53322 14.6455 4.00736 15.3229 0.775698C15.406 0.378933 15.7559 0.0946881 16.1614 0.0946882C16.5668 0.0946882 16.9168 0.378881 16.9999 0.775698C17.6774 4.00736 20.2034 6.53322 23.435 7.21053C23.8318 7.29369 24.116 7.64359 24.116 8.04905C24.116 8.45446 23.8318 8.80442 23.4351 8.88757Z" fill="#FFD93B"/>
<path d="M7.93439 18.9772C6.31855 19.3159 5.05558 20.5789 4.7169 22.1948C4.67529 22.3931 4.50034 22.5352 4.29761 22.5352C4.09487 22.5352 3.91992 22.3931 3.87834 22.1947C3.53963 20.5789 2.27666 19.3159 0.660821 18.9773C0.462436 18.9357 0.320313 18.7607 0.320313 18.558C0.320313 18.3553 0.46241 18.1803 0.660821 18.1387C2.27664 17.8 3.53956 16.5371 3.87827 14.9212C3.91984 14.7228 4.0948 14.5807 4.29753 14.5807C4.50024 14.5807 4.67521 14.7228 4.71679 14.9212C5.05553 16.5371 6.31852 17.8 7.93437 18.1387C8.13275 18.1802 8.27488 18.3552 8.27488 18.5579C8.27485 18.7606 8.13275 18.9356 7.93439 18.9772Z" fill="#FFB030"/>
</svg>
