<svg width="17" height="17" viewBox="0 0 17 17" fill="none" xmlns="http://www.w3.org/2000/svg">
<path d="M14.6419 8.22304C16.1198 9.25675 16.9972 10.943 16.9972 12.7445C16.9972 13.5534 16.7669 14.3458 16.331 15.0285C15.9416 15.6427 15.4069 16.1363 14.79 16.4736C14.173 16.8136 13.4711 17 12.7417 17H11.5134V15.3548H12.0617V13.7097H11.5134V12.0645H11.7876V10.4193H8.22302H7.67464V8.77417H4.97656C5.18221 8.57401 5.40431 8.3903 5.64286 8.22304L8.77141 6.03223H11.5134L14.6419 8.22304Z" fill="#89512B"/>
<path d="M12.7804 8.01109C12.2241 7.56991 11.6499 7.16904 11.2282 6.88662L12.5271 6.74239L11.5134 6.03223H8.77141L5.64286 8.22304C5.40431 8.3903 5.18221 8.57401 4.97656 8.77417H6.49039L7.71357 7.98668C8.52162 7.46654 9.43085 7.12818 10.3798 6.98807C10.6475 7.15752 11.5794 7.75855 12.4399 8.44075C12.4903 8.48078 12.5501 8.49998 12.6099 8.49998C12.6907 8.49998 12.7708 8.46433 12.8248 8.39606C12.9192 8.27733 12.8991 8.10514 12.7804 8.01109Z" fill="#A06944"/>
<path d="M11.7898 12.0645L11.5156 12.0987V13.7096H12.064V15.3548H11.5156V17H12.744C13.4734 17 14.1753 16.8135 14.7922 16.4735C15.4092 16.1362 15.9439 15.6427 16.3332 15.0285C16.4898 14.7831 16.6189 14.5234 16.7212 14.2542C12.987 16.3696 11.7898 12.0645 11.7898 12.0645Z" fill="#673915"/>
<path d="M8.22656 12.0648H11.5169H11.7911V10.4197H10.9685H8.22656V12.0648Z" fill="#F4971E"/>
<path d="M7.67969 12.0645V13.7096H8.22808H11.5184V12.0645H8.22808H7.67969Z" fill="#FFBE1D"/>
<path d="M8.22656 15.3549H11.5169H12.0653V13.7097H11.5169H8.22656V15.3549Z" fill="#F4971E"/>
<path d="M8.22656 15.3552H11.5169V17.0004H8.22656V15.3552Z" fill="#FFBE1D"/>
<path d="M2.74219 10.4196H3.88119H7.67769V8.77441H3.12195H2.74219V10.4196Z" fill="#F4971E"/>
<path d="M3.28906 12.0648H4.42807H8.22456V10.4197H3.66882H3.28906V12.0648Z" fill="#FFBE1D"/>
<path d="M3.28906 13.7097H8.22456V15.3549H3.28906V13.7097Z" fill="#FFBE1D"/>
<path d="M3.28906 15.3552H8.22456V17.0004H3.28906V15.3552Z" fill="#F4971E"/>
<path d="M2.74219 12.0645H7.67769V13.7096H2.74219V12.0645Z" fill="#F4971E"/>
<path d="M0 12.0645H2.74194V13.7096H0V12.0645Z" fill="#FFBE1D"/>
<path d="M0.546875 13.7097H3.28882V15.3549H0.546875V13.7097Z" fill="#F4971E"/>
<path d="M0 15.3552H3.29033V17.0004H0V15.3552Z" fill="#FFBE1D"/>
<path d="M4.38281 8.77441H4.9312V10.4196H4.38281V8.77441Z" fill="#FCB35B"/>
<path d="M5.48438 8.77441H6.30696V10.4196H5.48438V8.77441Z" fill="#FCB35B"/>
<path d="M5.20312 12.0645H5.75151V13.7096H5.20312V12.0645Z" fill="#FCB35B"/>
<path d="M6.30469 12.0645H6.85308V13.7096H6.30469V12.0645Z" fill="#FCB35B"/>
<path d="M5.75781 15.3552H6.3062V17.0004H5.75781V15.3552Z" fill="#FCB35B"/>
<path d="M4.10938 15.3552H4.65776V17.0004H4.10938V15.3552Z" fill="#FCB35B"/>
<path d="M6.85156 15.3552H7.39995V17.0004H6.85156V15.3552Z" fill="#FCB35B"/>
<path d="M3.83594 12.0645H4.65852V13.7096H3.83594V12.0645Z" fill="#FCB35B"/>
<path d="M6.30469 10.4197H6.85308V12.0648H6.30469V10.4197Z" fill="#FFD877"/>
<path d="M4.9375 10.4197H5.76008V12.0648H4.9375V10.4197Z" fill="#FFD877"/>
<path d="M4.66406 13.7097H5.21245V15.3549H4.66406V13.7097Z" fill="#FFD877"/>
<path d="M5.75781 13.7097H6.5804V15.3549H5.75781V13.7097Z" fill="#FFD877"/>
<path d="M8.22656 10.4197H9.32334V12.0648H8.22656V10.4197Z" fill="#D37E18"/>
<path d="M1.64844 12.0645H2.74522V13.7096H1.64844V12.0645Z" fill="#E2A01E"/>
<path d="M2.19531 15.3552H3.29209V17.0004H2.19531V15.3552Z" fill="#E2A01E"/>
<path d="M2.19531 13.7097H3.29209V15.3549H2.19531V13.7097Z" fill="#D37E18"/>
<path d="M7.67969 12.0645H8.77647V13.7096H7.67969V12.0645Z" fill="#E2A01E"/>
<path d="M8.22656 13.7097H9.32334V15.3549H8.22656V13.7097Z" fill="#D37E18"/>
<path d="M8.22656 15.3552H9.32334V17.0004H8.22656V15.3552Z" fill="#E2A01E"/>
<path d="M11.5169 4.93589H8.77495C8.47197 4.93589 8.22656 4.69048 8.22656 4.3875C8.22656 4.08452 8.47197 3.83911 8.77495 3.83911H11.5169C11.8199 3.83911 12.0653 4.08452 12.0653 4.3875C12.0653 4.69048 11.8199 4.93589 11.5169 4.93589Z" fill="#D39F66"/>
<path d="M11.5169 6.03257H8.77495C8.47197 6.03257 8.22656 5.78716 8.22656 5.48418C8.22656 5.1812 8.47197 4.93579 8.77495 4.93579H11.5169C11.8199 4.93579 12.0653 5.1812 12.0653 5.48418C12.0653 5.78716 11.8199 6.03257 11.5169 6.03257Z" fill="#D39F66"/>
<path d="M11.5187 4.93579H10.4219C10.7249 4.93579 10.9703 5.1812 10.9703 5.48418C10.9703 5.78716 10.7249 6.03257 10.4219 6.03257H11.5187C11.8216 6.03257 12.067 5.78716 12.067 5.48418C12.067 5.18147 11.8216 4.93579 11.5187 4.93579Z" fill="#BA804A"/>
<path d="M8.77495 6.03232H9.32334C9.02036 6.03232 8.77495 5.78692 8.77495 5.48394C8.77495 5.18095 9.02036 4.93555 9.32334 4.93555H8.77495C8.47197 4.93555 8.22656 5.18095 8.22656 5.48394C8.22656 5.78692 8.47197 6.03232 8.77495 6.03232Z" fill="#DCB285"/>
<path d="M8.77495 4.93564H9.87173C9.56874 4.93564 9.32334 4.69024 9.32334 4.38726C9.32334 4.08427 9.56874 3.83887 9.87173 3.83887H8.77495C8.47197 3.83887 8.22656 4.08427 8.22656 4.38726C8.22656 4.69024 8.47197 4.93564 8.77495 4.93564Z" fill="#DCB285"/>
<path d="M8.36115 0.800953C8.70115 1.45902 9.15631 2.54209 9.32083 3.83903H8.77244C7.94985 2.46805 6.30469 1.37128 6.30469 1.37128C6.97098 0.704985 7.99373 0.757082 8.36115 0.800953Z" fill="#673915"/>
<path d="M8.36442 0.801028C8.13135 0.351349 7.95312 0.0963487 7.95312 0.0963487C9.3241 -0.28204 9.3241 0.576189 10.1467 0.576189C10.9693 0.576189 10.9693 -0.28204 12.3402 0.0963487C12.3402 0.0963487 12.162 0.351349 11.9289 0.801028C11.5889 1.4591 11.1338 2.54216 10.9693 3.8391H9.3241C9.15958 2.54216 8.70442 1.4591 8.36442 0.801028Z" fill="#89512B"/>
<path d="M10.1467 1.37108C10.9048 1.37108 10.9668 0.434979 12.0455 0.584415C12.2182 0.271833 12.3402 0.0963487 12.3402 0.0963487C10.9693 -0.28204 10.9693 0.576189 10.1467 0.576189C9.3241 0.576189 9.3241 -0.28204 7.95312 0.0963487C7.95312 0.0963487 8.07514 0.271833 8.24788 0.584415C9.32657 0.434979 9.38853 1.37108 10.1467 1.37108Z" fill="#A06944"/>
<path d="M13.9849 1.37128C13.9849 1.37128 12.3397 2.46805 11.5171 3.83903H10.9688C11.1333 2.54209 11.5884 1.45902 11.9284 0.800953C12.2959 0.757082 13.3186 0.704985 13.9849 1.37128Z" fill="#673915"/>
<path d="M1.09375 10.4197H3.28731V12.0648H1.09375V10.4197Z" fill="#F4971E"/>
<path d="M2.19531 10.4197H3.29209V12.0648H2.19531V10.4197Z" fill="#D37E18"/>
<path d="M14.4313 12.6131C14.6781 12.6131 14.8782 12.413 14.8782 12.1662C14.8782 11.9193 14.6781 11.7192 14.4313 11.7192C14.1845 11.7192 13.9844 11.9193 13.9844 12.1662C13.9844 12.413 14.1845 12.6131 14.4313 12.6131Z" fill="#673915"/>
<path d="M14.5328 14.2584C14.8356 14.2584 15.0812 14.0129 15.0812 13.71C15.0812 13.4071 14.8356 13.1616 14.5328 13.1616C14.2299 13.1616 13.9844 13.4071 13.9844 13.71C13.9844 14.0129 14.2299 14.2584 14.5328 14.2584Z" fill="#673915"/>
<path d="M11.5171 3.83911H10.9688C11.2717 3.83911 11.5171 4.08452 11.5171 4.3875C11.5171 4.69048 11.2717 4.93589 10.9688 4.93589H11.5171C11.8201 4.93589 12.0655 4.69048 12.0655 4.3875C12.0655 4.08479 11.8201 3.83911 11.5171 3.83911Z" fill="#BA804A"/>
<path d="M10.4156 3.83904V2.19387C10.4156 2.04224 10.293 1.91968 10.1414 1.91968C9.98975 1.91968 9.86719 2.04224 9.86719 2.19387V3.83904H10.4156Z" fill="#673915"/>
</svg>
