<svg width="179" height="59" viewBox="0 0 179 59" fill="none" xmlns="http://www.w3.org/2000/svg">
<g clip-path="url(#clip0_12298_24106)">
<path fill-rule="evenodd" clip-rule="evenodd" d="M41.9797 33.6641L34.7567 35.2301L33.1914 42.468L44.0668 53.3626L52.8571 44.5587L41.9797 33.6641Z" fill="#0F2531"/>
<path fill-rule="evenodd" clip-rule="evenodd" d="M15.7582 25.0022L22.9833 23.4362L24.5465 16.1983L13.6711 5.30371L4.88281 14.1056L15.7582 25.0022Z" fill="#0F2531"/>
<path fill-rule="evenodd" clip-rule="evenodd" d="M39.1704 20.1222L36.9102 27.1743L42.3866 32.15L57.2424 28.1625L54.0262 16.1348L39.1704 20.1222Z" fill="#0F2531"/>
<path fill-rule="evenodd" clip-rule="evenodd" d="M18.5701 38.5429L20.8283 31.4908L15.3519 26.5151L0.496094 30.5026L3.71223 42.5304L18.5701 38.5429Z" fill="#0F2531"/>
<path fill-rule="evenodd" clip-rule="evenodd" d="M26.0586 15.7927L31.0234 21.2768L38.0631 19.0146L42.0435 4.13248L30.039 0.910645L26.0586 15.7927Z" fill="#0F2531"/>
<path fill-rule="evenodd" clip-rule="evenodd" d="M31.6823 42.8733L26.7154 37.3872L19.6757 39.6515L15.6953 54.5336L27.7018 57.7554L31.6823 42.8733Z" fill="#0F2531"/>
<path fill-rule="evenodd" clip-rule="evenodd" d="M84.4672 33.5364C84.4672 30.8434 82.7756 29.0977 80.4358 29.0977C78.1307 29.0977 76.4737 30.8434 76.4737 33.5364C76.4737 36.2641 78.1307 38.0466 80.4358 38.0466C82.7756 38.0466 84.4672 36.2641 84.4672 33.5364ZM79.3189 23.5687C81.408 23.5687 83.2443 24.2588 84.1452 25.3879H84.2878C84.2878 25.2429 84.2511 24.9796 84.2511 23.9322V15.8184H90.447V43.0998H84.6853V42.52C84.6816 42.1064 84.7054 41.6931 84.7566 41.2827H84.6119C83.4237 42.8467 81.408 43.6817 79.0295 43.6817C73.8812 43.6817 70.1719 39.6085 70.1719 33.6426C70.1719 27.6399 74.0606 23.5667 79.3189 23.5667V23.5687Z" fill="#0F2531"/>
<path fill-rule="evenodd" clip-rule="evenodd" d="M107.548 33.537C107.548 30.844 106.035 29.0616 103.693 29.0616C101.352 29.0616 99.8394 30.8419 99.8394 33.537C99.8394 36.3015 101.354 38.1207 103.693 38.1207C106.033 38.1207 107.548 36.3015 107.548 33.537ZM93.5742 33.6452C93.5742 27.7528 97.787 23.5693 103.693 23.5693C109.6 23.5693 113.813 27.7528 113.813 33.6452C113.813 39.5029 109.6 43.6864 103.693 43.6864C97.787 43.6864 93.5742 39.5009 93.5742 33.6432V33.6452Z" fill="#0F2531"/>
<path fill-rule="evenodd" clip-rule="evenodd" d="M126.38 24.1499V29.7156H123.21V43.1032H116.945V24.1499H126.38Z" fill="#0F2531"/>
<path fill-rule="evenodd" clip-rule="evenodd" d="M142.044 33.537C142.044 30.844 140.531 29.0616 138.19 29.0616C135.848 29.0616 134.338 30.8419 134.338 33.537C134.338 36.3015 135.85 38.1207 138.19 38.1207C140.529 38.1207 142.044 36.3015 142.044 33.537ZM128.07 33.6452C128.07 27.7528 132.285 23.5693 138.19 23.5693C144.094 23.5693 148.311 27.7528 148.311 33.6452C148.311 39.5029 144.096 43.6864 138.19 43.6864C132.283 43.6864 128.07 39.5009 128.07 33.6432V33.6452Z" fill="#0F2531"/>
<path fill-rule="evenodd" clip-rule="evenodd" d="M151.438 15.8184H157.705V30.9883C157.919 31.0199 158.136 31.0322 158.353 31.0251C160.695 31.0251 162.244 29.3917 162.244 26.223C162.244 25.7125 162.244 25.2409 162.207 24.1486H168.15C168.227 24.8735 168.263 25.6022 168.258 26.3312C168.258 29.4223 167.357 32.734 164.589 34.6246L169.373 43.1019H162.39L158.826 36.2989H158.322C158.118 36.3028 157.913 36.2905 157.711 36.2621V43.0998H151.438V15.8184Z" fill="#0F2531"/>
<path fill-rule="evenodd" clip-rule="evenodd" d="M172.04 43.1025V24.1452H178.305V43.0985L172.04 43.1025ZM171.5 18.6203C171.503 17.8955 171.72 17.1877 172.124 16.5865C172.528 15.9854 173.101 15.5178 173.771 15.2431C174.44 14.9683 175.176 14.8988 175.885 15.0431C176.594 15.1875 177.244 15.5394 177.753 16.0541C178.263 16.5689 178.608 17.2235 178.746 17.935C178.884 18.6465 178.808 19.383 178.528 20.0512C178.247 20.7195 177.775 21.2894 177.172 21.6888C176.568 22.0883 175.86 22.2994 175.136 22.2954C174.656 22.2957 174.18 22.2006 173.737 22.0156C173.293 21.8306 172.891 21.5594 172.553 21.2176C172.215 20.8758 171.948 20.4703 171.767 20.0245C171.586 19.5787 171.496 19.1014 171.5 18.6203Z" fill="#0F2531"/>
</g>
<defs>
<clipPath id="clip0_12298_24106">
<rect width="178.667" height="58.6667" fill="white" transform="translate(0.335938)"/>
</clipPath>
</defs>
</svg>
