<svg width="116" height="58" viewBox="0 0 116 58" fill="none" xmlns="http://www.w3.org/2000/svg">
<path d="M98.5511 49.1189V48.5993C99.0778 48.4543 99.268 48.329 99.268 47.7443V35.4425C99.268 34.8625 99.094 34.6909 98.5511 34.5876V34.0726H106.591C113.35 34.0726 115.407 37.9145 115.407 41.5511C115.407 45.2318 113.481 49.1178 106.387 49.1178L98.5511 49.1189ZM102.596 46.6006H106.511C110.526 46.6006 111.971 44.3966 111.971 41.5523C111.971 38.1001 109.942 36.5213 106.511 36.5213H102.596V46.6006ZM92.7362 49.1189V48.5993C93.3602 48.4717 93.6293 48.097 93.2953 47.4149L92.648 45.7526H84.5931L83.9865 47.4149C83.6512 48.097 83.8577 48.4717 84.4829 48.5993V49.1189H79.2978V48.5993C79.6343 48.4774 79.939 48.2813 80.1893 48.0254C80.4395 47.7696 80.6288 47.4606 80.7432 47.1214L85.5107 35.7302C85.7195 35.2732 85.7647 34.8173 84.904 34.5876V34.0726H92.3406V34.5876C91.4126 34.8196 91.5205 35.3207 91.7339 35.7766L96.4794 47.1214C96.7996 47.7443 97.1487 48.4079 97.9247 48.5993V49.1189H92.7362ZM85.4689 43.4651H91.7722L89.0915 36.6489H88.1276L85.4689 43.4651ZM62.6928 49.1189V48.5993C63.2217 48.4543 63.4096 48.329 63.4096 47.7443V35.4425C63.4096 34.8625 63.2414 34.6909 62.6928 34.5876V34.0726H70.7326C77.4964 34.0726 79.5484 37.9145 79.5484 41.5511C79.5484 45.2318 77.6182 49.1178 70.5261 49.1178L62.6928 49.1189ZM66.7353 46.6006H70.6467C74.6649 46.6006 76.1091 44.3966 76.1091 41.5523C76.1091 38.1001 74.0826 36.5213 70.6467 36.5213H66.7376L66.7353 46.6006ZM56.8755 49.1189V48.5993C57.4995 48.4717 57.7768 48.097 57.4415 47.4149L56.7943 45.7526H48.7359L48.1292 47.4149C47.7917 48.097 48.0028 48.4717 48.6327 48.5993V49.1189H43.4371V48.5993C43.7745 48.479 44.0801 48.2834 44.3305 48.0273C44.581 47.7712 44.7698 47.4614 44.8825 47.1214L49.6604 35.7291C49.8669 35.272 49.9075 34.8161 49.0537 34.5865V34.0714H56.4776V34.5865C55.5612 34.8185 55.6656 35.3196 55.8709 35.7755L60.6268 47.1203C60.9389 47.7432 61.2915 48.4067 62.0722 48.5981V49.1178L56.8755 49.1189ZM49.6152 43.4651H55.9162L53.2343 36.6489H52.275L49.6152 43.4651ZM104.794 27.1938C104.416 26.9607 103.983 26.8339 103.539 26.8267C103.095 26.8196 102.657 26.9324 102.272 27.1532C101.287 27.731 100.156 28.0113 99.0149 27.9603C97.874 27.9092 96.7722 27.529 95.8426 26.8655C95.3461 26.5175 95.0306 26.7031 94.5434 26.8817C90.5716 28.3491 86.6289 28.9964 83.0492 25.9108C82.6038 25.5245 82.3265 25.6626 81.9345 25.9108C79.2213 27.6149 76.1879 27.9037 73.0734 27.9327C71.7069 27.9501 71.6362 27.13 71.6663 26.1475C71.6942 25.2009 71.4796 24.1082 73.0328 24.1662C74.7048 24.2173 76.3755 24.0286 77.994 23.6059C80.9067 22.8612 81.7059 21.5086 80.9172 18.6098C80.304 16.7794 79.5105 15.0145 78.5485 13.3411C78.2167 12.6659 77.0254 11.8574 78.1158 11.0895C78.772 10.8102 79.5009 10.751 80.1936 10.9208C80.8862 11.0906 81.5051 11.4803 81.9577 12.0314C83.1311 14.3824 84.0589 16.848 84.7265 19.3893C84.8298 19.8104 84.9226 20.2268 85.0316 20.6433C85.9097 23.9817 88.0696 25.1081 91.3952 23.9991C91.8304 23.8539 92.22 23.5972 92.5252 23.2547C92.8305 22.9123 93.0408 22.4958 93.1352 22.0469C93.3882 20.9472 93.4564 19.8131 93.337 18.691C93.2918 17.415 93.5563 16.7341 95.0944 16.719C96.6325 16.7039 97.0803 17.3083 97.0176 18.7049C96.9696 19.8283 97.0178 20.9537 97.1615 22.0689C97.1624 22.3414 97.2172 22.611 97.3229 22.8622C97.4285 23.1133 97.5828 23.3411 97.7769 23.5323C97.9711 23.7235 98.2011 23.8744 98.4538 23.9762C98.7066 24.078 98.977 24.1288 99.2494 24.1256C99.795 24.1473 100.329 23.9636 100.746 23.6107C101.162 23.2578 101.431 22.7614 101.5 22.2197C101.777 20.9065 101.866 19.5607 101.767 18.2223C101.719 16.9347 102.436 16.7445 103.507 16.7491C104.577 16.7538 105.473 16.7781 105.422 18.2107C105.388 19.1737 105.412 20.1378 105.492 21.098C105.664 23.07 106.652 24.0908 108.367 24.1476C110.107 24.2056 111.168 23.3055 111.383 21.2778C111.53 19.5701 111.563 17.8545 111.481 16.1425C111.447 14.8595 111.982 14.4686 113.221 14.4906C114.372 14.515 115.288 14.5823 115.177 16.0775C115.127 16.8234 115.167 17.5855 115.177 18.3256C115.212 19.5576 115.142 20.7904 114.971 22.0109C114.341 25.8319 111.731 28.1125 108.493 28.1125C107.206 28.0955 105.94 27.7811 104.794 27.1938ZM64.3538 26.0605C64.4165 21.9935 64.377 17.9219 64.377 13.8503C64.377 9.8367 64.4176 5.81614 64.3596 1.80254C64.3434 0.503345 64.7564 0.0173048 66.1135 0.00106483C67.5055 -0.0116952 68.0495 0.410545 68.0391 1.81994C68.0035 9.9121 68.0035 18.0004 68.0391 26.0848C68.0391 27.4351 67.6192 27.9663 66.1738 27.9663C64.7065 27.9663 64.3353 27.4119 64.3538 26.0605ZM48.5573 27.8747C47.1224 27.8005 47.6664 26.5291 47.5933 25.7264C47.5226 24.9527 47.6038 24.2184 48.7139 24.1673C50.1058 24.1093 51.5083 24.0223 52.8898 23.8263C57.0738 23.2463 58.1097 20.9971 55.8733 17.4672C54.3609 15.2961 52.7399 13.2027 51.0164 11.1951C53.6148 10.658 55.5728 10.8714 56.9323 13.2158C57.8383 14.7818 59.0203 16.1912 59.8647 17.814C60.6427 19.0912 60.8947 20.6205 60.5675 22.0797C60.2404 23.539 59.3596 24.8143 58.1108 25.6371C55.7197 27.2502 52.8724 28.0499 49.991 27.9176C49.5166 27.9153 49.0387 27.9002 48.5573 27.8747Z" fill="#780E2F"/>
<path d="M42.775 35.5246C42.2694 34.1214 41.5735 32.7944 40.7068 31.5807C39.7881 30.3868 38.6719 29.3589 37.4066 28.5415C36.198 27.7102 34.9364 26.9587 33.6298 26.2921C32.2576 25.6394 30.8351 25.0983 29.3761 24.6739C27.6532 24.1473 26.3281 23.7657 25.4009 23.5291C24.7699 23.369 23.9962 23.1881 23.0809 22.9897L22.958 27.1715L10.1333 19.3102L23.4069 12.2039L23.2619 17.1397C25.5155 17.2801 27.7508 17.6339 29.9376 18.1965C32.2801 18.6898 34.524 19.5699 36.5773 20.8007L41.6661 9.20068C35.6076 5.69506 28.7134 3.89457 21.7145 3.99002C16.6038 3.81764 11.5602 5.19232 7.24377 7.93405C5.34228 9.17446 3.79859 10.891 2.76622 12.913C1.73386 14.9351 1.24878 17.1921 1.35921 19.4597C1.33176 21.5338 1.73792 23.5908 2.55167 25.4987C3.26019 27.1886 4.30119 28.7189 5.61284 29.9984C7.01147 31.2884 8.592 32.3659 10.3038 33.1965C12.0406 34.0839 13.8493 34.8231 15.7104 35.4063C17.0753 35.8239 18.6158 36.2407 20.3318 36.6568L20.5522 33.0608L33.1287 41.3187L19.6381 48.005L19.9049 43.6528C18.0781 43.5653 16.2627 43.3165 14.4797 42.9092C12.7121 42.5437 10.9821 42.0151 9.31201 41.3304C8.14585 40.8037 6.68814 40.0404 4.9389 39.0405L0.00899506 50.7241C0.11494 50.7766 0.790821 51.1846 2.03664 51.9479C3.32084 52.7323 4.648 53.4442 6.01188 54.08C8.07164 54.9384 10.2175 55.5734 12.4126 55.9742C15.4736 56.6001 18.5914 56.905 21.7156 56.8837C25.2628 56.9167 28.7924 56.3837 32.1717 55.3049C35.3324 54.2829 38.1517 52.4122 40.3217 49.897C42.5629 47.3048 43.7541 43.9683 43.6612 40.5428C43.6719 38.8302 43.3716 37.1299 42.775 35.5246Z" fill="url(#paint0_linear_2035_8669)"/>
<defs>
<linearGradient id="paint0_linear_2035_8669" x1="36.1136" y1="8.68454" x2="14.1378" y2="32.0818" gradientUnits="userSpaceOnUse">
<stop stop-color="#FFB900"/>
<stop offset="1" stop-color="#780E2F"/>
</linearGradient>
</defs>
</svg>
